<?xml version="1.0" encoding="UTF-8"?>
<svg width="43px" height="34px" viewBox="0 0 43 34" version="1.1" xmlns="http://www.w3.org/2000/svg" xmlns:xlink="http://www.w3.org/1999/xlink">
    <!-- Generator: Sketch 51.3 (57544) - http://www.bohemiancoding.com/sketch -->
    <title>Icon/mail bk 1</title>
    <desc>Created with Sketch.</desc>
    <defs></defs>
    <g id="GG" stroke="none" stroke-width="1" fill="none" fill-rule="evenodd" opacity="0.400000006">
        <g id="[GG-1-a]メッセージ一覧-no-massage" transform="translate(-167.000000, -259.000000)" fill="#222222">
            <g id="Icon/mail-bk" transform="translate(163.000000, 254.000000)">
                <path d="M41.40273,36.3794706 L9.05547816,36.3794706 C7.39020041,36.3794706 6.03591916,35.0251894 6.03591916,33.3599116 L6.03591916,15.4721887 L21.6056333,25.6103129 C22.6236043,26.2738926 23.7898412,26.6065865 24.9560781,26.6065865 C26.1205068,26.6065865 27.2867437,26.2738926 28.3029066,25.6103129 L44.4204808,15.1159893 L44.4204808,33.3599116 C44.4204808,35.0251894 43.0661996,36.3794706 41.40273,36.3794706 M9.05547816,7.53092939 L41.40273,7.53092939 C43.0661996,7.53092939 44.4204808,8.88521064 44.4204808,10.5504884 L44.4204808,12.9932574 C44.377086,13.0131467 44.3282668,13.018571 44.28668,13.0456928 L27.3156736,24.095109 C25.8818351,25.0317148 24.0267048,25.0299066 22.5928663,24.095109 L6.03591916,13.3132945 L6.03591916,10.5504884 C6.03591916,8.88521064 7.39020041,7.53092939 9.05547816,7.53092939 M41.40273,5.72281023 L9.05547816,5.72281023 C6.39392676,5.72281023 4.2278,7.88893698 4.2278,10.5504884 L4.2278,33.3599116 C4.2278,36.0232711 6.39392676,38.1875898 9.05547816,38.1875898 L41.40273,38.1875898 C44.0642814,38.1875898 46.2286,36.0232711 46.2286,33.3599116 L46.2286,10.5504884 C46.2286,7.88893698 44.0642814,5.72281023 41.40273,5.72281023" id="Fill-1"></path>
            </g>
        </g>
    </g>
</svg>