<?xml version="1.0" encoding="utf-8"?>
<!-- Generator: Adobe Illustrator 22.1.0, SVG Export Plug-In . SVG Version: 6.00 Build 0)  -->
<svg version="1.1" id="Layer_1" xmlns="http://www.w3.org/2000/svg" xmlns:xlink="http://www.w3.org/1999/xlink" x="0px" y="0px"
	 viewBox="0 0 512 512" style="enable-background:new 0 0 512 512;" xml:space="preserve">
<style type="text/css">
	.st0{fill:#DFE5EF;}
	.st1{fill:#EFF2FA;}
	.st2{fill:#E4EAF6;}
	.st3{fill:#FFFFFF;}
	.st4{fill:#FFFAE6;}
	.st5{fill:#FAF0CD;}
	.st6{fill:#F5E6B9;}
</style>
<path class="st0" d="M85.1,494.7c-18.7-5.4-18.7-5.4-8.2-41.9L118.2,311c3.2-10.9,16.9-18.1,28.2-19.1c8.4-0.7,16.5-2.8,24.1-6.2
	L78,258.8c4.6,6.9,10.3,13,17,18.1c9,6.8,17.4,20.2,14.2,31.1L68,450c-12.1,36.4-12.1,36.1-30.8,30.7"/>
<path class="st1" d="M100.7,509.1l-84.8-24.7c-4.7-1.4-7.4-2.3-6-6.9l0,0c1.4-4.7,8.3-2.4,12.9-1l80.8,23.7c4.7,1.4,9.4,2.3,8,6.9
	l0,0C110.3,511.7,105.4,510.4,100.7,509.1z"/>
<path class="st2" d="M43.8,487.9c1.4-4.7,6.3-3.4,10.9-2L20.8,476c-4.7-1.4-9.6-2.7-10.9,2c-1.4,4.7,1.3,5.6,6,6.9l33.9,9.9
	C45.1,493.4,42.4,492.5,43.8,487.9z"/>
<path class="st1" d="M119.3,289.2L119.3,289.2c-41.4-12-64-56.5-49.4-97L136.2,7.8c1.6-4.4,6.3-6.8,10.8-5.5l102.7,30.3
	c4.5,1.3,7.1,5.9,6.1,10.4L213,233.9C203.6,275.9,160.7,301.3,119.3,289.2z"/>
<path class="st2" d="M116.8,205.9l56.6-186.5c1.3-4.1,8.1-6.4,10.4-6.2L147,2.4c-4.5-1.3-9.2,1.1-10.8,5.5L69.9,192.3
	c-14.6,40.5,8.1,85,49.4,97c2.9,0.8,5.8,1.5,8.7,1.9C109.7,281.1,104.4,243.9,116.8,205.9z"/>
<path class="st3" d="M218.6,181.1l13.1-58.4c-8.4-0.8-9.4-5.1-19.5-5.1c-11.2,0-11.2,5.3-22.4,5.3c-11.2,0-11.2-5.3-22.4-5.3
	c-11.2,0-11.2,5.3-22.3,5.3c-11.2,0-11.2-5.3-22.3-5.3c-10.7,0-11.3,4.8-21.1,5.2l-21,58.3L218.6,181.1L218.6,181.1z"/>
<path class="st4" d="M124.9,117c-11.3,0-12.6,4.6-23,5l-21.4,59.4h41.1l19.8-59C135.6,120.9,134,117,124.9,117z"/>
<path class="st5" d="M207.2,232l17.8-79.4c-3.4-1.5-6.2-3.4-12.8-3.4c-11.2,0-11.2,5.3-22.4,5.3c-11.2,0-11.2-5.3-22.4-5.3
	c-11.2,0-11.2,5.3-22.3,5.3c-11.2,0-11.2-5.3-22.3-5.3c-11.2,0-11.2,5.3-22.3,5.3c-4.5,0-7.2-0.9-9.5-1.9l-14.8,41.2
	c-6.5,18-5.2,37.2,3.4,54.2c8.7,17,23.5,29.3,41.8,34.6c18.3,5.3,37.5,2.9,53.9-6.8C191.7,266.2,203.1,250.6,207.2,232z"/>
<path class="st6" d="M124.9,149.2c-11.8,0-11.8,5.4-23.6,5.4c-4.7,0-7.6-0.9-10-1.9l-15.6,41.8c-6.8,18.2-5.5,37.7,3.6,54.9
	c6.7,12.6,16.9,22.6,29.4,29.2c-5.3-20.1-4-47.2,5.4-74.8l18.2-53.6C130.4,149.6,128.1,149.2,124.9,149.2z"/>
<g>
	<circle class="st3" cx="167.7" cy="196.3" r="8.8"/>
	<circle class="st3" cx="176.5" cy="116.8" r="8.8"/>
	<circle class="st3" cx="211.8" cy="72.7" r="8.8"/>
</g>
<g>
	<circle class="st1" cx="132.3" cy="90.3" r="8.8"/>
</g>
<g>
	<circle class="st5" cx="105.8" cy="196.3" r="8.8"/>
</g>
<circle class="st3" cx="141.2" cy="231.7" r="8.8"/>
<path class="st0" d="M468.1,482.3c-18.8,5.2-18.8,5.2-28.9-31.4l-39.2-142.5c-3-10.9,4.9-24.3,14.1-31c6.8-5,12.6-11.1,17.3-17.9
	l-92.9,25.5c7.5,3.5,15.6,5.7,24,6.5c11.3,1.1,25.4,8.1,28.4,19l39.2,142.5c8.8,37.3,8.7,37.1-10.1,42.3"/>
<path class="st1" d="M488.9,486.4l-85.2,23.4c-4.7,1.3-7.5,1.9-8.8-2.8l0,0c-1.3-4.7,5.8-6.4,10.5-7.6l81.2-22.2
	c4.7-1.3,9.2-3,10.5,1.7l0,0C498.5,483.6,493.6,485.1,488.9,486.4z"/>
<path class="st2" d="M429.3,498.1c-1.3-4.7,3.6-6.2,8.3-7.5l-34.1,9.4c-4.7,1.3-9.6,2.7-8.3,7.5c1.3,4.7,4.1,4.1,8.8,2.8l34.1-9.4
	C433.4,502.2,430.6,502.8,429.3,498.1z"/>
<path class="st1" d="M389.7,289.4L389.7,289.4c-41.5,11.4-84.1-14.6-92.9-56.7L256.7,40.8c-1-4.6,1.8-9.1,6.3-10.3L366.4,2.6
	c4.5-1.2,9.1,1.3,10.7,5.7l63.5,184.9C454.5,233.9,431.2,278,389.7,289.4z"/>
<path class="st2" d="M343.9,219.7L294.5,31.2c-1-4.2,3.6-9.7,5.6-10.7l-37.1,10c-4.5,1.2-7.3,5.8-6.3,10.3l40.1,191.8
	c8.8,42.2,51.4,68.2,92.9,56.7c2.9-0.8,5.7-1.8,8.5-2.9C377.2,287.4,353.2,258.6,343.9,219.7z"/>
<path class="st3" d="M417.6,145.2l-19.4-56.6c-7.6,3.7-10.7,0.6-19.3,5.9c-9.5,5.9-6.8,10.4-16.3,16.2c-9.5,5.9-12.3,1.3-21.8,7.2
	c-9.5,5.9-6.7,10.4-16.3,16.2c-9.5,5.8-12.3,1.3-21.8,7.2c-9.1,5.6-7.1,10-15.2,15.5l12.7,60.7L417.6,145.2L417.6,145.2z"/>
<path class="st4" d="M304.2,139.7c-9.6,5.9-8.3,10.5-16.9,16.3l12.9,61.8l35-21.5l-14.1-60.6C315.4,137.5,312,134.9,304.2,139.7z"/>
<path class="st5" d="M434.6,194.6l-26.4-76.9c-3.7,0.5-7,0.3-12.7,3.8c-9.5,5.9-6.8,10.4-16.3,16.2c-9.5,5.9-12.3,1.3-21.8,7.2
	c-9.5,5.9-6.7,10.4-16.3,16.2c-9.5,5.8-12.3,1.3-21.8,7.2c-9.5,5.9-6.7,10.4-16.3,16.2c-3.8,2.4-6.6,3-9.1,3.4l9,42.9
	c3.9,18.7,15,34.4,31.3,44.4c16.3,9.9,35.4,12.6,53.8,7.6c18.4-5.1,33.4-17.1,42.3-34C439.3,231.9,440.8,212.6,434.6,194.6z"/>
<path class="st6" d="M321.1,167.1c-10,6.2-7.2,10.7-17.3,16.9c-4,2.5-6.9,3.2-9.5,3.6l8.6,43.8c3.7,19.1,15,35,31.8,44.9
	c12.3,7.2,26.2,10.4,40.3,9.5c-15-14.3-28.1-38.1-34.6-66.5l-12.5-55.2C326,164.6,323.8,165.5,321.1,167.1z"/>
<g>
	<circle class="st3" cx="382.2" cy="184.9" r="8.8"/>
	<circle class="st3" cx="348.1" cy="112.6" r="8.8"/>
	<circle class="st3" cx="355.1" cy="56.4" r="8.8"/>
</g>
<g>
	<circle class="st1" cx="296.6" cy="113.1" r="8.8"/>
</g>
<g>
	<circle class="st5" cx="329.5" cy="217.3" r="8.8"/>
</g>
<circle class="st3" cx="378.1" cy="228.9" r="8.8"/>
</svg>
