<?xml version="1.0" encoding="UTF-8"?>
<svg width="100px" height="100px" viewBox="0 0 100 100" version="1.1" xmlns="http://www.w3.org/2000/svg" xmlns:xlink="http://www.w3.org/1999/xlink">
    <!-- Generator: Sketch 51.3 (57544) - http://www.bohemiancoding.com/sketch -->
    <title>`Icon/user no image 1</title>
    <desc>Created with Sketch.</desc>
    <defs>
        <polygon id="path-1" points="99.9216599 0.0783805668 99.9216599 100 4.048583e-05 100 4.048583e-05 0.0783805668 99.9216599 0.0783805668"></polygon>
    </defs>
    <g id="Web-SP用" stroke="none" stroke-width="1" fill="none" fill-rule="evenodd">
        <g id="[web-GE-1]TOP(マイページmypage)-" transform="translate(-138.000000, -165.000000)">
            <g id="Icon/user-no-image-men" transform="translate(138.000000, 165.000000)">
                <g id="user-no-image" stroke-width="1">
                    <g id="Group-3">
                        <mask id="mask-2" fill="white">
                            <use xlink:href="#path-1"></use>
                        </mask>
                        <g id="Clip-2"></g>
                        <path d="M99.9217004,50.0391093 C99.9217004,77.6318219 77.5534818,100.00004 49.9607692,100.00004 C22.3682591,100.00004 4.048583e-05,77.6318219 4.048583e-05,50.0391093 C4.048583e-05,22.4465992 22.3682591,0.0783805668 49.9607692,0.0783805668 C77.5534818,0.0783805668 99.9217004,22.4465992 99.9217004,50.0391093" id="Fill-1" fill="#E8E6E6" mask="url(#mask-2)"></path>
                    </g>
                </g>
                <path d="M55.9830535,83.2976239 L52.6839352,79.8926426 L58.5882041,72.8381071 L60.3016786,73.7697435 L55.9830535,83.2976239 Z M49.6436164,85.441873 L47.5303312,83.9102067 L49.868523,81.4966974 L51.8761543,83.5689764 L49.6436164,85.441873 Z M39.4357858,73.7697435 L41.1488418,72.8381071 L47.0531108,79.8926426 L43.7542017,83.2976239 L39.4357858,73.7697435 Z M32.0730759,36.9444783 C33.8468044,36.710157 36.7306301,36.2716415 40.0611307,35.5435717 C47.4269788,33.9334497 53.1532054,31.7670238 57.0805977,29.1041297 C57.2778878,28.9702318 57.5511232,28.9748345 57.7592926,29.1158457 C60.3995914,30.902964 65.6701468,34.0273874 67.3970111,35.0445929 L67.3970111,49.7953276 C67.3970111,56.2908394 63.8533199,62.6882292 57.0975441,65.8164185 C45.1375342,71.3616738 32.0730759,62.2616389 32.0730759,49.5216738 L32.0730759,36.9444783 Z M49.868523,78.3670436 L43.1658879,70.3582765 C43.1665155,70.0998954 43.1671432,69.8233126 43.1652602,69.5264359 C47.2654644,70.8970063 51.8868243,70.9903164 56.2500124,69.560538 C56.2475018,70.0220673 56.2493847,70.4097435 56.2504308,70.7415592 L49.868523,78.3670436 Z M28.9348443,46.2865754 C25.1459527,45.1603687 25.1474172,40.9754322 28.9348443,39.8498532 L28.9348443,46.2865754 Z M70.5356612,39.8494347 C74.3337583,40.9785705 74.3151381,45.1628793 70.5356612,46.286157 L70.5356612,39.8494347 Z M82.5,88 C82.5,83.7798854 81.5,76.5 76.5,74.850132 C75.4998227,74.5200999 71.6394818,73.7115816 62.6461468,71.4725579 L59.3878256,69.7005032 L59.3878256,68.2374596 C66.0404582,64.7592529 70.5352427,57.7950985 70.5352427,49.7955368 L70.5352427,49.5057734 C75.6340322,48.5636763 78.0682539,43.527233 75.4674968,39.720558 C75.5082938,38.4366029 75.7436611,30.6332853 75.6275466,24.6785954 C75.4898828,17.6380774 71.6325777,14.844842 68.4207023,13.7412306 C66.8620472,13.2058482 65.1171904,12.9430736 63.2344607,12.9648321 C62.590914,12.9717362 62.0802191,12.9978881 61.6714121,13.0382667 C60.46131,11.9957461 57.5094893,9.7774348 53.2128318,8.66419944 C43.8847521,6.24671501 35.6950137,10.8873227 30.466929,15.2053202 C29.7986949,15.7572306 29.7043387,16.7461919 30.256249,17.4144261 C30.8079502,18.082451 31.7969116,18.1770164 32.4651457,17.625106 C39.1985354,12.0637411 45.8668592,10.059248 52.2847521,11.6662318 C56.2684233,12.663771 58.9507745,14.8188993 59.772782,15.5482243 C59.9093997,15.7593227 60.4295092,16.4271384 61.4404383,16.2415643 C61.9201693,16.1670836 66.7222913,15.506172 69.7745354,17.9979279 C71.5166724,19.4203837 72.4303162,21.6886975 72.4897334,24.7398955 C72.5734196,29.0147947 72.4725777,34.2686128 72.3960049,37.3051657 L72.0865752,37.0775393 C71.5949189,36.8823413 71.0758554,36.7310786 70.5352427,36.6310736 C70.4220572,36.0620076 71.0775291,34.132832 68.9721942,32.3580574 C68.8541966,32.1176689 68.6677857,31.9074074 68.4198654,31.7607473 C66.2841942,30.4962492 61.8871132,27.8676664 59.6357459,26.3437411 C58.2829588,25.4282143 56.542914,25.4244485 55.2020522,26.3336988 C48.9619925,30.5642442 38.4968269,32.599492 33.1888219,33.4012056 C28.9348443,33.2940873 28.9348443,34.5320151 28.9348443,34.5320151 L28.9348443,36.6312828 C28.3735193,36.7350537 27.8354172,36.8938482 27.3272329,37.0997162 C27.342924,28.5687473 27.0460473,27.2563389 28.1205778,24.0216589 C28.3900473,23.2101122 28.0044632,22.2929117 27.2031681,21.9935244 C26.3677708,21.6815842 25.4461768,22.1255394 25.1652005,22.9644933 C24.2002989,25.8447623 24.1892104,28.1521994 24.1892104,28.2490661 L24.1892104,39.4625954 C21.2683537,43.3314073 23.7661768,48.5509142 28.9350535,49.5061919 C28.9628792,49.6382068 28.5231083,58.1963737 35.49333,64.8492155 C36.8756164,66.1685281 38.4003785,67.2692105 40.0266102,68.1466601 L40.0266102,69.8760349 L37.3262665,71.3445181 C35.6950137,72 28.1951233,73.3391582 23.8475616,74.6695791 C19.7177094,75.9333776 17.255014,79.6060847 16.3902915,87.0187436 C16.3902915,87.1373549 19,89.5 19,89 C19.2819577,85.8861768 20.5,79.5 24.7013699,77.6889764 L36.4534196,74.7915517 L41.8478306,86.6929813 C42.0620672,87.1662267 42.4966077,87.5026451 43.0083486,87.5913524 C43.0978928,87.6070436 43.1876463,87.6145753 43.2769813,87.6145753 C43.6979227,87.6145753 44.1056836,87.4449016 44.4038156,87.1373549 L45.3245728,86.1870984 L48.7933648,88.7012403 C49.0686923,88.9010411 49.391721,89 49.7139128,89 C50.0733449,89 50.4319402,88.8767721 50.7225404,88.6330361 L54.0655939,85.8287123 L55.3334395,87.1373549 C55.6313623,87.4449016 56.0393324,87.6145753 56.4602739,87.6145753 C56.5496089,87.6145753 56.6393623,87.6070436 56.7289065,87.5913524 C57.2406475,87.5026451 57.675188,87.1662267 57.8894246,86.6929813 L63.2574744,74.850132 L74.5,77.6889764 C76.6367173,78.5002092 79.3044435,79.2003337 80,89.5 C80,89.5 80.8333333,89 82.5,88 Z" id="Fill-1" fill="#999999"></path>
            </g>
        </g>
    </g>
</svg>