<?xml version="1.0" encoding="utf-8"?>
<!-- Generator: Adobe Illustrator 22.1.0, SVG Export Plug-In . SVG Version: 6.00 Build 0)  -->
<svg version="1.1" id="レイヤー_1" xmlns="http://www.w3.org/2000/svg" xmlns:xlink="http://www.w3.org/1999/xlink" x="0px"
	 y="0px" viewBox="0 0 208.8 49.7" style="enable-background:new 0 0 208.8 49.7;" xml:space="preserve">
<style type="text/css">
	.st0{fill:#FFFFFF;}
</style>
<g>
	<path class="st0" d="M34.7,7.4v5.9c0.1,0.6-0.5,0.9-1,0.6c-3.5-2.6-7-3.9-10.7-3.9c-4.5,0-8.3,1.6-11.4,4.9
		C8.4,18.1,6.9,22,6.9,26.7c0,4.6,1.5,8.5,4.7,11.7c3.1,3.2,6.9,4.8,11.4,4.8c2.3,0,4.3-0.4,6-1.1c0.9-0.4,1.9-0.9,2.8-1.5
		c0.6-0.4,1.2-0.9,1.9-1.4c0.5-0.4,1.2,0,2.1,0.6v6c-0.9,0.3-1,0.5-1.3,0.7c-3.7,2-7.5,3-11.6,3c-6.3,0-11.6-2.2-16.1-6.6
		c-4.4-4.4-6.6-9.8-6.6-16c0-5.6,1.9-10.6,5.6-15c4.6-5.4,10.5-8,17.7-8c3.8,0,7.5,1,11.1,3C34.7,6.9,34.9,7.1,34.7,7.4z"/>
	<path class="st0" d="M49.5,0.5l5.5,0c0.4,0,0.7,0.3,0.7,0.7l0,21.9c2.2-2,4.7-3.1,7.4-3.1c3.1,0,5.5,1,7.3,3
		c1.6,1.8,2.3,4.6,2.3,8.4l0,16.2c0,0.4-0.3,0.7-0.7,0.7l-5.5,0c-0.4,0-0.7-0.3-0.7-0.7l0-15.7c0-2.2-0.4-3.8-1.2-4.8
		c-0.8-1-2-1.5-3.8-1.5c-2.2,0-3.8,0.7-4.7,2.1c-0.9,1.4-1.3,3.8-1.3,7.2l0,12.7c0,0.4-0.3,0.7-0.7,0.7l-4.5,0
		c-0.4,0-0.7-0.3-0.7-0.7l0-46.5C48.8,0.9,49.1,0.5,49.5,0.5z"/>
	<path class="st0" d="M110.8,36.5l-19.1,0c0.2,2.3,0.9,4.1,2.2,5.4c1.3,1.3,3,2,5,2c1.6,0,2.9-0.4,4-1.1c0.9-0.7,2-1.9,3.1-3.6
		c0.2-0.3,0.6-0.4,1-0.2l4.1,2.3c0.4,0.2,0.5,0.7,0.3,1c-0.7,1.1-1.5,2.1-2.3,3c-0.9,1-1.9,1.8-3,2.5c-1.1,0.7-2.2,1.1-3.4,1.4
		c-1.2,0.3-2.6,0.5-4,0.5c-4.1,0-7.5-1.3-10-4C86.2,43,84.9,39.4,85,35c0-4.4,1.2-7.9,3.7-10.6c2.5-2.7,5.7-4,9.7-4
		c4.1,0,7.3,1.3,9.7,3.9c2.4,2.6,3.5,6.2,3.5,10.7l0,0.8C111.5,36.2,111.2,36.5,110.8,36.5z M104.9,30.5c-0.9-3.4-3-5.1-6.5-5.1
		c-0.8,0-1.5,0.1-2.2,0.4s-1.3,0.6-1.9,1c-0.6,0.4-1,1-1.4,1.6c-0.4,0.6-0.7,1.3-0.9,2.1L104.9,30.5z"/>
	<path class="st0" d="M148.8,36.5l-19.1,0c0.2,2.3,0.9,4.1,2.2,5.4c1.3,1.3,3,2,5,2c1.6,0,2.9-0.4,4-1.1c0.9-0.7,2-1.9,3.1-3.6
		c0.2-0.3,0.6-0.4,1-0.2l4.1,2.3c0.4,0.2,0.5,0.7,0.3,1c-0.7,1.1-1.5,2.1-2.2,3c-0.9,1-1.9,1.8-3,2.5c-1.1,0.7-2.2,1.1-3.4,1.4
		c-1.2,0.3-2.6,0.5-4,0.5c-4.1,0-7.5-1.3-10-4c-2.5-2.7-3.8-6.2-3.7-10.7c0-4.4,1.2-7.9,3.7-10.6c2.5-2.7,5.7-4,9.7-4
		c4.1,0,7.3,1.3,9.7,3.9c2.4,2.6,3.5,6.2,3.5,10.7l0,0.8C149.5,36.2,149.2,36.5,148.8,36.5z M142.9,31.5c-0.9-3.4-3-5.1-6.5-5.1
		c-0.8,0-1.5,0.1-2.2,0.4c-0.7,0.2-1.3,0.6-1.9,1c-0.6,0.4-1,1-1.4,1.6c-0.4,0.6-0.7,1.3-0.9,2.1L142.9,31.5z"/>
	<path class="st0" d="M164.5,20.5h4.4c0,0,0.7,0.8-0.2,1.2v1.7c2.1-1.2,3.1-2.1,4-2.5c0.9-0.5,2-0.7,3.3-0.7c1.5,0,3.1,0.4,4.7,1.3
		c0.3,0.2,0.5,0.6,0.3,1l-2.3,4.5c-0.2,0.4-0.7,0.5-1,0.3c-1-0.6-1.9-0.9-2.9-0.9c-3.5,0-5.1,7.9-5.1,7.9l0,13.5
		c0,0.4-0.3,0.7-0.7,0.7l-4.5,0c-0.4,0-0.7-0.3-0.7-0.7l0-26.5C163.8,20.9,164.1,20.5,164.5,20.5z"/>
	<path class="st0" d="M206.2,26.1c-1,0.5-3,1.6-4,2.1c-0.3,0.2-0.8,0.1-1-0.3c-0.8-1.3-1.7-1.9-2.8-1.9c-0.6,0-1.1,0.2-1.5,0.6
		c-0.4,0.4-0.6,0.9-0.6,1.5c0,1.1,1.2,2.1,3.7,3.2c3.4,1.5,5.7,2.8,6.9,4c1.2,1.2,1.8,2.9,1.8,5c0,2.7-1,4.9-3,6.7
		c-1.9,1.7-4.2,2.6-6.9,2.6c-4.4,0-7.6-2-9.6-6.1c-0.2-0.4,0-0.8,0.3-1l4.2-1.9c0.3-0.2,0.8,0,0.9,0.3c0.6,1,1.1,1.7,1.4,2
		c0.8,0.7,1.7,1.1,2.8,1.1c2.2,0,3.2-1,3.2-3c0-1.1-0.8-2.2-2.5-3.2l-0.1,0c-0.6-0.3-1.3-0.6-1.9-0.9c-0.6-0.3-1.3-0.6-2-0.9
		c-1.9-0.9-3.2-1.8-3.9-2.7c-1-1.2-1.5-2.6-1.4-4.5c0-2.4,0.8-4.4,2.5-6c1.7-1.6,3.7-2.4,6.2-2.4c3.3,0,5.9,1.6,7.6,4.9
		C206.7,25.4,206.6,25.9,206.2,26.1z"/>
</g>
</svg>
