<svg xmlns="http://www.w3.org/2000/svg" width="23.938" height="24" viewBox="0 0 23.938 24">
  <metadata><?xpacket begin="﻿" id="W5M0MpCehiHzreSzNTczkc9d"?>
<x:xmpmeta xmlns:x="adobe:ns:meta/" x:xmptk="Adobe XMP Core 5.6-c140 79.160451, 2017/05/06-01:08:21        ">
   <rdf:RDF xmlns:rdf="http://www.w3.org/1999/02/22-rdf-syntax-ns#">
      <rdf:Description rdf:about=""/>
   </rdf:RDF>
</x:xmpmeta>
                                                                                                    
                                                                                                    
                                                                                                    
                                                                                                    
                                                                                                    
                                                                                                    
                                                                                                    
                                                                                                    
                                                                                                    
                                                                                                    
                                                                                                    
                                                                                                    
                                                                                                    
                                                                                                    
                                                                                                    
                                                                                                    
                                                                                                    
                                                                                                    
                                                                                                    
                                                                                                    
                           
<?xpacket end="w"?></metadata>
<defs>
    <style>
      .cls-1 {
        fill: #fff;
        fill-rule: evenodd;
      }
    </style>
  </defs>
  <path id="シェイプ_1" data-name="シェイプ 1" class="cls-1" d="M966.63,780.32a4.324,4.324,0,0,0-3.173-1.32H948.49a4.5,4.5,0,0,0-4.49,4.5v15a4.5,4.5,0,0,0,4.49,4.5h14.967a4.5,4.5,0,0,0,4.49-4.5v-15A4.339,4.339,0,0,0,966.63,780.32Zm-4.311,7.914a3.988,3.988,0,0,1,.016.422,9.472,9.472,0,0,1-1.551,5.164,9.855,9.855,0,0,1-1.879,2.141,8.427,8.427,0,0,1-2.619,1.484,9.518,9.518,0,0,1-3.274.555,9.171,9.171,0,0,1-5.02-1.469,6.307,6.307,0,0,0,.779.047,6.455,6.455,0,0,0,4.069-1.406,3.1,3.1,0,0,1-1.894-.657,3.329,3.329,0,0,1-1.161-1.625,4.346,4.346,0,0,0,.608.063,3.056,3.056,0,0,0,.795-0.125,3.272,3.272,0,0,1-1.918-1.133,3.119,3.119,0,0,1-.78-2.085v-0.032a3.857,3.857,0,0,0,1.56.406,3.1,3.1,0,0,1-1.419-2.734,3.247,3.247,0,0,1,.452-1.656,9.372,9.372,0,0,0,6.766,3.438,3.031,3.031,0,0,1-.078-0.751A3.279,3.279,0,0,1,959.045,785a3.108,3.108,0,0,1,2.386,1.032,6.534,6.534,0,0,0,2.089-.8,3.191,3.191,0,0,1-1.45,1.829,6.923,6.923,0,0,0,1.887-.532A6.377,6.377,0,0,1,962.319,788.234Z" transform="translate(-944 -779)"/>
</svg>
