<?xml version="1.0" encoding="utf-8"?>
<!-- Generator: Adobe Illustrator 22.1.0, SVG Export Plug-In . SVG Version: 6.00 Build 0)  -->
<svg version="1.1" id="レイヤー_1" xmlns="http://www.w3.org/2000/svg" xmlns:xlink="http://www.w3.org/1999/xlink" x="0px"
	 y="0px" viewBox="0 0 34 24" style="enable-background:new 0 0 34 24;" xml:space="preserve">
<style type="text/css">
	.st0{fill:#FFFFFF;}
	.st1{display:none;enable-background:new    ;}
	.st2{display:inline;fill:#FFFFFF;}
</style>
<path class="st0" d="M16.6,12.3c0,3.5-0.7,6.3-2.1,8.4c-1.4,2.1-3.3,3.1-5.7,3.1c-2.6,0-4.6-1-6-3.1c-1.4-2.1-2.2-5-2.2-8.8
	c0-3.5,0.7-6.3,2.2-8.4c1.5-2.1,3.4-3.1,5.9-3.1c2.5,0,4.4,1,5.8,3.1C15.9,5.7,16.6,8.6,16.6,12.3z M10.5,12.3c0-4.4-0.7-6.5-2-6.5
	c-1.3,0-2,2-2,5.9c0,4.7,0.6,7,1.9,7c0.7,0,1.2-0.5,1.5-1.5S10.5,14.4,10.5,12.3z"/>
<path class="st0" d="M33.1,23.5H17.6l6.2-8.2c0.7-0.9,1.3-1.8,1.8-2.5c0.5-0.7,0.9-1.4,1.1-2c0.5-1.1,0.8-2.2,0.8-3.3
	c0-0.6-0.1-1.1-0.4-1.5c-0.3-0.4-0.6-0.5-1-0.5c-1,0-1.5,0.9-1.5,2.8c0,0.1,0,0.2,0,0.4s0,0.3,0,0.5h-5.9l0-0.8
	c0-2.3,0.7-4.1,2.1-5.6c1.4-1.5,3.2-2.2,5.4-2.2c2.1,0,3.9,0.7,5.2,2.1c1.4,1.4,2,3.1,2,5.3c0,1.8-0.5,3.5-1.4,5.1
	c-0.5,0.8-1.1,1.7-1.8,2.6c-0.7,0.9-1.7,1.9-2.7,2.9c0.9-0.1,1.8-0.1,2.8-0.1c0.9,0,1.9,0,2.9,0V23.5z"/>
<g class="st1">
	<path class="st2" d="M16.3,12.3c0,3.5-0.7,6.3-2.1,8.4c-1.4,2.1-3.3,3.1-5.7,3.1c-2.6,0-4.6-1-6-3.1c-1.4-2.1-2.2-5-2.2-8.8
		c0-3.5,0.7-6.3,2.2-8.4c1.5-2.1,3.4-3.1,5.9-3.1c2.5,0,4.4,1,5.8,3.1C15.6,5.7,16.3,8.6,16.3,12.3z M10.2,12.3c0-4.4-0.7-6.5-2-6.5
		c-1.3,0-2,2-2,5.9c0,4.7,0.6,7,1.9,7c0.7,0,1.2-0.5,1.5-1.5S10.2,14.4,10.2,12.3z"/>
	<path class="st2" d="M18.6,16.8h6c0,1.4,0.5,2,1.5,2c0.5,0,0.9-0.2,1.2-0.6s0.5-0.9,0.5-1.5c0-1.6-0.8-2.4-2.5-2.4
		c-0.1,0-0.3,0-0.4,0c-0.2,0-0.4,0-0.6,0.1V9.6c0.2,0,0.3,0,0.4,0c0.1,0,0.2,0,0.3,0c1.7,0,2.5-0.8,2.5-2.3c0-1.2-0.4-1.9-1.3-1.9
		C25.5,5.5,25.1,6,25,7l0,0.3h-5.9c0.2-2.1,0.9-3.8,2.2-5c1.3-1.2,3-1.9,5.1-1.9c2,0,3.7,0.6,5,1.9c1.4,1.3,2,2.8,2,4.7
		c0,2.1-0.9,3.7-2.7,4.8c2,1.2,3,2.9,3,5.2c0,2-0.7,3.7-2.2,4.9c-1.4,1.3-3.3,1.9-5.5,1.9c-2.2,0-4-0.6-5.4-1.9
		c-1.4-1.2-2.1-2.9-2.1-4.8V16.8z"/>
</g>
<g class="st1">
	<path class="st2" d="M18.8,12.3c0,3.5-0.7,6.3-2.1,8.4c-1.4,2.1-3.3,3.1-5.7,3.1c-2.6,0-4.6-1-6-3.1c-1.4-2.1-2.2-5-2.2-8.8
		c0-3.5,0.7-6.3,2.2-8.4c1.5-2.1,3.4-3.1,5.9-3.1c2.5,0,4.4,1,5.8,3.1C18.1,5.7,18.8,8.6,18.8,12.3z M12.8,12.3c0-4.4-0.7-6.5-2-6.5
		c-1.3,0-2,2-2,5.9c0,4.7,0.6,7,1.9,7c0.7,0,1.2-0.5,1.5-1.5S12.8,14.4,12.8,12.3z"/>
	<path class="st2" d="M30.8,23.5h-6.1V6.2h-2.4V0.8h8.5V23.5z"/>
</g>
</svg>
