<?xml version="1.0" encoding="utf-8"?>
<!-- Generator: Adobe Illustrator 22.1.0, SVG Export Plug-In . SVG Version: 6.00 Build 0)  -->
<svg version="1.1" id="レイヤー_1" xmlns="http://www.w3.org/2000/svg" xmlns:xlink="http://www.w3.org/1999/xlink" x="0px"
	 y="0px" viewBox="0 0 43.3 35" style="enable-background:new 0 0 43.3 35;" xml:space="preserve">
<style type="text/css">
	.st0{enable-background:new    ;}
	.st1{fill:#FFFFFF;}
</style>
<g class="st0">
	<path class="st1" d="M21,14.8c0,2-0.3,4.1-0.9,6.2c-0.6,2.1-1.4,3.8-2.3,5c-1.6,2.1-3.6,3.1-6,3.1c-2.4,0-4.2-0.9-5.6-2.8
		c-1.4-1.9-2-4.5-2-7.7c0-4,0.9-7.4,2.7-10.1c1.8-2.7,4.1-4.1,6.7-4.1c2.3,0,4,0.9,5.4,2.8S21,11.6,21,14.8z M17.5,14.6
		c0-2.2-0.3-3.9-1-5.2c-0.7-1.3-1.7-1.9-2.9-1.9c-1.7,0-3.1,1.1-4.2,3.3c-1.1,2.2-1.7,4.9-1.7,8.1c0,2.2,0.4,3.9,1.1,5.1
		c0.7,1.2,1.7,1.8,2.9,1.8c1.6,0,2.9-0.9,3.9-2.6c0.6-1,1-2.3,1.4-3.9C17.3,17.7,17.5,16.1,17.5,14.6z"/>
	<path class="st1" d="M36.5,24.3L36,28.7h-3.6l0.6-4.5H21.8L39.3,2.1l-2.3,19.1h2.2l-0.4,3.1H36.5z M33.4,21.2l1-8.5l-6.5,8.5H33.4z
		"/>
	<path class="st1" d="M2.4,33.1v-2.5h39v2.5H2.4z"/>
</g>
</svg>
