<?xml version="1.0" encoding="utf-8"?>
<!-- Generator: Adobe Illustrator 22.1.0, SVG Export Plug-In . SVG Version: 6.00 Build 0)  -->
<svg version="1.1" id="レイヤー_1" xmlns="http://www.w3.org/2000/svg" xmlns:xlink="http://www.w3.org/1999/xlink" x="0px"
	 y="0px" viewBox="0 0 43.3 33" style="enable-background:new 0 0 43.3 33;" xml:space="preserve">
<style type="text/css">
	.st0{enable-background:new    ;}
	.st1{fill:#FFFFFF;}
</style>
<g class="st0">
	<path class="st1" d="M20.9,12.8c0,2-0.3,4.1-0.9,6.2c-0.6,2.1-1.4,3.8-2.3,5c-1.6,2.1-3.6,3.1-6,3.1c-2.4,0-4.2-0.9-5.6-2.8
		c-1.4-1.9-2-4.5-2-7.7c0-4,0.9-7.4,2.7-10.1c1.8-2.7,4.1-4.1,6.7-4.1c2.3,0,4,0.9,5.4,2.8S20.9,9.6,20.9,12.8z M17.4,12.6
		c0-2.2-0.3-3.9-1-5.2c-0.7-1.3-1.7-1.9-2.9-1.9c-1.7,0-3.1,1.1-4.2,3.3c-1.1,2.2-1.7,4.9-1.7,8.1c0,2.2,0.4,3.9,1.1,5.1
		c0.7,1.2,1.7,1.8,2.9,1.8c1.6,0,2.9-0.9,3.9-2.6c0.6-1,1-2.3,1.4-3.9C17.2,15.7,17.4,14.1,17.4,12.6z"/>
	<path class="st1" d="M23.5,20.7h3.3c0.2,1,0.6,1.8,1.3,2.3c0.7,0.5,1.6,0.8,2.7,0.8c1.3,0,2.4-0.4,3.2-1.2c0.8-0.8,1.2-1.8,1.2-3.1
		c0-2.5-1.6-3.7-4.8-3.7l0.4-3.2h0.9c1.2,0,2.2-0.3,2.8-1c0.7-0.7,1-1.7,1-3c0-1-0.3-1.7-0.8-2.3c-0.6-0.6-1.3-0.8-2.3-0.8
		c-2.2,0-3.4,1.3-3.6,3.9h-3.1c0.3-4.8,2.7-7.1,7.1-7.1c1.9,0,3.4,0.6,4.6,1.7c1.1,1.1,1.7,2.6,1.7,4.5c0,1.4-0.3,2.6-0.9,3.5
		s-1.6,1.7-3,2.3c2.4,1,3.6,2.8,3.6,5.5c0,2.2-0.7,4-2.2,5.3c-1.5,1.3-3.4,2-5.7,2c-1,0-2-0.1-2.8-0.4c-0.8-0.3-1.6-0.7-2.2-1.2
		c-0.6-0.5-1.1-1.2-1.5-2C23.8,22.7,23.6,21.8,23.5,20.7z"/>
	<path class="st1" d="M2.2,31.1v-2.5h39.3v2.5H2.2z"/>
</g>
</svg>
