<?xml version="1.0" encoding="utf-8"?>
<!-- Generator: Adobe Illustrator 22.1.0, SVG Export Plug-In . SVG Version: 6.00 Build 0)  -->
<svg version="1.1" id="レイヤー_1" xmlns="http://www.w3.org/2000/svg" xmlns:xlink="http://www.w3.org/1999/xlink" x="0px"
	 y="0px" viewBox="0 0 43.3 33" style="enable-background:new 0 0 43.3 33;" xml:space="preserve">
<style type="text/css">
	.st0{enable-background:new    ;}
	.st1{fill:#FFFFFF;}
</style>
<g class="st0">
	<path class="st1" d="M21.8,12.6c0,2-0.3,4.1-0.9,6.2c-0.6,2.1-1.4,3.8-2.3,5c-1.6,2.1-3.6,3.1-6,3.1c-2.4,0-4.2-0.9-5.6-2.8
		c-1.4-1.9-2-4.5-2-7.7c0-4,0.9-7.4,2.7-10.1c1.8-2.7,4.1-4.1,6.7-4.1c2.3,0,4,0.9,5.4,2.8S21.8,9.4,21.8,12.6z M18.4,12.4
		c0-2.2-0.3-3.9-1-5.2c-0.7-1.3-1.7-1.9-2.9-1.9c-1.7,0-3.1,1.1-4.2,3.3c-1.1,2.2-1.7,4.9-1.7,8.1c0,2.2,0.4,3.9,1.1,5.1
		c0.7,1.2,1.7,1.8,2.9,1.8c1.6,0,2.9-0.9,3.9-2.6c0.6-1,1-2.3,1.4-3.9C18.2,15.5,18.4,13.9,18.4,12.4z"/>
	<path class="st1" d="M34.2,2.5l-3,24h-3.6l2.6-20.7h-4.7l1.6-3.3H34.2z"/>
	<path class="st1" d="M3.2,30.9v-2.5h36.9v2.5H3.2z"/>
</g>
</svg>
