<?xml version="1.0" encoding="utf-8"?>
<!-- Generator: Adobe Illustrator 22.1.0, SVG Export Plug-In . SVG Version: 6.00 Build 0)  -->
<svg version="1.1" id="_01" xmlns="http://www.w3.org/2000/svg" xmlns:xlink="http://www.w3.org/1999/xlink" x="0px" y="0px"
	 viewBox="0 0 101 101" style="enable-background:new 0 0 101 101;" xml:space="preserve">
<style type="text/css">
	.st0{fill:#24C2C8;}
	.st1{enable-background:new    ;}
	.st2{fill:#FFFFFF;}
</style>
<path id="長方形_626_のコピー_8" class="st0" d="M50.5,0L101,50.5L50.5,101L0,50.5L50.5,0z"/>
<g class="st1">
	<path class="st2" d="M32.4,53.2h-5.1l-4.2-18.4h5.2l0.9,5.3c0.3,2,0.6,4.3,0.8,6.7c0.1-1.1,0.2-2.1,0.3-3.1c0.1-1,0.3-1.9,0.5-2.8
		l1.2-6.1h5.4L32.4,53.2z"/>
	<path class="st2" d="M49.2,46.9c0,2-0.5,3.6-1.6,4.7s-2.6,1.8-4.4,1.8c-1.8,0-3.3-0.6-4.3-1.8c-1.1-1.2-1.6-2.8-1.6-4.9
		s0.5-3.7,1.6-4.9c1.1-1.2,2.5-1.9,4.3-1.9c1.9,0,3.4,0.6,4.4,1.8C48.7,43.1,49.2,44.8,49.2,46.9z M44.6,46.8c0-0.5,0-0.9-0.1-1.3
		c-0.1-0.4-0.2-0.7-0.3-1S44,44,43.8,43.9c-0.2-0.2-0.4-0.2-0.6-0.2c-0.4,0-0.7,0.3-1,0.9c-0.2,0.5-0.4,1.3-0.4,2.3
		c0,1,0.1,1.7,0.4,2.3c0.2,0.6,0.6,0.9,1,0.9c0.4,0,0.7-0.3,1-0.8C44.5,48.4,44.6,47.6,44.6,46.8z"/>
	<path class="st2" d="M56.3,36.3c0,0.8-0.3,1.4-0.8,2c-0.6,0.5-1.2,0.8-2,0.8c-0.8,0-1.4-0.3-2-0.8c-0.5-0.6-0.8-1.2-0.8-2
		c0-0.8,0.3-1.4,0.8-2c0.6-0.5,1.2-0.8,2-0.8c0.8,0,1.4,0.3,2,0.8C56,34.9,56.3,35.5,56.3,36.3z M55.9,53.2h-4.8V40.3h4.8V53.2z"/>
	<path class="st2" d="M64.8,49v4.4c-0.3,0-0.5,0.1-0.8,0.1c-0.2,0-0.4,0-0.5,0c-1.4,0-2.6-0.4-3.6-1.3c-0.7-0.6-1.2-1.4-1.6-2.4
		c-0.4-1-0.6-2-0.6-3.1c0-1.9,0.6-3.5,1.7-4.8c1.2-1.3,2.6-1.9,4.4-1.9c0.1,0,0.2,0,0.4,0c0.2,0,0.3,0,0.6,0v4.2
		c-1.4,0.1-2.1,0.9-2.1,2.3c0,0.7,0.2,1.2,0.5,1.7c0.4,0.5,0.8,0.7,1.3,0.7c0,0,0.1,0,0.1,0C64.7,49,64.7,49,64.8,49z"/>
	<path class="st2" d="M73,48.8l4.7,0.1c-0.3,1.5-1,2.6-1.9,3.4c-1,0.8-2.2,1.1-3.8,1.1c-1.8,0-3.3-0.6-4.3-1.7
		c-1-1.2-1.6-2.7-1.6-4.8c0-2,0.6-3.7,1.7-5c1.1-1.3,2.6-1.9,4.3-1.9c1.8,0,3.2,0.6,4.2,1.9c1,1.3,1.6,2.9,1.6,5l0,0.8h-7
		c0.1,1.3,0.4,2,1.1,2C72.5,49.7,72.9,49.4,73,48.8z M73.1,45.2c0-0.2,0-0.5-0.1-0.7c-0.1-0.2-0.1-0.4-0.2-0.5
		c-0.1-0.1-0.2-0.3-0.4-0.3c-0.1-0.1-0.3-0.1-0.4-0.1c-0.3,0-0.6,0.2-0.8,0.5s-0.3,0.7-0.3,1.2H73.1z"/>
</g>
<g class="st1">
	<path class="st2" d="M52.1,68.6c0,2.9-0.6,5.2-1.7,6.9c-1.1,1.7-2.7,2.5-4.6,2.5c-2.1,0-3.7-0.9-4.9-2.6c-1.2-1.7-1.8-4.1-1.8-7.1
		c0-2.9,0.6-5.2,1.8-6.8c1.2-1.7,2.8-2.5,4.8-2.5c2,0,3.6,0.9,4.7,2.6C51.5,63.2,52.1,65.5,52.1,68.6z M47.2,68.5
		c0-3.5-0.5-5.3-1.6-5.3c-1.1,0-1.6,1.6-1.6,4.8c0,3.8,0.5,5.7,1.6,5.7c0.6,0,1-0.4,1.2-1.2C47.1,71.6,47.2,70.3,47.2,68.5z"/>
	<path class="st2" d="M61.9,77.6h-5V63.6h-2v-4.3h7V77.6z"/>
</g>
</svg>
