<?xml version="1.0" encoding="utf-8"?>
<!-- Generator: Adobe Illustrator 22.1.0, SVG Export Plug-In . SVG Version: 6.00 Build 0)  -->
<svg version="1.1" id="グループ_24" xmlns="http://www.w3.org/2000/svg" xmlns:xlink="http://www.w3.org/1999/xlink" x="0px"
	 y="0px" viewBox="0 0 124 123.4" style="enable-background:new 0 0 124 123.4;" xml:space="preserve">
<style type="text/css">
	.st0{fill:#FFFFFF;}
	.st1{fill:#20B3B9;}
</style>
<path id="楕円形_546" class="st0" d="M60.7,0c31.9,0,57.8,25.9,57.7,57.8c0,8-2.2,16.4-4.5,20.6c-1,1.8,6,17,6,17s-14.7-2.9-16-1
	c-8,11.9-24.5,21.2-43.3,21.2C28.8,115.6,3,89.7,3,57.8S28.8,0,60.7,0z"/>
<g>
	<path class="st1" d="M45.4,26.1c-0.7,0-1.2,0-1.6,0c0.1-0.4,0.1-0.9,0.1-1.7v-6.3c0-0.8,0-1.3-0.1-1.8h2.2
		c-0.1,0.7-0.1,0.9-0.1,1.8v6.2H49c0.8,0,1.2,0,1.8-0.1v1.9c-0.3,0-1-0.1-1.8-0.1H45.4z"/>
	<path class="st1" d="M53.9,16.3c-0.1,0.5-0.1,0.9-0.1,1.7v6.4c0,0.8,0,1.2,0.1,1.7h-2.2c0.1-0.5,0.1-0.9,0.1-1.7V18
		c0-0.8,0-1.1-0.1-1.7H53.9z"/>
	<path class="st1" d="M61.3,21.8c0.3,0.4,0.6,0.9,0.8,1.4c0-0.4-0.1-1.1-0.1-1.5V18c0-0.8,0-1.2-0.1-1.7H64C64,16.8,64,17.3,64,18
		v6.3c0,0.7,0,1.2,0.1,1.7h-2.3c-0.1-0.3-0.4-0.8-0.8-1.4l-2.8-4.1c-0.2-0.4-0.4-0.7-0.8-1.3c0,0.1,0,0.1,0,0.6c0,0.2,0,0.7,0,0.9
		v3.5c0,0.8,0,1.4,0.1,1.8h-2.1c0.1-0.4,0.1-1,0.1-1.8V18c0-0.7,0-1.1-0.1-1.7h2.2c0.1,0.3,0.3,0.7,0.8,1.4L61.3,21.8z"/>
	<path class="st1" d="M72.8,26.1c-0.4-0.1-0.9-0.1-1.7-0.1h-3.8c-0.8,0-1.2,0-1.6,0c0.1-0.5,0.1-0.9,0.1-1.7v-6.5
		c0-0.7,0-1.1-0.1-1.6c0.5,0,0.8,0,1.6,0H71c0.6,0,1.1,0,1.7-0.1v1.9C72.2,18.1,71.8,18,71,18h-3.3v2.1h2.7c0.7,0,1.1,0,1.7-0.1V22
		c-0.5-0.1-0.9-0.1-1.7-0.1h-2.7v2.4h3.4c0.7,0,1.1,0,1.7-0.1V26.1z"/>
	<path class="st1" d="M75,22.8c1.1,0.9,1.9,1.5,2.8,2.7l-1.4,1.4c-0.9-1.2-1.6-1.9-2.7-2.8L75,22.8z"/>
	<path class="st1" d="M31.4,38.3c0,0.9,0,1.3,0.1,1.8h-2.2c0.1-0.4,0.1-1,0.1-1.8v-6.4c0-0.7,0-1.1-0.1-1.6c0.5,0,0.8,0,1.6,0h3.5
		c0.8,0,1.2,0,1.7-0.1v1.9c-0.5-0.1-0.9-0.1-1.7-0.1h-3.1v2.3h2.5c0.8,0,1.2,0,1.7-0.1v1.9c-0.5-0.1-1-0.1-1.7-0.1h-2.5V38.3z"/>
	<path class="st1" d="M41.8,39.4c-0.7,0.6-1.3,0.8-2.3,0.8c-0.9,0-1.5-0.2-1.9-0.6c-0.4-0.4-0.7-0.9-0.7-1.6c0-1.2,0.8-2,2.3-2.3
		c0.7-0.1,1.1-0.2,2.6-0.2V35c0-0.6-0.4-0.9-1.2-0.9c-0.5,0-0.9,0.1-1.1,0.3c-0.2,0.2-0.3,0.3-0.5,0.7l-1.9-0.3
		c0.3-0.7,0.5-1,0.9-1.3c0.6-0.5,1.5-0.7,2.6-0.7c1.2,0,2,0.2,2.5,0.7c0.4,0.4,0.6,0.9,0.6,1.7v3.2c0,0.7,0,1.1,0.1,1.6h-1.9V39.4z
		 M41.8,36.8c-1.1,0-1.6,0.1-2.1,0.3c-0.6,0.2-0.8,0.5-0.8,0.9c0,0.5,0.4,0.8,1,0.8c0.5,0,1.1-0.2,1.5-0.5c0.3-0.3,0.5-0.6,0.5-1
		V36.8z"/>
	<path class="st1" d="M49.9,35.4c-0.1-0.4-0.2-0.5-0.3-0.7c-0.3-0.3-0.7-0.5-1.1-0.5c-1.1,0-1.7,0.9-1.7,2.3c0,1.4,0.7,2.3,1.8,2.3
		c0.5,0,1-0.2,1.3-0.6c0.1-0.2,0.2-0.3,0.2-0.6l1.8,0.3c-0.2,0.5-0.3,0.8-0.5,1.1c-0.6,0.9-1.6,1.3-2.9,1.3c-1.1,0-2-0.3-2.6-1
		c-0.7-0.7-1-1.7-1-2.8c0-1.1,0.4-2.2,1.1-2.8c0.6-0.6,1.5-1,2.6-1c1.3,0,2.3,0.5,2.9,1.4c0.2,0.3,0.3,0.5,0.4,0.9L49.9,35.4z"/>
	<path class="st1" d="M54.5,37c0.1,0.6,0.2,0.9,0.4,1.2c0.3,0.4,0.8,0.6,1.4,0.6c0.8,0,1.4-0.4,1.7-1.1l1.7,0.5
		c-0.3,0.6-0.4,0.9-0.8,1.2c-0.6,0.6-1.5,1-2.6,1c-1.1,0-2-0.3-2.6-0.9c-0.7-0.7-1.1-1.7-1.1-2.9c0-2.3,1.4-3.8,3.6-3.8
		c1.6,0,2.7,0.8,3.2,2.1c0.2,0.6,0.3,1,0.3,1.9c0,0,0,0.1,0,0.3H54.5z M57.8,35.6c-0.1-0.4-0.2-0.6-0.3-0.8
		c-0.3-0.4-0.7-0.6-1.3-0.6c-0.9,0-1.5,0.5-1.7,1.4H57.8z"/>
	<path class="st1" d="M60.8,40.1c0.1-0.5,0.1-1,0.1-1.8V32c0-0.7,0-1.1-0.1-1.7h2c-0.1,0.6-0.1,0.9-0.1,1.7v1.1c0,0.2,0,0.4,0,0.7
		c0.6-0.7,1.4-1,2.5-1c2.1,0,3.3,1.3,3.3,3.6c0,1.2-0.4,2.2-1,2.9c-0.6,0.6-1.4,0.9-2.4,0.9c-1,0-1.7-0.3-2.4-1c0,0.1,0,0.3,0,0.3
		v0.4H60.8z M64.8,34.3c-1.2,0-2,0.9-2,2.2c0,0.6,0.2,1.2,0.5,1.5c0.3,0.4,0.9,0.7,1.5,0.7c1.1,0,1.9-0.9,1.9-2.3
		C66.6,35.1,65.9,34.3,64.8,34.3z"/>
	<path class="st1" d="M69.3,36.5c0-2.3,1.5-3.8,3.8-3.8c2.3,0,3.7,1.5,3.7,3.8s-1.5,3.8-3.8,3.8C70.8,40.3,69.3,38.8,69.3,36.5z
		 M71.2,36.5c0,1.4,0.7,2.3,1.8,2.3s1.8-0.8,1.8-2.2c0-1.4-0.7-2.3-1.8-2.3S71.2,35.1,71.2,36.5z"/>
	<path class="st1" d="M77.6,36.5c0-2.3,1.5-3.8,3.8-3.8c2.3,0,3.7,1.5,3.7,3.8s-1.5,3.8-3.8,3.8C79.1,40.3,77.6,38.8,77.6,36.5z
		 M79.5,36.5c0,1.4,0.7,2.3,1.8,2.3s1.8-0.8,1.8-2.2c0-1.4-0.7-2.3-1.8-2.3S79.5,35.1,79.5,36.5z"/>
	<path class="st1" d="M88.3,30.3c-0.1,0.5-0.1,0.9-0.1,1.7v3.7l1.6-1.6c0.6-0.6,0.8-0.8,1-1.1h2.7c-0.6,0.5-0.6,0.6-1.2,1.1
		l-1.7,1.6l2,2.9c0.6,0.9,0.7,1,1.1,1.5H91c-0.2-0.4-0.4-0.8-0.8-1.5l-1.1-1.7l-0.9,0.9v0.6c0,0.9,0,1.2,0.1,1.6h-2.1
		c0.1-0.5,0.1-0.9,0.1-1.7V32c0-0.8,0-1.2-0.1-1.7H88.3z"/>
	<path class="st1" d="M24.3,53.3v0.8h-1.8c0-0.5,0.1-1,0.1-1.7v-5.9c0-0.9,0-1,0-1.6c0.5,0,0.7,0,1.7,0h5.6c1,0,1.3,0,1.8,0
		c0,0.4,0,0.9,0,1.6v5.8c0,0.9,0,1.3,0.1,1.8h-1.8v-0.8H24.3z M29.7,46.6h-5.5v5.1h5.5V46.6z"/>
	<path class="st1" d="M42.9,46.3c-0.1,0.2-0.2,0.3-0.3,0.8c-0.6,1.9-1.4,3.5-2.5,4.7c-1.1,1.2-2.4,2.2-4.4,3.1
		c-0.4-0.7-0.6-1-1.2-1.5c3.2-1.2,5.1-3.1,6.1-6.2l-3.4,0c-0.7,1.2-1.7,2.2-2.8,3c-0.5-0.6-0.7-0.8-1.4-1.2c1.4-1,2.4-2.1,3.1-3.6
		c0.3-0.6,0.5-1.1,0.6-1.5l1.9,0.4c-0.1,0.1-0.2,0.3-0.3,0.7c-0.1,0.2-0.2,0.3-0.3,0.6l3.1,0c0.1,0,0.3,0,0.4,0
		c-0.2-0.5-0.4-0.8-0.7-1.3l1-0.3c0.4,0.6,0.6,0.9,0.9,1.5l-0.5,0.2L42.9,46.3z M43.4,43.5c0.4,0.5,0.6,1,0.9,1.5l-1,0.4
		c-0.2-0.6-0.5-1.1-0.8-1.6L43.4,43.5z"/>
	<path class="st1" d="M54.1,45.1c-0.3,0.2-0.3,0.2-0.5,0.4c-0.9,0.9-1.8,1.7-2.8,2.4v4.7c0,1,0,1.4,0.1,1.8h-2
		C49,54,49,53.7,49,52.7v-3.6c-1.2,0.7-1.9,1.1-4.1,1.9c-0.3-0.7-0.5-1-1-1.6c2.4-0.7,4.4-1.7,6.3-3.1c1.1-0.8,1.9-1.6,2.2-2.2
		L54.1,45.1z"/>
	<path class="st1" d="M56.7,44.7c1.5,0.9,2.2,1.4,3.2,2.3l-1.2,1.6c-1-1.1-2-1.8-3.2-2.5L56.7,44.7z M55.6,52.2
		c1.1-0.1,2.5-0.4,3.6-0.9c1.5-0.6,2.6-1.5,3.5-2.9c0.5-0.8,0.9-1.5,1.2-2.4c0.6,0.7,0.8,0.9,1.5,1.4c-1.2,2.6-2.6,4.1-4.7,5.3
		c-1,0.5-2.3,1-3.5,1.2c-0.3,0.1-0.3,0.1-0.5,0.1c-0.3,0.1-0.3,0.1-0.6,0.2L55.6,52.2z"/>
	<path class="st1" d="M71.5,51.2c-0.7,1.5-1.5,2.2-2.5,2.2c-1.5,0-2.5-1.5-2.5-3.5c0-1.4,0.5-2.6,1.3-3.6c1-1.1,2.5-1.7,4.2-1.7
		c3,0,4.9,1.8,4.9,4.6c0,2.2-1.1,3.9-3,4.6c-0.6,0.2-1.1,0.3-1.9,0.5c-0.3-0.8-0.4-1.1-0.9-1.7c1.1-0.1,1.8-0.3,2.4-0.6
		c1-0.6,1.7-1.7,1.7-3c0-1.1-0.5-2-1.3-2.5c-0.3-0.2-0.6-0.3-1.1-0.4C72.5,48.2,72.1,49.8,71.5,51.2z M69.6,46.9
		c-0.9,0.7-1.5,1.9-1.5,3.1c0,0.9,0.4,1.6,0.9,1.6c0.3,0,0.7-0.5,1.1-1.4c0.4-1.1,0.8-2.6,1-3.9C70.4,46.3,70,46.5,69.6,46.9z"/>
	<path class="st1" d="M83.7,48.7c-0.5,0.4-0.8,0.7-1.4,1.1c-0.2-0.5-0.3-0.7-0.8-1.1c0.5-0.3,0.7-0.4,1.1-0.7
		c-0.3-0.3-0.3-0.3-0.6-0.6c-0.1,0.1-0.1,0.1-0.2,0.2c-0.1-0.3-0.2-0.4-0.3-0.7c-0.2,0.5-0.2,0.6-0.4,1.1c0.6,0.9,0.9,1.5,0.9,2.5
		c0,1.2-0.5,1.8-1.6,1.8c0,0-0.1,0-0.2,0c0-0.9,0-1.1-0.3-1.5c0.2,0,0.3,0,0.4,0c0.3,0,0.4-0.2,0.4-0.6c0-0.8-0.2-1.5-0.8-2.2
		c0.4-0.8,0.6-1.5,0.8-2.7h-0.8v7.8c0,0.7,0,1.3,0.1,1.6h-1.5c0-0.4,0.1-0.9,0.1-1.6v-8c0-0.6,0-0.9,0-1.2c0.2,0,0.4,0,0.8,0h1.5
		c0.5,0,0.7,0,0.9,0l0.7,0.8c-0.1,0.2-0.1,0.2-0.2,0.4c-0.1,0.3-0.1,0.3-0.2,0.6c0.5-0.5,0.9-1.3,1.2-2c0-0.1,0-0.2,0.1-0.3l1.5,0.2
		c0,0.1-0.1,0.2-0.2,0.5h0.5c0.5,0,0.7,0,1,0c0.1,0.7,0.5,1.6,1.1,2.3c0.3-0.3,0.5-0.7,0.7-1h-0.8c-0.2,0-0.3,0-0.5,0v-1.3
		c0.3,0,0.5,0,0.7,0h0.9c0.4,0,0.6,0,0.8,0l0.7,0.9c-0.1,0.1-0.2,0.3-0.4,0.7c-0.3,0.5-0.7,1.2-1.1,1.6c0.5,0.4,0.9,0.6,1.7,1
		c-0.4,0.6-0.5,0.9-0.7,1.5c-0.7-0.5-1-0.7-1.5-1.1v0.7c-0.2,0-0.3,0-0.7,0h-2.2c-0.2,0-0.4,0-0.6,0V48.7z M83.9,52.1
		c-0.6,1.1-1.1,1.8-2.1,2.6c-0.3-0.5-0.6-0.8-1-1.1c1-0.7,1.4-1.1,1.9-2L83.9,52.1z M86.1,53.4c0,0.7-0.2,1-0.5,1.2
		c-0.3,0.1-0.6,0.1-1.5,0.1c-0.1,0-0.2,0-0.5,0c0-0.6-0.1-1-0.3-1.5c0.7,0.1,0.7,0.1,1,0.1c0.3,0,0.4,0,0.4-0.3v-1.7h-1.6
		c-0.5,0-0.8,0-0.9,0v-1.5c0.2,0,0.6,0,1,0h4.6c0.5,0,0.8,0,1,0v1.5c-0.3,0-0.6-0.1-1.1-0.1h-1.7V53.4z M83.7,46.9
		c-0.2-0.2-0.5-0.4-0.7-0.6c-0.2,0.2-0.2,0.2-0.3,0.4c0.3,0.3,0.4,0.3,0.7,0.6C83.5,47.2,83.6,47.1,83.7,46.9z M83.7,45.4
		c0,0.1-0.1,0.1-0.1,0.2c0.4,0.3,0.5,0.3,0.7,0.5c0.1-0.3,0.2-0.4,0.3-0.7H83.7z M86.6,48.1c-0.5-0.5-0.8-1-1.2-1.7
		c-0.3,0.7-0.6,1.1-1.1,1.7h0.2H86.6z M87.7,51.5c0.5,0.9,0.9,1.2,1.7,1.8c-0.3,0.4-0.5,0.7-0.8,1.3c-1-0.8-1.5-1.3-2.1-2.5
		L87.7,51.5z"/>
	<path class="st1" d="M93.1,44.3c-0.5,1.4-0.9,4.1-0.9,6.7c0.2-0.5,0.2-0.5,0.2-0.6l0.2-0.6l1.1,0.4c-0.6,1.4-1,2.7-1,3.6
		c0,0.1,0,0.2,0,0.3L91,54.3c0-0.2,0-0.3-0.1-0.6c-0.2-1.5-0.3-2.5-0.3-3.7c0-1.5,0.1-2.9,0.5-4.7c0.1-0.7,0.2-0.9,0.2-1.2
		L93.1,44.3z M96.4,49.5c-0.6,0.7-0.8,1.2-0.8,1.7c0,0.6,0.6,0.9,1.7,0.9c1,0,2.1-0.2,2.9-0.5l0.1,1.8c-0.2,0-0.3,0-0.5,0.1
		c-1.1,0.2-1.7,0.2-2.5,0.2c-1.5,0-2.5-0.4-3.1-1.1c-0.2-0.3-0.4-0.8-0.4-1.2c0-0.8,0.4-1.6,1.1-2.6L96.4,49.5z M94.2,45.3
		c0.6,0.2,1.2,0.2,2.3,0.2c1.3,0,2.5-0.1,3.3-0.3l0.1,1.7c-0.1,0-0.1,0-0.3,0c-1,0.1-2.2,0.2-3.2,0.2c-0.8,0-1.2,0-1.9-0.1
		c-0.1,0-0.2,0-0.3,0L94.2,45.3z"/>
	<path class="st1" d="M25.8,67.5c0,0.7,0,1,0.1,1.3h-1.6c0-0.4,0.1-0.8,0.1-1.3v-1c-0.9,0.3-2.1,0.6-2.5,0.7
		c-0.4,0.1-0.7,0.2-0.8,0.2l-0.4-1.6c0.3,0,0.4,0,0.9-0.1v-6.3c-0.3,0-0.4,0-0.7,0V58c0.4,0,0.7,0.1,1.1,0.1h3.6
		c0.5,0,0.8,0,1.2-0.1v0.7c0.3,0,0.5,0,0.8,0h3.1c0.3,0,0.7,0,1-0.1c0,0.2,0,0.4-0.1,0.8c-0.2,2.1-0.7,4.1-1.6,5.8
		c0.7,0.9,1.2,1.3,2.2,2c-0.4,0.5-0.6,1-0.9,1.6c-1-0.7-1.5-1.2-2.2-2.1c-0.7,0.9-1.2,1.4-2.3,2.2c-0.2-0.6-0.4-0.9-0.7-1.5V67.5z
		 M23,60.5h1.4v-1.1H23V60.5z M23,62.9h1.4v-1.1H23V62.9z M23,65.5c0.6-0.1,0.8-0.2,1.4-0.3v-1H23V65.5z M25.8,67.2
		c0.5-0.3,0.6-0.4,0.9-0.7c0.5-0.4,0.9-0.8,1.2-1.2c-0.7-1.2-1.1-2.4-1.6-4.6l1.3-0.6h-0.3c-0.6,0-0.9,0-1.2,0.1v-0.8
		c-0.3,0-0.3,0-0.4,0V67.2z M27.7,60.1c0,0.2,0,0.2,0.2,0.8c0.2,1,0.5,2,0.9,2.8c0.5-1,0.7-2.1,1-3.6H27.7z"/>
	<path class="st1" d="M33.7,65.3c0-0.5,0-0.6,0-1.2c-0.3,0.3-0.4,0.5-0.8,0.7c-0.2-0.7-0.3-1-0.6-1.6c1.1-0.8,2.1-1.9,2.7-3l1.2,0.9
		c-0.2,0.3-0.2,0.3-0.4,0.7c-0.1,0.2-0.1,0.2-0.3,0.5c-0.1,0.1-0.1,0.1-0.2,0.3v4.9c0,0.7,0,1,0.1,1.4h-1.7c0-0.3,0.1-0.7,0.1-1.3
		V65.3z M36.2,58.4c-0.5,0.7-0.7,0.9-1,1.2c-0.6,0.6-1.2,1.1-2,1.5c-0.2-0.6-0.4-0.9-0.8-1.4c1.2-0.6,2.1-1.4,2.5-2.3L36.2,58.4z
		 M36.8,65.6c-0.5,0-0.8,0-1.2,0v-1.4c0.3,0,0.6,0,1.2,0h3.9v-0.5h-3.7c-0.5,0-0.9,0-1.1,0v-1.3c0.3,0,0.5,0,1.2,0h5.4
		c0.6,0,0.9,0,1.2-0.1v1.3c-0.3,0-0.6,0-1.2,0h-0.2v0.5h0.3c0.5,0,0.9,0,1.2,0v1.4c-0.3,0-0.6,0-1.2,0h-0.3v1.9
		c0,0.9-0.4,1.2-1.6,1.2c-0.1,0-0.1,0-0.6,0c-0.3,0-0.3,0-0.6,0c0-0.6-0.1-0.9-0.3-1.3l-0.9,0.8c-0.4-0.7-0.9-1.3-1.5-1.8l1.1-0.8
		H36.8z M37.6,62.2c-0.5,0-0.9,0-1.1,0c0-0.4,0-0.7,0-1.2v-1.9c0-0.5,0-0.7,0-1.1c0.3,0,0.7,0,1.2,0h3.9c0.6,0,1,0,1.3,0
		c0,0.4,0,0.7,0,1.2V61c0,0.5,0,0.9,0,1.2c-0.3,0-0.7,0-1.1,0H37.6z M38,59.6h3.3v-0.5H38V59.6z M38,61.1h3.3v-0.5H38V61.1z
		 M38.1,65.6c0.5,0.4,0.9,0.9,1.3,1.5l-0.2,0.1c0.3,0,0.6,0.1,0.9,0.1c0.4,0,0.5,0,0.5-0.3v-1.4H38.1z"/>
	<path class="st1" d="M47.7,58.2c-0.1,0.7-0.3,3.9-0.3,6c0,1.2,0.1,1.6,0.3,1.9c0.3,0.4,0.8,0.6,1.5,0.6c1.3,0,2.3-0.7,2.8-2
		c0.3-0.6,0.4-1.2,0.5-2.1c0.8,0.6,1,0.8,1.8,1.1c-0.5,1.7-0.9,2.5-1.5,3.2c-0.9,1-2.1,1.5-3.7,1.5c-0.9,0-1.7-0.2-2.2-0.5
		c-0.5-0.3-0.9-0.9-1.1-1.5c-0.1-0.4-0.2-1-0.2-1.7c0-0.5,0-1.3,0-2.9c0-1.7,0-2.4,0-2.7c0-0.4,0-0.6,0-0.9L47.7,58.2z"/>
	<path class="st1" d="M55.7,59.7c0.4,0.1,1,0.1,1.7,0.1c0.1,0,0.1,0,0.4,0c0.1-0.6,0.2-1.4,0.2-1.8c0,0,0-0.1,0-0.2l1.9,0.2
		c-0.1,0.3-0.1,0.3-0.2,1.2c0,0.3-0.1,0.3-0.1,0.6c0.9-0.1,1.4-0.2,2-0.3l0.1,1.6c-0.2,0-0.2,0-0.7,0.1c-0.5,0.1-1.1,0.1-1.7,0.2
		c-0.2,1-0.4,1.8-0.7,3c-0.4,1.3-0.5,1.7-1,3.3c-0.1,0.3-0.2,0.6-0.3,0.8l-1.8-0.7c0.8-1.5,1.7-4.2,2.1-6.3h-0.3l-1.3,0
		c-0.1,0-0.1,0-0.2,0L55.7,59.7z M61.9,64.5c-0.5,0.6-0.6,0.9-0.6,1.3c0,0.6,0.6,0.8,1.7,0.8c0.8,0,2-0.2,2.7-0.5l0.1,1.8
		c-0.2,0-0.3,0-0.6,0.1c-1,0.2-1.6,0.2-2.3,0.2c-1.1,0-1.9-0.2-2.5-0.5c-0.6-0.3-0.9-0.9-0.9-1.6s0.3-1.3,0.9-2.2L61.9,64.5z
		 M65.4,63.1c-0.6-0.1-0.9-0.1-1.5-0.1c-1.3,0-2.1,0.1-3.2,0.3l-0.1-1.6c1.8-0.3,2.4-0.4,3.8-0.4c0.3,0,0.3,0,1.1,0L65.4,63.1z"/>
	<path class="st1" d="M66.7,63.2c0.2-1,0.3-1.8,0.3-2.8c0-0.1,0-0.2,0-0.4l1,0.2c0,1.3-0.1,2.4-0.3,3.4L66.7,63.2z M69.7,67.4
		c0,0.6,0,1,0.1,1.5h-1.6c0-0.4,0.1-1,0.1-1.6V59c0-0.6,0-0.9-0.1-1.3h1.6c-0.1,0.4-0.1,0.7-0.1,1.3v1l0.7-0.3
		c0.3,0.6,0.4,0.8,0.6,1.6c0.2,0,0.3,0,0.6,0h1.7V61h-1.4c-0.4,0-0.6,0-1,0v-1.1c0.3,0,0.5,0,1,0h1.3v-0.4h-1.5
		c-0.7,0-0.9,0-1.2,0.1v-1.2c0.3,0,0.6,0.1,1.3,0.1h1.4c0-0.3,0-0.5-0.1-0.8h1.6c0,0.3-0.1,0.4-0.1,0.8h1.7c0.7,0,0.9,0,1.3-0.1v1.2
		c-0.4,0-0.6-0.1-1.3-0.1h-1.7V60h1.6c0.5,0,0.7,0,0.9,0V61c-0.3,0-0.5,0-1,0h-1.6v0.4h2c0.6,0,0.9,0,1.2-0.1v1.3
		c-0.4,0-0.7-0.1-1.2-0.1h-5.1c-0.6,0-0.9,0-1.2,0.1v-1L70,61.8c-0.1-0.5-0.2-0.8-0.4-1.2V67.4z M72.3,67.4c0,0.6,0,1,0.1,1.4h-1.6
		c0.1-0.4,0.1-0.7,0.1-1.4v-3.5c0-0.4,0-0.7,0-1c0.3,0,0.5,0,0.9,0h4.5c0.5,0,0.8,0,1.1,0c0,0.3,0,0.7,0,1.2v3.4
		c0,1-0.4,1.3-1.7,1.3c-0.3,0-0.3,0-1,0c-0.1-0.5-0.1-0.8-0.3-1.3c0.5,0.1,0.8,0.1,1.1,0.1c0.4,0,0.5,0,0.5-0.3v-0.3h-3.4V67.4z
		 M75.7,64.5V64h-3.4v0.4H75.7z M75.7,65.9v-0.4h-3.4v0.4H75.7z"/>
	<path class="st1" d="M83.1,60.8c0.5,0,0.8,0,1.1-0.1v1.5c-0.2,0-0.3,0-0.6,0c-0.1,0.6-0.2,0.7-0.3,1.2c0.5,0,0.7,0,0.9,0v1.5
		c-0.3,0-0.6-0.1-1.1-0.1h-0.8v0.8H83c0.5,0,0.7,0,1,0v1.5c-0.3,0-0.6-0.1-1-0.1h-0.7v0.7c0,0.5,0,0.9,0.1,1.3h-1.6
		c0.1-0.4,0.1-0.7,0.1-1.3v-0.7h-0.7c-0.5,0-0.7,0-1,0.1v-1.5c0.3,0,0.6,0,1,0h0.7v-0.8H80c-0.5,0-0.8,0-1.1,0.1v-1.5
		c0.3,0,0.5,0,1,0c-0.1-0.4-0.1-0.7-0.3-1.2c-0.3,0-0.5,0-0.8,0v-1.5c0.3,0,0.6,0.1,1.1,0.1h0.9V60h-0.7c-0.4,0-0.7,0-1,0v-1.5
		c0.3,0,0.5,0.1,1,0.1h0.7v-0.2c0-0.3,0-0.7-0.1-0.9h1.5c0,0.3,0,0.5,0,0.9v0.2h0.6c0.5,0,0.7,0,1.1-0.1v1.5c-0.3,0-0.6,0-1.1,0
		h-0.6v0.8H83.1z M81.9,63.3c0.1-0.4,0.2-0.7,0.3-1.2H81c0.1,0.5,0.2,0.7,0.3,1.2H81.9z M89.8,62.6c-0.1,0.2-0.1,0.3-0.1,0.6
		c-0.2,1-0.6,2.2-1,2.9c0.6,0.6,0.8,0.7,1.5,1.2c-0.4,0.6-0.6,1-0.8,1.5c-0.6-0.5-1-0.8-1.5-1.4c-0.4,0.6-0.7,0.9-1.3,1.4
		c-0.2-0.5-0.4-0.7-0.7-1.1c0,0.5,0,0.7,0.1,1.2h-1.6c0.1-0.5,0.1-0.9,0.1-1.5v-8c0-0.4,0-0.9,0-1.2c0.3,0,0.7,0,1.1,0h3
		c0.6,0,0.9,0,1.2-0.1c0,0.4,0,0.4-0.1,0.8c-0.1,2.4-0.3,2.6-1.8,2.6c-0.3,0-0.5,0-1,0c-0.1-0.5-0.2-0.9-0.3-1.3
		c0.5,0.1,0.9,0.1,1.2,0.1c0.3,0,0.3-0.1,0.4-0.8h-2.3v2.4h2.1c0.6,0,0.9,0,1.2-0.1L89.8,62.6z M85.9,67.3c0.5-0.4,0.8-0.7,1.1-1.1
		c-0.5-0.8-0.8-1.6-1.1-2.6V67.3z M87,63.2c0.2,0.6,0.4,1,0.7,1.6c0.2-0.5,0.3-0.9,0.5-1.6H87z"/>
	<path class="st1" d="M93.9,58.3c-0.3,0.5-0.6,2.2-0.8,3.6C93,62.8,93,63.6,93,64.3c0,0.2,0,0.7,0,0.9c0.3-0.6,0.3-0.9,0.5-1.2
		l1,0.4c-0.6,1.3-1.1,2.7-1.1,3.7c0,0,0,0.2,0,0.4l-1.7,0.1c0-0.2,0-0.2,0-0.5c-0.2-1.6-0.3-2.7-0.3-3.9c0-1.1,0.1-2.2,0.2-3.2
		c0-0.4,0-0.4,0.3-1.7c0.1-0.5,0.1-0.8,0.1-1L93.9,58.3z M94.5,60.4c0.5,0.1,1.3,0.2,2.2,0.2c0.3,0,0.6,0,1,0c0-0.9,0-0.9,0-1.7
		c0-0.2,0-0.5,0-0.6h1.8c-0.1,0.4-0.1,0.9-0.1,2.2c0.8-0.1,1.4-0.2,1.9-0.4l0.1,1.6c-0.1,0-0.2,0-0.5,0.1c-0.4,0.1-0.9,0.2-1.5,0.2
		c0,1,0,1.2,0.1,2.8c0.9,0.4,1.2,0.6,1.8,1c0.2,0.1,0.2,0.1,0.3,0.2l-0.7,1.7c-0.3-0.3-0.9-0.8-1.5-1.2c0,0.1,0,0.1,0,0.2
		c0,1.1-1,1.7-2.5,1.7c-1.7,0-2.7-0.8-2.7-2.1c0-1.3,1-2.1,2.6-2.1c0.3,0,0.5,0,0.9,0.1c0-0.4,0-0.9-0.1-2.2c-0.3,0-0.6,0-0.8,0
		c-0.4,0-1.5,0-2-0.1c-0.2,0-0.2,0-0.3,0c0,0,0,0-0.1,0L94.5,60.4z M97,65.7c-0.6,0-1.1,0.3-1.1,0.7c0,0.4,0.4,0.6,0.9,0.6
		c0.7,0,1-0.3,1-0.9c0-0.1,0-0.3,0-0.3C97.5,65.7,97.3,65.7,97,65.7z"/>
	<path class="st1" d="M33.5,78c-0.6-0.1-1.2-0.1-1.9-0.1h-7c-0.7,0-1.3,0-1.9,0.1v-1.8c0.6,0.1,1.1,0.1,1.9,0.1h7
		c0.9,0,1.5,0,1.9-0.1V78z"/>
	<path class="st1" d="M35.4,76.4c-0.4,0.1-0.5,0.1-0.9,0.2l-0.1-1.5c0.3,0,0.5,0,0.9-0.1l0.4-0.1v-2c0-0.6,0-0.9-0.1-1.2h1.7
		c0,0.3,0,0.5,0,1.1v1.8l1.5-0.3c0.3-0.1,0.6-0.1,0.8-0.2l0.1,1.5c-0.2,0-0.5,0.1-0.9,0.1L37.2,76v2.9c0,0.2,0,0.3,0.3,0.3
		c0.3,0,0.5-0.1,0.6-0.2c0.1-0.2,0.1-0.8,0.1-1.8c0.4,0.2,0.9,0.4,1.3,0.5c-0.1,1.2-0.1,1.6-0.3,2c-0.3,0.7-0.9,0.9-2.2,0.9
		c-1.1,0-1.4-0.3-1.4-1.2v-3.1L35.4,76.4z M39.6,73.8c-0.4,0-0.7,0-0.9,0v-1.5c0.4,0,1,0.1,1.7,0.1h3.9c0.6,0,0.9,0,1.3,0
		c0,0.7-0.1,0.8-0.1,3.4c-0.1,3.3-0.4,5.5-0.8,6.2c-0.3,0.5-0.8,0.7-1.8,0.7c-0.3,0-0.9,0-1.2,0c-0.1-0.6-0.1-1-0.4-1.6
		c0.5,0.1,1,0.1,1.2,0.1c0.5,0,0.6-0.1,0.7-0.3c0.2-0.3,0.3-1.2,0.4-2.4c0.1-1.3,0.1-2.1,0.2-4.6h-1.5c-0.1,2.5-0.2,3.7-0.6,4.9
		c-0.3,1-0.8,1.9-1.5,2.8c-0.4,0.5-0.7,0.8-1.4,1.3c-0.4-0.4-0.6-0.6-1.3-1.2c1-0.6,1.6-1.2,2.1-2c0.6-1.1,1-2.3,1.1-4.1
		c0-0.5,0.1-1,0.1-1.8H39.6z"/>
	<path class="st1" d="M53.7,81.8c-1.4,0.4-2.6,0.6-4.7,0.9c-0.2,0-0.4,0.1-0.6,0.1l-0.3-1.6c0.5,0,0.8,0,1.6-0.1v-1.4
		c-0.7,0.5-1.4,0.8-2.4,1.2c-0.3-0.7-0.4-0.9-0.8-1.5c1.4-0.4,2.7-1,3.6-1.8h-2c-0.6,0-1,0-1.4,0.1v-1.5c0.4,0,0.7,0.1,1.4,0.1h3.2
		v-0.6H49c-0.7,0-1,0-1.3,0v-1.3c0.4,0,0.7,0,1.3,0h2.3v-0.6h-2.8c-0.7,0-1,0-1.4,0.1v-1.4c0.4,0,0.8,0.1,1.5,0.1h2.7
		c0-0.4,0-0.7-0.1-0.9h1.7c0,0.3-0.1,0.5-0.1,0.9h2.9c0.7,0,1.1,0,1.5-0.1V74c-0.3,0-0.7-0.1-1.4-0.1h-3v0.6h2.5c0.7,0,1,0,1.4,0
		v1.3c-0.4,0-0.7,0-1.4,0h-2.5v0.6h3.3c0.7,0,1.1,0,1.4-0.1v1.5c-0.4,0-0.9-0.1-1.4-0.1h-2.6c0.2,0.4,0.4,0.8,0.8,1.3
		c0.5-0.4,1-0.9,1.2-1.3l1.4,0.9c-0.1,0.1-0.1,0.1-0.3,0.3c-0.3,0.3-0.8,0.8-1.3,1.2c0.8,0.6,1.4,0.8,2.4,1.2
		c-0.4,0.5-0.7,0.9-0.9,1.5c-1.5-0.6-2.5-1.3-3.3-2.3L53.7,81.8z M51.3,80.9c1.1-0.2,1.1-0.2,2.4-0.5c-0.6-0.7-1.2-1.7-1.5-2.7
		c-0.2,0.3-0.4,0.5-0.8,0.8V80.9z"/>
	<path class="st1" d="M62.4,77.6c-0.6,1.7-1.3,3-2.5,4.3c-0.4-0.5-0.7-0.7-1.3-1.1c1-1,1.9-2.3,2.3-3.8L62.4,77.6z M60.3,76.5
		c-0.7,0-1,0-1.5,0.1v-1.6c0.5,0.1,0.8,0.1,1.5,0.1h7.5c0.7,0,1.1,0,1.5-0.1v1.6c-0.5,0-0.9-0.1-1.5-0.1h-2.9v4.7
		c0,1.2-0.4,1.5-2.1,1.5c-0.5,0-0.7,0-1.2,0c-0.1-0.6-0.2-1-0.4-1.6c0.5,0.1,1.1,0.1,1.5,0.1c0.5,0,0.6,0,0.6-0.3v-4.4H60.3z
		 M68.3,73.8c-0.5,0-1-0.1-1.5-0.1h-5.3c-0.5,0-1,0-1.5,0.1v-1.7c0.5,0,0.9,0.1,1.5,0.1h5.3c0.6,0,1.1,0,1.5-0.1V73.8z M67.4,77.1
		c0.4,1,0.6,1.5,1.2,2.3c0.4,0.6,0.7,0.9,1.2,1.4c-0.7,0.6-0.9,0.8-1.3,1.3c-1.3-1.5-1.8-2.4-2.6-4.3L67.4,77.1z"/>
	<path class="st1" d="M71.8,78.8c1.1,0.9,1.9,1.5,2.8,2.7l-1.4,1.4c-0.9-1.2-1.6-1.9-2.7-2.8L71.8,78.8z"/>
	<path class="st1" d="M78,72.9c0-0.6,0-0.8-0.1-1.2h1.7c-0.1,0.4-0.1,0.6-0.1,1.2v0.9h0.7c0.2,0,0.4,0,0.6,0v1.5c-0.2,0-0.4,0-0.6,0
		h-0.6v1.6c0.4-0.1,0.5-0.2,1-0.3v1.4c-0.6,0.2-0.7,0.2-1,0.3v3.3c0,0.6-0.2,1-0.6,1.1c-0.3,0.1-0.7,0.2-1.2,0.2c-0.2,0-0.4,0-0.8,0
		c0-0.6-0.1-0.9-0.3-1.5c0.5,0.1,0.8,0.1,1.1,0.1c0.3,0,0.3-0.1,0.3-0.4v-2.3c-0.8,0.2-1.2,0.4-1.2,0.4l-0.3-1.6
		c0.4,0,0.4,0,1.5-0.3v-2h-0.5c-0.3,0-0.5,0-0.8,0v-1.5c0.3,0,0.5,0.1,0.9,0.1H78V72.9z M80.8,76.7c0.2,0,0.4,0.1,0.6,0.1
		c-0.3-0.4-0.6-0.6-1.1-1c1-0.6,1.3-1.3,1.3-3.2c0-0.2,0-0.4,0-0.6c0.4,0,0.5,0,0.8,0h1.8c1.1,0,1.2,0,1.6,0c0,0,0,0,0,0
		c0,0,0,0.1,0,0.1c0,0,0,0,0,0.5V74c0,0.7,0,0.7,0.1,0.7c0,0,0.2,0,0.3,0c0.1,0,0.3,0,0.3-0.1c0.1-0.1,0.1-0.3,0.1-1
		c0,0,0-0.1,0-0.6c0.6,0.3,0.9,0.5,1.3,0.6c0,0.1,0,0.2,0,0.3c-0.1,1.1-0.1,1.5-0.4,1.7c-0.2,0.3-0.6,0.4-1.6,0.4
		c-0.6,0-0.9,0-1.1-0.1c-0.4-0.1-0.5-0.4-0.5-1v-1.7H83c0,1.1-0.2,1.8-0.7,2.4c-0.2,0.4-0.5,0.6-0.8,0.8h4c0.3,0,0.5,0,0.7,0
		l0.8,0.9c-0.1,0.1-0.1,0.1-0.3,0.5c-0.6,1-1.1,1.6-1.7,2.3c0.8,0.4,1.5,0.7,2.8,0.9c-0.3,0.5-0.6,0.9-0.8,1.6
		c-1.5-0.4-2.4-0.8-3.3-1.4c-1.1,0.7-1.9,1.1-3.3,1.5c-0.3-0.7-0.4-0.9-0.8-1.5c1.2-0.3,1.9-0.5,2.9-1.1c-0.5-0.5-0.7-0.8-1.3-1.7
		l1.1-0.5h-0.6c-0.4,0-0.6,0-0.9,0V76.7z M82.7,78.1c0.4,0.6,0.6,0.9,1.1,1.3c0.5-0.4,0.7-0.7,1.2-1.3H82.7z"/>
	<path class="st1" d="M92.4,73.1c-0.3,0.1-0.5,0.2-0.9,0.3v1.5h0.4c0.4,0,0.6,0,0.8,0v1.5c-0.3,0-0.5,0-0.8,0h-0.3v0.1
		c0.3,0.6,0.6,1,0.9,1.3c0-0.3,0-0.3,0-0.5c0.3,0,0.6,0,1,0h5c0.6,0,0.8,0,1.1,0c0,0.3,0,0.6,0,1.1v3.3c0,0.6-0.1,0.8-0.3,1
		c-0.2,0.2-0.7,0.3-1.2,0.3c0,0,0,0-0.4,0c-0.1,0-0.3,0-0.3,0c0-0.5-0.1-1-0.3-1.3h-1.3v0.6h-1.2c0-0.3,0-0.4,0-0.7v-1.8
		c0-0.3,0-0.5,0-0.7c0.2,0,0.4,0,0.7,0h1.6c0.4,0,0.6,0,0.8,0c0,0.2,0,0.4,0,0.6v1.4c0,0.3,0,0.4,0,0.5c0.1,0,0.2,0,0.2,0
		c0.2,0,0.3,0,0.3-0.2v-2.7h-4.1v3c0,0.7,0,1.1,0,1.4h-1.5c0-0.4,0.1-0.7,0.1-1.4v-3.1c-0.2,0.4-0.3,0.6-0.4,1
		c-0.2-0.3-0.2-0.3-0.6-1.1c0,0.1,0,0.2,0,0.2c0,0.2,0,0.2,0,1v2c0,0.7,0,1.1,0.1,1.4H90c0-0.4,0.1-0.8,0.1-1.4v-1.6
		c0-0.4,0-0.4,0-0.5c0-0.1,0-0.4,0.1-0.8c-0.3,0.9-0.7,1.7-1.1,2.2c-0.2-0.6-0.3-0.9-0.7-1.5c0.7-0.7,1.3-1.8,1.6-3h-0.5
		c-0.3,0-0.5,0-0.8,0.1v-1.5c0.3,0,0.5,0.1,0.8,0.1h0.6v-1.1c-0.4,0.1-0.5,0.1-1,0.2c-0.1-0.4-0.2-0.7-0.5-1.3
		c1.3-0.2,1.9-0.3,3-0.7c0.2-0.1,0.3-0.1,0.5-0.3l0.5,0.9c0.3,0,0.8,0,1.3,0h1.4v-0.2c0-0.3,0-0.5,0-0.7h1.6c0,0.2-0.1,0.4-0.1,0.7
		v0.2h1.5c0.6,0,1.1,0,1.4-0.1v1.4c-0.4,0-0.9-0.1-1.3-0.1h-4.5c-0.6,0-1,0-1.4,0V73.1z M94.1,76.7c-0.4,0-0.6,0-0.8,0
		c0-0.3,0-0.4,0-0.6v-1.3c0-0.2,0-0.3,0-0.6c0.3,0,0.4,0,0.8,0h3.8c0.3,0,0.6,0,0.8,0c0,0.1,0,0.4,0,0.7V76c0,0.3,0,0.6,0,0.7
		c-0.3,0-0.5,0-0.7,0H94.1z M94.8,75.7h2.5v-0.5h-2.5V75.7z M95.5,80.5h0.9v-0.6h-0.9V80.5z"/>
	<path class="st1" d="M29.5,88c0.3,0,0.8,0.1,1.3,0.1c0.8,0,2.1-0.1,3.1-0.2c-0.2-0.6-0.6-1.6-0.7-1.8l1.8-0.2
		c0.1,0.5,0.2,0.9,0.6,1.8c1.3-0.2,2.3-0.4,3-0.7l0.2,1.7c-0.3,0-0.3,0-0.9,0.2c-0.7,0.2-0.7,0.2-1.6,0.3c0.4,0.8,0.7,1.3,0.8,1.5
		c0.3,0.6,0.9,1.4,1.2,1.9l-1.7,0.7c-0.3-0.3-0.5-0.4-0.8-0.5c-0.5-0.2-1.1-0.3-1.8-0.3c-1.5,0-2.4,0.4-2.4,1.2
		c0,0.3,0.1,0.5,0.3,0.7c0.3,0.3,1.1,0.4,2.1,0.4c1.3,0,2.7-0.3,3.7-0.8l0.2,1.8c-0.4,0.1-0.4,0.1-1,0.3c-0.9,0.2-1.9,0.4-2.9,0.4
		c-1.6,0-2.8-0.3-3.5-0.9c-0.5-0.5-0.8-1.1-0.8-1.8c0-0.7,0.3-1.3,0.8-1.8c0.7-0.6,1.8-1,3.2-1c0.8,0,1.4,0.1,2,0.3
		c-0.3-0.4-0.3-0.4-0.6-0.9c-0.2-0.3-0.3-0.4-0.4-0.8c-0.1-0.2-0.1-0.2-0.2-0.3c-1.3,0.2-2.1,0.2-4.2,0.3c-0.3,0-0.3,0-0.6,0
		L29.5,88z"/>
	<path class="st1" d="M39.9,93.1c0.3-0.2,0.5-0.4,0.8-0.7c1.2-1.2,1.2-1.2,1.3-1.3c0-0.2,0-0.3,0-0.5c0-0.3,0-0.3,0-0.6
		c0-0.1,0-0.2,0-0.5c-1,0.1-1.5,0.1-1.8,0.2l-0.1-1.6c0.2,0,0.4,0,0.6,0c0.2,0,1,0,1.4-0.1c0-0.6,0-1.1,0-1.3c0-0.3,0-0.4,0-0.7
		l1.8,0c0,0.3-0.1,1.2-0.1,1.8l0.7,0.6c-0.2,0.2-0.5,0.5-0.8,0.9c0,0.1,0,0.1,0,0.3c0,0.1,0,0.1,0,0.3c0.4-0.4,1-0.9,1.4-1.2
		c1-0.7,1.8-1,2.5-1c1.1,0,1.8,0.7,1.8,1.7c0,0.4-0.1,0.8-0.3,1.9c-0.4,1.7-0.5,2.3-0.5,2.6c0,0.3,0.1,0.5,0.4,0.5
		c0.2,0,0.5-0.2,0.8-0.6c0.3-0.4,0.6-0.9,0.7-1.3c0.3,0.7,0.4,1,0.9,1.7c-0.4,0.7-0.6,0.9-0.9,1.2c-0.6,0.6-1.2,0.9-1.8,0.9
		c-0.4,0-0.8-0.1-1.1-0.3c-0.5-0.3-0.7-0.8-0.7-1.5c0-0.7,0.1-1.2,0.5-3.1c0.2-0.7,0.2-1.1,0.2-1.4c0-0.3-0.1-0.4-0.4-0.4
		c-0.3,0-0.8,0.2-1.3,0.6c-0.8,0.6-1.6,1.3-2.1,1.9c0,0.6,0,1,0,1.3c0,1.7,0,2.8,0.1,3.3h-1.8c0.1-0.4,0.1-0.8,0.1-1.9
		c0-0.7,0-0.8,0-1.4c-0.1,0.1-0.1,0.1-0.2,0.3c-0.1,0.1-0.1,0.1-0.4,0.5c-0.1,0.1-0.2,0.3-0.4,0.4c-0.1,0.2-0.2,0.2-0.3,0.4
		L39.9,93.1z"/>
	<path class="st1" d="M61,96.1c-0.2-0.3-0.3-0.3-0.6-0.6c-0.7-0.6-1.5-1.1-2.2-1.4c0,0.1,0,0.2,0,0.2c0,1.4-0.9,2-2.8,2
		c-1.8,0-2.9-0.7-2.9-2c0-1.3,1.3-2.1,3.4-2.1c0.2,0,0.3,0,0.6,0l0-1c-0.3,0-0.8,0-1.1,0c-0.8,0-1.2,0-2.3-0.1c-0.2,0-0.3,0-0.5,0
		l0-1.5c0.5,0.1,1.7,0.2,2.8,0.2c0.3,0,0.7,0,1,0l0-0.7c0-0.1,0-0.2,0-0.3c-0.3,0-0.5,0-0.6,0c-0.5,0-1.5,0-3-0.1
		c-0.1,0-0.3,0-0.3,0c0,0-0.1,0-0.2,0l0-1.6c0.7,0.2,1.9,0.3,3.3,0.3c0.1,0,0.5,0,0.8,0c0-0.9,0-1-0.1-1.4h1.8
		c-0.1,0.3-0.1,0.4-0.1,1.4c1.6-0.1,2.6-0.2,3.4-0.4l0,1.6c-0.3,0-0.3,0-1,0.1c-0.9,0.1-1.7,0.2-2.5,0.2c0,0.5,0,0.8,0,1
		c1.4-0.1,2.4-0.2,3.2-0.4l0,1.6c-0.1,0-0.1,0-0.3,0c0,0-0.1,0-0.2,0c-0.2,0-0.2,0-0.9,0.1c-0.6,0.1-1.4,0.1-1.8,0.1
		c0,0.6,0,1.1,0,1.2c1.1,0.3,2,0.8,3.3,1.7c0.2,0.1,0.3,0.2,0.4,0.3L61,96.1z M55.7,93.6c-0.8,0-1.4,0.3-1.4,0.7
		c0,0.4,0.4,0.6,1.1,0.6c0.8,0,1.1-0.3,1.1-0.9c0-0.1,0-0.2,0-0.2C56.2,93.7,56.1,93.6,55.7,93.6z"/>
	<path class="st1" d="M66.9,86.3c-0.1,0.4-0.1,0.6-0.1,2.3c1.5-0.1,1.5-0.1,3.3-0.1c0-0.2,0-0.4,0-0.4c0-1.3,0-1.4-0.1-1.8h1.8
		c0,0.3-0.1,0.6-0.1,0.9v1c0,0,0,0.1,0,0.3c1.9-0.1,1.9-0.1,2.3-0.1l0,1.7c-0.4,0-0.6,0-1,0c-0.2,0-0.3,0-1.3,0
		c0,1.3-0.1,2.2-0.3,2.6c-0.3,0.6-0.8,0.8-1.6,0.8c-0.6,0-1.1-0.1-1.7-0.4c0-0.3,0-0.3,0-0.5c0-0.4,0-0.7-0.1-1.2
		c0.6,0.3,1.2,0.5,1.6,0.5c0.4,0,0.6-0.3,0.6-1.9c-1.1,0-2.2,0.1-3.3,0.1c0,0.1,0,0.2,0,0.3c0,0,0,0.2,0,0.3c0,0.5,0,0.5,0,0.9
		c0,0.7,0,1.7,0.1,2c0.1,0.8,0.6,1.1,2.4,1.1c1.4,0,2.7-0.2,3.6-0.5l0.1,1.9c-0.5,0-0.5,0-1.1,0.1c-1,0.1-1.9,0.2-2.9,0.2
		c-2.2,0-3.2-0.4-3.6-1.6c-0.2-0.6-0.3-1.3-0.3-3.5c0,0,0-0.3,0-1c-1,0.1-1.6,0.1-2.1,0.2l-0.1-1.7c0.2,0,0.3,0,0.4,0
		c0.2,0,0.8,0,1.9-0.1v-0.5c0-0.9,0-1.4-0.1-1.8H66.9z"/>
	<path class="st1" d="M80,86.3c-0.2,0.3-0.2,0.4-0.5,1.1c-0.1,0.2-0.1,0.2-0.6,1.5L78.1,91c0.6-0.5,1-0.7,1.6-0.7
		c0.6,0,1.1,0.3,1.4,0.6c0.2,0.3,0.3,0.6,0.3,1.1c0,0.2,0,0.5,0,1.1c0,0.9,0,1.1,0.2,1.3c0.1,0.1,0.3,0.2,0.6,0.2
		c0.6,0,1-0.4,1.3-1.2c0.2-0.5,0.4-1.3,0.4-2c0.5,0.5,0.8,0.7,1.6,1c-0.2,1.1-0.5,1.9-1,2.6c-0.6,0.8-1.5,1.3-2.6,1.3
		c-0.8,0-1.4-0.2-1.7-0.6c-0.4-0.4-0.5-0.9-0.5-1.8c0-0.1,0-0.5,0-0.9c0,0,0-0.1,0-0.1c0-0.3,0-0.5-0.1-0.6
		c-0.1-0.2-0.3-0.3-0.5-0.3c-0.6,0-1.2,0.6-1.8,1.6c-0.4,0.7-0.8,2-1,2.8l-1.9-0.6c0.2-0.4,0.2-0.4,2.2-6.1c1-2.7,1.2-3.5,1.3-3.9
		L80,86.3z"/>
	<path class="st1" d="M88.9,93.3c0-0.3,0-0.4,0-0.6c0-0.2,0-0.2,0-0.9l-0.2-3.9c0-0.5-0.1-1.1-0.1-1.5h2.3c0,0.3-0.1,0.9-0.1,1.5
		l-0.2,3.9c0,0.7,0,0.7,0,0.9c0,0.1,0,0.3,0,0.6H88.9z M88.7,96.1v-1.9h2.1v1.9H88.7z"/>
</g>
</svg>
