<?xml version="1.0" encoding="utf-8"?>
<!-- Generator: Adobe Illustrator 22.1.0, SVG Export Plug-In . SVG Version: 6.00 Build 0)  -->
<svg version="1.1" id="レイヤー_1" xmlns="http://www.w3.org/2000/svg" xmlns:xlink="http://www.w3.org/1999/xlink" x="0px"
	 y="0px" viewBox="0 0 337.5 16.7" style="enable-background:new 0 0 337.5 16.7;" xml:space="preserve">
<style type="text/css">
	.st0{fill:#FFFFFF;}
</style>
<g>
	<path class="st0" d="M2,4.4c0,1.1,0,2.6,0.1,4c0.3,2.8,1,4.7,2.2,4.7c0.9,0,1.7-1.9,2.1-3.6l1.4,1.7c-1.1,3.1-2.2,4.1-3.5,4.1
		c-1.8,0-3.5-1.7-3.9-6.4C0.1,7.3,0.1,5.2,0.1,4.1c0-0.4,0-1.2-0.1-1.7l2.2,0C2.1,3,2,3.9,2,4.4z M14.5,11.8l-1.9,0.7
		c-0.3-3.1-1.3-6.9-3.1-9l1.8-0.6C12.9,5,14.3,8.9,14.5,11.8z"/>
	<path class="st0" d="M20.8,5c1.4-0.4,5-1.7,7.6-1.7c3.1,0,5.5,1.8,5.5,4.9c0,4.2-4.1,6.5-9.9,6.8l-0.8-1.9c4.7-0.1,8.7-1.5,8.7-4.9
		c0-1.8-1.3-3.2-3.6-3.2c-2.8,0-7.2,1.9-8.8,2.6l-0.8-2C19.3,5.4,20.1,5.2,20.8,5z"/>
	<path class="st0" d="M51.5,7.4c1.2,1.4,1.8,2.7,1.8,4.2c0,2.7-2.4,4.4-6.1,4.4c-2.6,0-4.6-1.2-4.6-4.1c0-0.5,0.1-1.1,0.1-1.9
		c-1.3-0.1-2.6-0.3-3.6-0.6l0.1-1.7c1.2,0.4,2.4,0.6,3.7,0.7c0.1-0.9,0.2-1.9,0.4-2.9c-1.3-0.1-2.6-0.3-3.7-0.6l0.1-1.7
		c1.1,0.4,2.5,0.6,3.8,0.7c0.1-0.6,0.1-1.2,0.2-1.7c0-0.5,0.1-0.9,0-1.4l2,0.1c-0.1,0.6-0.2,1-0.3,1.4l-0.2,1.6
		c1.3,0,2.5-0.1,3.5-0.2l-0.1,1.7c-1.1,0.1-2.1,0.2-3.6,0.2h0c-0.1,0.9-0.3,1.9-0.4,2.8h0.3c1.2,0,2.4-0.1,3.7-0.2l-0.1,1.7
		c-1.1,0.1-2.2,0.2-3.3,0.2c-0.2,0-0.5,0-0.7,0c-0.1,0.6-0.1,1.2-0.1,1.5c0,1.6,0.9,2.6,2.8,2.6c2.6,0,4.2-1.1,4.2-2.8
		c0-1.2-0.6-2.5-1.9-3.6L51.5,7.4z"/>
	<path class="st0" d="M65.9,14c0.6-0.1,1.2-0.1,1.6-0.3c2.3-0.5,4.3-2.2,4.3-5.1c0-2.6-1.5-4.6-4.3-5c-0.3,1.6-0.6,3.3-1.1,5
		c-1.1,3.6-2.6,5.7-4.3,5.7c-1.8,0-3.4-2-3.4-5c0-4,3.5-7.4,8-7.4c4.3,0,7,3,7,6.7c0,3.7-2.4,6.3-6.8,6.9L65.9,14z M64.6,8.4
		c0.5-1.4,0.8-3,1-4.6c-3.2,0.5-5.1,3.3-5.1,5.5c0,2.1,0.9,3,1.6,3C62.9,12.3,63.8,11.1,64.6,8.4z"/>
	<path class="st0" d="M90.8,6.8c0,1.5,0.6,6,3.9,8.3c-0.3,0.3-0.8,1-1,1.5c-2.5-1.7-3.5-5.1-3.7-6.6c-0.2,1.5-1.3,4.7-4.1,6.6
		c-0.2-0.4-0.7-1.1-1-1.4c3.7-2.3,4.3-6.7,4.3-8.4V4.7h-1c-0.5,1.3-1,2.4-1.7,3.3c-0.2-0.2-0.8-0.5-1.2-0.8v3.4h-4.4v2.9
		c0.8-0.2,1.6-0.5,2.5-0.7c-0.2-0.5-0.5-1-0.7-1.5l1.4-0.5c0.6,1.1,1.3,2.6,1.6,3.6l-1.5,0.6c-0.1-0.3-0.2-0.6-0.3-1
		c-1.9,0.6-3.7,1.2-5.2,1.7l-0.6-1.5c0.4-0.1,0.8-0.2,1.3-0.3V5c-0.2,0.2-0.4,0.4-0.6,0.5c-0.2-0.4-0.7-0.9-1-1.1
		c1.7-1.3,3-3,3.6-4.4H83C84,1,85.3,2.3,86,3.2l-1.2,1.1c-0.6-0.8-1.6-2-2.5-2.9c-0.6,1-1.5,2.2-2.7,3.3h2V3.2h1.5v1.5h2.1v2
		c1.2-1.7,2-4.1,2.4-6.7l1.6,0.3c-0.2,1-0.4,2-0.7,2.9h4.5l0.3-0.1l1.1,0.3c-0.3,1.7-0.8,3.6-1.4,4.8l-1.3-0.5
		c0.3-0.8,0.6-1.9,0.8-3h-1.9V6.8z M80.9,5.9v1.2h3V5.9H80.9z M83.8,9.5V8.2h-3v1.2H83.8z"/>
	<path class="st0" d="M113.6,12.4c-0.5-0.5-1.1-0.9-1.7-1.3c-0.8,2.2-2.1,3.8-4.6,5.1l-1.5-1.2c2.8-1.2,4-3,4.6-4.8
		c-1.4-0.8-3-1.4-4.7-1.5c-0.7,1.5-1.5,3.5-2.2,4.5c-0.7,1-1.4,1.4-2.5,1.4c-1.4,0-2.5-1-2.5-2.6c0-2.7,2.5-4.8,6-4.9
		c0.6-1.3,1.2-2.7,1.7-3.7c-0.7,0-2.6,0.1-3.4,0.2c-0.4,0-0.9,0.1-1.4,0.1l-0.1-1.8c0.5,0,1,0.1,1.4,0.1c1,0,3.1-0.1,3.9-0.2
		c0.4,0,0.8-0.1,1-0.2l1.1,0.9c-0.2,0.2-0.4,0.4-0.5,0.7c-0.5,0.8-1.2,2.4-1.9,4.1c1.6,0.2,3.1,0.7,4.4,1.3c0.1-0.3,0.1-0.7,0.1-1
		c0-0.6,0-1.2,0-1.8l1.8,0.2c-0.1,1.2-0.2,2.4-0.4,3.4c0.8,0.5,1.5,0.9,2.1,1.3L113.6,12.4z M103.8,8.6c-2.3,0.3-3.6,1.6-3.6,3
		c0,0.6,0.4,1,0.9,1c0.4,0,0.6-0.1,1-0.6C102.6,11.3,103.2,9.9,103.8,8.6z"/>
	<path class="st0" d="M122.5,5.7c-1,0.7-2.1,1.4-3.1,1.9c-0.2-0.4-0.6-1-1-1.4c3.1-1.4,6-4,7.4-6.2h1.7c1.9,2.6,4.9,4.8,7.7,5.9
		c-0.4,0.4-0.8,1-1.1,1.5c-1-0.5-2.1-1.1-3.2-1.9V7h-8.4V5.7z M119.4,8.9h14.8v1.6h-8.2c-0.6,1.2-1.3,2.6-1.9,3.7
		c2-0.1,4.2-0.2,6.4-0.3c-0.7-0.8-1.4-1.5-2.1-2.1l1.4-0.8c1.6,1.4,3.3,3.3,4.2,4.6l-1.5,1c-0.2-0.3-0.5-0.7-0.8-1.2
		c-4.3,0.2-8.9,0.4-11.9,0.5l-0.2-1.6l2.7-0.1c0.6-1.1,1.2-2.6,1.7-3.8h-4.5V8.9z M130.7,5.5c-1.6-1.2-3.1-2.5-4.1-3.8
		c-0.9,1.3-2.2,2.6-3.8,3.8H130.7z"/>
	<path class="st0" d="M143,1.5c-0.1,0.3-0.3,1-0.4,1.4c-0.3,1.5-0.9,4.8-0.9,6.7c0,0.6,0,1.2,0.1,1.9c0.3-0.7,0.6-1.6,0.9-2.2
		l0.9,0.7c-0.5,1.4-1.1,3.3-1.3,4.2c-0.1,0.2-0.1,0.6-0.1,0.8c0,0.2,0,0.5,0,0.7l-1.6,0.1c-0.4-1.2-0.7-3.3-0.7-5.8
		c0-2.7,0.6-5.7,0.8-7.1c0.1-0.5,0.1-1,0.2-1.5L143,1.5z M147.1,10.2c-0.1,0.6-0.2,1.1-0.2,1.6c0,0.8,0.6,1.4,2.8,1.4
		c1.6,0,3-0.1,4.4-0.5l0,1.9c-1.1,0.2-2.6,0.4-4.5,0.4c-3,0-4.4-1-4.4-2.8c0-0.7,0.1-1.4,0.3-2.2L147.1,10.2z M153.5,2.8v1.8
		c-2,0.2-5.4,0.2-7.5,0V2.8C148.1,3.1,151.7,3,153.5,2.8z"/>
	<path class="st0" d="M171.6,4.3c-2,0.3-4.8,0.6-7.1,0.8c-0.3,1.3-0.6,2.8-1,3.7c1.5-1,2.9-1.4,4.8-1.4c2.9,0,4.6,1.5,4.6,3.7
		c0,3.8-3.8,5.3-9.4,4.7l-0.5-1.8c4,0.6,8,0,8-2.8c0-1.2-1-2.2-3-2.2c-2.1,0-4,0.7-5.1,2.1c-0.2,0.3-0.4,0.5-0.5,0.8l-1.7-0.6
		c0.9-1.7,1.6-4.2,2.1-6.2c-1.2,0-2.3-0.1-3.3-0.2V3.2c1,0.2,2.4,0.3,3.5,0.3h0.1c0.1-0.4,0.1-0.7,0.2-1c0.1-0.6,0.1-1.1,0.1-1.6
		l2,0.1c-0.2,0.5-0.3,1.1-0.4,1.6l-0.2,0.8c2.1-0.1,4.6-0.4,6.8-0.8L171.6,4.3z"/>
	<path class="st0" d="M185.7,8.3c0,0.8,0.1,2,0.1,3.2c1.9,0.6,3.4,1.7,4.4,2.6l-1,1.5c-0.9-0.9-2-1.8-3.4-2.4c0,0.3,0,0.6,0,0.8
		c0,1.2-0.8,2.3-2.9,2.3c-2.1,0-3.7-0.9-3.7-2.6c0-1.6,1.4-2.6,3.9-2.6c0.3,0,0.6,0,0.9,0.1c-0.1-1-0.1-2.2-0.1-3V5.5
		c0-0.6-0.1-1.3-0.1-1.6h1.9c-0.1,0.3-0.1,1-0.1,1.6v1.1c1.2,0,3.1-0.1,4.3-0.3l0,1.6c-1.2,0.1-3.1,0.2-4.3,0.2V8.3z M184.1,12.6
		c-0.4-0.1-0.8-0.1-1.2-0.1c-1.3,0-2.1,0.4-2.1,1.1c0,0.6,0.7,1.1,1.9,1.1c0.9,0,1.4-0.5,1.4-1.3C184.2,13.2,184.2,12.9,184.1,12.6z
		"/>
	<path class="st0" d="M198.8,7.3c1.2-0.4,4.2-1.4,6.3-1.4c2.7,0,4.5,1.6,4.5,4.1c0,3.3-3.1,5.3-8.3,5.6l-0.7-1.7
		c3.9-0.1,7.2-1.2,7.2-3.9c0-1.4-1.1-2.4-2.8-2.4c-2.2,0-5.9,1.5-7.2,2.1L197,7.7C197.5,7.6,198.2,7.5,198.8,7.3z"/>
	<path class="st0" d="M227.3,4.5c-0.5,0.3-1,0.5-1.5,0.8c-1.2,0.6-3.5,1.7-5.2,2.8c-1.6,1-2.6,2.1-2.6,3.4c0,1.4,1.3,2.2,4,2.2
		c1.9,0,4.3-0.3,5.8-0.6l0,2c-1.4,0.3-3.4,0.5-5.7,0.5c-3.4,0-6-1-6-3.9c0-1.9,1.2-3.3,3-4.6c-0.8-1.5-1.7-3.5-2.5-5.4l1.8-0.7
		c0.7,1.9,1.6,3.7,2.3,5.1c1.6-0.9,3.3-1.8,4.2-2.3c0.6-0.3,1-0.6,1.4-0.9L227.3,4.5z"/>
	<path class="st0" d="M237.3,1c-0.1,0.6-0.2,1.4-0.2,2c-0.1,2-0.2,6.1-0.2,8.6c0,1.9,1.2,2.5,2.7,2.5c3.1,0,5-1.8,6.3-3.7l1.3,1.6
		c-1.2,1.7-3.6,4-7.6,4c-2.7,0-4.5-1.2-4.5-4.1c0-2.5,0.2-7.1,0.2-8.9c0-0.7-0.1-1.5-0.2-2.1L237.3,1z"/>
	<path class="st0" d="M260.9,4.7c-1.1,0.3-2.4,0.5-3.6,0.6c-0.2,0.8-0.4,1.6-0.6,2.3c-0.6,2.5-1.8,6.2-2.8,8.2l-2-0.7
		c1.1-1.8,2.4-5.5,3-8c0.2-0.5,0.3-1.1,0.4-1.7c-0.5,0-1,0-1.4,0c-0.8,0-1.5,0-2.1-0.1l0-1.8c0.9,0.1,1.5,0.1,2.2,0.1
		c0.6,0,1.2,0,1.8-0.1c0.1-0.5,0.2-1,0.2-1.3c0.1-0.6,0.1-1.2,0.1-1.6l2.2,0.2c-0.1,0.5-0.3,1.2-0.3,1.5l-0.2,1
		c1.1-0.1,2.2-0.4,3.2-0.6V4.7z M260.4,10.7c-0.1,0.6-0.3,1.1-0.3,1.5c0,0.8,0.4,1.5,2.7,1.5c1.2,0,2.4-0.1,3.6-0.4l-0.1,1.8
		c-1,0.1-2.2,0.3-3.5,0.3c-2.9,0-4.4-1-4.4-2.7c0-0.7,0.1-1.5,0.3-2.2L260.4,10.7z M259.7,6.3c1-0.1,2.2-0.2,3.3-0.2
		c1,0,2.1,0.1,3.1,0.2L266.1,8c-0.9-0.1-2-0.2-3-0.2c-1.2,0-2.3,0.1-3.4,0.2V6.3z"/>
	<path class="st0" d="M277,2.1h3.8v1.5H277v1.5h3.5v3.5c0,0.6-0.1,1-0.5,1.3c-0.5,0.2-1.1,0.2-2,0.2c-0.1-0.4-0.2-0.9-0.4-1.3
		c0.6,0,1.1,0,1.3,0c0.2,0,0.2-0.1,0.2-0.2v-2h-2v3.7c1,0.6,3.1,2,3.7,2.4l-0.9,1.4c-0.6-0.6-1.8-1.5-2.8-2.3v4.6h-1.5v-5
		c-1,1.6-2.2,3.1-3.5,4c-0.2-0.5-0.6-1.1-0.8-1.5c1.7-1.1,3.4-3.1,4.3-5V6.6h-1.9V10h-1.5v-5h3.4V3.6h-3.9V2.1h3.9V0.1h1.5V2.1z
		 M283.4,11.9h-1.6V2h1.6V11.9z M287.2,0.4v14.1c0,1-0.2,1.5-0.8,1.8c-0.6,0.3-1.6,0.3-3.1,0.3c-0.1-0.5-0.3-1.2-0.5-1.7
		c1.1,0.1,2.1,0,2.4,0c0.3,0,0.4-0.1,0.4-0.4V0.4H287.2z"/>
	<path class="st0" d="M294.7,8c-0.6-0.6-1.8-1.4-2.8-1.8l0.9-1.2c1,0.5,2.2,1.1,2.8,1.7L294.7,8z M296,10.6c-0.6,1.9-1.5,4-2.3,5.7
		l-1.5-0.9c0.7-1.4,1.7-3.7,2.4-5.7L296,10.6z M295.4,3.3c-0.6-0.6-1.7-1.4-2.7-1.9l0.9-1.2c1,0.4,2.2,1.2,2.8,1.8L295.4,3.3z
		 M307.7,4.9c-0.3,2.8-0.8,5.2-1.6,7.1c0.6,1.3,1.5,2.4,2.6,3.2c-0.3,0.3-0.8,0.9-1,1.3c-1-0.8-1.8-1.8-2.4-3
		c-0.7,1.2-1.6,2.2-2.6,3c-0.2-0.2-0.7-0.7-1-0.9c-0.1,0.1-0.1,0.2-0.1,0.2c-0.3,0.3-0.6,0.4-1,0.5c-0.4,0-1,0.1-1.7,0
		c0-0.4-0.1-1-0.4-1.3c0.6,0.1,1.1,0.1,1.3,0.1c0.2,0,0.4,0,0.5-0.2c0.2-0.2,0.3-0.8,0.3-2.3H299c-0.3,1.4-0.9,2.9-2.6,4
		c-0.3-0.3-0.8-0.7-1.1-1c2.2-1.5,2.5-3.6,2.5-4.8v-0.6h-1.9V8.9h2.7V7.7h-2V1.8h1.7c0.2-0.6,0.3-1.3,0.4-1.8l1.8,0.2
		c-0.2,0.5-0.4,1.1-0.6,1.5h2.3v4.3c0.7-1.7,1.2-3.9,1.4-6.1l1.5,0.3c-0.1,1-0.3,2.1-0.5,3.1h3.9v1.5H307.7z M298,4.1h2.8V3H298V4.1
		z M298,6.5h2.8V5.3H298V6.5z M302.2,11.3c0,0,0,0.4,0,0.6c-0.1,1.8-0.1,2.8-0.3,3.5c1.2-0.9,2.1-2,2.8-3.4c-0.6-1.5-0.9-3-1.2-4.5
		c-0.2,0.5-0.5,0.9-0.7,1.4c-0.2-0.3-0.6-0.7-0.9-1h-1.6v1.2h2.7v1.4h-3.7v0.6v0.4H302.2z M304.3,4.9l-0.1,0.2
		c0.2,1.6,0.5,3.3,1.1,5c0.5-1.5,0.8-3.2,0.9-5.2H304.3z"/>
	<path class="st0" d="M320.7,12.6c0.1-0.6,0.1-1.6,0.1-2.5c-1.5,0.8-2.5,1.7-2.5,2.7c0,1.2,1.2,1.5,3,1.5c1.4,0,3.4-0.2,5-0.5
		l-0.1,1.8c-1.3,0.2-3.3,0.3-5,0.3c-2.7,0-4.7-0.6-4.7-2.8c0-2.2,2.1-3.6,4.2-4.6c-0.2-0.6-0.8-0.9-1.4-0.9c-1.1,0-2.2,0.6-3,1.3
		c-0.5,0.5-1,1.2-1.6,1.9l-1.5-1.2c2.1-2,3.3-3.7,4-5.2h-0.5c-0.7,0-2,0-3-0.1V2.6c0.9,0.1,2.2,0.2,3.1,0.2c0.3,0,0.7,0,1,0
		c0.2-0.8,0.4-1.6,0.4-2.1l1.9,0.1c-0.1,0.5-0.3,1.2-0.5,1.9c1.8-0.1,3.6-0.2,5.3-0.5v1.7c-1.7,0.3-3.9,0.4-5.9,0.5
		c-0.4,0.8-0.8,1.6-1.4,2.3c0.6-0.3,1.6-0.5,2.3-0.5c1.1,0,2,0.5,2.4,1.5c1.1-0.5,2-0.9,2.9-1.3c0.6-0.3,1.1-0.5,1.7-0.8l0.7,1.7
		c-0.5,0.1-1.3,0.4-1.8,0.6c-0.9,0.3-2.1,0.8-3.3,1.4c0,1,0.1,2.4,0.1,3.3H320.7z"/>
	<path class="st0" d="M337.5,13.5c0,1.5-1.2,2.8-2.8,2.8c-1.5,0-2.8-1.3-2.8-2.8s1.3-2.8,2.8-2.8C336.3,10.7,337.5,12,337.5,13.5z
		 M336.4,13.5c0-1-0.8-1.7-1.7-1.7s-1.7,0.8-1.7,1.7s0.8,1.7,1.7,1.7S336.4,14.5,336.4,13.5z"/>
</g>
</svg>
