<svg xmlns="http://www.w3.org/2000/svg" width="216" height="216" viewBox="0 0 216 216">
  <g id="Group_83" data-name="Group 83" transform="translate(-61 -343)">
    <path id="Path_31" data-name="Path 31" d="M0,0H216V216H0Z" transform="translate(61 343)" fill="#fff"/>
    <g id="Icon_user" data-name="Icon/user" transform="translate(61 349.235)">
      <path id="Fill-1" d="M106.226,120.1c-27.163-.908-50.858-25.254-51.744-53.163a55.311,55.311,0,0,1,15.67-40.711,52.316,52.316,0,0,1,39.625-16.106c27.163.908,50.858,25.254,51.741,53.166A55.318,55.318,0,0,1,145.846,104a52.307,52.307,0,0,1-39.62,16.1m78.109,31.465c-15.4-14.06-33.429-23.881-52.186-28.448A63.2,63.2,0,0,0,169.4,66.529,63.487,63.487,0,0,0,151.412,20.5a60.122,60.122,0,0,0-86.8.025A63.624,63.624,0,0,0,46.6,63.693c-.548,25.585,14.371,49.332,37.23,59.429-18.749,4.57-36.764,14.391-52.157,28.443C13.544,168.113,1.71,188.209.02,205.324a4.1,4.1,0,0,0,.99,3.1,3.912,3.912,0,0,0,2.928,1.337,3.956,3.956,0,0,0,3.913-3.621c1.485-14.935,12.614-33.532,29.048-48.533,12-10.959,37.206-29.345,71.1-29.345s59.1,18.387,71.1,29.345c16.434,15.006,27.562,33.6,29.045,48.533a3.956,3.956,0,0,0,3.913,3.621,3.912,3.912,0,0,0,2.928-1.337,4.1,4.1,0,0,0,.99-3.1c-1.69-17.115-13.524-37.211-31.645-53.759" transform="translate(0 0)" fill="#E0E0E0" fill-rule="evenodd"/>
    </g>
  </g>
</svg>
