<svg width="19px" height="19px" viewBox="0 0 19 19" version="1.1" xmlns="http://www.w3.org/2000/svg" xmlns:xlink="http://www.w3.org/1999/xlink">
    <g id="Web-SP用" stroke="none" stroke-width="1" fill="none" fill-rule="evenodd">
        <g id="[new-web-GE-1]TOP(マイページmypage)--" transform="translate(-218.000000, -801.000000)" stroke="#CCCCCC">
            <g id="Buttons/Small/＋-Copy" transform="translate(218.000000, 801.000000)">
                <g id="Large-Button" stroke-width="1.5">
                    <rect id="Rectangle" x="0.75" y="0.75" width="17.5" height="17.5" rx="8.75"></rect>
                </g>
                <path d="M4.9363403,9.22473788 C4.78431722,9.22473788 4.66107817,9.34797693 4.66107817,9.5 C4.66107817,9.65202307 4.78431722,9.77526212 4.9363403,9.77526212 L14.0636597,9.77526212 C14.2156828,9.77526212 14.3389218,9.65202307 14.3389218,9.5 C14.3389218,9.34797693 14.2156828,9.22473788 14.0636597,9.22473788 L4.9363403,9.22473788 Z" id="Rectangle-10" fill="#CCCCCC"></path>
                <path d="M9.81543576,5.29790301 C9.81543576,5.1516875 9.67970203,5.02264088 9.5,5.02264088 C9.32029797,5.02264088 9.18456424,5.1516875 9.18456424,5.29790301 L9.18456424,13.702097 C9.18456424,13.8483125 9.32029797,13.9773591 9.5,13.9773591 C9.67970203,13.9773591 9.81543576,13.8483125 9.81543576,13.702097 L9.81543576,5.29790301 Z" id="Rectangle-10" fill="#CCCCCC"></path>
            </g>
        </g>
    </g>
</svg>