<?xml version="1.0" encoding="UTF-8"?>
<svg width="10px" height="6px" viewBox="0 0 10 6" version="1.1" xmlns="http://www.w3.org/2000/svg" xmlns:xlink="http://www.w3.org/1999/xlink">
    <!-- Generator: Sketch 51.3 (57544) - http://www.bohemiancoding.com/sketch -->
    <title>`Icon/text link 1</title>
    <desc>Created with Sketch.</desc>
    <defs></defs>
    <g id="Symbols" stroke="none" stroke-width="1" fill="none" fill-rule="evenodd">
        <g id="Icon/select/text-link-" fill="#222222">
            <g id="`Icon/text-link-1" transform="translate(5.000000, 3.000000) rotate(90.000000) translate(-5.000000, -3.000000) translate(2.000000, -2.000000)">
                <path d="M1.14213161,0.363185663 L5.24214063,4.27662647 C5.6416488,4.65795529 5.65638608,5.29094873 5.27505727,5.6904569 C5.26434196,5.70168305 5.25336678,5.71265823 5.24214063,5.72337354 L1.14213161,9.63681435 C0.929130834,9.84012267 0.593993304,9.84026839 0.380815807,9.63714537 L0.380815807,9.63714537 C0.17993256,9.44573674 0.172251861,9.12772135 0.363660484,8.9268381 C0.368961498,8.92127469 0.374389456,8.91583363 0.379940074,8.91051923 L4.56626661,4.90234358 L4.5668971,5.09704607 L0.379990528,1.08942808 C0.179570454,0.897590244 0.172613175,0.579602379 0.364451011,0.379182305 C0.369779974,0.37361494 0.375236351,0.368170945 0.380815807,0.362854643 L0.380815807,0.362854643 C0.593993304,0.159731624 0.929130834,0.159877342 1.14213161,0.363185663 Z" id="Forward-Icon"></path>
            </g>
        </g>
    </g>
</svg>