<?xml version="1.0" encoding="UTF-8"?>
<svg width="25px" height="24px" viewBox="0 0 25 24" version="1.1" xmlns="http://www.w3.org/2000/svg" xmlns:xlink="http://www.w3.org/1999/xlink">
    <!-- Generator: Sketch 51.3 (57544) - http://www.bohemiancoding.com/sketch -->
    <title>`Icon/send</title>
    <desc>Created with Sketch.</desc>
    <defs></defs>
    <g id="Symbols" stroke="none" stroke-width="1" fill="none" fill-rule="evenodd">
        <g id="UI/Massage-board" transform="translate(-339.000000, -14.000000)" fill="#00C3C3">
            <g id="Icon/send" transform="translate(339.000000, 14.000000)">
                <g id="send">
                    <path d="M24.4060201,0.448615385 C24.3954307,0.390087318 24.3742023,0.331509356 24.3423845,0.283609148 C24.337065,0.272981289 24.3317952,0.257014553 24.3264756,0.246336798 C24.3211561,0.23570894 24.3105668,0.230370062 24.2999774,0.219742204 C24.278749,0.193147609 24.2522507,0.166503119 24.2257525,0.145247401 C24.2045241,0.129280665 24.1833454,0.113313929 24.162117,0.0973471933 C24.1515276,0.092008316 24.1462081,0.0813804574 24.1356187,0.07604158 C24.1197098,0.0707027027 24.0984814,0.0600748441 24.0773027,0.0547359667 C24.0508045,0.0441081081 24.0242565,0.0334303534 23.9977583,0.0281413721 C23.9659405,0.0228024948 23.9341228,0.0175135135 23.902305,0.0175135135 C23.8758067,0.0175135135 23.8492588,0.0175135135 23.8227606,0.0175135135 C23.7856232,0.0228523909 23.7485357,0.0334802495 23.7167179,0.0441081081 C23.700809,0.0494469854 23.6795806,0.0494469854 23.6636717,0.0547359667 L0.319967459,10.1830353 C0.049516406,10.3001414 -0.0724351442,10.6141372 0.0441968725,10.8855717 C0.0972430625,11.0026778 0.187376842,11.1037672 0.304058574,11.1570062 L9.02212781,15.2710852 L9.02212781,23.4513929 C9.02212781,23.7441331 9.2607611,23.9836341 9.55244057,23.9836341 C9.73802766,23.9836341 9.90775558,23.8878337 10.0032089,23.7281663 L13.6887508,17.7140457 L19.3841318,20.72642 C19.6439935,20.8647817 19.9621712,20.7636923 20.1000316,20.5028857 C20.1212601,20.4603243 20.1371689,20.4124241 20.1477583,20.3698129 L24.4007502,0.66152183 C24.4007502,0.650893971 24.4007502,0.640216216 24.4007502,0.629588358 C24.4060698,0.597654886 24.4060698,0.571060291 24.4113396,0.5444158 C24.4112899,0.512482328 24.4112899,0.480548857 24.4060201,0.448615385 Z M9.44634819,14.2864366 L1.83131158,10.688632 L21.5371011,2.15171726 L9.44634819,14.2864366 Z M10.0827036,21.5619792 L10.0827036,15.8086154 L12.7500768,17.219027 L10.0827036,21.5619792 Z M19.2621305,19.4543701 L14.2508316,16.8092308 L13.3493447,16.250395 L13.3122074,16.314262 L10.4432884,14.797422 L22.9742204,2.21029522 L19.2621305,19.4543701 Z" id="Shape" fill-rule="nonzero"></path>
                </g>
            </g>
        </g>
    </g>
</svg>