<?xml version="1.0" encoding="UTF-8"?>
<svg width="40px" height="36px" viewBox="0 0 40 36" version="1.1" xmlns="http://www.w3.org/2000/svg" xmlns:xlink="http://www.w3.org/1999/xlink">
    <!-- Generator: Sketch 52.1 (67048) - http://www.bohemiancoding.com/sketch -->
    <title>Combined Shape</title>
    <desc>Created with Sketch.</desc>
    <g id="Symbols" stroke="none" stroke-width="1" fill="none" fill-rule="evenodd">
        <g id="Icon/mypage/-cash" transform="translate(0.000000, -2.000000)" fill="#FFFFFF" fill-rule="nonzero" stroke="#FFFFFF" stroke-width="0.3">
            <path d="M35.1453034,19.6123693 C35.1391283,19.5871797 35.1346342,19.5615717 35.1318661,19.5357234 C34.6908265,17.0767703 33.3484325,14.9409325 31.2434839,13.4015484 C26.9815484,10.2869677 20.2530323,9.86425806 12.7859355,12.2449032 C12.7116129,12.268129 12.6338065,12.2727742 12.5571613,12.2692903 C10.1463226,12.0509677 8.06645161,11.3588387 7.02709677,10.9593548 C6.91212903,12.071871 6.91445161,14.2829677 8.45896774,15.6347097 C8.68077419,15.8286452 8.72258065,16.1584516 8.55535484,16.4011613 C8.43109677,16.5811613 5.63354839,20.5806452 2.16129032,20.9987097 L2.16129032,26.1176774 C2.62167289,26.6062199 4.12719122,28.1354666 6.10970793,29.4452269 C6.77123098,29.2732327 8.75057459,28.6240013 9.3403871,26.9096774 C9.44490323,26.6065806 9.77354839,26.4463226 10.0778065,26.5496774 C10.3809032,26.6541935 10.5423226,26.984 10.4378065,27.2882581 C9.8785251,28.9138002 8.47626835,29.7859829 7.41520872,30.2289509 C8.63101505,30.8838338 9.96043047,31.3850813 11.3018065,31.5072258 C11.6002581,31.5339355 11.8301935,31.7847742 11.8301935,32.0855484 L11.8301935,36.6412903 L17.1651613,36.6412903 L17.1651613,34.0492903 C17.1651613,33.7287742 17.4252903,33.4686452 17.7458065,33.4686452 L23.9389677,33.4686452 C24.2594839,33.4686452 24.5196129,33.7287742 24.5196129,34.0492903 L24.5196129,36.6412903 L24.5184516,36.6412903 L29.8534194,36.6412903 L29.8534194,33.8983226 C29.8534194,33.7125161 29.9428387,33.5371613 30.0938065,33.4291613 C30.1449032,33.3908387 35.2917419,29.548129 35.2917419,21.359871 C35.2917419,20.7626643 35.2423674,20.1790576 35.1453034,19.6123693 Z M36.4136493,20.4042883 C36.4390606,20.7186054 36.451871,21.0368837 36.451871,21.3587097 C36.451871,29.2218065 32.1086452,33.2816774 31.0135484,34.1793548 L31.0135484,37.2207742 C31.0147097,37.5424516 30.7545806,37.8025806 30.4340645,37.8025806 L23.9378065,37.8025806 C23.6172903,37.8025806 23.3571613,37.5424516 23.3571613,37.2219355 L23.3571613,34.6299355 L18.3252903,34.6299355 L18.3252903,37.2219355 C18.3252903,37.5424516 18.0651613,37.8025806 17.7446452,37.8025806 L11.2483871,37.8025806 C10.927871,37.8025806 10.6677419,37.5424516 10.6677419,37.2219355 L10.6677419,32.6 C5.72412903,31.8428387 1.33677419,26.9456774 1.14516129,26.7296774 C1.05225806,26.624 1,26.4858065 1,26.344129 L1,20.4529032 C1,20.1323871 1.26012903,19.8722581 1.58064516,19.8722581 C4.13316129,19.8722581 6.49987097,17.1606452 7.30696774,16.1317419 C5.13767742,13.780129 5.96335484,10.1673548 6.00167742,10.0082581 C6.04232258,9.83870968 6.15612903,9.69587097 6.31174194,9.6203871 C6.46851613,9.54490323 6.65083871,9.54374194 6.8076129,9.61458065 C6.83316129,9.62619355 9.41935484,10.7956129 12.5455484,11.1010323 C13.1305975,10.9167304 13.7115865,10.7490765 14.2877494,10.5980216 C14.2246324,10.211382 14.1934194,9.8180954 14.1934194,9.42645161 C14.1934194,5.44090323 17.4357419,2.19858065 21.4212903,2.19858065 C25.4068387,2.19858065 28.6491613,5.44090323 28.6491613,9.42645161 C28.6491613,9.84469843 28.6135082,10.2619549 28.5431165,10.6690752 C29.7825399,11.1264541 30.91726,11.7249257 31.9274839,12.4632258 C34.2151336,14.135495 35.6964182,16.4378707 36.2298138,19.0906612 C36.6116998,19.2700459 37.2697051,19.4975658 37.6898065,19.3183226 C37.7769032,19.2823226 38.0405161,19.1696774 38.1775484,18.5832258 C38.2507097,18.2685161 38.5584516,18.0745806 38.8754839,18.1489032 C39.187871,18.2220645 39.3818065,18.5344516 39.3086452,18.8468387 C39.0845161,19.8083871 38.5503226,20.2171613 38.1415484,20.3890323 C37.8744516,20.5016774 37.5957419,20.5458065 37.3228387,20.5458065 C37.0035239,20.5458065 36.6909991,20.4858054 36.4136493,20.4042883 Z M15.4196706,10.3211446 C19.8691167,9.31158372 23.9931485,9.31337666 27.4264332,10.3031892 C27.4681659,10.0148626 27.4890323,9.72007646 27.4890323,9.42529032 C27.4890323,6.08077419 24.768129,3.35870968 21.4224516,3.35870968 C18.0767742,3.35870968 15.3535484,6.08077419 15.3535484,9.42529032 C15.3535484,9.72529103 15.3759348,10.0252917 15.4196706,10.3211446 Z M12.6860645,21.0323871 C12.5350968,21.0323871 12.384129,20.9743226 12.2796129,20.8698065 C12.1634839,20.7536774 12.1054194,20.6027097 12.1054194,20.4517419 C12.1054194,20.3007742 12.1634839,20.1498065 12.268,20.0452903 C12.5002581,19.8246452 12.871871,19.8246452 13.0925161,20.0336774 C13.1970323,20.1498065 13.2667097,20.2996129 13.2667097,20.4505806 C13.2667097,20.6015484 13.1970323,20.7536774 13.0925161,20.8581935 C12.9763871,20.9743226 12.8370323,21.0323871 12.6860645,21.0323871 Z" id="Combined-Shape"></path>
        </g>
    </g>
</svg>