<?xml version="1.0" encoding="UTF-8"?>
<svg width="20px" height="20px" viewBox="0 0 20 20" version="1.1" xmlns="http://www.w3.org/2000/svg" xmlns:xlink="http://www.w3.org/1999/xlink">
    <!-- Generator: Sketch 52.1 (67048) - http://www.bohemiancoding.com/sketch -->
    <title>Icon/ Point gr</title>
    <desc>Created with Sketch.</desc>
    <g id="Icon/-Point-gr" stroke="none" stroke-width="1" fill="none" fill-rule="evenodd">
        <path d="M7.26097132,5.6138966 C7.34935622,5.6138966 7.41571246,5.6249785 7.45997248,5.64700715 C7.88027373,5.45915547 8.32280635,5.30434676 8.78736762,5.18251345 C9.25192889,5.06088287 9.71649016,5 10.1809839,5 C10.4905337,5 10.7920424,5.03061036 11.0852397,5.09122294 C11.3781667,5.15224095 11.6630526,5.25995159 11.9396946,5.41469273 C12.2382977,5.56977173 12.5092636,5.76890803 12.7525923,6.01203406 C12.9958535,6.25549795 13.2005983,6.52369339 13.3664889,6.81668796 C13.5323795,7.10995282 13.6623215,7.42227314 13.7564501,7.75405435 C13.8503084,8.08597071 13.897474,8.41775192 13.897474,8.74960071 C13.897474,9.39120205 13.7258397,9.98307001 13.3831118,10.5248667 C13.0180849,11.0889623 12.5701464,11.5398064 12.0392289,11.877061 C11.5083114,12.2145858 10.8998882,12.4108165 10.2142296,12.4660909 C10.0814495,12.4771728 9.94583139,12.4854842 9.8077131,12.4909576 C9.66932452,12.4966337 9.53938251,12.4992014 9.41788707,12.4992014 C9.16320613,12.4992014 8.91440401,12.4883222 8.67121041,12.4660909 C8.42781409,12.4440622 8.18441777,12.4162899 7.9411566,12.3830442 L7.9411566,13.8099737 C7.9411566,14.3408236 7.94662997,14.8165344 7.95771187,15.2367681 C7.94662997,15.4911111 7.87196231,15.681936 7.73384402,15.8091076 C7.59538787,15.9362115 7.44341721,16 7.2775266,16 C7.12251517,16 6.97892351,15.9419552 6.84614345,15.8258655 C6.71343097,15.7096408 6.63051945,15.5297626 6.59734133,15.2865015 L6.59734133,12.051263 C6.56409563,12.051263 6.52524142,12.0403838 6.48118412,12.0180849 C6.31529351,11.9297 6.19339263,11.8246922 6.11615721,11.7028589 C6.0386515,11.5812283 6,11.4595978 6,11.3378996 C6,11.1942404 6.04980097,11.0640956 6.14933533,10.9479384 C6.2488697,10.8317812 6.39246136,10.7517077 6.58078605,10.7073802 L6.58078605,6.26097132 C6.63592525,6.0397388 6.72431015,5.87668624 6.84614345,5.77147578 C6.96770646,5.66653562 7.10589233,5.6138966 7.26097132,5.6138966 Z M10.1644286,6.34388284 C9.77710273,6.34388284 9.39011475,6.40199523 9.00299162,6.51808487 C8.61573335,6.63424208 8.26178834,6.76979261 7.9411566,6.92453375 L7.9411566,11.0059832 C8.17347102,11.0614603 8.40571787,11.1030174 8.63809986,11.1303843 C8.87027914,11.1581566 9.10806693,11.1719414 9.35139568,11.1719414 C9.5837101,11.1719414 9.81602452,11.1553186 10.0482714,11.1221405 C10.3689707,11.0669337 10.6870347,10.9868602 11.0022606,10.8815822 C11.3174865,10.7765744 11.5966963,10.5969666 11.8401602,10.3423532 C12.0613252,10.0992272 12.2271482,9.83373467 12.3378996,9.54594319 C12.4483131,9.25848957 12.5037902,8.97096838 12.5037902,8.68324447 C12.5037902,8.26307836 12.4013502,7.86771138 12.1968757,7.49694081 C11.9920633,7.1265081 11.6908249,6.83074305 11.2926198,6.60937538 C10.9496892,6.43253802 10.5734452,6.34388284 10.1644286,6.34388284 Z" id="Combined-Shape" fill="#00C3C3"></path>
        <circle id="Oval" stroke="#00C3C3" cx="10" cy="10" r="9.5"></circle>
    </g>
</svg>