<?xml version="1.0" encoding="UTF-8"?>
<svg width="34px" height="40px" viewBox="0 0 34 40" version="1.1" xmlns="http://www.w3.org/2000/svg" xmlns:xlink="http://www.w3.org/1999/xlink">
    <!-- Generator: Sketch 52.1 (67048) - http://www.bohemiancoding.com/sketch -->
    <title>Combined Shape</title>
    <desc>Created with Sketch.</desc>
    <g id="Symbols" stroke="none" stroke-width="1" fill="none" fill-rule="evenodd">
        <g id="Icon/mypage/-point-gr" transform="translate(-3.000000, 0.000000)" fill="#00C3C3">
            <path d="M26.5941338,25.1404856 C26.1417018,25.1404856 25.6896645,25.2083662 25.2374693,25.3439695 C24.7851162,25.4796518 24.3716761,25.6379872 23.9971489,25.818739 L23.9971489,30.5862452 C24.2685134,30.6510475 24.5397989,30.69959 24.8112423,30.731557 C25.082449,30.7639976 25.3602069,30.7800995 25.6444371,30.7800995 C25.9158016,30.7800995 26.187166,30.7606825 26.4584516,30.7219274 C26.8330577,30.6574409 27.2045855,30.5639077 27.5727983,30.4409334 C27.941011,30.3182747 28.2671535,30.1084764 28.5515416,29.8110647 C28.8098825,29.5270712 29.003579,29.2169517 29.1329467,28.8807849 C29.2619198,28.5450128 29.3267221,28.2091618 29.3267221,27.8730739 C29.3267221,27.3822815 29.2070628,26.9204567 28.9682179,26.4873628 C28.7289783,26.0546635 28.3771043,25.7091829 27.9119644,25.4506052 C27.51139,25.244043 27.0719027,25.1404856 26.5941338,25.1404856 Z M24.823082,18.3651562 C25.100223,18.3442187 25.3803541,18.3334375 25.6627672,18.3334375 C31.6793705,18.3334375 36.5741902,23.1932813 36.5741115,29.166875 C36.5741115,35.1403125 31.6792918,40 25.6626885,40 C21.0377705,40 17.0761967,37.1283594 15.4904656,33.0869531 C14.968682,33.1119531 14.4401311,33.1251563 13.9115803,33.1251563 C11.1386754,33.1251563 8.52039344,32.7865625 6.53909508,32.171875 C3.61400656,31.264375 3,30.0367969 3,29.166875 L3,3.95835937 C3,3.08835937 3.61400656,1.86078125 6.53909508,0.953203125 C8.52039344,0.33859375 11.1385967,0 13.9115803,0 C16.6845639,0 19.3028459,0.33859375 21.2841443,0.953203125 C24.2089967,1.86078125 24.823082,3.08835937 24.823082,3.95835937 L24.823082,18.3651562 Z M25.6627672,38.3333594 C30.7536,38.3333594 34.8954492,34.22125 34.8956066,29.1667187 C34.8956066,24.1121875 30.7537574,19.9999219 25.6629246,19.9999219 C25.130518,19.9999219 24.6086557,20.0455469 24.1008,20.131875 C23.983318,20.1516406 23.8667016,20.1741406 23.7509508,20.198125 C23.7168787,20.2053125 23.6828852,20.2127344 23.6491279,20.2202344 C23.5606033,20.2396875 23.4727082,20.2607031 23.3853639,20.2825 C23.3088,20.3019531 23.2324721,20.3221875 23.1567738,20.3433594 C23.1433967,20.3471094 23.130177,20.3510156 23.1168,20.3547656 C19.8437508,21.2882812 17.310059,23.9745312 16.6180721,27.3200781 C16.6177574,27.3214844 16.6173639,27.3228906 16.6171279,27.3242969 C16.5928918,27.4409375 16.5718033,27.5585937 16.5522098,27.676875 C16.544341,27.7254687 16.5363148,27.7740625 16.5291541,27.8228906 C16.5212852,27.8760937 16.5134951,27.9292187 16.5064918,27.9827344 C16.493823,28.0815625 16.4824918,28.1809375 16.4728918,28.2807812 C16.4694295,28.3160156 16.4663607,28.3514062 16.4633705,28.3867969 C16.4539279,28.4992187 16.4459016,28.6121875 16.4405508,28.7257031 C16.4396066,28.74625 16.4390557,28.7670312 16.4381902,28.7875781 C16.4330754,28.9134375 16.4296131,29.0397656 16.4296131,29.166875 C16.4296131,29.2728906 16.4320525,29.3785937 16.4357508,29.4842187 C16.4366164,29.5103906 16.4375607,29.5365625 16.438741,29.5627344 C16.4432262,29.6671094 16.4489705,29.77125 16.4569967,29.8750781 C16.4577049,29.8835156 16.4584918,29.8917969 16.4592,29.9002344 C16.4668328,29.9961719 16.4765115,30.091875 16.4871344,30.1875 C16.4903607,30.2161719 16.4935869,30.2448437 16.4970492,30.2735156 C16.5090098,30.3721094 16.5222295,30.4705469 16.5374951,30.5685937 C16.5411934,30.5927344 16.5456,30.6166406 16.5495344,30.6407031 C16.5620459,30.7176562 16.575659,30.7945312 16.5902164,30.8711719 C16.597141,30.9073437 16.6039082,30.9435156 16.6112262,30.9795312 C16.6291672,31.0677344 16.6482098,31.1555469 16.6685902,31.2430469 C16.6786623,31.28625 16.6896787,31.3289062 16.7003016,31.3717187 C16.7132852,31.4235937 16.726741,31.4754687 16.7405902,31.5271875 C16.7613639,31.6042187 16.7830033,31.6808594 16.8056656,31.7571094 C16.8192,31.8025781 16.8324984,31.8482031 16.846741,31.8935156 C18.0187279,35.6205469 21.5276066,38.3333594 25.6627672,38.3333594 Z M23.2026303,24.287795 C23.3058719,24.287795 23.3833821,24.3007396 23.4350818,24.3264711 C23.9260321,24.1070432 24.4429507,23.9262125 24.9856007,23.7839 C25.5282508,23.6418244 26.0709008,23.5707076 26.6134719,23.5707076 C26.9750544,23.5707076 27.3272442,23.6064633 27.6697254,23.6772643 C28.0118909,23.748539 28.3446637,23.8743548 28.6678068,24.0551066 C29.0166026,24.2362531 29.3331155,24.4688625 29.6173457,24.7528559 C29.901497,25.037244 30.1406577,25.3505208 30.3344331,25.6927653 C30.5282085,26.0353254 30.6799927,26.4001441 30.7899434,26.7876949 C30.8995785,27.1754036 30.9546722,27.5629544 30.9546722,27.9505841 C30.9546722,28.7000331 30.7541877,29.391389 30.3538501,30.0242571 C29.9274653,30.6831723 29.4042323,31.2097994 28.7840721,31.6037436 C28.1639119,31.9980035 27.4532179,32.2272189 26.6523059,32.2917844 C26.4972067,32.3047291 26.3387923,32.3144376 26.1774575,32.320831 C26.015807,32.3274612 25.8640229,32.3304605 25.7221051,32.3304605 C25.4246145,32.3304605 25.1339908,32.3177527 24.8499185,32.2917844 C24.5656093,32.2660529 24.2813002,32.2336123 23.9971489,32.1947783 L23.9971489,33.8615624 C23.9971489,34.4816437 24.0035423,35.0373173 24.016487,35.5281887 C24.0035423,35.8252847 23.9163236,36.0481856 23.7549888,36.1967335 C23.5932594,36.3452026 23.4157438,36.4197134 23.2219684,36.4197134 C23.0409008,36.4197134 22.8731727,36.3519117 22.7180734,36.2163084 C22.5630531,36.0805472 22.4662049,35.8704331 22.4274498,35.5862818 L22.4274498,31.8072275 C22.3886158,31.8072275 22.3432305,31.7945196 22.2917675,31.7684724 C22.0979921,31.6652308 21.9556008,31.5425721 21.8653827,31.4002597 C21.774849,31.2581841 21.7297005,31.1161084 21.7297005,30.9739538 C21.7297005,30.8061467 21.7878726,30.6541258 21.9041378,30.5184435 C22.020403,30.3827613 22.1881312,30.2892282 22.4081117,30.2374495 L22.4081117,25.0436374 C22.4725193,24.7852176 22.575761,24.5947573 22.7180734,24.4718619 C22.8600701,24.3492822 23.0214838,24.287795 23.2026303,24.287795 Z M15.7170098,24.7110156 C15.7232262,24.6975 15.7296,24.6840625 15.7358164,24.6704687 C15.1360525,24.7035156 14.5268459,24.7223437 13.9115803,24.7223437 C12.6347016,24.7223437 11.3859148,24.6507031 10.1997639,24.5095312 C9.73951475,24.4547656 9.41114754,24.0399219 9.4663082,23.5829687 C9.52139016,23.1259375 9.93954098,22.7999219 10.3995541,22.8547656 C11.5196852,22.9880469 12.7012721,23.0557031 13.9115016,23.0557031 C14.8775607,23.0557031 15.8300852,23.0121875 16.7428721,22.926875 C16.9364459,22.6542969 17.1427672,22.3897656 17.3623082,22.1345312 C18.1223607,21.2513281 19.0153967,20.5015625 20.0006557,19.9070313 C18.2315803,20.3053906 16.1212328,20.5209375 13.9115016,20.5209375 C11.138518,20.5209375 8.52023607,20.1823438 6.53901639,19.5677344 C5.76834098,19.3286719 5.15944918,19.0671875 4.67850492,18.7960938 L4.67850492,24.9654687 C4.67850492,25.1423437 5.11231475,25.781875 7.03971148,26.3798437 C8.86323934,26.945625 11.3036852,27.2571875 13.9115016,27.2571875 C14.2492328,27.2571875 14.5875934,27.2511719 14.9238295,27.2403906 C15.061377,26.4828125 15.2790295,25.7525781 15.5668721,25.0580469 C15.5796197,25.0271094 15.5920525,24.9961719 15.6051148,24.9653906 C15.6129836,24.9466406 15.6213246,24.928125 15.6293508,24.9094531 C15.6576787,24.84375 15.6864,24.7784375 15.7159082,24.7133594 C15.716223,24.7125 15.7166951,24.711875 15.7170098,24.7110156 Z M13.9115803,31.4585156 C14.272682,31.4585156 14.6337836,31.4522656 14.9920525,31.4398438 C14.9875672,31.4192969 14.9837902,31.3985938 14.9796197,31.3782031 C14.9726164,31.3445313 14.9659279,31.310625 14.9592393,31.2767969 C14.9483803,31.2219531 14.9374426,31.1671875 14.9273705,31.1122656 C14.9202098,31.0725 14.9134426,31.0325781 14.9066754,30.9927344 C14.8980197,30.9425 14.8893639,30.8923438 14.8814164,30.8420313 C14.8743344,30.7971094 14.8680393,30.751875 14.8615869,30.7067969 C14.854977,30.6609375 14.8481311,30.6149219 14.8421508,30.5688281 C14.8356984,30.5190625 14.8301115,30.4690625 14.8242885,30.4191406 C14.8193311,30.3770313 14.814059,30.3347656 14.8095738,30.2924219 C14.8039082,30.23875 14.799423,30.1847656 14.7945443,30.1308594 C14.791082,30.0917969 14.7870689,30.0526563 14.784,30.0134375 C14.7795934,29.955625 14.7761311,29.8973438 14.7725115,29.8392969 C14.7703869,29.8039063 14.7675541,29.7683594 14.7657443,29.7328125 C14.7623607,29.6683594 14.7602361,29.6034375 14.7580328,29.5385938 C14.7569311,29.5091406 14.7554361,29.4796875 14.7546492,29.4503906 C14.7522098,29.3560938 14.7508721,29.2617188 14.7508721,29.166875 C14.7508721,29.0820313 14.7519738,28.9975 14.753941,28.9128125 C14.4736525,28.9199219 14.192341,28.9238281 13.9115016,28.9238281 C11.1385967,28.9238281 8.52023607,28.5852344 6.53901639,27.9705469 C5.76834098,27.7314844 5.15944918,27.47 4.67858361,27.1989063 L4.67858361,29.166875 C4.67858361,29.34375 5.11239344,29.9832031 7.03979016,30.5811719 C8.86331803,31.1469531 11.3039213,31.4585156 13.9115803,31.4585156 Z M4.67850492,6.191875 L4.67850492,12.3614063 C4.67850492,12.5382813 5.11231475,13.1777344 7.03971148,13.7757031 C8.86323934,14.3414844 11.3038426,14.6530469 13.9115016,14.6530469 C15.4533246,14.6530469 16.9879869,14.5392188 18.3496918,14.3239063 C18.8063213,14.2516406 19.2376918,14.5611719 19.3106361,15.0157813 C19.3835803,15.4702344 19.0715803,15.8974219 18.6136918,15.9697656 C17.1455213,16.2020313 15.5634885,16.3197656 13.9115016,16.3197656 C11.1385967,16.3197656 8.52031475,15.98125 6.53901639,15.3665625 C5.76834098,15.1275 5.15944918,14.8660156 4.67858361,14.5949219 L4.67858361,16.5626563 C4.67858361,16.7396094 5.11239344,17.3791406 7.03979016,17.9771094 C8.86323934,18.5428906 11.3037639,18.854375 13.9115803,18.854375 C16.5193967,18.854375 18.9597639,18.5428906 20.7833705,17.9771094 C22.7106098,17.3790625 23.1444197,16.7396094 23.1444197,16.5626563 L23.1444197,10.3935156 C22.6635541,10.6646094 22.054741,10.9260156 21.2841443,11.1650781 C19.3029246,11.7796875 16.6846426,12.1182813 13.911659,12.1182813 C12.6347803,12.1182813 11.3859934,12.0466406 10.1998426,11.9054688 C9.73959344,11.8507813 9.41122623,11.4358594 9.46638689,10.9789063 C9.52146885,10.5219531 9.93961967,10.1954688 10.3996328,10.2507031 C11.5197639,10.3839844 12.7013508,10.4516406 13.9115803,10.4516406 C16.5193967,10.4516406 18.9596852,10.1400781 20.7833705,9.574375 C22.7106098,8.97632813 23.1444197,8.33679688 23.1444197,8.16 L23.1444197,6.191875 C22.6635541,6.463125 22.054741,6.72453125 21.2841443,6.96359375 C19.3028459,7.578125 16.6844852,7.91671875 13.9115803,7.91671875 C11.1386754,7.91671875 8.52039344,7.57820313 6.53909508,6.96351563 C5.76841967,6.72445313 5.15952787,6.46304688 4.67850492,6.191875 Z M7.03979016,2.54398438 C5.11239344,3.14203125 4.6786623,3.7815625 4.6786623,3.95835938 C4.6786623,4.1353125 5.11239344,4.77476563 7.03979016,5.37273438 C8.86331803,5.93851563 11.3037639,6.25007813 13.9115803,6.25007813 C16.5193967,6.25007813 18.9597639,5.93851563 20.7833705,5.3728125 C22.7106098,4.77476563 23.1444197,4.1353125 23.1444197,3.95835938 C23.1444197,3.78148438 22.7106098,3.14195313 20.7833705,2.54398438 C18.9597639,1.97820313 16.5192393,1.66664063 13.9115803,1.66664063 C11.3037639,1.66664063 8.86339672,1.97820313 7.03979016,2.54398438 Z M20.6419519,15.4327347 C20.2790276,15.4327347 19.9443605,15.1964945 19.8351991,14.8308076 C19.7025951,14.3851636 19.9562001,13.916314 20.4018441,13.7835522 C20.5475506,13.740298 20.6941253,13.6935709 20.8378585,13.6447916 C21.2783719,13.4955333 21.7563775,13.7314578 21.9057148,14.1718133 C22.0549732,14.6122479 21.8189697,15.0903324 21.3786931,15.2395908 C21.2151482,15.2950003 21.0482094,15.3481208 20.8826912,15.3974526 C20.8024974,15.4212897 20.7215143,15.4327347 20.6419519,15.4327347 Z" id="Combined-Shape"></path>
        </g>
    </g>
</svg>