<?xml version="1.0" encoding="UTF-8"?>
<svg width="40px" height="29px" viewBox="0 0 40 29" version="1.1" xmlns="http://www.w3.org/2000/svg" xmlns:xlink="http://www.w3.org/1999/xlink">
    <!-- Generator: Sketch 52.1 (67048) - http://www.bohemiancoding.com/sketch -->
    <title>question</title>
    <desc>Created with Sketch.</desc>
    <g id="Symbols" stroke="none" stroke-width="1" fill="none" fill-rule="evenodd">
        <g id="Icon/mypage/-question" transform="translate(0.000000, -5.000000)" fill="#FFFFFF" fill-rule="nonzero">
            <g id="question" style="mix-blend-mode: multiply;" transform="translate(0.000000, 5.000000)">
                <path d="M37.2966082,8.71890838 L23.454425,8.71890838 C22.8384405,6.57380117 21.6289279,4.61808967 19.9352827,3.10159844 C17.3682651,0.80288499 14.0525536,-0.252475634 10.5981287,0.129356725 C5.05816764,0.74214425 0.627524366,5.21411306 0.063079922,10.762729 C-0.245146199,13.7916569 0.583157895,16.7861988 2.39516569,19.1946979 C4.13169591,21.5026901 6.62354776,23.0982456 9.42853801,23.702768 L12.3794152,26.6535673 C12.6271345,26.9013645 12.9560234,27.0325926 13.29154,27.0325146 C13.4582456,27.0325146 13.6265107,27.000078 13.7872904,26.9334893 C14.2718129,26.7327875 14.5847173,26.2643275 14.5847173,25.739961 L14.5847173,23.6740741 C15.0699415,23.565614 15.5426121,23.4280702 16.0016374,23.2641715 L16.0016374,23.3460429 C16.0016374,24.7936842 17.1794152,25.971462 18.6270565,25.971462 L23.0355556,25.971462 L25.3840156,28.319922 C25.5940741,28.5299805 25.8728265,28.6412476 26.157193,28.6412476 C26.2984795,28.6412476 26.4410916,28.6137232 26.5773879,28.5573489 C26.9880702,28.3872125 27.2534113,27.9900975 27.2534113,27.545575 L27.2534113,25.971462 L37.2966862,25.971462 C38.7443275,25.971462 39.9221053,24.7936842 39.9221053,23.3460429 L39.9221053,11.3441715 C39.9220273,9.89668616 38.7442495,8.71890838 37.2966082,8.71890838 Z M13.8499025,22.5469006 C13.5516569,22.600078 13.3345809,22.8593372 13.3345809,23.1622612 L13.3345809,25.740039 C13.3345809,25.7549318 13.3345809,25.7678752 13.3088499,25.7785575 C13.2831189,25.7890838 13.2740741,25.780039 13.2633918,25.7695906 L10.1804288,22.6866277 C10.0930214,22.5992203 9.98159844,22.5395712 9.8602729,22.5155556 C7.28062378,22.002885 4.98424951,20.5565692 3.39415205,18.4431189 C1.77192982,16.2868616 1.0305653,13.6042105 1.30674464,10.8892788 C1.55009747,8.49668616 2.63337232,6.22081871 4.35695906,4.48070175 C6.0808577,2.74035088 8.34604288,1.63633528 10.7355166,1.37208577 C11.1512671,1.32608187 11.5642105,1.30331384 11.9741131,1.30331384 C14.6168421,1.30331384 17.1112671,2.25099415 19.1012086,4.03290448 C21.3688109,6.06346979 22.6693177,8.97247563 22.6693177,12.0141131 C22.6693957,17.205692 18.9603119,21.6353216 13.8499025,22.5469006 Z M38.6718129,23.3461209 C38.6718129,24.1044055 38.0548928,24.7213255 37.2966082,24.7213255 L26.6283041,24.7213255 C26.2831189,24.7213255 26.0031969,25.0011696 26.0031969,25.3464327 L26.0031969,27.1712281 L23.7364522,24.9044834 C23.6192593,24.7872125 23.4602729,24.7214035 23.2945029,24.7214035 L18.6271345,24.7214035 C17.8688499,24.7214035 17.2519298,24.1044834 17.2519298,23.3461988 L17.2519298,22.7366082 C21.2534893,20.7698246 23.9196101,16.6659649 23.9196101,12.014191 C23.9196101,11.3239766 23.8587135,10.6401559 23.7418324,9.96912281 L37.2966862,9.96912281 C38.0549708,9.96912281 38.6718908,10.5860429 38.6718908,11.3443275 L38.6718908,23.3461209 L38.6718129,23.3461209 Z" id="Shape"></path>
                <path d="M35.071501,13.5693567 C34.8274464,13.3252242 34.4316569,13.3252242 34.1875244,13.5693567 L27.9617934,19.7950877 L25.071423,16.9047173 C24.8272904,16.6605848 24.431501,16.6605848 24.1874464,16.9047173 C23.9433138,17.1488499 23.9433138,17.5446394 24.1874464,17.788694 L27.5197661,21.1210136 C27.6417934,21.2430409 27.8017934,21.3040936 27.9617154,21.3040936 C28.1216374,21.3040936 28.2817154,21.2431189 28.4037427,21.1210136 L35.071423,14.4533333 C35.3156335,14.2092008 35.3156335,13.8134113 35.071501,13.5693567 Z" id="Shape"></path>
                <path d="M11.9598441,16.7223392 C11.9596101,16.7223392 11.9592982,16.7223392 11.9589864,16.7223392 C11.6138012,16.7223392 11.3334893,17.0026511 11.3334893,17.3478363 C11.3334893,17.3479142 11.3334893,17.3480702 11.3334893,17.3482261 C11.3334893,17.3483821 11.3334893,17.34846 11.3334893,17.348616 C11.3334893,17.6938012 11.6138012,17.9741131 11.9589864,17.9741131 C11.9592203,17.9741131 11.9596101,17.9741131 11.9598441,17.9741131 C12.3050292,17.9741131 12.5853411,17.6938012 12.5853411,17.348616 C12.5853411,17.348538 12.5853411,17.3483821 12.5853411,17.3482261 C12.5853411,17.3480702 12.5853411,17.3479922 12.5853411,17.3478363 C12.5853411,17.0026511 12.3050292,16.7223392 11.9598441,16.7223392 Z" id="Shape"></path>
                <path d="M14.7441715,7.22908382 C13.9869006,6.47181287 12.9978168,6.05481481 11.9590643,6.05489279 C9.7762963,6.05504873 8.00046784,7.83111111 8.00046784,10.0138012 C8.00046784,10.3589864 8.28031189,10.6389084 8.62557505,10.6389084 C8.97076023,10.6389084 9.25068226,10.3590643 9.25068226,10.0138012 C9.25068226,8.52031189 10.465731,7.30510721 11.9592203,7.30502924 C12.6640156,7.30502924 13.3391033,7.59189084 13.8601949,8.11298246 C14.3812865,8.63407407 14.6682261,9.30923977 14.6682261,10.0140351 C14.6681481,11.2013255 13.8747758,12.2683041 12.7390253,12.6088889 C11.8987914,12.8608187 11.334425,13.6136452 11.334425,14.4821053 L11.334425,14.6812476 C11.334425,15.0264327 11.614269,15.3063548 11.9595322,15.3063548 C12.3047173,15.3063548 12.5846394,15.0265107 12.5846394,14.6812476 L12.5846394,14.4821053 C12.5846394,14.1700585 12.7910331,13.8984795 13.0982456,13.8063938 C14.7586745,13.30846 15.9184405,11.7490838 15.9185185,10.0141131 C15.9184405,8.9754386 15.5014425,7.9862768 14.7441715,7.22908382 Z" id="Shape"></path>
            </g>
        </g>
    </g>
</svg>
