<?xml version="1.0" encoding="utf-8"?>
<!-- Generator: Adobe Illustrator 22.1.0, SVG Export Plug-In . SVG Version: 6.00 Build 0)  -->
<svg version="1.1" id="レイヤー_1" xmlns="http://www.w3.org/2000/svg" xmlns:xlink="http://www.w3.org/1999/xlink" x="0px"
	 y="0px" viewBox="0 0 296 77" style="enable-background:new 0 0 296 77;" xml:space="preserve">
<style type="text/css">
	.st0{enable-background:new    ;}
	.st1{fill:#00FFFF;}
	.st2{fill:#FFFFFF;}
</style>
<title>Group</title>
<desc>Created with Sketch.</desc>
<g id="A_x2C_B">
	<g id="_x5B_GB-1_x5D__x5B_CB-1_x5D_tutorial1" transform="translate(-39.000000, -59.000000)">
		<g id="Group" transform="translate(38.000000, 51.000000)">
			<g class="st0">
				<path class="st1" d="M33,69.6c-1,3.4-2.5,6.2-4.5,8.5c1.8,1.2,4,2.1,6.3,2.7c-0.8,0.8-1.9,2.3-2.5,3.3c-2.6-0.8-4.8-1.9-6.7-3.3
					c-1.8,1.4-3.9,2.5-6.1,3.3c-0.4-0.8-1.2-2-1.9-2.9v2.9h-4.1v-2.9C9.3,81.6,5.2,82,2,82.3l-0.3-3.7c0.9-0.1,2-0.1,3.1-0.2V67.4H2
					V64h32v3.4H17.5v13.2c1.8-0.6,3.6-1.5,5.1-2.6c-1.3-1.5-2.4-3.3-3.3-5.3l2.4-0.6h-3.3v-3.3h11.2l0.7-0.1L33,69.6z M29.9,62.7
					H6.2v-11h23.6V62.7z M8.7,67.4v1.4h4.7v-1.4H8.7z M8.7,73.4h4.7v-1.5H8.7V73.4z M8.7,78.1c1.5-0.1,3.1-0.2,4.7-0.4v-1.4H8.7
					V78.1z M25.6,54.4H10.3v1.5h15.3V54.4z M25.6,58.5H10.3V60h15.3V58.5z M23,72c0.6,1.3,1.4,2.5,2.4,3.5c1-1,1.8-2.2,2.4-3.5H23z"
					/>
				<path class="st1" d="M53,79.3c-0.8-1.4-2.3-3.5-3.6-5.3c-1.1,3.7-3,7.3-6.2,10.1c-0.6-0.9-2.2-2.5-3-3c4.2-3.6,5.7-8.5,6.2-12.9
					h-5.9v-4h6.1v-0.7v-4.9h-1c-0.7,1.8-1.4,3.4-2.2,4.7c-0.8-0.6-2.7-1.6-3.6-2c1.8-2.6,3.2-6.8,3.9-10.9l4,0.8
					c-0.2,1.2-0.5,2.4-0.8,3.5h7.8v3.9h-4v5v0.6h4.5v4h-4.7c0,0.5-0.1,0.9-0.1,1.4c1.4,1.5,4.6,5.3,5.4,6.2L53,79.3z M73.8,79.5v4
					H53.2v-4H73.8z M73.3,55.9H54.9v-4h18.4V55.9z M72.2,70.5H56.2V58.7h15.9V70.5z M58.7,79.1c-0.1-1.8-0.8-4.8-1.6-7l3.6-0.9
					c0.9,2.2,1.7,5,1.8,6.9L58.7,79.1z M68,62.4h-7.8v4.4H68V62.4z M64.9,78.4c0.9-2,1.8-5.1,2.2-7.3l4.2,0.9
					c-1,2.6-1.9,5.5-2.8,7.3L64.9,78.4z"/>
				<path class="st1" d="M79.6,77.9c7.2-6.5,11.5-11.5,11.5-15.6c0-2.7-1.5-4.3-4-4.3c-1.9,0-3.6,1.3-4.9,2.7l-2.9-2.9
					c2.4-2.6,4.8-4,8.5-4c5,0,8.4,3.2,8.4,8.2c0,4.8-4,10-8.9,14.8c1.3-0.1,3.1-0.3,4.3-0.3h5.8V81H79.6V77.9z"/>
				<path class="st1" d="M103.8,67.6c0-9.2,3.6-13.7,9-13.7c5.4,0,9,4.5,9,13.7c0,9.2-3.6,13.9-9,13.9
					C107.4,81.5,103.8,76.8,103.8,67.6z M116.8,67.6c0-7.5-1.7-9.6-4-9.6c-2.3,0-4,2.2-4,9.6c0,7.5,1.7,9.8,4,9.8
					C115.1,77.4,116.8,75.1,116.8,67.6z"/>
				<path class="st1" d="M151.1,50.9c2.3,4.6,6.8,9.8,10.7,12.8c-1.2,0.9-2.8,2.6-3.6,3.9c-0.8-0.7-1.5-1.5-2.3-2.3v0.3
					c-0.4,10.9-0.8,15.1-2.1,16.6c-0.9,1.2-1.9,1.5-3.3,1.7c-1.2,0.2-3.3,0.2-5.4,0.1c-0.1-1.3-0.6-3.1-1.4-4.3
					c2,0.1,3.9,0.2,4.8,0.2c0.6,0,1-0.1,1.4-0.5c0.7-0.8,1.1-4,1.4-11.5h-7.1c-0.9,6.9-3.2,13.1-12.6,16.6c-0.5-1.2-1.8-3-2.8-4
					c8.1-2.6,10-7.3,10.7-12.6h-6.1v-2.5c-0.9,1-1.9,1.8-2.9,2.6c-0.8-1-2.6-2.7-3.7-3.5c4.5-3,8.5-8,10.6-13.5l4.6,1.3
					c-1.8,4.1-4.3,8.1-7.1,11.3h19.4c-2.8-3.3-5.5-7.3-7.5-11.1L151.1,50.9z"/>
			</g>
			<g class="st0">
				<path class="st2" d="M168.9,62.7c2.3-0.2,6.9-0.6,12-1.1c2.9-0.2,5.9-0.4,7.8-0.5l0,3.6c-1.5,0-3.9,0-5.3,0.4
					c-3.4,0.9-5.9,4.5-5.9,7.8c0,4.6,4.3,6.2,9,6.4l-1.3,3.8c-5.8-0.4-11.3-3.5-11.3-9.5c0-4,2.2-7.1,4.1-8.5
					c-2.4,0.3-8.2,0.9-11.5,1.6l-0.4-3.8C167.3,62.8,168.4,62.7,168.9,62.7z M187.1,71.2l-2.1,1c-0.7-1.5-1.3-2.6-2.2-3.9l2.1-0.9
					C185.6,68.4,186.6,70.1,187.1,71.2z M190.4,69.8l-2.1,1c-0.8-1.5-1.4-2.5-2.3-3.8l2-1C188.7,67.1,189.8,68.7,190.4,69.8z"/>
				<path class="st2" d="M201.3,67.7c-1.5,1.1-3.1,2-4.7,2.8c-0.4-0.8-1.3-2.1-2-2.8c4.8-2.1,9.2-6.1,11.3-9.4h3.5
					c3,4.1,7.4,7.3,11.8,8.9c-0.8,0.9-1.6,2.1-2.2,3.1c-1.5-0.7-3.2-1.7-4.7-2.7v2.2h-13.1V67.7z M196.4,72h23.2v3.1H207
					c-0.8,1.7-1.7,3.4-2.6,5c2.7-0.1,5.6-0.2,8.4-0.3c-0.9-1-1.8-2-2.7-2.9l2.9-1.5c2.5,2.2,5.1,5.1,6.4,7.2l-3.1,1.9
					c-0.3-0.5-0.7-1.1-1.1-1.7c-6.6,0.4-13.5,0.6-18.3,0.9l-0.4-3.2l4.2-0.1c0.8-1.6,1.5-3.4,2.1-5.1h-6.5V72z M213.2,66.6
					c-2.2-1.6-4.1-3.4-5.4-5.2c-1.2,1.7-3,3.5-5.1,5.2H213.2z"/>
				<path class="st2" d="M242.1,69.6c-1.3,1.1-3.9,3.5-4.5,4.2c0.3,0,0.8,0.1,1,0.2c0.8,0.3,1.3,0.8,1.7,1.9
					c0.3,0.8,0.5,1.8,0.8,2.5c0.3,0.9,0.9,1.3,2,1.3c2.1,0,4-0.2,5.4-0.5l-0.2,3.6c-1.1,0.2-4,0.4-5.4,0.4c-2.6,0-4.1-0.6-4.7-2.4
					c-0.3-0.8-0.6-2.1-0.8-2.8c-0.3-1-0.9-1.3-1.5-1.3c-0.6,0-1.1,0.4-1.8,1.1c-1,1-3.1,3.2-5,5.7l-3.3-2.3c0.5-0.4,1.2-1,1.9-1.7
					c1.4-1.5,7.1-7.1,9.6-9.8c-2,0.1-5.3,0.4-6.9,0.5c-1,0.1-1.8,0.2-2.4,0.3l-0.3-3.8c0.6,0.1,1.7,0.1,2.7,0.1
					c1.3,0,7.6-0.3,9.9-0.6c0.5-0.1,1.3-0.2,1.6-0.3l2,2.3C243.2,68.7,242.6,69.2,242.1,69.6z M243,60.7l-0.4,3.3
					c-2.9-0.3-8.1-0.8-11.4-1.4l0.5-3.2C234.8,59.9,240.1,60.5,243,60.7z"/>
				<path class="st2" d="M272.9,62.8c-0.7,0.4-1.3,0.8-1.9,1.3c-1.5,1-4.4,3.5-6.1,4.9c0.9-0.3,1.7-0.3,2.6-0.3c4.7,0,8.3,2.9,8.3,7
					c0,4.4-3.3,7.8-10,7.8c-3.9,0-6.8-1.8-6.8-4.5c0-2.2,2-4.3,5-4.3c3.4,0,5.5,2.1,5.9,4.7c1.5-0.8,2.3-2.1,2.3-3.8
					c0-2.5-2.5-4.2-5.7-4.2c-4.3,0-7,2.3-10,5.6l-2.5-2.6c2-1.6,5.3-4.4,6.9-5.8c1.5-1.3,4.4-3.6,5.8-4.8c-1.4,0-5.2,0.2-6.7,0.3
					c-0.8,0-1.6,0.1-2.3,0.2l-0.1-3.6c0.8,0.1,1.7,0.1,2.5,0.1c1.5,0,7.4-0.1,9-0.3c1.1-0.1,1.8-0.2,2.1-0.3L272.9,62.8z
					 M266.6,80.2c-0.2-1.8-1.2-3-2.7-3c-1,0-1.7,0.6-1.7,1.3c0,1,1.2,1.7,2.8,1.7C265.5,80.3,266.1,80.3,266.6,80.2z"/>
			</g>
			<g class="st0">
				<path class="st2" d="M291.2,78.7c0-1.5,1.1-2.7,2.5-2.7s2.6,1.2,2.6,2.7s-1.1,2.7-2.6,2.7S291.2,80.2,291.2,78.7z M291.9,63.6
					l-0.1-3.9h4.1l-0.1,3.9l-0.6,10.3h-2.7L291.9,63.6z"/>
			</g>
			<g class="st0">
				<path class="st2" d="M36.5,14.6c0,1.7,0,3.6,0.2,5.5c0.4,3.7,1.1,6.2,2.8,6.2c1.2,0,2.2-3,2.7-5l2.6,3.1
					c-1.7,4.5-3.3,6.1-5.4,6.1c-2.8,0-5.3-2.5-6-9.5C33.1,18.6,33,15.6,33,14c0-0.7,0-1.8-0.2-2.6l4,0.1
					C36.6,12.4,36.5,13.9,36.5,14.6z M54.4,25.2L51,26.5c-0.4-4.1-1.8-10.2-4.6-13.4l3.3-1.1C52.1,15,54.1,21.2,54.4,25.2z"/>
				<path class="st2" d="M60.9,15c2-0.6,7.2-2.4,11-2.4c4.7,0,8.3,2.7,8.3,7.4c0,5.8-5.6,9.6-14.6,10l-1.5-3.4
					c7-0.2,12.4-2.2,12.4-6.7c0-2.4-1.7-4.3-4.8-4.3c-3.8,0-9.9,2.5-12.6,3.7l-1.5-3.6C58.6,15.6,59.9,15.3,60.9,15z"/>
				<path class="st2" d="M85.2,12.1c2.2-0.2,6.4-0.6,11.1-1c2.7-0.2,5.5-0.4,7.3-0.4l0,3.3c-1.4,0-3.6,0-5,0.3
					c-3.1,0.8-5.4,4.2-5.4,7.2c0,4.2,4,5.8,8.3,6l-1.2,3.6c-5.4-0.3-10.5-3.2-10.5-8.8c0-3.7,2.1-6.6,3.8-7.9
					c-2.2,0.2-7.6,0.8-10.6,1.5l-0.3-3.5C83.8,12.2,84.8,12.1,85.2,12.1z M102.1,20l-2,0.9c-0.6-1.4-1.2-2.4-2-3.6l1.9-0.8
					C100.7,17.4,101.7,19,102.1,20z M105.2,18.7l-2,0.9c-0.7-1.4-1.3-2.4-2.1-3.5l1.9-0.9C103.6,16.2,104.6,17.7,105.2,18.7z"/>
				<path class="st2" d="M126.8,18.6c1.7,2.2,2.5,4,2.5,6.2c0,3.9-3.5,6.7-9.1,6.7c-4.1,0-6.9-1.8-6.9-6.1c0-0.6,0.1-1.5,0.2-2.6
					c-1.9-0.2-3.6-0.5-4.9-0.9l0.2-3.1c1.7,0.6,3.4,0.9,5.1,1c0.2-1.1,0.3-2.3,0.4-3.5c-1.8-0.2-3.6-0.5-5.1-0.9l0.2-3
					c1.5,0.5,3.4,0.8,5.3,1c0.1-0.8,0.2-1.5,0.2-2.1c0.1-0.7,0.1-1.4,0.1-2.3l3.6,0.2c-0.2,0.9-0.3,1.6-0.4,2.3
					c-0.1,0.4-0.2,1.1-0.3,2c1.8,0,3.5-0.1,4.7-0.3l-0.1,3.1c-1.5,0.2-2.9,0.2-5,0.2c-0.2,1.1-0.3,2.4-0.4,3.5h0.2
					c1.6,0,3.5-0.1,5.2-0.3l-0.1,3.1c-1.5,0.1-3,0.2-4.6,0.2c-0.3,0-0.7,0-1,0c-0.1,0.8-0.1,1.4-0.1,1.9c0,2.1,1.3,3.3,3.8,3.3
					c3.6,0,5.6-1.6,5.6-3.8c0-1.7-1-3.4-2.7-5L126.8,18.6z"/>
				<path class="st2" d="M137.9,31.8c-1.6-2-3.8-4.2-5.6-5.7l2.7-2.3c1.8,1.5,4.3,4.1,5.7,5.7L137.9,31.8z"/>
				<path class="st2" d="M163.9,15.6c-0.8,0.5-1.6,0.9-2.5,1.4c-1.6,0.8-4,1.9-6.4,3.5c-2.1,1.4-3.6,2.9-3.6,4.7
					c0,1.8,1.8,2.8,5.4,2.8c2.6,0,6.1-0.4,8.4-0.9l-0.1,3.7c-2.2,0.4-4.9,0.6-8.3,0.6c-5.1,0-9-1.4-9-5.9c0-2.8,1.8-4.9,4.3-6.8
					c-1.2-2.2-2.4-4.9-3.6-7.7l3.3-1.3c1,2.7,2.2,5.1,3.2,7.1c1.9-1.1,3.7-2,4.9-2.7c1-0.5,1.7-1,2.4-1.5L163.9,15.6z M164.3,9.3
					c0.6,0.9,1.6,2.6,2.1,3.6l-2.1,0.9c-0.5-1.1-1.3-2.6-2-3.6L164.3,9.3z M167.4,8.1c0.7,1,1.6,2.7,2.1,3.6l-2.1,0.9
					c-0.5-1.1-1.4-2.6-2.1-3.6L167.4,8.1z"/>
				<path class="st2" d="M174.5,22.1c-0.2,0.9-0.4,1.7-0.4,2.6c0,1.6,1.6,2.8,5.3,2.8c3.5,0,6.8-0.4,9-1l0,3.6
					c-2.2,0.5-5.3,0.9-8.9,0.9c-5.9,0-8.9-2-8.9-5.5c0-1.5,0.3-2.8,0.5-3.7L174.5,22.1z M172.3,11.1c1.9,0.2,4.3,0.3,7,0.3
					c2.5,0,5.5-0.2,7.5-0.4v3.5c-1.8,0.1-5,0.3-7.4,0.3c-2.7,0-4.9-0.1-7-0.3V11.1z"/>
				<path class="st2" d="M194.3,12.1c2.2-0.2,6.4-0.6,11.1-1c2.7-0.2,5.5-0.4,7.3-0.4l0,3.3c-1.4,0-3.6,0-5,0.3
					c-3.1,0.8-5.4,4.2-5.4,7.2c0,4.2,4,5.8,8.3,6l-1.2,3.6c-5.4-0.3-10.5-3.2-10.5-8.8c0-3.7,2.1-6.6,3.8-7.9
					c-2.2,0.2-7.6,0.8-10.6,1.5l-0.3-3.5C192.9,12.2,193.8,12.1,194.3,12.1z M211.2,20l-2,0.9c-0.7-1.4-1.2-2.4-2-3.6l1.9-0.8
					C209.8,17.4,210.7,19,211.2,20z M214.3,18.7l-2,0.9c-0.7-1.4-1.3-2.4-2.1-3.5l1.9-0.9C212.7,16.2,213.7,17.7,214.3,18.7z"/>
				<path class="st2" d="M235.9,18.6c1.7,2.2,2.5,4,2.5,6.2c0,3.9-3.5,6.7-9.1,6.7c-4.1,0-6.9-1.8-6.9-6.1c0-0.6,0.1-1.5,0.2-2.6
					c-1.9-0.2-3.6-0.5-4.9-0.9l0.2-3.1c1.7,0.6,3.4,0.9,5.1,1c0.2-1.1,0.3-2.3,0.4-3.5c-1.8-0.2-3.6-0.5-5.1-0.9l0.2-3
					c1.5,0.5,3.4,0.8,5.3,1c0.1-0.8,0.2-1.5,0.2-2.1c0.1-0.7,0.1-1.4,0.1-2.3l3.6,0.2c-0.2,0.9-0.3,1.6-0.4,2.3
					c-0.1,0.4-0.2,1.1-0.3,2c1.8,0,3.5-0.1,4.7-0.3l-0.1,3.1c-1.5,0.2-2.9,0.2-5,0.2c-0.2,1.1-0.3,2.4-0.4,3.5h0.2
					c1.6,0,3.5-0.1,5.2-0.3l-0.1,3.1c-1.5,0.1-3,0.2-4.6,0.2c-0.3,0-0.7,0-1,0c-0.1,0.8-0.1,1.4-0.1,1.9c0,2.1,1.3,3.3,3.8,3.3
					c3.6,0,5.6-1.6,5.6-3.8c0-1.7-1-3.4-2.7-5L235.9,18.6z"/>
			</g>
		</g>
	</g>
</g>
</svg>
