<?xml version="1.0" encoding="utf-8"?>
<!-- Generator: Adobe Illustrator 22.1.0, SVG Export Plug-In . SVG Version: 6.00 Build 0)  -->
<svg version="1.1" id="レイヤー_1" xmlns="http://www.w3.org/2000/svg" xmlns:xlink="http://www.w3.org/1999/xlink" x="0px"
	 y="0px" viewBox="0 0 322 170.7" style="enable-background:new 0 0 322 170.7;" xml:space="preserve">
<style type="text/css">
	.st0{enable-background:new    ;}
	.st1{fill:#00FFFF;}
	.st2{fill:none;stroke:#00FFFF;}
</style>
<title>Group 3</title>
<desc>Created with Sketch.</desc>
<g id="A_x2C_B">
	<g id="_x5B_GB-1_x5D__x5B_CB-1_x5D_tutorial1" transform="translate(-27.000000, -261.000000)">
		<g id="Group-3" transform="translate(28.000000, 262.000000)">
			<g class="st0">
				<path class="st1" d="M14,135.9c-0.2-0.5-0.6-1.3-1-2.1v7.8H11v-6.7c-0.5,1.4-1,2.6-1.6,3.5c-0.2-0.6-0.6-1.4-0.9-1.9
					c1-1.4,2-3.9,2.4-6h-2v-2H11v-3.7H13v3.7h1.8v2H13v0.8c0.5,0.7,1.8,2.6,2.1,3.1L14,135.9z M18.9,138.3c-1.3,0.7-2.7,1.5-3.8,2.2
					l-0.9-1.8c1.1-0.5,2.6-1.3,4.2-2.1L18.9,138.3z M25.2,134.8c-0.8,0.8-1.7,1.6-2.4,2.2c0.8,0.9,1.7,1.6,2.8,2
					c-0.5,0.4-1,1.2-1.4,1.7c-1.3-0.7-2.4-1.8-3.2-3.2v1.9c0,1-0.2,1.5-0.8,1.8c-0.6,0.3-1.4,0.4-2.6,0.4c-0.1-0.6-0.3-1.4-0.6-1.9
					c0.6,0,1.3,0,1.5,0c0.2,0,0.3-0.1,0.3-0.3v-6.1h-4.2v-1.7h4.2v-0.8h-3.4v-1.6h3.4v-0.7h-3.9v-1.7H17c-0.2-0.5-0.5-1-0.7-1.4
					l1.7-0.6c0.4,0.6,0.8,1.4,1,2h2.2c0.3-0.6,0.6-1.4,0.8-2l2.1,0.5c-0.3,0.5-0.6,1.1-0.9,1.5H25v1.7h-3.9v0.7h3.5v1.6h-3.5v0.8
					h4.2v1.7h-4.2v0.7c0.2,0.6,0.5,1.1,0.7,1.6c0.6-0.6,1.3-1.3,1.7-1.9L25.2,134.8z M16.6,133.7c0.7,0.6,1.4,1.6,1.8,2.2l-1.5,1.1
					c-0.3-0.6-1.1-1.6-1.7-2.3L16.6,133.7z"/>
				<path class="st1" d="M42.5,129.9c-0.8,2.2-2.2,4.8-3.6,6.9c0.8,0.6,1.6,1.1,2.1,1.7l-1.5,2.1c-1.4-1.4-4.3-3.3-6.8-4.4l1.3-1.8
					c0.9,0.4,1.9,0.8,2.8,1.4c1-1.3,1.8-3,2.4-4.4h-5.1c-1,2-2.3,3.9-3.8,5.3c-0.5-0.4-1.5-0.9-2.1-1.2c2.7-2.4,4.7-6.5,5.6-9.7
					l2.4,0.5c-0.3,1-0.7,1.9-1.1,2.9h5.3l0.4-0.1L42.5,129.9z"/>
				<path class="st1" d="M56,129.5c-0.8,0.2-1.9,0.5-3.1,0.6c-0.8,2.5-2.4,5.6-3.8,7.6l-2.2-1.1c1.4-1.7,2.8-4.4,3.6-6.3
					c-0.3,0-0.6,0-0.9,0c-0.7,0-1.5,0-2.2-0.1l-0.2-2.1c0.8,0.1,1.7,0.1,2.4,0.1c0.5,0,1.1,0,1.6-0.1c0.3-1,0.4-2.1,0.5-3l2.5,0.3
					c-0.1,0.6-0.4,1.5-0.6,2.4c0.9-0.1,1.7-0.3,2.4-0.6L56,129.5z M58.3,131.1c-0.1,0.8,0,1.5,0,2.3c0,0.5,0.1,1.4,0.1,2.3
					c1.5,0.6,2.8,1.5,3.7,2.3l-1.2,1.9c-0.6-0.6-1.4-1.3-2.4-1.9v0.2c0,1.7-0.9,3-3.4,3c-2.2,0-4-1-4-3c0-1.7,1.5-3.1,3.9-3.1
					c0.4,0,0.8,0,1.2,0.1c-0.1-1.3-0.1-2.9-0.2-4H58.3z M56.4,137c-0.5-0.1-0.9-0.2-1.4-0.2c-1,0-1.7,0.4-1.7,1.1
					c0,0.7,0.6,1.1,1.5,1.1c1.2,0,1.6-0.7,1.6-1.7V137z M61.4,132.1c-1-0.8-3.1-2-4.3-2.5l1.2-1.8c1.3,0.6,3.5,1.8,4.4,2.4
					L61.4,132.1z"/>
				<path class="st1" d="M70.9,132.4l-1.3,2c-1-0.7-2.9-1.9-4.1-2.6l1.3-2C68,130.5,70,131.7,70.9,132.4z M72.3,136.5
					c3.1-1.7,5.6-4.2,7-6.8l1.4,2.4c-1.7,2.5-4.2,4.8-7.2,6.5c-1.8,1-4.4,1.9-6,2.2l-1.4-2.4C68.2,138.2,70.4,137.6,72.3,136.5z
					 M73.6,128.3l-1.4,2c-1-0.7-2.9-1.9-4.1-2.6l1.3-2C70.7,126.4,72.7,127.7,73.6,128.3z"/>
				<path class="st1" d="M83.4,131.7c0.6,0.1,2,0.1,2.9,0.1h9.7c0.8,0,1.6-0.1,2.1-0.1v2.8c-0.4,0-1.4-0.1-2.1-0.1h-9.7
					c-1,0-2.2,0-2.9,0.1V131.7z"/>
				<path class="st1" d="M107.7,135.9c3.1-1.8,5.4-4.6,6.6-7l1.4,2.5c-1.4,2.4-3.8,4.9-6.7,6.7c-1.8,1.1-4.1,2.1-6.7,2.5l-1.5-2.4
					C103.6,137.9,105.9,137,107.7,135.9z M107.7,130.1l-1.8,1.9c-0.9-1-3.2-3-4.5-3.9l1.7-1.8C104.3,127.2,106.6,129,107.7,130.1z"
					/>
				<path class="st1" d="M122.2,126.3c-0.1,0.4-0.4,1.3-0.4,1.6c-0.3,1.2-0.9,4.8-0.9,6.5c0,0.3,0,0.8,0.1,1.2
					c0.3-0.6,0.5-1.2,0.8-1.8l1.1,0.9c-0.5,1.5-1.1,3.4-1.3,4.4c-0.1,0.3-0.1,0.6-0.1,0.8c0,0.2,0,0.5,0,0.7l-2.1,0.1
					c-0.4-1.2-0.7-3.4-0.7-5.8c0-2.7,0.5-5.7,0.7-7.1c0.1-0.5,0.2-1.2,0.2-1.7L122.2,126.3z M126.4,135.1c-0.1,0.6-0.2,1-0.2,1.5
					c0,0.8,0.7,1.3,2.5,1.3c1.6,0,2.9-0.1,4.5-0.5l0.1,2.4c-1.2,0.2-2.6,0.4-4.6,0.4c-3.1,0-4.5-1.1-4.5-2.9c0-0.7,0.1-1.5,0.3-2.3
					L126.4,135.1z M132.6,127.4v2.3c-2.2,0.2-5.4,0.2-7.7,0l0-2.3C127.1,127.7,130.7,127.7,132.6,127.4z"/>
				<path class="st1" d="M151.4,134.7c-0.5,0-1.2,0.2-1.9,0.3c-0.9,0.1-2.3,0.4-3.9,0.6c0.3,1.5,0.5,2.7,0.6,3.2
					c0.1,0.5,0.3,1.2,0.5,1.8l-2.6,0.5c-0.1-0.7-0.1-1.3-0.3-1.8c-0.1-0.5-0.3-1.8-0.6-3.3c-1.8,0.3-3.5,0.6-4.3,0.7
					c-0.8,0.1-1.4,0.3-1.8,0.4l-0.5-2.4c0.5,0,1.3-0.1,1.9-0.2c0.8-0.1,2.5-0.4,4.3-0.7l-0.5-2.9c-1.6,0.3-3,0.5-3.5,0.6
					c-0.6,0.1-1.1,0.2-1.7,0.4l-0.5-2.5c0.6,0,1.1-0.1,1.7-0.1c0.6-0.1,2-0.3,3.6-0.5c-0.1-0.8-0.3-1.3-0.3-1.6
					c-0.1-0.5-0.2-0.9-0.4-1.4l2.5-0.4c0.1,0.4,0.1,1,0.2,1.4c0,0.3,0.1,0.8,0.3,1.7c1.5-0.3,2.9-0.5,3.5-0.6
					c0.6-0.1,1.3-0.3,1.7-0.4l0.4,2.4c-0.4,0-1.1,0.1-1.7,0.2l-3.6,0.6l0.6,2.9c1.6-0.3,3.1-0.5,3.9-0.7c0.7-0.1,1.4-0.3,1.8-0.4
					L151.4,134.7z"/>
				<path class="st1" d="M161.6,136c0.9-0.8,2.2-2.4,2.6-3.2c-0.4,0.1-2.2,0.5-4.2,0.9c0.7,2.5,1.4,5.2,1.7,6.2
					c0.1,0.3,0.3,1.1,0.5,1.5l-2.4,0.6c-0.1-0.5-0.2-1.1-0.3-1.6c-0.3-1-1-3.8-1.7-6.2c-1.5,0.3-2.8,0.6-3.4,0.7l-0.6-2.2
					c0.6-0.1,1.1-0.1,1.7-0.2c0.3,0,0.9-0.1,1.7-0.3c-0.2-0.7-0.3-1.3-0.5-1.7c-0.1-0.5-0.3-0.9-0.5-1.3l2.4-0.6
					c0.1,0.4,0.2,0.9,0.3,1.4l0.5,1.7c2.3-0.4,4.8-0.9,5.5-1.1c0.3-0.1,0.7-0.2,0.9-0.3l1.4,1c-0.8,1.6-2.6,4.3-3.8,5.6L161.6,136z"
					/>
				<path class="st1" d="M183.4,127.8c-0.1,0.2-0.5,0.8-0.6,1.1c-0.6,1.4-1.6,3.3-2.8,5c1.8,1.5,4,3.9,5,5.1l-2.1,1.8
					c-1.2-1.6-2.8-3.5-4.5-5.1c-1.9,2-4.3,3.9-6.8,5.1l-1.9-1.9c2.9-1.1,5.7-3.3,7.4-5.2c1.2-1.4,2.3-3.1,2.7-4.4h-6.1
					c-0.8,0-1.7,0.1-2.1,0.1v-2.6c0.5,0.1,1.6,0.1,2.1,0.1h6.3c0.8,0,1.5-0.1,1.9-0.2L183.4,127.8z"/>
				<path class="st1" d="M199.8,135.9c-1.9-1-4.6-2-6.5-2.7v5.1c0,0.5,0.1,1.8,0.2,2.5h-2.8c0.1-0.7,0.2-1.8,0.2-2.5v-10.3
					c0-0.6-0.1-1.5-0.2-2.2h2.8c-0.1,0.6-0.2,1.4-0.2,2.2v2.6c2.4,0.7,5.9,2,7.5,2.8L199.8,135.9z"/>
				<path class="st1" d="M211.4,126c-0.1,0.5-0.2,1-0.3,1.5c-0.1,0.5-0.3,1.2-0.4,1.8c0.6,0,1.1-0.1,1.5-0.1c1.9,0,3.2,0.8,3.2,3.4
					c0,2.1-0.3,5-1,6.5c-0.6,1.2-1.6,1.6-2.9,1.6c-0.7,0-1.5-0.1-2.1-0.3l-0.4-2.4c0.7,0.2,1.7,0.4,2.2,0.4c0.6,0,1-0.2,1.3-0.8
					c0.5-1,0.7-3.1,0.7-4.9c0-1.4-0.6-1.6-1.7-1.6c-0.3,0-0.7,0-1.2,0.1c-0.7,2.7-2,6.9-3.6,9.5l-2.3-0.9c1.7-2.3,3-5.9,3.6-8.3
					c-0.6,0.1-1.2,0.1-1.5,0.2c-0.5,0.1-1.4,0.2-2,0.3l-0.2-2.4c0.6,0.1,1.2,0,1.9,0c0.6,0,1.4-0.1,2.3-0.1c0.3-1.4,0.4-2.7,0.4-3.8
					L211.4,126z M217.8,128.1c1,1.6,2.4,4.6,2.9,6.2l-2.3,1.1c-0.5-2-1.7-5.1-3-6.7l1.7-0.7c-0.4-0.7-0.8-1.5-1.2-2.1l1.4-0.6
					c0.5,0.7,1.1,1.8,1.4,2.5L217.8,128.1z M219.4,127.5c-0.4-0.8-1-1.8-1.5-2.5l1.4-0.6c0.5,0.7,1.2,1.8,1.5,2.4L219.4,127.5z"/>
				<path class="st1" d="M222.6,140c0.6-1,0.8-2.6,0.9-4.1l1.2,0.3c-0.1,1.6-0.3,3.3-0.9,4.3L222.6,140z M230.7,133.6
					c0,0,0,0.5,0,0.7c-0.2,4.3-0.4,6-0.8,6.6c-0.3,0.4-0.6,0.6-1.1,0.6c-0.4,0.1-1,0.1-1.6,0c0-0.5-0.2-1.2-0.5-1.7
					c0.5,0.1,0.9,0.1,1.1,0.1c0.2,0,0.4-0.1,0.5-0.2c0.1-0.2,0.3-0.6,0.4-1.6l-0.6,0.2c-0.1-0.6-0.5-1.6-0.8-2.3l0.9-0.3
					c0.2,0.5,0.5,1,0.6,1.5c0-0.5,0.1-1.2,0.1-1.9h-4.4v-0.1h-1v-9.8h6.9v1.7h-2.2v1h1.9v1.6h-1.9v1.1h1.9v1.6h-1.9v1.1H230.7z
					 M225.7,136.2c0.2,1,0.3,2.4,0.2,3.3l-1,0.1c0.1-0.9,0-2.3-0.1-3.3L225.7,136.2z M225.3,127.1v1h1.2v-1H225.3z M226.5,129.8
					h-1.2v1.1h1.2V129.8z M226.5,132.5h-1.2v1.1h1.2V132.5z M226.9,136c0.3,0.9,0.5,2.1,0.6,2.9l-1,0.2c0-0.8-0.3-2-0.6-2.9
					L226.9,136z M233.1,138.8h6.4v1.9h-6.4v0.9h-2v-16.2h8.2v1.9h-6.2v2.7l1.1-0.9c0.6,0.6,1.2,1.2,1.8,1.9c0.3-1,0.5-2.1,0.7-3.2
					l2,0.3c-0.3,1.7-0.7,3.2-1.2,4.7c0.9,1.1,1.6,2.2,2.1,3.1l-1.6,1.4c-0.3-0.7-0.8-1.5-1.4-2.3c-0.6,1.3-1.4,2.5-2.3,3.4
					c-0.3-0.3-0.8-0.8-1.3-1.2V138.8z M233.1,136.7c0.9-0.9,1.6-2.2,2.2-3.5c-0.7-0.9-1.4-1.8-2.2-2.6V136.7z"/>
				<path class="st1" d="M246.4,126c-0.1,0.4-0.3,1.1-0.4,1.4c-0.4,2-1.1,5.7-0.6,7.9c0.2-0.5,0.5-1.4,0.8-2.1l1.1,0.7
					c-0.5,1.5-1,3.3-1.2,4.4c-0.1,0.3-0.1,0.7-0.1,0.9c0,0.2,0,0.5,0.1,0.7l-2,0.2c-0.4-1.1-1-3.6-1-5.8c0-2.9,0.4-5.7,0.6-7.1
					c0.1-0.5,0.1-1.1,0.1-1.5L246.4,126z M257.8,131.2c-0.7,0.1-1.6,0.2-2.6,0.2v0.7c0,4.2-0.3,6.8-3.9,9.1l-2.1-1.6
					c0.7-0.3,1.6-0.9,2.1-1.4c1.4-1.4,1.7-3,1.7-6v-0.6c-0.7,0-1.4,0-2,0c-0.8,0-1.9-0.1-2.8-0.1v-2.3c0.9,0.1,1.7,0.2,2.7,0.2
					c0.6,0,1.3,0,2,0c0-1-0.1-1.9-0.1-2.4c0-0.4-0.1-0.9-0.2-1.2h2.6c-0.1,0.4-0.1,0.8-0.1,1.2c0,0.4,0,1.3,0,2.3
					c1-0.1,1.9-0.2,2.7-0.3L257.8,131.2z"/>
				<path class="st1" d="M262.4,129.6c1.4-0.4,5-1.7,7.6-1.7c3.2,0,5.8,1.9,5.8,5.1c0,4-3.9,6.6-10.1,7l-1-2.4
					c4.8-0.1,8.6-1.5,8.6-4.6c0-1.7-1.2-3-3.3-3c-2.6,0-6.8,1.8-8.7,2.6l-1-2.5C260.8,130,261.7,129.8,262.4,129.6z"/>
				<path class="st1" d="M282.8,126c-0.1,0.4-0.3,1.1-0.4,1.4c-0.4,2-1.1,5.7-0.6,7.9c0.2-0.5,0.5-1.4,0.8-2.1l1.1,0.7
					c-0.5,1.5-1,3.3-1.2,4.4c-0.1,0.3-0.1,0.7-0.1,0.9c0,0.2,0,0.5,0.1,0.7l-2,0.2c-0.4-1.1-1-3.6-1-5.8c0-2.9,0.4-5.7,0.6-7.1
					c0.1-0.5,0.1-1.1,0.1-1.5L282.8,126z M294.2,131.2c-0.7,0.1-1.6,0.2-2.6,0.2v0.7c0,4.2-0.3,6.8-3.9,9.1l-2.1-1.6
					c0.7-0.3,1.6-0.9,2.1-1.4c1.4-1.4,1.7-3,1.7-6v-0.6c-0.7,0-1.4,0-2,0c-0.8,0-1.9-0.1-2.8-0.1v-2.3c0.9,0.1,1.7,0.2,2.7,0.2
					c0.6,0,1.3,0,2,0c0-1-0.1-1.9-0.1-2.4c0-0.4-0.1-0.9-0.2-1.2h2.6c-0.1,0.4-0.1,0.8-0.1,1.2c0,0.4,0,1.3,0,2.3
					c1-0.1,1.9-0.2,2.7-0.3L294.2,131.2z"/>
			</g>
			<g class="st0">
				<path class="st1" d="M32.8,151.3c0.8,0,4.1-0.2,5.2-0.3c0.6-0.1,1-0.1,1.2-0.2l1.4,1.6c-0.4,0.3-1,0.7-1.4,1
					c-1.3,1-3,2.5-4.2,3.4c2.4-0.3,5.3-0.4,7.5-0.4v2.1c-1.7-0.1-3.5-0.1-4.6,0c-1.6,0.2-3,1.4-3,2.8c0,1.4,1.1,1.9,2.7,2.1
					c1,0.1,2.1,0.1,2.7,0l-0.5,2.3c-4.6,0.2-7.2-1.2-7.2-4.1c0-1.1,0.6-2.2,1.3-2.8c-1.6,0.1-3.6,0.4-5.4,0.7l-0.2-2.2
					c1-0.1,2.2-0.3,3.1-0.4c1.6-1,3.9-3.1,5-4.1c-0.7,0.1-2.9,0.2-3.6,0.2c-0.5,0-1,0.1-1.6,0.2l-0.1-2.3
					C31.7,151.3,32.2,151.3,32.8,151.3z"/>
				<path class="st1" d="M52.8,163.6c0.7-0.1,1.2-0.2,1.7-0.3c2.3-0.5,4.1-2.2,4.1-4.8c0-2.5-1.3-4.3-3.7-4.7
					c-0.3,1.5-0.6,3.2-1.1,4.8c-1.1,3.6-2.6,5.8-4.6,5.8c-2,0-3.6-2.2-3.6-5.2c0-4.1,3.6-7.6,8.2-7.6c4.4,0,7.2,3.1,7.2,7
					c0,3.7-2.3,6.4-6.8,7.1L52.8,163.6z M51.4,158.2c0.4-1.3,0.7-2.8,1-4.3c-3,0.6-4.5,3.2-4.5,5.2c0,1.8,0.7,2.7,1.4,2.7
					C50,161.8,50.7,160.6,51.4,158.2z"/>
				<path class="st1" d="M73.3,158.8c-0.1,0.3-0.3,0.6-0.5,0.9h7.3c0,0,0,0.5,0,0.7c-0.3,3.5-0.5,5-1,5.5c-0.3,0.4-0.7,0.6-1.2,0.6
					c-0.4,0.1-1.1,0.1-1.8,0c0-0.5-0.2-1.2-0.5-1.7c0.6,0.1,1,0.1,1.3,0.1c0.3,0,0.4,0,0.5-0.2c0.3-0.3,0.5-1.2,0.7-3.4h-0.7
					c-0.7,2-2.1,4.2-3.6,5.3c-0.4-0.4-1-0.9-1.5-1.2c1.4-0.9,2.6-2.5,3.3-4.1h-1.1c-1,1.7-2.6,3.5-4.2,4.5c-0.3-0.4-0.9-1-1.4-1.3
					c1.3-0.7,2.7-1.9,3.7-3.3h-1.1c-0.6,0.7-1.4,1.3-2.1,1.8c-0.3-0.3-1-1-1.4-1.3c-1.3,0.6-2.6,1.3-3.7,1.8l-0.8-2.2
					c0.6-0.2,1.4-0.5,2.2-0.9v-5.1H64v-2h1.8V150h2v3.5h1.7v2h-1.7v4.2l1.4-0.6l0.4,1.5c0.6-0.6,1.2-1.2,1.7-1.9h-2V157h11.3v1.8
					H73.3z M79.3,156.3h-8.5v-6.1h8.5V156.3z M77.3,151.7h-4.6v0.9h4.6V151.7z M77.3,153.9h-4.6v0.9h4.6V153.9z"/>
				<path class="st1" d="M91,162.4c0-0.5,0.1-1.4,0.1-2.1c-1.3,0.7-2,1.4-2,2.3c0,1,0.8,1.3,2.6,1.3c1.5,0,3.5-0.2,5.1-0.5l-0.1,2.3
					c-1.2,0.1-3.4,0.3-5,0.3c-2.8,0-4.9-0.7-4.9-3c0-2.3,2.2-3.7,4.2-4.8c-0.3-0.5-0.8-0.6-1.2-0.6c-1,0-2.1,0.6-2.8,1.2
					c-0.5,0.5-1,1.2-1.7,2l-1.9-1.4c1.9-1.7,3.1-3.3,3.9-4.9H87c-0.7,0-2,0-3-0.1v-2.1c0.9,0.1,2.2,0.2,3.1,0.2H88
					c0.2-0.8,0.3-1.5,0.4-2l2.3,0.2c-0.1,0.4-0.2,1-0.4,1.8c1.7-0.1,3.5-0.2,5-0.5l0,2.1c-1.7,0.3-3.9,0.4-5.8,0.5
					c-0.3,0.6-0.6,1.3-1,1.8c0.5-0.2,1.4-0.4,2-0.4c1.1,0,2,0.5,2.4,1.4c0.9-0.4,1.7-0.7,2.4-1.1c0.7-0.3,1.3-0.6,2-0.9l0.9,2.1
					c-0.6,0.1-1.5,0.5-2.1,0.8c-0.8,0.3-1.8,0.7-2.9,1.2c0,1,0.1,2.3,0.1,3.1H91z"/>
				<path class="st1" d="M104.5,156.3c-0.3,1.5-0.8,3.1-1.7,4.3c-0.4-0.4-1.3-1.1-1.8-1.3c1.4-1.7,1.6-4.1,1.6-5.8v-2h6.7
					c-0.1-0.6-0.1-1.2-0.2-1.8h2.1c0,0.6,0.1,1.2,0.2,1.8h2.1c-0.4-0.4-0.9-0.8-1.3-1.1l1.4-0.9c0.7,0.4,1.5,1.1,2,1.5l-0.6,0.4h2.3
					v1.8h-5.5c0.3,0.8,0.6,1.6,0.9,2.3c0.6-0.6,1.2-1.3,1.5-2.1l1.9,0.6c-0.6,1.2-1.4,2.2-2.4,3.1c0.5,0.5,1,0.8,1.5,0.8
					c0.5,0,0.6-0.5,0.7-1.9c0.4,0.4,1.1,0.8,1.7,1c-0.3,2.4-1,3-2.5,3c-1.1,0-2.1-0.6-3-1.5c-0.8,0.5-1.6,1-2.5,1.4
					c-0.3-0.4-0.8-1.1-1.2-1.5c-0.1,0.1-0.1,0.2-0.2,0.3c-0.3,0.3-0.7,0.5-1.1,0.5c-0.4,0.1-1.1,0.1-1.9,0.1c0-0.5-0.2-1.2-0.4-1.6
					c0.6,0.1,1,0.1,1.3,0.1c0.2,0,0.3,0,0.5-0.2c0.1-0.2,0.2-0.6,0.3-1.5H104.5z M115.5,164.3h2v1.9h-16.4v-1.9h2.1v-4h12.2V164.3z
					 M104.6,153.4v0.1c0,0.3,0,0.7,0,1.1h4.2c0,0,0,0.4,0,0.6c-0.1,1.6-0.1,2.6-0.3,3.1c0.9-0.4,1.7-0.8,2.5-1.3
					c-0.6-1-1.1-2.3-1.4-3.7H104.6z M105.3,164.3h1.4V162h-1.4V164.3z M108.7,162v2.4h1.4V162H108.7z M112,162v2.4h1.4V162H112z"/>
				<path class="st1" d="M124.2,150.6c-0.3,0.9-0.6,2.7-0.7,3.7c0.8-1.4,2.4-2.9,4.4-2.9c2.5,0,4.4,2.4,4.4,6.4c0,5-3.1,7.5-7.8,8.3
					l-1.4-2.1c4-0.6,6.7-1.9,6.7-6.2c0-2.8-0.9-4.3-2.4-4.3c-2.1,0-3.9,3.2-4,5.5c0,0.5,0,1.1,0.1,1.9l-2.2,0.1
					c-0.1-0.7-0.2-1.8-0.2-3c0-1.7,0.2-3.9,0.5-5.7c0.1-0.6,0.1-1.4,0.1-1.9L124.2,150.6z"/>
				<path class="st1" d="M151.7,163.5v2.2h-16.4v-2.2h6.4V150h2.3v5.1h6.4v2.2h-6.4v6.2H151.7z"/>
				<path class="st1" d="M158.9,151.5c-0.2,0.5-0.3,1.1-0.4,1.5c-0.4,2-1.1,5.5-0.6,7.7c0.2-0.6,0.6-1.4,0.8-2.1l1.1,0.7
					c-0.5,1.5-1,3.3-1.2,4.4c-0.1,0.3-0.1,0.7-0.1,0.9c0,0.2,0,0.5,0,0.7l-2,0.2c-0.4-1.1-1-3.6-1-5.8c0-2.9,0.4-5.5,0.6-6.9
					c0.1-0.5,0.1-1.1,0.1-1.5L158.9,151.5z M167.5,151.2c-0.1,0.4-0.1,0.8-0.1,1.2c0,0.4,0,1.3,0,2.3c1.1-0.1,2.1-0.2,2.9-0.3l0,2.3
					c-0.8,0.1-1.7,0.2-2.8,0.2v0.6c0,4.2-0.3,6.8-3.9,9.1l-2.1-1.6c0.7-0.3,1.6-0.9,2.1-1.4c1.4-1.4,1.7-3,1.7-6V157
					c-0.6,0-1.2,0-1.8,0c-0.8,0-1.9-0.1-2.8-0.1v-2.3c0.9,0.1,1.7,0.2,2.7,0.2c0.6,0,1.2,0,1.8,0c0-1-0.1-1.9-0.1-2.4
					c0-0.4-0.1-0.9-0.2-1.2H167.5z M168.7,153.5c-0.3-0.8-0.6-1.8-0.9-2.6l1.2-0.4c0.3,0.7,0.8,1.8,1,2.5L168.7,153.5z M170.9,150
					c0.3,0.7,0.8,1.8,1,2.5l-1.2,0.4c-0.3-0.8-0.6-1.8-1-2.5L170.9,150z"/>
				<path class="st1" d="M174.9,152.6c1.5-0.1,4.4-0.4,7.7-0.7c1.8-0.1,3.8-0.3,5-0.3l0,2.3c-1,0-2.5,0-3.4,0.2
					c-2.1,0.6-3.8,2.9-3.8,5c0,2.9,2.8,4,5.8,4.1l-0.8,2.5c-3.7-0.3-7.3-2.3-7.3-6.1c0-2.6,1.4-4.6,2.6-5.5c-1.5,0.2-5.3,0.6-7.4,1
					l-0.2-2.4C173.8,152.6,174.5,152.6,174.9,152.6z"/>
				<path class="st1" d="M200.2,152.1c-0.6,0.4-1.2,0.9-1.6,1.2c-1.2,0.9-3.5,2.8-4.7,3.8c-1,0.8-0.9,1,0,1.8
					c1.3,1.1,4.8,3.9,6.5,5.6l-2.1,1.9c-0.5-0.6-1.1-1.1-1.6-1.7c-1-1-3.7-3.3-5.3-4.7c-1.8-1.5-1.6-2.5,0.2-4
					c1.4-1.1,3.8-3.1,5-4.3c0.5-0.5,1.1-1.1,1.4-1.5L200.2,152.1z"/>
				<path class="st1" d="M220.8,164c-0.8,0.8-1.9,1.4-3.3,1.4c-1.3,0-2.2-1-2.2-2.7c0-1.9,0.6-4.6,0.6-6.2c0-0.9-0.5-1.3-1.2-1.3
					c-1.3,0-3.3,1.6-4.7,3.2c0,0.5,0,1,0,1.4c0,1.5,0,3,0.1,4.6c0,0.3,0.1,1,0.1,1.4h-2.4c0-0.4,0.1-1,0.1-1.3c0-1.4,0-2.4,0.1-3.9
					c-0.8,1.1-1.6,2.4-2.3,3.3l-1.4-2c1-1.2,2.8-3.6,3.8-5.1l0.1-1.2c-0.9,0.1-2.2,0.3-3.2,0.4l-0.2-2.3c0.5,0,0.9,0,1.5,0
					c0.5,0,1.3-0.1,2.1-0.2c0-0.7,0.1-1.2,0.1-1.4c0-0.5,0-1-0.1-1.6l2.6,0.1c-0.1,0.5-0.3,1.4-0.4,2.5l0.7,0.8
					c-0.2,0.3-0.6,0.9-0.9,1.4c0,0.1,0,0.3,0,0.4c1.4-1.2,3.5-2.6,5.2-2.6c1.9,0,2.8,1.1,2.8,2.6c0,1.9-0.6,4.5-0.6,6.3
					c0,0.5,0.2,0.8,0.7,0.8c0.6,0,1.5-0.5,2.3-1.3L220.8,164z"/>
				<path class="st1" d="M235.7,165.1c-1-0.9-2.2-1.8-3.6-2.5c0,0.2,0,0.5,0,0.6c0,1.5-1.2,2.7-3.5,2.7c-2.8,0-4.4-1.1-4.4-3
					c0-1.8,1.7-3.1,4.4-3.1c0.4,0,0.7,0,1.1,0.1c0-0.5-0.1-1.1-0.1-1.6h-0.9c-1,0-3.1-0.1-4.3-0.2l0-2.1c1,0.2,3.3,0.3,4.3,0.3h0.8
					v-1.9h-0.8c-1.1,0-2.8-0.1-3.9-0.3l0-2c1.1,0.2,2.8,0.3,3.9,0.3h0.9v-0.8c0-0.3,0-0.9-0.1-1.2h2.4c-0.1,0.4-0.1,0.8-0.1,1.3
					l0,0.7c1.4-0.1,2.7-0.2,4.2-0.4l0.1,2.1c-1.2,0.1-2.6,0.3-4.3,0.3l0,1.9c1.8-0.1,3.3-0.2,4.8-0.4v2.1c-1.6,0.2-3,0.3-4.7,0.4
					c0,0.7,0.1,1.4,0.1,2.1c2.2,0.6,4,1.8,5,2.7L235.7,165.1z M229.8,161.9c-0.5-0.1-1-0.1-1.5-0.1c-1.3,0-1.9,0.5-1.9,1.1
					c0,0.7,0.6,1.1,1.9,1.1c1,0,1.6-0.3,1.6-1.3C229.8,162.4,229.8,162.2,229.8,161.9z"/>
				<path class="st1" d="M255.1,154.7c-1.1-0.1-2.8-0.1-5.2-0.1c0,0.9,0,1.9,0,2.6c0.5,0.7,0.7,1.5,0.7,2.5c0,2.3-1.4,5.3-5.7,6.5
					l-1.9-1.9c1.8-0.4,3.4-1,4.4-2c-0.3,0.1-0.5,0.1-0.8,0.1c-1.4,0-3.1-1.1-3.1-3.3c0-2,1.6-3.3,3.6-3.3c0.3,0,0.5,0,0.7,0.1l0-1.2
					c-2.7,0-5.5,0.1-7.7,0.3l-0.1-2.2c2,0,5.3-0.1,7.7-0.1c0-0.2,0-0.4,0-0.5c0-0.6-0.1-1.3-0.2-1.5h2.6c-0.1,0.3-0.1,1.2-0.1,1.5
					c0,0.1,0,0.3,0,0.5c1.8,0,4.2,0,5.2,0L255.1,154.7z M247,160.4c0.7,0,1.4-0.6,1.2-2.1c-0.3-0.4-0.7-0.6-1.2-0.6
					c-0.7,0-1.4,0.5-1.4,1.4C245.6,159.9,246.3,160.4,247,160.4z"/>
			</g>
			<g class="st0">
				<path class="st1" d="M276.4,163.4c0-1,0.8-1.8,1.9-1.8c1.1,0,1.9,0.8,1.9,1.8c0,1-0.8,1.8-1.9,1.8
					C277.2,165.2,276.4,164.4,276.4,163.4z M276.7,154.2l-0.1-2.7h3.3l-0.1,2.7l-0.6,6.2h-1.9L276.7,154.2z"/>
			</g>
			<circle id="Oval-2-Copy-3" class="st2" cx="50" cy="50" r="50"/>
			<circle id="Oval-2-Copy-4" class="st2" cx="160" cy="50" r="50"/>
			<circle id="Oval-2-Copy-5" class="st2" cx="270" cy="50" r="50"/>
			<g class="st0">
				<path class="st1" d="M39.9,55.5v2.6H23.1v-2.6H39.9z M38.4,44.5V47H24.6v-2.5H38.4z"/>
				<path class="st1" d="M47.2,52.5C45.9,54,44.3,55.7,43,57l-1.4-1.9c1-1,2.7-2.8,4.3-4.5L47.2,52.5z M45.4,47.6
					c-0.7-0.8-2.1-2-3.3-2.9l1.6-1.7c1.1,0.7,2.7,1.9,3.4,2.7L45.4,47.6z M53.7,49.4c0,2,1.1,6.2,5.8,8.2c-0.4,0.6-1.1,1.5-1.4,2.1
					c-3.4-1.6-5.2-4.9-5.5-6.6c-0.5,1.7-2.4,4.9-6.2,6.6c-0.3-0.5-1-1.5-1.4-1.9c5.1-2.1,6.4-6.2,6.4-8.4v-2h-1.5
					c-0.6,1.3-1.3,2.5-2,3.5c-0.5-0.4-1.6-1-2.1-1.2c1.6-1.7,2.8-4.7,3.3-7.7l2.4,0.4c-0.2,1-0.5,1.9-0.8,2.8h6.5l0.4-0.1l1.7,1
					c-0.5,1.9-1.4,3.9-2.2,5.2c-0.5-0.3-1.4-0.7-1.9-0.9c0.4-0.7,0.9-1.8,1.2-2.9h-2.7V49.4z"/>
				<path class="st1" d="M65.1,48.3c-1,0.7-2.1,1.4-3.2,1.9c-0.3-0.6-0.9-1.4-1.3-1.9c3.2-1.4,6.3-4.1,7.7-6.4h2.4c2,2.8,5,5,8,6
					c-0.6,0.6-1.1,1.4-1.5,2.1c-1-0.5-2.1-1.1-3.2-1.8v1.5h-8.9V48.3z M61.7,51.3h15.7v2.1h-8.5c-0.6,1.1-1.2,2.3-1.7,3.4
					c1.8-0.1,3.8-0.1,5.7-0.2c-0.6-0.7-1.2-1.4-1.9-1.9l2-1c1.7,1.5,3.5,3.5,4.4,4.9l-2.1,1.3c-0.2-0.4-0.5-0.8-0.8-1.2
					c-4.5,0.2-9.2,0.4-12.4,0.6l-0.3-2.2l2.9-0.1c0.5-1.1,1-2.3,1.4-3.4h-4.4V51.3z M73.1,47.6c-1.5-1.1-2.8-2.3-3.6-3.5
					c-0.8,1.2-2,2.4-3.5,3.5H73.1z"/>
			</g>
			<g class="st0">
				<path class="st1" d="M138.8,46.8c-0.1,0.3-0.1,0.8-0.1,1c-0.1,2.1-0.3,7.4-1.1,9.3c-0.4,1-1.1,1.5-2.5,1.5
					c-1.1,0-2.2-0.1-3.2-0.2l-0.3-2.5c0.9,0.2,1.9,0.3,2.7,0.3c0.6,0,0.9-0.2,1.1-0.7c0.6-1.2,0.8-5,0.8-7H132
					c-0.7,5-2.5,8-5.9,10.4l-2.2-1.8c0.8-0.4,1.7-1.1,2.5-1.9c1.8-1.7,2.7-3.9,3.1-6.8H127c-0.6,0-1.7,0-2.5,0.1V46
					c0.8,0.1,1.8,0.1,2.5,0.1h2.7c0-0.5,0-1.1,0-1.7c0-0.4-0.1-1.3-0.1-1.7h2.8c-0.1,0.4-0.1,1.2-0.1,1.7c0,0.6,0,1.2-0.1,1.7h3.6
					c0.5,0,1-0.1,1.4-0.1L138.8,46.8z"/>
				<path class="st1" d="M155.6,48.9c-0.1,0.2-0.3,0.6-0.4,0.8c-0.6,1.8-1.4,3.7-2.8,5.3c-1.9,2.1-4.4,3.4-6.8,4.1l-1.9-2.1
					c2.9-0.6,5.1-1.8,6.6-3.3c1-1,1.6-2.2,2-3.3h-9.2c-0.5,0-1.4,0-2.2,0.1V48c0.8,0.1,1.6,0.1,2.2,0.1h9.4c0.6,0,1.1-0.1,1.4-0.2
					L155.6,48.9z M142.7,43.4c0.5,0.1,1.3,0.1,2,0.1h7.3c0.6,0,1.5,0,2.1-0.1v2.5c-0.5,0-1.4-0.1-2.1-0.1h-7.3c-0.6,0-1.4,0-2,0.1
					V43.4z"/>
				<path class="st1" d="M171,46.1c0.6,0,1.5-0.1,2-0.2v2.5c-0.6,0-1.3-0.1-1.8-0.1h-2.5c0.1,2.8,0.1,5.9,0.2,8.5
					c0,1.2-0.7,1.9-2.1,1.9c-1.2,0-2.2,0-3.3-0.1l-0.2-2.5c0.9,0.2,1.9,0.2,2.5,0.2c0.5,0,0.7-0.2,0.7-0.8c0-1.3,0-3.2,0-5.1
					c-1.7,2.2-4.7,4.8-7.8,6.4l-1.7-2c3.7-1.7,6.8-4.4,8.4-6.6H160c-0.7,0-1.5,0-2.2,0.1v-2.5c0.6,0.1,1.5,0.1,2.1,0.1h6.3
					c0-0.5,0-0.9-0.1-1.4c0-0.6-0.1-1.3-0.2-1.9h2.7c-0.1,0.6-0.1,1.3-0.1,1.9l0,1.4H171z"/>
			</g>
			<g class="st0">
				<path class="st1" d="M192.2,46.1c0.5,0,1.3,0,2-0.1v2.6c-0.7-0.1-1.5-0.1-2-0.1h-2.7c-0.3,5.1-2.3,8.4-5.8,10.6l-2.6-1.7
					c0.7-0.3,1.4-0.7,1.8-1.1c2-1.5,3.6-3.9,3.9-7.8h-4c-0.8,1.4-1.9,3-3.1,4l-2.4-1.4c1.3-1,2.6-2.7,3.3-3.9
					c0.5-0.9,0.9-1.9,1.1-2.6c0.2-0.6,0.4-1.3,0.4-2l2.9,0.6c-0.2,0.5-0.5,1.1-0.6,1.5c-0.2,0.4-0.3,0.9-0.5,1.4H192.2z"/>
			</g>
			<g class="st0">
				<path class="st1" d="M261.8,49.9c-0.2,0.4-0.4,0.9-0.6,1.4h6.1v1.9h-2.1c-0.3,1.2-0.7,2.2-1.3,3.1c1.3,0.6,2.4,1.2,3.2,1.7
					l-1.4,1.7c-0.8-0.6-2-1.3-3.3-1.9c-1.5,1-3.6,1.6-6.4,1.9c-0.2-0.6-0.5-1.4-0.8-1.8c2.2-0.2,3.8-0.5,5-1.1
					c-0.5-0.2-1-0.4-1.4-0.5l-0.2,0.3l-1.9-0.6c0.4-0.8,0.9-1.7,1.4-2.8h-2.3v-1c-0.5,0.1-1,0.3-1.4,0.4v4.5c0,1.1-0.2,1.7-0.8,2.1
					c-0.6,0.4-1.5,0.5-2.8,0.5c-0.1-0.6-0.3-1.6-0.6-2.2c0.7,0,1.5,0,1.8,0c0.2,0,0.3-0.1,0.3-0.4v-3.9l-2.1,0.6l-0.5-2.2
					c0.7-0.2,1.6-0.4,2.6-0.6v-3.4h-2.2v-2.1h2.2v-3.6h2.2v3.6h1.5v2.1h-1.5v2.9l1.4-0.4l0.2,1.2h3c0.2-0.5,0.4-0.9,0.6-1.4h-3.9V48
					h2.8c-0.1-0.7-0.3-1.6-0.6-2.3l0.4-0.1H256v-1.9h4.2v-1.8h2.3v1.8h4.2v1.9h-1.6c-0.3,0.9-0.6,1.7-0.9,2.4h2.9v1.9H261.8z
					 M260.2,53.2c-0.2,0.5-0.5,1-0.7,1.4c0.7,0.2,1.5,0.5,2.4,0.8c0.5-0.6,0.9-1.3,1.1-2.2H260.2z M259.8,45.6
					c0.3,0.8,0.5,1.7,0.6,2.4l-0.1,0h2c0.3-0.7,0.6-1.6,0.7-2.4H259.8z"/>
			</g>
			<g class="st0">
				<path class="st1" d="M288,49.8v1.5h2.2v2.1H288v3.9c0,1.1-0.2,1.7-1,2c-0.7,0.3-1.8,0.4-3.2,0.4c-0.1-0.6-0.4-1.5-0.7-2.1
					c0.9,0,2,0,2.3,0c0.3,0,0.4-0.1,0.4-0.3v-3.8h-7.4v-2.1h7.4v-1.5h-7.5V48c-0.3,0.4-0.6,0.8-0.9,1.2v10.4h-2.2v-7.9
					c-0.6,0.6-1.2,1.1-1.7,1.6c-0.2-0.5-0.7-1.8-1-2.3c1.7-1.2,3.5-3,4.6-4.9l2,0.9c-0.2,0.3-0.3,0.6-0.5,0.8h4.8v-1.7h-3.9v-2.1
					h3.9V42h2.2v2.1h4.1v2.1h-4.1v1.7h5v2.1H288z M278.6,42.8c-1.3,1.7-3.2,3.6-4.9,4.7c-0.2-0.5-0.8-1.4-1.1-1.9
					c1.5-0.9,3.1-2.5,3.9-3.7L278.6,42.8z M281.3,53.5c0.9,1,1.8,2.3,2.2,3.2l-2,1.1c-0.3-0.9-1.3-2.3-2.1-3.3L281.3,53.5z"/>
			</g>
		</g>
	</g>
</g>
</svg>
