<svg xmlns="http://www.w3.org/2000/svg" width="206" height="48.031" viewBox="0 0 206 48.031">
  <metadata><?xpacket begin="﻿" id="W5M0MpCehiHzreSzNTczkc9d"?>
<x:xmpmeta xmlns:x="adobe:ns:meta/" x:xmptk="Adobe XMP Core 5.6-c140 79.160451, 2017/05/06-01:08:21        ">
   <rdf:RDF xmlns:rdf="http://www.w3.org/1999/02/22-rdf-syntax-ns#">
      <rdf:Description rdf:about=""/>
   </rdf:RDF>
</x:xmpmeta>
                                                                                                    
                                                                                                    
                                                                                                    
                                                                                                    
                                                                                                    
                                                                                                    
                                                                                                    
                                                                                                    
                                                                                                    
                                                                                                    
                                                                                                    
                                                                                                    
                                                                                                    
                                                                                                    
                                                                                                    
                                                                                                    
                                                                                                    
                                                                                                    
                                                                                                    
                                                                                                    
                           
<?xpacket end="w"?></metadata>
<defs>
    <style>
      .cls-1 {
        fill: #2cb7bc;
        fill-rule: evenodd;
      }
    </style>
  </defs>
  <path id="シェイプ_20" data-name="シェイプ 20" class="cls-1" d="M921.268,347.78v5.8a0.728,0.728,0,0,1-1.167.575,17.6,17.6,0,0,0-10.594-3.808,15.017,15.017,0,0,0-11.282,4.781,16.071,16.071,0,0,0-4.614,11.633,15.682,15.682,0,0,0,4.614,11.465,15.284,15.284,0,0,0,11.311,4.67,13.948,13.948,0,0,0,5.88-1.118,17.05,17.05,0,0,0,2.8-1.51q0.9-.594,1.87-1.341a0.73,0.73,0,0,1,1.182.567V385.4a0.734,0.734,0,0,1-.382.643,23.706,23.706,0,0,1-11.435,2.949,21.872,21.872,0,0,1-15.9-6.459A21.35,21.35,0,0,1,887,366.817a22.706,22.706,0,0,1,33.895-19.675A0.733,0.733,0,0,1,921.268,347.78Zm14.436-6.8h4.872a0.726,0.726,0,0,1,.729.724v21.535a10.934,10.934,0,0,1,7.456-3.02,9.663,9.663,0,0,1,7.428,2.992q2.364,2.6,2.363,8.305v15.97a0.727,0.727,0,0,1-.729.725h-4.872a0.727,0.727,0,0,1-.729-0.725V372.1a7.643,7.643,0,0,0-1.168-4.741,4.516,4.516,0,0,0-3.756-1.468q-3.319,0-4.67,2.042-1.323,2.07-1.323,7.1v12.446a0.727,0.727,0,0,1-.729.725H935.7a0.727,0.727,0,0,1-.729-0.725V341.7A0.726,0.726,0,0,1,935.7,340.979Zm60.6,35.094H977.38a8.239,8.239,0,0,0,2.2,5.34,6.706,6.706,0,0,0,4.979,1.958,6.507,6.507,0,0,0,3.911-1.119,14.53,14.53,0,0,0,3.089-3.572,0.733,0.733,0,0,1,.965-0.237l4.092,2.269a0.719,0.719,0,0,1,.268,1.009,20.3,20.3,0,0,1-2.224,2.95,13.887,13.887,0,0,1-2.955,2.461,11.878,11.878,0,0,1-3.4,1.412,16.686,16.686,0,0,1-3.967.447,12.939,12.939,0,0,1-9.848-3.915q-3.713-3.942-3.713-10.458a15.036,15.036,0,0,1,3.6-10.459,13.786,13.786,0,0,1,19.188-.111q3.489,3.8,3.489,10.542l-0.014.771A0.727,0.727,0,0,1,996.3,376.073Zm-5.784-5.145q-1.323-5.034-6.387-5.034a6.593,6.593,0,0,0-2.166.35,6.212,6.212,0,0,0-1.843,1.007,6.4,6.4,0,0,0-1.421,1.579,7.32,7.32,0,0,0-.9,2.1H990.52Zm43.31,5.145H1014.9a8.221,8.221,0,0,0,2.2,5.34,6.7,6.7,0,0,0,4.98,1.958,6.51,6.51,0,0,0,3.91-1.119,14.766,14.766,0,0,0,3.09-3.572,0.727,0.727,0,0,1,.96-0.237l4.09,2.269a0.72,0.72,0,0,1,.27,1.009,20.728,20.728,0,0,1-2.22,2.95,13.96,13.96,0,0,1-2.96,2.461,11.843,11.843,0,0,1-3.4,1.412,16.687,16.687,0,0,1-3.97.447,12.947,12.947,0,0,1-9.85-3.915q-3.705-3.942-3.71-10.458a15.04,15.04,0,0,1,3.6-10.459,12.458,12.458,0,0,1,9.62-3.942q6.06,0,9.57,3.831,3.5,3.8,3.49,10.542l-0.02.771A0.719,0.719,0,0,1,1033.83,376.073Zm-5.79-5.145q-1.32-5.034-6.38-5.034a6.591,6.591,0,0,0-2.17.35,6.1,6.1,0,0,0-1.84,1.007,6.187,6.187,0,0,0-1.42,1.579,7.281,7.281,0,0,0-.91,2.1h12.72Zm20.8-9.955h4.87a0.729,0.729,0,0,1,.73.725v1.707a12.025,12.025,0,0,1,3.09-2.488,7.155,7.155,0,0,1,3.27-.7,9.868,9.868,0,0,1,4.63,1.283,0.719,0.719,0,0,1,.29.954l-2.22,4.421a0.736,0.736,0,0,1-1.03.3,5.6,5.6,0,0,0-2.86-.858q-5.175,0-5.17,7.774v13.4a0.73,0.73,0,0,1-.73.725h-4.87a0.723,0.723,0,0,1-.73-0.725V361.7A0.723,0.723,0,0,1,1048.84,360.973Zm41.76,4.974c-1,.531-2.96,1.566-3.97,2.1a0.736,0.736,0,0,1-.97-0.275,3.24,3.24,0,0,0-2.73-1.9,2.112,2.112,0,0,0-1.49.573,1.887,1.887,0,0,0-.62,1.468q0,1.566,3.66,3.1,5.025,2.155,6.78,3.972a6.782,6.782,0,0,1,1.74,4.894,8.558,8.558,0,0,1-2.93,6.6,9.977,9.977,0,0,1-6.86,2.516,9.83,9.83,0,0,1-9.45-6,0.731,0.731,0,0,1,.34-0.987l4.15-1.909a0.729,0.729,0,0,1,.93.289,9.541,9.541,0,0,0,1.38,1.922,3.934,3.934,0,0,0,2.76,1.063q3.21,0,3.21-2.909c0-1.111-.82-2.148-2.45-3.113-0.02-.012-0.04-0.024-0.06-0.034-0.63-.311-1.25-0.614-1.88-0.907s-1.28-.606-1.94-0.923a11.843,11.843,0,0,1-3.88-2.685,6.57,6.57,0,0,1-1.44-4.39,7.755,7.755,0,0,1,2.45-5.872,8.612,8.612,0,0,1,6.08-2.321q4.935,0,7.5,4.764A0.722,0.722,0,0,1,1090.6,365.947Z" transform="translate(-887 -340.969)"/>
</svg>
