<?xml version="1.0" encoding="utf-8"?>
<!-- Generator: Adobe Illustrator 22.1.0, SVG Export Plug-In . SVG Version: 6.00 Build 0)  -->
<svg version="1.1" id="レイヤー_1" xmlns="http://www.w3.org/2000/svg" xmlns:xlink="http://www.w3.org/1999/xlink" x="0px"
	 y="0px" viewBox="0 0 206 48" style="enable-background:new 0 0 206 48;" xml:space="preserve">
<style type="text/css">
	.st0{fill:#FFFFFF;}
</style>
<path id="シェイプ_20" class="st0" d="M34.3,6.8v5.8c0,0.4-0.3,0.7-0.7,0.7c-0.2,0-0.3-0.1-0.4-0.1c-3-2.4-6.7-3.7-10.6-3.8
	c-4.3-0.1-8.4,1.7-11.3,4.8c-3,3.1-4.7,7.3-4.6,11.6c-0.1,4.3,1.6,8.4,4.6,11.5c3,3.1,7.1,4.8,11.3,4.7c2,0.1,4-0.3,5.9-1.1
	c1-0.4,1.9-0.9,2.8-1.5c0.6-0.4,1.2-0.8,1.9-1.3c0.3-0.2,0.8-0.2,1,0.1c0.1,0.1,0.2,0.3,0.2,0.4v5.9c0,0.3-0.1,0.5-0.4,0.6
	C30.4,47,26.5,48,22.5,48c-6,0.1-11.7-2.2-15.9-6.5C2.3,37.5-0.1,31.8,0,25.8C0,13.3,10.2,3.2,22.8,3.2c3.9,0,7.7,1,11.1,2.9
	C34.1,6.3,34.3,6.5,34.3,6.8z M48.7,0h4.9c0.4,0,0.7,0.3,0.7,0.7c0,0,0,0,0,0v21.5c2-1.9,4.7-3,7.5-3c2.8-0.1,5.5,1,7.4,3
	c1.6,1.7,2.4,4.5,2.4,8.3v16c0,0.4-0.3,0.7-0.7,0.7l0,0H66c-0.4,0-0.7-0.3-0.7-0.7c0,0,0,0,0,0V31.1c0.1-1.7-0.3-3.3-1.2-4.7
	c-1-1.1-2.3-1.6-3.8-1.5c-2.2,0-3.8,0.7-4.7,2c-0.9,1.4-1.3,3.7-1.3,7.1v12.4c0,0.4-0.3,0.7-0.7,0.7l0,0h-4.9
	c-0.4,0-0.7-0.3-0.7-0.7c0,0,0,0,0,0V0.7C48,0.3,48.3,0,48.7,0L48.7,0z M109.3,35.1H90.4c0.1,2,0.8,3.9,2.2,5.3c1.3,1.3,3.1,2,5,2
	c1.4,0.1,2.8-0.3,3.9-1.1c1.2-1,2.3-2.2,3.1-3.6c0.2-0.3,0.6-0.4,1-0.2l4.1,2.3c0.3,0.2,0.5,0.6,0.3,1c0,0,0,0,0,0
	c-0.7,1-1.4,2-2.2,3c-0.9,1-1.9,1.8-3,2.5c-1.1,0.6-2.2,1.1-3.4,1.4c-1.3,0.3-2.6,0.5-4,0.4c-3.7,0.2-7.3-1.3-9.8-3.9
	c-2.5-2.6-3.7-6.1-3.7-10.5c-0.2-3.8,1.1-7.6,3.6-10.5c5.3-5.2,13.8-5.3,19.2-0.1c2.3,2.5,3.5,6,3.5,10.5l0,0.8
	C110,34.8,109.7,35.1,109.3,35.1L109.3,35.1z M103.5,30c-0.9-3.4-3-5-6.4-5c-0.7,0-1.5,0.1-2.2,0.4c-0.7,0.2-1.3,0.6-1.8,1
	c-0.6,0.4-1,1-1.4,1.6c-0.4,0.6-0.7,1.4-0.9,2.1L103.5,30L103.5,30z M146.8,35.1h-18.9c0.1,2,0.8,3.9,2.2,5.3c1.3,1.3,3.1,2,5,2
	c1.4,0.1,2.8-0.3,3.9-1.1c1.2-1,2.3-2.2,3.1-3.6c0.2-0.3,0.6-0.4,1-0.2l4.1,2.3c0.3,0.2,0.5,0.6,0.3,1c0,0,0,0,0,0
	c-0.7,1-1.4,2-2.2,3c-0.9,1-1.9,1.8-3,2.5c-1.1,0.6-2.2,1.1-3.4,1.4c-1.3,0.3-2.6,0.5-4,0.4c-3.7,0.2-7.3-1.3-9.8-3.9
	c-2.5-2.6-3.7-6.1-3.7-10.5c-0.2-3.8,1.1-7.6,3.6-10.5c2.5-2.7,6-4.1,9.6-3.9c4,0,7.2,1.3,9.6,3.8c2.3,2.5,3.5,6,3.5,10.5l0,0.8
	C147.5,34.8,147.2,35.1,146.8,35.1L146.8,35.1z M141,30c-0.9-3.4-3-5-6.4-5c-0.7,0-1.5,0.1-2.2,0.4c-0.7,0.2-1.3,0.6-1.8,1
	c-0.6,0.4-1,1-1.4,1.6c-0.4,0.6-0.7,1.4-0.9,2.1L141,30L141,30z M161.8,20h4.9c0.4,0,0.7,0.3,0.7,0.7v1.7c0.9-1,1.9-1.8,3.1-2.5
	c1-0.5,2.1-0.7,3.3-0.7c1.6,0,3.2,0.5,4.6,1.3c0.3,0.2,0.5,0.6,0.3,1l-2.2,4.4c-0.2,0.4-0.6,0.5-1,0.3c0,0,0,0,0,0
	c-0.9-0.5-1.8-0.8-2.9-0.9c-3.4,0-5.2,2.6-5.2,7.8v13.4c0,0.4-0.3,0.7-0.7,0.7h-4.9c-0.4,0-0.7-0.3-0.7-0.7c0,0,0,0,0,0V20.7
	C161.1,20.3,161.4,20,161.8,20C161.8,20,161.8,20,161.8,20L161.8,20z M203.6,25c-1,0.5-3,1.6-4,2.1c-0.3,0.2-0.8,0.1-1-0.3
	c-0.5-1.1-1.5-1.8-2.7-1.9c-0.6,0-1.1,0.2-1.5,0.6c-0.4,0.4-0.6,0.9-0.6,1.5c0,1,1.2,2.1,3.7,3.1c3.3,1.4,5.6,2.8,6.8,4
	c1.2,1.3,1.8,3.1,1.7,4.9c0,2.5-1,4.9-2.9,6.6c-1.9,1.7-4.3,2.6-6.9,2.5c-4.1,0.2-7.9-2.2-9.4-6c-0.2-0.4,0-0.8,0.3-1c0,0,0,0,0,0
	l4.2-1.9c0.3-0.2,0.7,0,0.9,0.3c0.4,0.7,0.8,1.3,1.4,1.9c0.7,0.7,1.7,1.1,2.8,1.1c2.1,0,3.2-1,3.2-2.9c0-1.1-0.8-2.1-2.4-3.1
	c0,0,0,0-0.1,0c-0.6-0.3-1.2-0.6-1.9-0.9s-1.3-0.6-1.9-0.9c-1.5-0.6-2.8-1.5-3.9-2.7c-1-1.2-1.5-2.8-1.4-4.4
	c-0.1-2.2,0.8-4.4,2.4-5.9c1.6-1.5,3.8-2.4,6.1-2.3c3.3,0,5.8,1.6,7.5,4.8C204.1,24.4,203.9,24.8,203.6,25L203.6,25z"/>
</svg>
