<?xml version="1.0" encoding="UTF-8"?>
<svg width="23px" height="19px" viewBox="0 0 23 19" version="1.1" xmlns="http://www.w3.org/2000/svg" xmlns:xlink="http://www.w3.org/1999/xlink">
    <!-- Generator: Sketch 51.3 (57544) - http://www.bohemiancoding.com/sketch -->
    <title>`Icon/camera</title>
    <desc>Created with Sketch.</desc>
    <defs></defs>
    <g id="Symbols" stroke="none" stroke-width="1" fill="none" fill-rule="evenodd">
        <g id="UI/Massage-board" transform="translate(-94.000000, -16.000000)" fill="#00C3C3">
            <g id="Icon/camera" transform="translate(94.000000, 16.000000)">
                <g id="photo-camera-(3)">
                    <path d="M0,5.8169598 L0,16.1380653 C0,17.7134422 1.25374492,18.9928392 2.7975353,18.9928392 L20.1254128,18.9928392 C21.6692032,18.9928392 22.9229481,17.7134422 22.9229481,16.1380653 L22.9229481,5.8169598 C22.9229481,4.31796482 21.7300191,3.10062814 20.2610792,3.10062814 L16.5372697,3.10062814 L16.4483848,2.70439698 C16.088167,1.11469849 14.7174683,0.00716080402 13.1175401,0.00716080402 L9.80072984,0.00716080402 C8.20547978,0.00716080402 6.83478105,1.11469849 6.46988514,2.70439698 L6.38100024,3.10062814 L2.66186887,3.10062814 C1.19292893,3.10062814 0,4.32273869 0,5.8169598 Z M6.8394592,4.27022613 C7.1061139,4.27022613 7.33534338,4.08404523 7.39615937,3.81670854 L7.58796363,2.9669598 C7.83122757,1.91193467 8.73878918,1.17675879 9.80072984,1.17675879 L13.1175401,1.17675879 C14.1794807,1.17675879 15.0870424,1.91193467 15.3303063,2.9669598 L15.5221106,3.81670854 C15.5829265,4.07927136 15.812156,4.27022613 16.0788107,4.27022613 L20.2564011,4.27022613 C21.0937904,4.27022613 21.7721225,4.96243719 21.7721225,5.8169598 L21.7721225,16.1380653 C21.7721225,17.0689698 21.0329744,17.8232412 20.1207346,17.8232412 L2.7975353,17.8232412 C1.88529553,17.8232412 1.1461474,17.0689698 1.1461474,16.1380653 L1.1461474,5.8169598 C1.1461474,4.96243719 1.82447954,4.27022613 2.66186887,4.27022613 L6.8394592,4.27022613 Z" id="Shape" fill-rule="nonzero"></path>
                    <ellipse id="Oval" fill-rule="nonzero" cx="3.87818856" cy="6.7669598" rx="1" ry="1"></ellipse>
                    <path d="M11.461474,15.9900754 C14.1139866,15.9900754 16.2752931,13.7845477 16.2752931,11.0777638 C16.2752931,8.3709799 14.1139866,6.16545226 11.461474,6.16545226 C8.80896147,6.16545226 6.64765494,8.36620603 6.64765494,11.0777638 C6.64765494,13.7893216 8.80896147,15.9900754 11.461474,15.9900754 Z M11.461474,7.33505025 C13.482436,7.33505025 15.1291457,9.01545226 15.1291457,11.0777638 C15.1291457,13.1400754 13.482436,14.8204774 11.461474,14.8204774 C9.44051208,14.8204774 7.79380235,13.1400754 7.79380235,11.0777638 C7.79380235,9.01545226 9.44051208,7.33505025 11.461474,7.33505025 Z" id="Shape" fill-rule="nonzero"></path>
                </g>
            </g>
        </g>
    </g>
</svg>