<?xml version="1.0" encoding="utf-8"?>
<!-- Generator: Adobe Illustrator 22.1.0, SVG Export Plug-In . SVG Version: 6.00 Build 0)  -->
<svg version="1.1" id="レイヤー_1" xmlns="http://www.w3.org/2000/svg" xmlns:xlink="http://www.w3.org/1999/xlink" x="0px"
	 y="0px" viewBox="0 0 17 17" style="enable-background:new 0 0 17 17;" xml:space="preserve">
<style type="text/css">
	.st0{fill:#222222;}
</style>
<title>Icon/guest bk 1 Copy 2</title>
<desc>Created with Sketch.</desc>
<g id="Web-SP用">
	<g id="_x5B_web-GE-3_x5D_MENU" transform="translate(-119.000000, -492.000000)">
		<g id="Icon_x2F_Credit" transform="translate(118.000000, 490.000000)">
			<path id="Combined-Shape" class="st0" d="M3.5,4.8h12c1.1,0,2,0.9,2,2v7.4c0,1.1-0.9,2-2,2h-12c-1.1,0-2-0.9-2-2V6.8
				C1.5,5.7,2.4,4.8,3.5,4.8z M3.8,5.5C3,5.5,2.3,6.2,2.3,7V14c0,0.8,0.7,1.5,1.5,1.5h11.4c0.8,0,1.5-0.7,1.5-1.5V7
				c0-0.8-0.7-1.5-1.5-1.5H3.8z M2.7,7.8h10.6c0.2,0,0.4,0.2,0.4,0.4c0,0.2-0.2,0.4-0.4,0.4H2.7c-0.2,0-0.4-0.2-0.4-0.4
				C2.3,8,2.5,7.8,2.7,7.8z"/>
		</g>
	</g>
</g>
</svg>
