<?xml version="1.0" encoding="UTF-8"?>
<svg width="20px" height="20px" viewBox="0 0 20 20" version="1.1" xmlns="http://www.w3.org/2000/svg" xmlns:xlink="http://www.w3.org/1999/xlink">
    <!-- Generator: Sketch 51.3 (57544) - http://www.bohemiancoding.com/sketch -->
    <title>Icon/ clock 1</title>
    <desc>Created with Sketch.</desc>
    <defs></defs>
    <g id="GE" stroke="none" stroke-width="1" fill="none" fill-rule="evenodd">
        <g id="[GE-3]予約内容確認" transform="translate(-44.000000, -185.000000)" fill="#000000">
            <g id="Icon/-clock" transform="translate(44.000000, 185.000000)">
                <path d="M7.09670049,7.38126154 L9.19482893,10.5886183 C9.31858424,10.7831997 9.51506959,10.9061935 9.736306,10.930183 C9.94078785,10.9511262 10.1407003,10.8837271 10.2827333,10.7420749 C10.4247663,10.6000419 10.4933077,10.4012718 10.4708413,10.1960284 C10.4464711,9.974792 10.3234773,9.77792586 10.1330846,9.65645527 L7.09670049,7.38126154 Z M10.5519487,11.0112903 L10.5557565,11.0112903 L10.5519487,11.0112903 Z M9.81398625,11.6959427 C9.76067628,11.6959427 9.70698551,11.6928964 9.65367553,11.6871847 C9.20168307,11.6380633 8.80147745,11.3878872 8.55510919,11.0021514 L5.27502237,5.98796718 C5.1741142,5.83336824 5.19848447,5.62812482 5.33328256,5.50132323 C5.46846144,5.37414085 5.67446642,5.36385964 5.82221122,5.47466824 L10.5660377,9.03082459 C10.9289264,9.26081907 11.1787217,9.66102469 11.227843,10.1130172 C11.2754412,10.5490166 11.1273157,10.9747349 10.8211641,11.2805057 C10.5527102,11.5489595 10.1924871,11.6959427 9.81398625,11.6959427 Z M9.99980961,20 C4.48603469,20 0,15.5139653 0,9.99980961 C0,7.32897969 1.03992537,4.81769891 2.92900253,2.92900253 C3.0775089,2.78011538 3.31854616,2.78011538 3.46743331,2.92900253 C3.61593968,3.07788969 3.61593968,3.31854616 3.46743331,3.46743331 C1.72229309,5.21219275 0.761571121,7.53231917 0.761571121,9.99980961 C0.761571121,15.0939588 4.90566038,19.2384289 9.99980961,19.2384289 C15.0939588,19.2384289 19.2384289,15.0939588 19.2384289,9.99980961 C19.2384289,5.03322354 15.2992023,0.969099252 10.3805952,0.769186832 L10.3805952,5.50539764 C10.3805952,5.71559126 10.2100032,5.8861832 9.99980961,5.8861832 C9.78961598,5.8861832 9.61902405,5.71559126 9.61902405,5.50539764 L9.61902405,0.380785561 C9.61902405,0.170211146 9.78961598,0 9.99980961,0 C15.5139653,0 20,4.48603469 20,9.99980961 C20,15.5139653 15.5139653,20 9.99980961,20 Z" id="Combined-Shape"></path>
            </g>
        </g>
    </g>
</svg>