<?xml version="1.0" encoding="UTF-8"?>
<svg width="25px" height="21px" viewBox="0 0 25 21" version="1.1" xmlns="http://www.w3.org/2000/svg" xmlns:xlink="http://www.w3.org/1999/xlink">
    <!-- Generator: Sketch 52.2 (67145) - http://www.bohemiancoding.com/sketch -->
    <title>Fill 1</title>
    <desc>Created with Sketch.</desc>
    <g id="Symbols" stroke="none" stroke-width="1" fill="none" fill-rule="evenodd">
        <g id="Icon/crown-gr" transform="translate(0.000000, -1.000000)" fill="#00C3C3">
            <path d="M23.2143875,5.74378697 C23.7385332,5.74378697 24.1649819,6.17018651 24.1649819,6.69433229 C24.1649819,7.21842895 23.7385332,7.64487761 23.2143875,7.64487761 C22.6902417,7.64487761 22.2638421,7.21842895 22.2638421,6.69433229 C22.2638421,6.17018651 22.6902417,5.74378697 23.2143875,5.74378697 Z M12.4999754,1.83501811 C13.0241212,1.83501811 13.4505208,2.26141764 13.4505208,2.78556342 C13.4505208,3.28131858 13.0638091,3.69651906 12.5693311,3.73247395 C12.5177564,3.72775856 12.4822436,3.72770944 12.4306198,3.73247395 C11.9361909,3.69651906 11.5494301,3.28131858 11.5494301,2.78556342 C11.5494301,2.26141764 11.9758297,1.83501811 12.4999754,1.83501811 Z M15.6269709,19.0960703 C15.8571903,19.0960703 16.0444799,18.9087315 16.0444799,18.6785613 C16.0444799,18.4483419 15.8571903,18.2610522 15.6269709,18.2610522 L3.58355388,18.2610522 L2.61124897,8.88026233 L8.13155366,13.9376723 C8.23219791,14.0299172 8.37194064,14.0671001 8.50539618,14.0371377 C8.63875348,14.0070279 8.74902499,13.9135059 8.80045229,13.7868287 L12.4999754,4.67083783 L16.1995477,13.7868287 C16.2507785,13.913162 16.3608044,14.0067332 16.4937688,14.0369903 C16.6267823,14.0671001 16.7663777,14.0304084 16.8672184,13.938802 L22.4340876,8.87795375 L21.1723261,20.6292618 L3.8290492,20.6292618 L3.67010105,19.0960703 L15.6269709,19.0960703 Z M1.78556342,5.74378697 C2.3097092,5.74378697 2.73610874,6.17018651 2.73610874,6.69433229 C2.73610874,7.21842895 2.3097092,7.64487761 1.78556342,7.64487761 C1.26141764,7.64487761 0.835018105,7.21842895 0.835018105,6.69433229 C0.835018105,6.17018651 1.26141764,5.74378697 1.78556342,5.74378697 Z M23.2143875,4.90876887 C22.229852,4.90876887 21.428824,5.70974771 21.428824,6.69433229 C21.428824,7.23149453 21.6653306,7.73014769 22.0797943,8.07157186 L16.7482528,12.9184099 L13.286366,4.38791405 C13.8948977,4.08819167 14.2855389,3.4643349 14.2855389,2.78556342 C14.2855389,1.80097884 13.4845109,1 12.4999754,1 C11.51544,1 10.714412,1.80097884 10.714412,2.78556342 C10.714412,3.4643349 11.1050531,4.08814255 11.7135849,4.38791405 L8.25263129,12.9161504 L2.94334058,8.05212085 C3.34301954,7.71123699 3.57112684,7.21955868 3.57112684,6.69433229 C3.57112684,5.70974771 2.77009889,4.90876887 1.78556342,4.90876887 C0.800978838,4.90876887 0,5.70974771 0,6.69433229 C0,7.65784495 0.772146154,8.44929475 1.73015751,8.47876598 L3.03730468,21.0898479 C3.0594081,21.3032688 3.23795462,21.4642799 3.45255427,21.4642799 L21.5473966,21.4642799 C21.7612104,21.4642799 21.9396586,21.3039564 21.9624988,21.0913215 L23.3169964,8.4764574 C24.2641526,8.42306536 25,7.6482668 25,6.69433229 C25,5.70974771 24.198972,4.90876887 23.2143875,4.90876887 Z" id="Fill-1"></path>
        </g>
    </g>
</svg>