<?xml version="1.0" encoding="UTF-8"?>
<svg width="24px" height="20px" viewBox="0 0 24 20" version="1.1" xmlns="http://www.w3.org/2000/svg" xmlns:xlink="http://www.w3.org/1999/xlink">
    <!-- Generator: Sketch 51.3 (57544) - http://www.bohemiancoding.com/sketch -->
    <title>Icon/ map 1 Copy</title>
    <desc>Created with Sketch.</desc>
    <defs></defs>
    <g id="GI" stroke="none" stroke-width="1" fill="none" fill-rule="evenodd">
        <g id="[GI-3]予約履歴詳細" transform="translate(-42.000000, -142.000000)" fill="#222222">
            <g id="Icon/Calendar-br" transform="translate(42.000000, 142.000000)">
                <path d="M22.6415094,0.930232558 C23.3905811,0.930232558 24,1.55618605 24,2.3255814 L24,4.18604651 C24,4.7924186 23.6213887,5.30939535 23.0943396,5.50139535 L23.0943396,18.6046512 C23.0943396,19.3740465 22.4849208,20 21.7358491,20 L2.26415094,20 C1.51507925,20 0.905660377,19.3740465 0.905660377,18.6046512 L0.905660377,5.50139535 C0.378611321,5.30939535 0,4.79237209 0,4.18604651 L0,2.3255814 C0,1.55618605 0.609418868,0.930232558 1.35849057,0.930232558 L4.52830189,0.930232558 L4.52830189,0.465116279 C4.52830189,0.208232558 4.73103396,-2.22044605e-16 4.98113208,-2.22044605e-16 C5.23123019,-2.22044605e-16 5.43396226,0.208232558 5.43396226,0.465116279 L5.43396226,0.930232558 L18.5660377,0.930232558 L18.5660377,0.465116279 C18.5660377,0.208232558 18.7687698,-2.22044605e-16 19.0188679,-2.22044605e-16 C19.268966,-2.22044605e-16 19.4716981,0.208232558 19.4716981,0.465116279 L19.4716981,0.930232558 L22.6415094,0.930232558 Z M22.1886792,18.6046512 L22.1886792,5.58139535 L1.81132075,5.58139535 L1.81132075,18.6046512 C1.81132075,18.8611163 2.01446038,19.0697674 2.26415094,19.0697674 L21.7358491,19.0697674 C21.9855396,19.0697674 22.1886792,18.8611163 22.1886792,18.6046512 Z M23.0943396,4.18604651 L23.0943396,2.3255814 C23.0943396,2.06911628 22.8912,1.86046512 22.6415094,1.86046512 L19.4716981,1.86046512 L19.4716981,2.79069767 C19.4716981,3.0475814 19.268966,3.25581395 19.0188679,3.25581395 C18.7687698,3.25581395 18.5660377,3.0475814 18.5660377,2.79069767 L18.5660377,1.86046512 L5.43396226,1.86046512 L5.43396226,2.79069767 C5.43396226,3.0475814 5.23123019,3.25581395 4.98113208,3.25581395 C4.73103396,3.25581395 4.52830189,3.0475814 4.52830189,2.79069767 L4.52830189,1.86046512 L1.35849057,1.86046512 C1.1088,1.86046512 0.905660377,2.06911628 0.905660377,2.3255814 L0.905660377,4.18604651 C0.905660377,4.44251163 1.1088,4.65116279 1.35849057,4.65116279 L22.6415094,4.65116279 C22.8912,4.65116279 23.0943396,4.44251163 23.0943396,4.18604651 Z M19.0729412,10.1950419 C18.6753119,10.1950419 18.3529412,9.88587907 18.3529412,9.50443721 L18.3529412,9.36634419 C18.3529412,8.98490233 18.6753119,8.67573953 19.0729412,8.67573953 C19.4705705,8.67573953 19.7929411,8.98490233 19.7929411,9.36634419 L19.7929411,9.50443721 C19.7929411,9.88587907 19.4705705,10.1950419 19.0729412,10.1950419 Z M19.0729412,15.9273256 C18.6753119,15.9273256 18.3529412,15.6181628 18.3529412,15.2367209 L18.3529412,15.0986279 C18.3529412,14.717186 18.6753119,14.4080233 19.0729412,14.4080233 C19.4705705,14.4080233 19.7929411,14.7172791 19.7929411,15.0986279 L19.7929411,15.2367209 C19.7929411,15.6182093 19.4705705,15.9273256 19.0729412,15.9273256 Z M4.88684727,10.1950419 C4.48971369,10.1950419 4.16774491,9.88587907 4.16774491,9.50443721 L4.16774491,9.36634419 C4.16774491,8.98490233 4.48971369,8.67573953 4.88684727,8.67573953 C5.28402927,8.67573953 5.60594962,8.98490233 5.60594962,9.36634419 L5.60594962,9.50443721 C5.60594962,9.88587907 5.28402927,10.1950419 4.88684727,10.1950419 Z M9.61522988,10.1950419 C9.21804787,10.1950419 8.89612752,9.88587907 8.89612752,9.50443721 L8.89612752,9.36634419 C8.89612752,8.98490233 9.21804787,8.67573953 9.61522988,8.67573953 C10.0123635,8.67573953 10.3343322,8.98490233 10.3343322,9.36634419 L10.3343322,9.50443721 C10.3343322,9.88587907 10.0123635,10.1950419 9.61522988,10.1950419 Z M14.4132682,10.1950419 C14.0160862,10.1950419 13.6941174,9.88587907 13.6941174,9.50443721 L13.6941174,9.36634419 C13.6941174,8.98490233 14.0160862,8.67573953 14.4132682,8.67573953 C14.8104017,8.67573953 15.1323705,8.98490233 15.1323705,9.36634419 L15.1323705,9.50443721 C15.1323705,9.88587907 14.8104017,10.1950419 14.4132682,10.1950419 Z M14.4457653,15.9266465 C14.0338119,15.9440884 13.6941174,15.628507 13.6941174,15.2367395 L13.6941174,15.0986 C13.6941174,14.7068326 14.0338119,14.3912977 14.4457653,14.4087395 C14.8338907,14.4251581 15.1323705,14.7472047 15.1323705,15.1202744 L15.1323705,15.2151116 C15.1323705,15.5881814 14.8338907,15.9102279 14.4457653,15.9266465 Z M9.37771925,16.5005442 C9.28733434,16.5005442 9.19699472,16.4676605 9.12481358,16.4017535 L7.54697208,14.9604512 C7.38993057,14.8169628 7.37584755,14.5698465 7.51550038,14.4084977 C7.65510792,14.2472419 7.89574189,14.2327767 8.0527834,14.3761721 L9.37418717,15.5832884 L11.1270475,13.9371953 C11.2821419,13.7915674 11.5229117,13.8026372 11.6646928,13.9619395 C11.8065192,14.1212884 11.7957872,14.3684977 11.6406475,14.5142186 L9.63451925,16.3981721 C9.56188528,16.4663581 9.46982491,16.5005442 9.37771925,16.5005442 Z M4.91936379,15.9266465 C4.50741035,15.9440884 4.16776428,15.628507 4.16776428,15.2367395 L4.16776428,15.0986 C4.16776428,14.7068326 4.50741035,14.3912977 4.91936379,14.4087395 C5.30748921,14.4251581 5.605969,14.7472047 5.605969,15.1202744 L5.605969,15.2151116 C5.605969,15.5881814 5.30748921,15.9102279 4.91936379,15.9266465 Z" id="Combined-Shape"></path>
            </g>
        </g>
    </g>
</svg>