<?xml version="1.0" encoding="UTF-8"?>
<svg width="25px" height="20px" viewBox="0 0 25 20" version="1.1" xmlns="http://www.w3.org/2000/svg" xmlns:xlink="http://www.w3.org/1999/xlink">
    <!-- Generator: Sketch 51.3 (57544) - http://www.bohemiancoding.com/sketch -->
    <title>Fill 1</title>
    <desc>Created with Sketch.</desc>
    <defs></defs>
    <g id="Symbols" stroke="none" stroke-width="1" fill="none" fill-rule="evenodd">
        <g id="Icon/Cocktail-Copy" transform="translate(0.000000, -1.000000)" fill="#000000">
            <path d="M13.6437474,18.2898551 L17.4873858,8.08678972 L23.5413552,8.08678972 L13.6437474,18.2898551 Z M7.512436,8.08678972 L11.3560744,18.2898551 L1.4589011,8.08678972 L7.512436,8.08678972 Z M4.09070277,2.28570268 L7.04621127,7.2177781 L1.19124552,7.2177781 L4.09070277,2.28570268 Z M20.9091191,2.28570268 L23.8085763,7.2177781 L17.9536106,7.2177781 L20.9091191,2.28570268 Z M16.5584124,8.08678972 L12.5001282,18.8603612 L8.44140942,8.08678972 L16.5584124,8.08678972 Z M7.85439207,6.87538753 L4.85412947,1.86901161 L11.6285095,1.86901161 L7.85439207,6.87538753 Z M16.3150892,7.2177781 L8.68473267,7.2177781 L12.5001282,2.15621995 L16.3150892,7.2177781 Z M13.3713123,1.86901161 L20.1456923,1.86901161 L17.1454298,6.87538753 L13.3713123,1.86901161 Z M24.949154,7.85823966 C24.9569752,7.84433548 24.9608857,7.82912777 24.9674033,7.81435458 C24.9765279,7.79176027 24.9856525,7.76916597 24.9904321,7.74526815 C24.9943427,7.72962594 24.9952117,7.71354923 24.9965152,7.69703801 C24.9991222,7.67357469 25.0008602,7.65054589 24.9995567,7.62708257 C24.9986877,7.61013685 24.9956462,7.59406013 24.9926046,7.57754891 C24.9886941,7.55365109 24.9830455,7.53105679 24.9747899,7.50846249 C24.9717484,7.49977237 24.9717484,7.49064775 24.9682723,7.48282664 C24.9647963,7.47457103 24.9587132,7.46848795 24.9548026,7.46066685 C24.9500231,7.45154223 24.9478505,7.44067958 24.9426365,7.43198946 L21.2871391,1.21421136 C21.279318,1.20117619 21.2684554,1.19074805 21.2593307,1.17858189 C21.2471646,1.16207067 21.2363019,1.14469043 21.2210942,1.12991724 C21.204583,1.11297151 21.1850302,1.09950183 21.1663465,1.08603215 C21.1559184,1.07864555 21.1476627,1.06865192 21.1359311,1.06213433 C21.1350621,1.06169982 21.1341931,1.06169982 21.133324,1.06126532 C21.089439,1.03519497 21.0407743,1.01955276 20.9903716,1.00999363 C20.977771,1.00825561 20.9656048,1.00651759 20.9525696,1.00521407 C20.9395345,1.00391055 20.9264993,1 20.9125951,1 L4.08722672,1 C4.07332254,1 4.06072187,1.00391055 4.04725219,1.00521407 C4.03421702,1.00651759 4.02248536,1.00825561 4.00988469,1.00999363 C3.95904751,1.01955276 3.91038286,1.03519497 3.86649777,1.06126532 C3.86562876,1.06169982 3.86475975,1.06169982 3.86389074,1.06213433 C3.85259359,1.06865192 3.84477248,1.07821105 3.83434435,1.08516314 C3.81479158,1.09950183 3.79523882,1.11297151 3.7782931,1.13035174 C3.76438891,1.14382142 3.75439528,1.15989814 3.74309813,1.17510584 C3.73310449,1.18857552 3.72093833,1.19987267 3.71268272,1.21421136 L0.0571853627,7.43198946 C0.051971293,7.44067958 0.049798764,7.45154223 0.0454537059,7.46066685 C0.0411086478,7.46848795 0.0350255665,7.47457103 0.0315495201,7.48282664 C0.0285079794,7.49064775 0.0280734736,7.49977237 0.025031933,7.50846249 C0.0172108284,7.53105679 0.0111277471,7.55365109 0.00721719487,7.57754891 C0.00417565422,7.59406013 0.00156861938,7.61013685 0.000699607765,7.62708257 C-0.00103841546,7.65054589 0.000699607765,7.67357469 0.00330664261,7.69747251 C0.00504466584,7.71354923 0.00591367745,7.72962594 0.00938972391,7.74526815 C0.0146037936,7.76960048 0.0237284155,7.79306379 0.0332875433,7.8160926 C0.0393706246,7.83043129 0.0432811769,7.84433548 0.0502332698,7.85780516 C0.0524057988,7.8612812 0.0528403046,7.86475725 0.0545783279,7.8682333 C0.0689170195,7.89300013 0.0876007692,7.91429091 0.106284519,7.9355817 C0.111498589,7.94166478 0.114540129,7.94861687 0.119754199,7.95469995 L0.124099257,7.95904501 C0.124099257,7.95947951 0.124533763,7.95947951 0.124533763,7.95947951 L12.188153,20.3959047 C12.1903255,20.3980773 12.1933671,20.3989463 12.1955396,20.4006843 C12.2037952,20.4089399 12.2137888,20.4145885 12.2229135,20.4219751 C12.2489838,20.4441349 12.2767922,20.4619496 12.3067731,20.4767228 C12.3180702,20.4828059 12.3276294,20.4901925 12.3397955,20.4949721 C12.3424026,20.4962756 12.3441406,20.4988826 12.3467476,20.4997516 C12.3506582,20.5010551 12.3545687,20.5006206 12.3584793,20.5019241 C12.4036679,20.5175664 12.451029,20.52756 12.5001282,20.52756 C12.5487928,20.52756 12.5961539,20.5175664 12.6417771,20.5019241 C12.6456876,20.5006206 12.6491637,20.5010551 12.6530742,20.4997516 C12.6561157,20.4988826 12.6574193,20.4962756 12.6604608,20.4949721 C12.6721925,20.4901925 12.6817516,20.4828059 12.6930487,20.4767228 C12.7234641,20.4619496 12.7512725,20.4441349 12.7769084,20.4219751 C12.786033,20.4145885 12.7964611,20.4089399 12.8047167,20.4006843 C12.8068893,20.3989463 12.8099308,20.3980773 12.8116688,20.3959047 L24.8800676,7.95469995 C24.8865852,7.94774786 24.8900613,7.93905774 24.8965788,7.93167114 C24.9139591,7.91124937 24.9317738,7.8912621 24.9452435,7.86779879 C24.9469815,7.86475725 24.947416,7.8612812 24.949154,7.85823966 Z" id="Fill-1"></path>
        </g>
    </g>
</svg>