<?xml version="1.0" encoding="utf-8"?>
<!-- Generator: Adobe Illustrator 22.1.0, SVG Export Plug-In . SVG Version: 6.00 Build 0)  -->
<svg version="1.1" id="レイヤー_1" xmlns="http://www.w3.org/2000/svg" xmlns:xlink="http://www.w3.org/1999/xlink" x="0px"
	 y="0px" viewBox="0 0 40 40" style="enable-background:new 0 0 40 40;" xml:space="preserve">
<style type="text/css">
	.st0{enable-background:new    ;}
	.st1{fill:#999999;}
</style>
<title>…</title>
<desc>Created with Sketch.</desc>
<g id="GE">
	<g id="_x5B_GE-3_x5D_予約内容確認" transform="translate(-246.000000, -524.000000)">
		<g class="st0">
			<path class="st1" d="M252,544c0-0.9,0.7-1.6,1.6-1.6c0.9,0,1.6,0.7,1.6,1.6c0,0.9-0.7,1.6-1.6,1.6C252.6,545.6,252,544.9,252,544
				z M258.4,544c0-0.9,0.7-1.6,1.6-1.6c0.9,0,1.6,0.7,1.6,1.6c0,0.9-0.7,1.6-1.6,1.6C259.1,545.6,258.4,544.9,258.4,544z M264.9,544
				c0-0.9,0.7-1.6,1.6-1.6c0.9,0,1.6,0.7,1.6,1.6c0,0.9-0.7,1.6-1.6,1.6C265.6,545.6,264.9,544.9,264.9,544z"/>
		</g>
	</g>
</g>
</svg>
