<svg width="42px" height="50px" viewBox="0 0 42 50" version="1.1" xmlns="http://www.w3.org/2000/svg" xmlns:xlink="http://www.w3.org/1999/xlink">
    <g id="Web-SP用" stroke="none" stroke-width="1" fill="none" fill-rule="evenodd">
        <g id="[new-web-GE-1]TOP(マイページmypage)--" transform="translate(-245.000000, -751.000000)" fill="#CCCCCC">
            <path d="M271.98712,793.8473 L260.027991,793.8473 L258.359769,791.962052 L261.541587,791.284076 C261.974688,791.18124 262.278519,790.799879 262.278519,790.372799 L262.28046,787.006845 C264.951401,787.859271 267.115347,787.849978 269.718353,787.03336 C269.736469,790.003716 269.674745,790.426571 269.770631,790.688617 C269.87635,790.978293 270.128551,791.206763 270.453344,791.283952 L273.659742,791.966141 L271.98712,793.8473 Z M268.292238,798.002627 C266.939881,799.523612 265.046891,799.519647 263.69764,797.994946 L261.672533,795.706158 L270.334296,795.706158 L268.292238,798.002627 Z M255.094106,775.164572 C255.151689,773.141053 254.954095,772.895856 255.291311,772.591808 C255.410747,772.484016 255.571333,772.421447 255.752104,772.431359 C262.711872,772.832544 268.697777,769.903074 272.649906,764.998158 C273.715642,766.789739 275.278404,767.347532 276.43692,767.493361 C276.726517,767.529788 276.945202,767.766435 276.945202,768.044093 L276.945202,775.326632 C276.945202,784.574087 265.383072,789.142246 258.549986,782.89798 C256.353554,780.890692 255.094106,778.072112 255.094106,775.164572 Z M278.886458,775.155032 C279.492955,775.047735 280.056362,774.842063 280.551445,774.558954 L280.551445,786.090612 C280.551445,786.574561 280.140213,786.967941 279.635165,786.967941 L271.659609,786.967941 L271.659609,786.249698 C275.765076,784.559319 278.886458,780.064904 278.886458,775.326632 L278.886458,775.155032 Z M278.886458,769.435727 C279.696889,769.666551 280.322019,770.178006 280.551445,770.80952 L280.551445,771.874432 C280.322019,772.506194 279.696889,773.017649 278.886458,773.248349 L278.886458,769.435727 Z M271.657797,789.654804 L271.659609,788.826551 L279.635036,788.826551 C281.210737,788.826551 282.492572,787.599207 282.492572,786.090488 L282.492572,772.131399 C282.620936,771.612386 282.621195,771.072805 282.492572,770.552677 L282.492572,765.458071 C282.492572,764.944634 282.057918,764.528704 281.521944,764.528704 C280.985582,764.528704 280.551316,764.944634 280.551316,765.458071 L280.551316,768.125123 C280.038893,767.832349 279.453617,767.62234 278.822923,767.518389 C278.595179,766.54987 277.755116,765.784174 276.689638,765.650239 C275.579129,765.510481 274.737512,764.890614 274.18821,763.807984 C273.931222,763.301112 273.427469,762.968196 272.841417,762.917149 C272.254719,762.866351 271.699205,763.106343 271.351379,763.559566 C269.683027,765.733747 265.044562,770.61029 257.035103,770.610042 C256.425889,770.610042 256.012715,770.582413 255.868693,770.576218 C254.3969,770.491347 253.152592,771.617342 253.152592,773.02942 L253.152592,775.16482 C253.152592,778.577868 254.631243,781.886716 257.209534,784.242657 C258.064608,785.024212 259.115113,785.7103 260.338945,786.195802 L260.338945,786.968065 L252.404143,786.968065 C251.898966,786.968065 251.487734,786.574561 251.487734,786.090736 L251.487734,765.207671 C251.487734,758.437454 257.253012,752.858775 264.216921,752.858775 C266.779425,752.871784 269.660382,753.55038 271.623506,754.587291 C272.867556,755.244699 273.636061,754.722217 274.864842,754.722217 C277.863553,754.722217 280.266895,757.674732 280.55481,760.330261 C280.556751,760.369165 280.560891,760.524906 280.561409,761.121604 C280.562185,762.018757 281.620417,762.087645 281.532943,762.050227 C282.069046,762.049856 282.503182,761.633307 282.502665,761.120117 C282.502535,760.955084 282.504088,760.307959 282.487913,760.157793 C282.097514,756.461017 278.80416,752.863483 274.864971,752.863483 C273.326278,752.863483 273.0865,753.236915 272.561396,752.959877 C270.335331,751.783951 267.090502,751.014661 264.294949,751.000289 C256.236965,750.950358 249.546349,757.37787 249.546349,765.207547 L249.546349,786.090612 C249.546349,787.599455 250.828442,788.826675 252.404014,788.826675 L260.338945,788.826675 L260.337133,789.654927 L250.042985,792.020532 C250.034186,792.022515 249.778363,792.0945 249.275515,792.236488 C247.911123,792.721429 245.637828,793.946915 245.013862,796.938086 C244.823774,797.852833 246.646887,798.620388 246.917851,797.301606 C247.352505,795.217252 248.933123,794.34649 249.859367,794.009484 L250.532375,793.819299 L256.257022,792.46087 C262.625174,799.644042 262.248103,799.263424 262.616246,799.606996 C264.741637,801.592355 267.77451,801.452225 269.770631,799.20767 L275.765076,792.46595 L281.467984,793.819175 C281.632969,793.89178 284.471612,794.37003 285.082767,797.301235 C285.35386,798.620016 287.173868,797.855683 286.986497,796.937591 C286.113178,792.749307 282.009651,792.036391 281.996711,792.030692 C281.952716,792.018302 282.042131,792.119404 271.657797,789.654804 Z" id="Fill-6"></path>
        </g>
    </g>
</svg>