<?xml version="1.0" encoding="UTF-8"?>
<svg width="15px" height="19px" viewBox="0 0 15 19" version="1.1" xmlns="http://www.w3.org/2000/svg" xmlns:xlink="http://www.w3.org/1999/xlink">
    <!-- Generator: Sketch 51.3 (57544) - http://www.bohemiancoding.com/sketch -->
    <title>Icon/ clock 1 Copy</title>
    <desc>Created with Sketch.</desc>
    <defs></defs>
    <g id="GG" stroke="none" stroke-width="1" fill="none" fill-rule="evenodd">
        <g id="[GG-4-1]メッセージ詳細-予約確定" transform="translate(-141.000000, -124.000000)" fill="#222222">
            <g id="Icon/Cocktail" transform="translate(137.000000, 124.000000)">
                <path d="M17.5722618,0.872159329 L16.3171386,2.72366637 L7.1309751,2.72366637 L5.87580734,0.872159329 L17.5722618,0.872159329 Z M7.72218214,3.5958257 L15.725887,3.5958257 L11.7240346,9.49916694 L7.72218214,3.5958257 Z M18.7737888,0.677188111 C18.8645415,0.543311654 18.8727391,0.371452658 18.7951293,0.229901199 C18.7175194,0.088306132 18.5666658,0 18.4025357,0 L5.04553345,0 C4.88140333,0 4.73054974,0.088306132 4.65298445,0.229901199 C4.57533005,0.371452658 4.58352764,0.543311654 4.67432493,0.677188111 L11.2785131,10.4194695 L11.2785131,18.1278407 L8.87487995,18.1278407 C8.62881842,18.1278407 8.42935844,18.3231171 8.42935844,18.5639203 C8.42935844,18.8047671 8.62881842,19 8.87487995,19 L14.5731892,19 C14.8192507,19 15.0187107,18.8047671 15.0187107,18.5639203 C15.0187107,18.3231171 14.8192507,18.1278407 14.5731892,18.1278407 L12.1695561,18.1278407 L12.1695561,10.4194695 L18.7737888,0.677188111 Z" id="Fill-1"></path>
            </g>
        </g>
    </g>
</svg>