<?xml version="1.0" encoding="UTF-8"?>
<svg width="16px" height="16px" viewBox="0 0 16 16" version="1.1" xmlns="http://www.w3.org/2000/svg" xmlns:xlink="http://www.w3.org/1999/xlink">
    <!-- Generator: Sketch 51.3 (57544) - http://www.bohemiancoding.com/sketch -->
    <title>Icon/guest bk 1 Copy 3</title>
    <desc>Created with Sketch.</desc>
    <defs></defs>
    <g id="Web-SP用" stroke="none" stroke-width="1" fill="none" fill-rule="evenodd">
        <g id="[web-GE-3]MENU" transform="translate(-119.000000, -549.000000)">
            <g id="Icon/-help" transform="translate(119.000000, 549.000000)">
                <circle id="Oval" stroke="#222222" stroke-width="1" cx="8" cy="8" r="7.5"></circle>
                <path d="M10.194963,4.13935283 C9.5891462,3.53353606 8.79787914,3.19993762 7.96687719,3.2 C6.22066277,3.20012476 4.8,4.62097466 4.8,6.36712671 C4.8,6.64327485 5.02387524,6.86721248 5.30008577,6.86721248 C5.57623392,6.86721248 5.80017154,6.64333723 5.80017154,6.36712671 C5.80017154,5.17233528 6.77221053,4.20017154 7.96700195,4.20010916 C8.53083821,4.20010916 9.07090838,4.42959844 9.48778168,4.84647173 C9.90465497,5.26334503 10.1342066,5.80347758 10.1342066,6.36731384 C10.1341442,7.3171462 9.49944639,8.17072904 8.590846,8.44319688 C7.91865887,8.64474074 7.46716569,9.24700195 7.46716569,9.94176998 L7.46716569,10.6467602 C7.46716569,10.9229084 7.69104094,11.146846 7.96725146,11.146846 C8.24339961,11.146846 8.46733723,10.9229708 8.46733723,10.6467602 L8.46733723,9.94176998 C8.46733723,9.69213255 8.63245224,9.4748694 8.87822222,9.40120078 C10.2065653,9.0028538 11.1343782,7.75535283 11.1344405,6.36737622 C11.1343782,5.53643665 10.8007797,4.74510721 10.194963,4.13935283 Z" id="Shape" fill="#222222" fill-rule="nonzero"></path>
                <path d="M8.0017929,12 C8.00156868,12 8.0012697,12 8.00097073,12 C7.67008316,12 7.40138182,12.2687181 7.40138182,12.5996263 C7.40138182,12.599701 7.40138182,12.5998505 7.40138182,12.6 C7.40138182,12.6001495 7.40138182,12.6002242 7.40138182,12.6003737 C7.40138182,12.9312819 7.67008316,13.2 8.00097073,13.2 C8.00119496,13.2 8.00156868,13.2 8.0017929,13.2 C8.33268048,13.2 8.60138182,12.9312819 8.60138182,12.6003737 C8.60138182,12.600299 8.60138182,12.6001495 8.60138182,12.6 C8.60138182,12.5998505 8.60138182,12.5997758 8.60138182,12.5996263 C8.60138182,12.2687181 8.33268048,12 8.0017929,12 Z" id="Shape" fill="#222222" fill-rule="nonzero"></path>
            </g>
        </g>
    </g>
</svg>