<?xml version="1.0" encoding="UTF-8"?>
<svg width="18px" height="15px" viewBox="0 0 18 15" version="1.1" xmlns="http://www.w3.org/2000/svg" xmlns:xlink="http://www.w3.org/1999/xlink">
    <!-- Generator: Sketch 51.3 (57544) - http://www.bohemiancoding.com/sketch -->
    <title>Icon/guest bk 1 Copy</title>
    <desc>Created with Sketch.</desc>
    <defs></defs>
    <g id="Web-SP用" stroke="none" stroke-width="1" fill="none" fill-rule="evenodd">
        <g id="[web-GE-3]MENU" transform="translate(-118.000000, -430.000000)" fill="#222222">
            <g id="Icon/Calendar-br" transform="translate(118.000000, 430.000000)">
                <path d="M16.9811321,0.697674419 C17.5429358,0.697674419 18,1.16713953 18,1.74418605 L18,3.13953488 C18,3.59431395 17.7160415,3.98204651 17.3207547,4.12604651 L17.3207547,13.9534884 C17.3207547,14.5305349 16.8636906,15 16.3018868,15 L1.69811321,15 C1.13630943,15 0.679245283,14.5305349 0.679245283,13.9534884 L0.679245283,4.12604651 C0.283958491,3.98204651 0,3.59427907 0,3.13953488 L0,1.74418605 C0,1.16713953 0.457064151,0.697674419 1.01886792,0.697674419 L3.39622642,0.697674419 L3.39622642,0.348837209 C3.39622642,0.156174419 3.54827547,-2.22044605e-16 3.73584906,-2.22044605e-16 C3.92342264,-2.22044605e-16 4.0754717,0.156174419 4.0754717,0.348837209 L4.0754717,0.697674419 L13.9245283,0.697674419 L13.9245283,0.348837209 C13.9245283,0.156174419 14.0765774,-2.22044605e-16 14.2641509,-2.22044605e-16 C14.4517245,-2.22044605e-16 14.6037736,0.156174419 14.6037736,0.348837209 L14.6037736,0.697674419 L16.9811321,0.697674419 Z M16.6415094,13.9534884 L16.6415094,4.18604651 L1.35849057,4.18604651 L1.35849057,13.9534884 C1.35849057,14.1458372 1.51084528,14.3023256 1.69811321,14.3023256 L16.3018868,14.3023256 C16.4891547,14.3023256 16.6415094,14.1458372 16.6415094,13.9534884 Z M17.3207547,3.13953488 L17.3207547,1.74418605 C17.3207547,1.55183721 17.1684,1.39534884 16.9811321,1.39534884 L14.6037736,1.39534884 L14.6037736,2.09302326 C14.6037736,2.28568605 14.4517245,2.44186047 14.2641509,2.44186047 C14.0765774,2.44186047 13.9245283,2.28568605 13.9245283,2.09302326 L13.9245283,1.39534884 L4.0754717,1.39534884 L4.0754717,2.09302326 C4.0754717,2.28568605 3.92342264,2.44186047 3.73584906,2.44186047 C3.54827547,2.44186047 3.39622642,2.28568605 3.39622642,2.09302326 L3.39622642,1.39534884 L1.01886792,1.39534884 C0.8316,1.39534884 0.679245283,1.55183721 0.679245283,1.74418605 L0.679245283,3.13953488 C0.679245283,3.33188372 0.8316,3.48837209 1.01886792,3.48837209 L16.9811321,3.48837209 C17.1684,3.48837209 17.3207547,3.33188372 17.3207547,3.13953488 Z M14.3047059,7.6462814 C14.0064839,7.6462814 13.7647059,7.4144093 13.7647059,7.12832791 L13.7647059,7.02475814 C13.7647059,6.73867674 14.0064839,6.50680465 14.3047059,6.50680465 C14.6029278,6.50680465 14.8447059,6.73867674 14.8447059,7.02475814 L14.8447059,7.12832791 C14.8447059,7.4144093 14.6029278,7.6462814 14.3047059,7.6462814 Z M14.3047059,11.9454942 C14.0064839,11.9454942 13.7647059,11.7136221 13.7647059,11.4275407 L13.7647059,11.3239709 C13.7647059,11.0378895 14.0064839,10.8060174 14.3047059,10.8060174 C14.6029278,10.8060174 14.8447059,11.0379593 14.8447059,11.3239709 L14.8447059,11.4275407 C14.8447059,11.713657 14.6029278,11.9454942 14.3047059,11.9454942 Z M3.66513545,7.6462814 C3.36728527,7.6462814 3.12580868,7.4144093 3.12580868,7.12832791 L3.12580868,7.02475814 C3.12580868,6.73867674 3.36728527,6.50680465 3.66513545,6.50680465 C3.96302195,6.50680465 4.20446222,6.73867674 4.20446222,7.02475814 L4.20446222,7.12832791 C4.20446222,7.4144093 3.96302195,7.6462814 3.66513545,7.6462814 Z M7.21142241,7.6462814 C6.9135359,7.6462814 6.67209564,7.4144093 6.67209564,7.12832791 L6.67209564,7.02475814 C6.67209564,6.73867674 6.9135359,6.50680465 7.21142241,6.50680465 C7.50927259,6.50680465 7.75074918,6.73867674 7.75074918,7.02475814 L7.75074918,7.12832791 C7.75074918,7.4144093 7.50927259,7.6462814 7.21142241,7.6462814 Z M10.8099511,7.6462814 C10.5120646,7.6462814 10.270588,7.4144093 10.270588,7.12832791 L10.270588,7.02475814 C10.270588,6.73867674 10.5120646,6.50680465 10.8099511,6.50680465 C11.1078013,6.50680465 11.3492779,6.73867674 11.3492779,7.02475814 L11.3492779,7.12832791 C11.3492779,7.4144093 11.1078013,7.6462814 10.8099511,7.6462814 Z M10.834324,11.9449849 C10.5253589,11.9580663 10.270588,11.7213802 10.270588,11.4275547 L10.270588,11.32395 C10.270588,11.0301244 10.5253589,10.7934733 10.834324,10.8065547 C11.1254181,10.8188686 11.3492779,11.0604035 11.3492779,11.3402058 L11.3492779,11.4113337 C11.3492779,11.691136 11.1254181,11.9326709 10.834324,11.9449849 Z M7.03328943,12.3754081 C6.96550075,12.3754081 6.89774604,12.3507453 6.84361019,12.3013151 L5.66022906,11.2203384 C5.54244792,11.1127221 5.53188566,10.9273849 5.63662528,10.8063733 C5.74133094,10.6854314 5.92180642,10.6745826 6.03958755,10.7821291 L7.03064038,11.6874663 L8.34528566,10.4528965 C8.46160642,10.3436756 8.64218377,10.3519779 8.74851962,10.4714547 C8.85488943,10.5909663 8.84684038,10.7763733 8.73048566,10.885664 L7.22588943,12.2986291 C7.17141396,12.3497686 7.10236868,12.3754081 7.03328943,12.3754081 Z M3.68952284,11.9449849 C3.38055776,11.9580663 3.12582321,11.7213802 3.12582321,11.4275547 L3.12582321,11.32395 C3.12582321,11.0301244 3.38055776,10.7934733 3.68952284,10.8065547 C3.98061691,10.8188686 4.20447675,11.0604035 4.20447675,11.3402058 L4.20447675,11.4113337 C4.20447675,11.691136 3.98061691,11.9326709 3.68952284,11.9449849 Z" id="Combined-Shape"></path>
            </g>
        </g>
    </g>
</svg>