<svg xmlns="http://www.w3.org/2000/svg" width="17.234" height="20.681" viewBox="0 0 17.234 20.681">
  <g id="Group_19" data-name="Group 19" transform="translate(0 0)">
    <g id="Group_18" data-name="Group 18" transform="translate(0 0)">
      <path id="Path_17" data-name="Path 17" d="M14.649,0a2.549,2.549,0,0,0-1.723.666A2.548,2.548,0,0,0,11.2,0,2.588,2.588,0,0,0,8.617,2.585a2.516,2.516,0,0,0,.157.862H.862a.861.861,0,0,0-.68,1.391l5.85,7.522v6.068l-2.324,1a.43.43,0,0,0-.261.4v.431a.431.431,0,0,0,.431.431H9.91a.431.431,0,0,0,.431-.431v-.431a.431.431,0,0,0-.261-.4l-2.324-1V12.359l4.2-5.394.672.666a.43.43,0,0,0,.606,0l3.248-3.217A2.585,2.585,0,0,0,14.649,0ZM9.823,6.894H3.964L2.624,5.17h8.54Z" transform="translate(0 0)" fill="#ddd"/>
    </g>
  </g>
</svg>
