<svg xmlns="http://www.w3.org/2000/svg" width="18" height="18" viewBox="0 0 18 18">
  <path id="Shape" d="M13.981,12.3l.809,4.944a.652.652,0,0,1-.246.635.587.587,0,0,1-.652.05L9.653,15.589a1.347,1.347,0,0,0-1.306,0L4.111,17.924a.588.588,0,0,1-.653-.05.652.652,0,0,1-.246-.635L4.02,12.3a1.514,1.514,0,0,0-.4-1.3L.189,7.493a.657.657,0,0,1-.157-.665.617.617,0,0,1,.5-.442l4.737-.721a1.408,1.408,0,0,0,1.057-.8L8.444.362a.608.608,0,0,1,1.112,0l2.118,4.5a1.407,1.407,0,0,0,1.056.8l4.738.721a.617.617,0,0,1,.5.442.658.658,0,0,1-.157.665l-3.428,3.5A1.514,1.514,0,0,0,13.981,12.3Z" fill="#30ccc3"/>
</svg>
