<svg xmlns="http://www.w3.org/2000/svg" width="22.432" height="22.431" viewBox="0 0 22.432 22.431">
  <g id="Group_272" data-name="Group 272" transform="translate(0.251 0.248)">
    <path id="Path_44" data-name="Path 44" d="M874.757,1319.863v-.63a8.628,8.628,0,0,1,.972,0,10.791,10.791,0,0,1,8.84,6.076,10.036,10.036,0,0,1,1.026,6.266,10.548,10.548,0,0,1-7.484,8.961,10.941,10.941,0,0,1-14.167-8.636,10.6,10.6,0,0,1,1.869-8.068,10.866,10.866,0,0,1,1.278-1.312,1.283,1.283,0,0,1,.247-.153l-.068-.1H864.5v-.675c.074,0,.152-.014.231-.014h3.3a.547.547,0,0,1,.555.542q0,1.663,0,3.326c0,.071-.009.142-.015.226h-.661v-2.909c-.037-.011-.06-.024-.065-.019a14.393,14.393,0,0,0-1.628,1.714A10.206,10.206,0,0,0,867.6,1337.5a10.043,10.043,0,0,0,8.393,2.832,10.263,10.263,0,0,0,.752-20.256c-.572-.116-1.164-.131-1.746-.193C874.928,1319.877,874.856,1319.872,874.757,1319.863Z" transform="translate(-863.794 -1319.221)" stroke="#000" stroke-width="0.5"/>
    <path id="Path_45" data-name="Path 45" d="M967.888,1367.651l-.478.474c-.054-.048-.109-.093-.159-.142-.957-.957-1.916-1.911-2.867-2.874a.533.533,0,0,1-.155-.331c-.009-2.209-.007-4.418-.006-6.627,0-.048.008-.1.014-.163h.655c0,.091.013.184.013.278,0,2.038,0,4.075,0,6.114a.65.65,0,0,0,.216.51C966.04,1365.8,966.953,1366.718,967.888,1367.651Z" transform="translate(-953.61 -1353.891)" stroke="#000" stroke-width="0.5"/>
    <path id="Path_46" data-name="Path 46" d="M965.031,1332.064v1.335h-.653v-1.335Z" transform="translate(-953.75 -1330.707)" stroke="#000" stroke-width="0.5"/>
    <path id="Path_47" data-name="Path 47" d="M876.9,1419.451h1.332v.651H876.9Z" transform="translate(-875.516 -1408.86)" stroke="#000" stroke-width="0.5"/>
    <path id="Path_48" data-name="Path 48" d="M1046.7,1419.507v.648h-1.345v-.648Z" transform="translate(-1026.166 -1408.91)" stroke="#000" stroke-width="0.5"/>
    <path id="Path_49" data-name="Path 49" d="M964.9,1501.681h-.659c0-.423,0-.836.005-1.248,0-.037.079-.1.124-.1.169-.013.339-.005.53-.005Z" transform="translate(-953.626 -1481.185)" stroke="#000" stroke-width="0.5"/>
  </g>
</svg>
