<?xml version="1.0" encoding="utf-8"?>
<!-- Generator: Adobe Illustrator 22.1.0, SVG Export Plug-In . SVG Version: 6.00 Build 0)  -->
<svg version="1.1" id="レイヤー_1" xmlns="http://www.w3.org/2000/svg" xmlns:xlink="http://www.w3.org/1999/xlink" x="0px"
	 y="0px" viewBox="0 0 32 32" style="enable-background:new 0 0 32 32;" xml:space="preserve">
<style type="text/css">
	.st0{fill:#FFFFFF;}
	.st1{fill:#00C3C3;}
	.st2{fill:#FFFFFF;stroke:#000000;stroke-miterlimit:10;}
</style>
<g>
	<circle class="st0" cx="16" cy="16" r="14.5"/>
	<path class="st1" d="M30.5,16h-1c0,3.7-1.5,7.1-4,9.5c-2.4,2.4-5.8,4-9.5,4c-3.7,0-7.1-1.5-9.5-4c-2.4-2.4-4-5.8-4-9.5
		c0-3.7,1.5-7.1,4-9.5c2.4-2.4,5.8-4,9.5-4c3.7,0,7.1,1.5,9.5,4c2.4,2.4,4,5.8,4,9.5H30.5h1c0-8.6-6.9-15.5-15.5-15.5
		C7.4,0.5,0.5,7.4,0.5,16c0,8.6,6.9,15.5,15.5,15.5c8.6,0,15.5-6.9,15.5-15.5H30.5z"/>
</g>
<path class="st1" d="M14.6,8.9c0-0.8,0.6-1.3,1.4-1.3c0.8,0,1.4,0.5,1.4,1.3c0,0.7-0.6,1.3-1.4,1.3C15.2,10.2,14.6,9.7,14.6,8.9z
	 M15,12.6h2v11.7h-2V12.6z"/>
<polygon class="st2" points="10.5,1.5 10.5,1.5 10.5,1.5 10.5,1.5 "/>
</svg>
