<svg xmlns="http://www.w3.org/2000/svg" width="16.01" height="14.041" viewBox="0 0 16.01 14.041">
  <path id="_Icon_Like" data-name="`Icon/Like" d="M14.975,3.933A4.14,4.14,0,0,0,10.916,0,4.084,4.084,0,0,0,7.459,1.884,3.93,3.93,0,0,0,4.084,0,4.14,4.14,0,0,0,.025,3.932,3.84,3.84,0,0,0,.153,5.427,6.353,6.353,0,0,0,2.229,8.7l4.838,4.152a.6.6,0,0,0,.778,0L12.771,8.7a6.354,6.354,0,0,0,2.077-3.277A3.849,3.849,0,0,0,14.975,3.933Z" transform="translate(0.505 0.5)" fill="#30ccc3" stroke="#30ccc3" stroke-linecap="round" stroke-linejoin="round" stroke-miterlimit="10" stroke-width="1"/>
</svg>
