<?xml version="1.0" encoding="UTF-8"?>
<svg width="117px" height="24px" viewBox="0 0 117 24" version="1.1" xmlns="http://www.w3.org/2000/svg" xmlns:xlink="http://www.w3.org/1999/xlink">
    <!-- Generator: Sketch 51.3 (57544) - http://www.bohemiancoding.com/sketch -->
    <title>logo_icon 1</title>
    <desc>Created with Sketch.</desc>
    <defs></defs>
    <g id="Web-SP用" stroke="none" stroke-width="1" fill="none" fill-rule="evenodd">
        <g id="[web-GN-1]予約一覧画面" transform="translate(-9.000000, -73.000000)" stroke="#979797">
            <g id="logo_icon" transform="translate(9.000000, 73.000000)">
                <g stroke="none">
                    <path d="M21.4963577,19.3947494 C23.1039913,17.3556086 24.0685714,14.7894988 24.0685714,11.9942721 C24.0685714,5.56754177 19.0160087,0.33221957 12.654373,0.0114558473 C12.4476772,0 12.2409815,0 12.0342857,0 C11.82759,0 11.6208942,0 11.4141985,0.0114558473 C5.0525627,0.33221957 0,5.56754177 0,11.9942721 C0,18.6272076 5.38557252,24 12.0342857,24 C14.434253,24 16.6619738,23.2897375 18.5452017,22.0868735 L22.5413195,22.2816229 C22.9432279,22.3732697 23.2073391,21.8692124 22.8972955,21.5942721 L21.4963577,19.3947494 Z" id="Shape" fill="#31ACB0" fill-rule="nonzero"></path>
                    <g id="Group" transform="translate(4.011429, 2.666667)" fill="#FFFFFF" fill-rule="nonzero">
                        <path d="M15.5203882,14.5110142 C15.4978786,14.4212322 15.3965853,14.3651185 15.3065468,14.387564 L14.8000802,14.5334597 C14.8000802,14.5334597 14.8000802,14.5334597 14.8000802,14.5334597 C13.5620506,14.6681327 13.1681322,14.028436 13.0780936,13.8152038 C13.0780936,13.8152038 13.0780936,13.8152038 13.0780936,13.8152038 L12.2002182,10.7738389 C12.2002182,10.7738389 12.2002182,10.7738389 12.2002182,10.7738389 L13.1006033,9.14654028 C13.1006033,9.14654028 13.7871469,8.00181991 13.7421277,7.11522275 C13.6858536,5.83582938 11.8288093,2.55878673 11.5699486,2.10987678 C11.547439,2.07620853 11.5136745,2.06498578 11.4799101,2.07620853 L9.82545246,2.54756398 L9.49906286,2.63734597 L7.84460523,3.10870142 C7.83335041,3.10870142 7.78833116,3.10870142 7.76582153,3.10870142 L6.1113639,2.63734597 L5.7849743,2.54756398 L4.13051667,2.07620853 C4.09675223,2.06498578 4.06298779,2.07620853 4.04047816,2.10987678 C3.78161744,2.55878673 1.92457316,5.83582938 1.86829909,7.11522275 C1.82327984,8.00181991 2.50982348,9.14654028 2.50982348,9.14654028 L3.41020858,10.7738389 C3.41020858,10.7738389 3.41020858,10.7738389 3.41020858,10.7738389 L2.53233311,13.8152038 C2.53233311,13.8152038 2.53233311,13.8152038 2.53233311,13.8152038 C2.43103978,14.0396588 2.04837611,14.6681327 0.810346594,14.5334597 C0.810346594,14.5334597 0.810346594,14.5334597 0.810346594,14.5334597 L0.303879973,14.387564 C0.213841462,14.3651185 0.123802952,14.4100095 0.0900385105,14.5110142 C0.0675288829,14.6007962 0.123802952,14.6905782 0.213841462,14.7130237 L4.36686776,15.8914123 C4.45690627,15.9138578 4.54694478,15.8689668 4.58070922,15.7679621 C4.60321885,15.6781801 4.54694478,15.5883981 4.45690627,15.5659526 L3.95043965,15.4200569 C3.95043965,15.4200569 3.95043965,15.4200569 3.95043965,15.4200569 C2.82495827,14.8813649 2.83621308,14.1406635 2.86997752,13.893763 C2.86997752,13.893763 2.86997752,13.893763 2.86997752,13.893763 L3.73659819,10.8411754 C3.73659819,10.8411754 3.73659819,10.8411754 3.73659819,10.8411754 L5.379801,9.9321327 C5.379801,9.9321327 6.56155645,9.32610427 7.00049419,8.5517346 C7.54072525,7.5865782 7.7433119,4.66866351 7.79958597,3.54638863 C7.85586004,4.66866351 8.04719188,7.5865782 8.59867775,8.5517346 C9.03761549,9.32610427 10.2193709,9.9321327 10.2193709,9.9321327 L11.8625738,10.8411754 C11.8625738,10.8411754 11.8625738,10.8411754 11.8625738,10.8411754 L12.7291944,13.893763 C12.7291944,13.893763 12.7291944,13.893763 12.7291944,13.893763 C12.7629589,14.1294408 12.7742137,14.8701422 11.6487323,15.4200569 C11.6487323,15.4200569 11.6487323,15.4200569 11.6487323,15.4200569 L11.1422657,15.5659526 C11.0522272,15.5883981 10.9959531,15.6781801 11.0184627,15.7679621 C11.0409723,15.8577441 11.1422657,15.9138578 11.2323042,15.8914123 L15.3853305,14.7130237 C15.475369,14.6905782 15.5428979,14.6007962 15.5203882,14.5110142 Z" id="Shape"></path>
                        <g transform="translate(5.627407, 0.000000)" id="Shape">
                            <path d="M3.59028561,0.235677725 C3.56777598,0.213232227 3.52275672,0.213232227 3.51150191,0.246900474 L2.96001603,1.45895735 C2.9375064,1.50384834 2.98252566,1.54873934 3.02754492,1.52629384 L4.24306481,0.987601896 C4.27682925,0.976379147 4.28808406,0.931488152 4.25431962,0.909042654 L3.59028561,0.235677725 Z"></path>
                            <path d="M0.866620664,0.246900474 C0.85536585,0.213232227 0.810346594,0.202009479 0.787836967,0.235677725 L0.112548138,0.909042654 C0.0900385105,0.931488152 0.0900385105,0.976379147 0.123802952,0.987601896 L1.33932284,1.52629384 C1.3843421,1.54873934 1.42936135,1.50384834 1.40685173,1.45895735 L0.866620664,0.246900474 Z"></path>
                            <path d="M2.71241013,0.0448909953 L1.75575095,0.0448909953 C1.72198651,0.0448909953 1.69947689,0.0785592417 1.7107317,0.112227488 L2.18343388,1.34672986 C2.19468869,1.39162085 2.26221758,1.39162085 2.27347239,1.34672986 L2.74617457,0.112227488 C2.77993901,0.0785592417 2.74617457,0.0448909953 2.71241013,0.0448909953 Z"></path>
                        </g>
                    </g>
                    <g id="Group" transform="translate(30.085714, 2.000000)" fill="#31ACB0" fill-rule="nonzero">
                        <path d="M14.530416,2.89921011 L14.530416,5.32276856 C14.530416,5.57191943 14.243933,5.70781991 14.0376653,5.56059439 C12.6052504,4.50736572 11.115539,3.97508886 9.57999033,3.97508886 C7.70066208,3.97508886 6.11927612,4.64326619 4.82437312,5.96829581 C3.52947012,7.29332543 2.87628896,8.91280608 2.87628896,10.8380628 C2.87628896,12.7293444 3.5180108,14.3375 4.8129138,15.6398795 C6.1078168,16.9422591 7.68920276,17.5991114 9.56853101,17.5991114 C10.5425731,17.5991114 11.367644,17.4405608 12.0437438,17.1347848 C12.4219013,16.9762342 12.8115182,16.7723835 13.2240536,16.5005825 C13.4761586,16.330707 13.739723,16.1495063 14.0147466,15.9456556 C14.2210144,15.7871051 14.5074973,15.9343306 14.5074973,16.1834814 L14.5074973,18.65234 C14.5074973,18.7655904 14.4502007,18.8675158 14.3470669,18.924141 C12.8115182,19.7508689 11.2072136,20.1585703 9.53415305,20.1585703 C6.92142842,20.1585703 4.6868613,19.2525671 2.84191101,17.4518859 C1.00842003,15.6285545 0.08021523,13.4428219 0.0916745486,10.8720379 C0.0916745486,8.5730549 0.870908212,6.52322275 2.4064569,4.72254147 C4.30870378,2.51415877 6.76099796,1.41562994 9.76333943,1.41562994 C11.3447254,1.41562994 12.8802741,1.8346564 14.3699855,2.65005924 C14.4731194,2.68403436 14.530416,2.78595972 14.530416,2.89921011 Z" id="Shape"></path>
                        <path d="M20.6153141,0.0566251975 L22.6665321,0.0566251975 C22.8384219,0.0566251975 22.9759337,0.192525671 22.9759337,0.362401264 L22.9644744,9.3771327 C23.9155979,8.53907978 24.9583959,8.12005332 26.1043277,8.12005332 C27.41069,8.12005332 28.453488,8.53907978 29.2327217,9.3771327 C29.8973622,10.1019352 30.2296824,11.2570893 30.2296824,12.8539198 L30.2182231,19.5356931 C30.2182231,19.7055687 30.0807113,19.8414692 29.9088215,19.8414692 L27.8576035,19.8414692 C27.6857137,19.8414692 27.5482019,19.7055687 27.5482019,19.5356931 L27.5596612,13.0917457 C27.5596612,12.1744175 27.3992307,11.5175652 27.0669105,11.1098637 C26.7345902,10.7021623 26.2074616,10.4983116 25.4855245,10.4983116 C24.5573197,10.4983116 23.8926792,10.7814376 23.5145217,11.3476896 C23.1478235,11.9252666 22.9530151,12.910545 22.9530151,14.326175 L22.9530151,19.5356931 C22.9530151,19.7055687 22.8155033,19.8414692 22.6436135,19.8414692 L20.5923955,19.8414692 C20.4205057,19.8414692 20.2829939,19.7055687 20.2829939,19.5356931 L20.3059125,0.373726303 C20.3059125,0.192525671 20.4434243,0.0566251975 20.6153141,0.0566251975 Z" id="Shape"></path>
                        <path d="M46.1122979,14.7678515 L38.1480715,14.7565265 C38.2168274,15.6965047 38.526229,16.4439573 39.064817,16.9875592 C39.603405,17.5311611 40.3024234,17.8029621 41.1618723,17.8142871 C41.8265128,17.8142871 42.3765601,17.6557366 42.8120142,17.3499605 C43.201631,17.0668345 43.6370851,16.5685328 44.1183765,15.8550553 C44.2100511,15.7191548 44.3819408,15.6738547 44.5194527,15.7531299 L46.2383504,16.7044333 C46.3873216,16.7837085 46.4446182,16.9762342 46.3529436,17.1234597 C46.0550013,17.5991114 45.7455997,18.0068128 45.4132795,18.357889 C45.0236627,18.7769155 44.6111272,19.1166667 44.1642138,19.3884676 C43.7173004,19.6602686 43.2474683,19.8527942 42.731799,19.9773697 C42.2161296,20.1019451 41.6660823,20.1585703 41.0587385,20.1585703 C39.3398407,20.1585703 37.9532631,19.6149684 36.9104651,18.5164396 C35.8676671,17.4179107 35.3519978,15.9569806 35.3519978,14.1336493 C35.3519978,12.332968 35.8562078,10.8720379 36.8760872,9.76218404 C37.8959665,8.66365521 39.2481661,8.10872828 40.9326859,8.12005332 C42.6286651,8.12005332 43.9694054,8.65233017 44.9549068,9.72820893 C45.9289488,10.7927626 46.4216995,12.2650178 46.4216995,14.1449743 L46.4102402,14.4734005 C46.4216995,14.6432761 46.2841877,14.7678515 46.1122979,14.7678515 Z M43.6829224,12.616094 C43.3162242,11.2117891 42.4223974,10.5096367 41.0014419,10.5096367 C40.6805809,10.5096367 40.3711793,10.5549368 40.0846964,10.6568622 C39.7982134,10.7587875 39.5461084,10.894688 39.3054627,11.0758886 C39.0762763,11.2570893 38.8700086,11.48359 38.7095781,11.7327409 C38.5376884,11.9932168 38.4116359,12.2876679 38.3314206,12.616094 L43.6829224,12.616094 Z" id="Shape"></path>
                        <path d="M61.9146983,14.7905016 L53.9504718,14.7791765 C54.0192278,15.7191548 54.3286294,16.4666074 54.8672173,17.0102093 C55.4058053,17.5538112 56.1048237,17.8256122 56.9642726,17.8369372 C57.6289131,17.8369372 58.1789604,17.6783867 58.6144145,17.3726106 C59.0040313,17.0894846 59.4394854,16.5911829 59.9207768,15.8777054 C60.0124514,15.7418049 60.1843412,15.6965047 60.321853,15.77578 L62.0407508,16.7270833 C62.1897219,16.8063586 62.2470185,16.9988843 62.1553439,17.1461098 C61.8574017,17.6217615 61.5480001,18.0294629 61.2156798,18.3805391 C60.826063,18.7995656 60.4135275,19.1393167 59.9666141,19.4111177 C59.5197007,19.6829186 59.0498686,19.8754443 58.5341993,20.0000197 C58.0185299,20.1245952 57.4684826,20.1812204 56.8611388,20.1812204 C55.142241,20.1812204 53.7556634,19.6376185 52.7128654,18.5390897 C51.6700675,17.4405608 51.1543981,15.9796307 51.1543981,14.1562994 C51.1543981,12.3556181 51.6586081,10.894688 52.6784875,9.78483412 C53.6983668,8.68630529 55.0505664,8.13137836 56.7350863,8.1427034 C58.4310654,8.1427034 59.7718057,8.67498025 60.7573071,9.750859 C61.7313492,10.8154127 62.2240999,12.2876679 62.2240999,14.1676244 L62.2126405,14.4960506 C62.2126405,14.6546011 62.0751287,14.7905016 61.9146983,14.7905016 Z M59.4738634,12.627419 C59.1071652,11.2231141 58.2133384,10.5209617 56.7923829,10.5209617 C56.4715219,10.5209617 56.1621203,10.5662618 55.8756374,10.6681872 C55.5891544,10.7701126 55.3370494,10.906013 55.0964037,11.0872137 C54.8672173,11.2684143 54.6609496,11.4949151 54.5005191,11.744066 C54.3286294,12.0045419 54.2025769,12.2989929 54.1223616,12.627419 L59.4738634,12.627419 Z" id="Shape"></path>
                        <path d="M68.2287828,8.47112954 L70.2800008,8.47112954 C70.4518906,8.47112954 70.5894024,8.60703002 70.5894024,8.77690561 L70.5894024,9.4903831 C71.0821531,8.98075632 71.5176072,8.64100513 71.8957647,8.44847946 C72.2853816,8.25595379 72.7437543,8.15402844 73.270883,8.15402844 C73.9011455,8.15402844 74.5428673,8.33522907 75.2189671,8.69763033 C75.3679383,8.77690561 75.4137755,8.95810624 75.3450196,9.09400671 L74.4053555,10.9399882 C74.3251403,11.0985387 74.1303319,11.1551639 73.9699014,11.0645636 C73.5573659,10.8267378 73.1562898,10.7021623 72.7666729,10.7021623 C71.3113395,10.7021623 70.5894024,11.7893661 70.5894024,13.9524487 L70.5894024,19.5583432 C70.5894024,19.7282188 70.4518906,19.8641193 70.2800008,19.8641193 L68.2287828,19.8641193 C68.056893,19.8641193 67.9193812,19.7282188 67.9193812,19.5583432 L67.9308405,8.76558057 C67.9308405,8.60703002 68.0683523,8.47112954 68.2287828,8.47112954 Z" id="Shape"></path>
                        <path d="M85.8188368,10.5662618 C85.394842,10.7927626 84.5697711,11.2231141 84.1457763,11.4382899 C83.9968051,11.5175652 83.8249154,11.46094 83.7332408,11.3250395 C83.4123799,10.7927626 83.0342224,10.5322867 82.587309,10.5322867 C82.3466633,10.5322867 82.1289362,10.611562 81.9570464,10.7701126 C81.7851567,10.9286631 81.6934821,11.1325138 81.6934821,11.3816647 C81.6934821,11.8233412 82.2091515,12.2536927 83.2290308,12.6840442 C84.638527,13.2842713 85.5896504,13.8391983 86.0824011,14.348825 C86.5751518,14.8584518 86.8157975,15.5379542 86.8157975,16.3986572 C86.8157975,17.497186 86.403262,18.4145142 85.5781911,19.1619668 C84.7760388,19.8641193 83.8134561,20.2151955 82.6904428,20.2151955 C80.8569519,20.2151955 79.5276709,19.3771426 78.7140593,17.7010367 C78.6338441,17.5424862 78.7026,17.3612855 78.8630304,17.2933353 L80.6048468,16.5005825 C80.7423587,16.4326323 80.9142485,16.4892575 80.9944637,16.625158 C81.2465687,17.0328594 81.4413771,17.3046603 81.5788889,17.4292358 C81.8997498,17.7236868 82.2893667,17.8709123 82.7362801,17.8709123 C83.6415663,17.8709123 84.0884797,17.4632109 84.0884797,16.6591331 C84.0884797,16.1948065 83.7447001,15.764455 83.057141,15.3567536 C83.0456817,15.3567536 83.0342224,15.3454285 83.0342224,15.3454285 C82.7706581,15.209528 82.5070937,15.0849526 82.2435294,14.9603772 C81.9799651,14.8358017 81.7049414,14.7112263 81.4299178,14.5753258 C80.6506841,14.2015995 80.1120962,13.8278732 79.7912352,13.4541469 C79.3901591,12.9784953 79.1838913,12.3669431 79.1838913,11.6194905 C79.1838913,10.622887 79.5276709,9.8074842 80.21523,9.16195695 C80.9142485,8.5164297 81.7736973,8.18800355 82.7706581,8.18800355 C84.1572356,8.18800355 85.2114929,8.85618088 85.9219707,10.1812105 C86.0251045,10.3057859 85.9563486,10.4869866 85.8188368,10.5662618 Z" id="Shape"></path>
                    </g>
                </g>
            </g>
        </g>
    </g>
</svg>