<svg id="Group" xmlns="http://www.w3.org/2000/svg" width="90.963" height="90.919" viewBox="0 0 90.963 90.919">
  <path id="Shape" d="M81.241,73.473A45.409,45.409,0,0,0,47.825.043C47.044,0,46.262,0,45.481,0s-1.562,0-2.344.043a45.468,45.468,0,1,0,26.95,83.628l15.1.738a1.513,1.513,0,0,0,1.345-2.6Z" fill="#31acb0"/>
  <path id="Shape-2" data-name="Shape" d="M59.518,48.1a.693.693,0,0,0-.825-.477l-1.953.564h0c-4.774.521-6.293-1.953-6.64-2.777h0L46.716,33.65h0l3.472-6.293s2.647-4.427,2.474-7.855c-.217-4.947-7.378-17.62-8.376-19.356a.291.291,0,0,0-.347-.13l-6.38,1.823h0L36.3,2.186h0L29.92,4.009h-.3l-6.38-1.823h0l-1.259-.347h0L15.6.016a.291.291,0,0,0-.347.13c-1,1.736-8.159,14.408-8.376,19.356C6.7,22.931,9.35,27.357,9.35,27.357l3.472,6.293h0L9.437,45.411h0c-.391.868-1.866,3.3-6.64,2.777h0L.844,47.624a.677.677,0,0,0-.825.477.647.647,0,0,0,.477.781L16.51,53.439a.677.677,0,0,0,.825-.477.647.647,0,0,0-.477-.781L14.9,51.617h0c-4.34-2.083-4.3-4.947-4.166-5.9h0l3.342-11.8h0L20.416,30.4s4.557-2.344,6.249-5.338C28.749,21.325,29.53,10.041,29.747,5.7c.217,4.34.955,15.623,3.081,19.356,1.693,2.994,6.249,5.338,6.249,5.338l6.336,3.515h0l3.342,11.8h0c.13.911.174,3.776-4.166,5.9h0l-1.953.564a.647.647,0,0,0-.477.781.693.693,0,0,0,.825.477L59,48.883A.676.676,0,0,0,59.518,48.1Z" transform="translate(16 19)" fill="#fff"/>
  <path id="Shape-3" data-name="Shape" d="M2.453.06A.183.183,0,0,0,2.15.1L.023,4.791a.192.192,0,0,0,.26.26L4.97,2.968a.168.168,0,0,0,.043-.3Z" transform="translate(49 12)" fill="#fff"/>
  <path id="Shape-4" data-name="Shape" d="M2.968.122a.168.168,0,0,0-.3-.043l-2.6,2.6a.183.183,0,0,0,.043.3L4.791,5.069a.192.192,0,0,0,.26-.26Z" transform="translate(38 12)" fill="#fff"/>
  <path id="Shape-5" data-name="Shape" d="M3.874,0H.185A.191.191,0,0,0,.011.26L1.834,5.034a.181.181,0,0,0,.347,0L4,.26C4.134.13,4,0,3.874,0Z" transform="translate(44 12)" fill="#fff"/>
</svg>
