<?xml version="1.0" encoding="UTF-8"?>
<svg width="15px" height="18px" viewBox="0 0 15 18" version="1.1" xmlns="http://www.w3.org/2000/svg" xmlns:xlink="http://www.w3.org/1999/xlink">
    <!-- Generator: Sketch 51.3 (57544) - http://www.bohemiancoding.com/sketch -->
    <title>Icon/guest bk 1</title>
    <desc>Created with Sketch.</desc>
    <defs></defs>
    <g id="Web-SP用" stroke="none" stroke-width="1" fill="none" fill-rule="evenodd">
        <g id="[web-GE-3]MENU" transform="translate(-119.000000, -129.000000)" fill="#000000">
            <g id="Icon/guest-bk" transform="translate(118.000000, 129.000000)">
                <path d="M9.8273854,16.0634931 L9.10487318,15.3370971 L10.3979176,13.8321295 L10.7731713,14.0308786 L9.8273854,16.0634931 Z M8.43903846,16.5209329 L7.97622561,16.1941774 L8.48829337,15.6792954 L8.92796788,16.1213816 L8.43903846,16.5209329 Z M6.20350712,14.0308786 L6.57866915,13.8321295 L7.87171357,15.3370971 L7.14924717,16.0634931 L6.20350712,14.0308786 Z M4.59106182,8.85795708 L4.59106182,6.17482204 C4.97951122,6.1248335 5.61107368,6.03128351 6.34045867,5.87596197 C7.95359126,5.53246927 9.20764411,5.07029841 10.0677493,4.50221433 C10.1109562,4.47364944 10.1707952,4.47463136 10.2163846,4.50471375 C10.7946143,4.88596566 11.9488744,5.55250932 12.3270605,5.76951315 L12.3270605,8.91633656 C12.3270605,10.3020457 11.5509864,11.6668222 10.0714606,12.3341693 C7.45219921,13.5171571 4.59106182,11.5758163 4.59106182,8.85795708 Z M8.48829337,15.011636 L7.02040549,13.303099 C7.02054295,13.2479777 7.0206804,13.1889734 7.02026804,13.1256397 C7.91821936,13.418028 8.93030462,13.4379342 9.88584983,13.1329148 C9.8853,13.2313744 9.88571237,13.3140786 9.88594146,13.384866 L8.48829337,15.011636 Z M3.90378404,8.16780276 C3.07401066,7.92754533 3.07433139,7.03475888 3.90378404,6.79463534 L3.90378404,8.16780276 Z M13.0144299,6.79454608 C13.8462193,7.03542837 13.8421415,7.92808092 13.0144299,8.1677135 L13.0144299,6.79454608 Z M15.7762786,15.6202911 C15.4688363,14.8083344 14.8003441,14.4509163 14.3969121,14.3042088 C14.1795948,14.2265927 13.2561684,14.0184707 11.2866136,13.5408124 L10.573036,13.162774 L10.573036,12.850658 C12.0299732,12.1086406 13.0143383,10.6229543 13.0143383,8.91638119 L13.0143383,8.854565 C14.1309814,8.65358428 14.6640799,7.57914304 14.0945099,6.76705238 C14.1034445,6.49314194 14.1549903,4.8284342 14.129561,3.55810036 C14.0994124,2.05612317 13.2546564,1.46023296 12.5512505,1.22479585 C12.2099025,1.11058096 11.8277761,1.05452238 11.4154553,1.05916417 C11.2745175,1.06063705 11.1626745,1.06621613 11.0731451,1.07483022 C10.8081308,0.852425841 10.1616773,0.379186091 9.22070239,0.14169588 C7.17783792,-0.374034131 5.38427201,0.61596218 4.23931305,1.53713498 C4.0929687,1.65487585 4.07230455,1.86585428 4.1931738,2.00841089 C4.31399723,2.15092287 4.53058137,2.17109682 4.67692572,2.05335595 C6.15154892,0.866931445 7.61192257,0.439306241 9.01745144,0.782129453 C9.88988186,0.994937821 10.4773211,1.45469852 10.657342,1.61028786 C10.6872615,1.65532218 10.8011664,1.79778953 11.0225615,1.75820038 C11.1276233,1.74231117 12.1792958,1.6013167 12.8477421,2.13289129 C13.2292729,2.43634853 13.4293624,2.92025548 13.4423749,3.57117772 C13.4607023,4.48315619 13.4386178,5.60397074 13.4218482,6.25176869 L13.3540826,6.20320839 C13.2464091,6.16156615 13.1327333,6.12929676 13.0143383,6.10796237 C12.9895505,5.98656162 13.1330999,5.57500416 12.6720281,5.19638558 C12.6461865,5.14510269 12.6053622,5.1002469 12.5510672,5.06895943 C12.0833518,4.79919983 11.120384,4.2384355 10.6273309,3.91333144 C10.3310684,3.71801906 9.94999575,3.71721567 9.65634487,3.91118907 C8.28976173,4.81370543 5.99787361,5.24789163 4.83541198,5.41892386 C3.90378404,5.39607196 3.90378404,5.66016321 3.90378404,5.66016321 L3.90378404,6.108007 C3.78085295,6.13014478 3.66300772,6.16402095 3.55171454,6.20793945 C3.55515093,4.38799943 3.49013445,4.10801896 3.72545836,3.4179539 C3.78447261,3.24482394 3.70002908,3.0491545 3.52454416,2.98528521 C3.34159081,2.91873797 3.13976024,3.0134484 3.07822597,3.19242524 C2.86691096,3.80688262 2.86448258,4.29913587 2.86448258,4.31980078 L2.86448258,6.71202035 C2.22481024,7.5373669 2.77183753,8.65086169 3.90382985,8.85465427 C3.90992372,8.88281745 3.81361319,10.7085597 5.34010296,12.1278326 C5.64282591,12.409286 5.97675127,12.6440982 6.33289862,12.8312875 L6.33289862,13.2002208 L5.741519,13.5134972 C2.66081926,14.2535062 2.80519342,14.2184249 2.78966094,14.2228435 C2.77179172,14.2307882 1.57423309,14.4451587 1.12947273,15.6207821 C1.05703366,15.812256 1.18147675,16.0211814 1.38688117,16.0610383 C1.55182784,16.0930399 1.71663705,16.004221 1.77578876,15.8508633 C2.09175326,15.0314975 2.92789541,14.888807 2.97664631,14.8669816 L5.55036414,14.2488644 L6.73174882,16.787836 C6.77866699,16.888795 6.87383205,16.9605643 6.98590415,16.9794885 C7.00551447,16.982836 7.02517062,16.9844427 7.04473512,16.9844427 C7.13692198,16.9844427 7.22622228,16.9482457 7.29151367,16.8826357 L7.49316097,16.6799143 L8.252832,17.2162646 C8.31312918,17.2588888 8.38387297,17.28 8.45443349,17.28 C8.5331497,17.28 8.61168264,17.2537114 8.67532456,17.2017144 L9.40745867,16.6034586 L9.6851189,16.8826357 C9.75036447,16.9482457 9.83971058,16.9844427 9.93189744,16.9844427 C9.95146195,16.9844427 9.97111809,16.982836 9.99072842,16.9794885 C10.1028005,16.9605643 10.1979656,16.888795 10.2448837,16.787836 L11.4204953,14.2613615 L13.9289675,14.866937 C13.9819796,14.8907262 14.8148228,15.0347557 15.1299626,15.8505955 C15.1892059,16.0039532 15.3539693,16.0928614 15.518916,16.0608151 L15.5189618,16.0608151 C15.7245037,16.0209136 15.8487635,15.8118097 15.7762786,15.6202911 Z" id="Fill-1"></path>
            </g>
        </g>
    </g>
</svg>