<?xml version="1.0" encoding="UTF-8"?>
<svg width="18px" height="20px" viewBox="0 0 18 20" version="1.1" xmlns="http://www.w3.org/2000/svg" xmlns:xlink="http://www.w3.org/1999/xlink">
    <!-- Generator: Sketch 51.3 (57544) - http://www.bohemiancoding.com/sketch -->
    <title>Icon/ map 1 Copy</title>
    <desc>Created with Sketch.</desc>
    <defs></defs>
    <g id="GG" stroke="none" stroke-width="1" fill="none" fill-rule="evenodd">
        <g id="[GG-4-1]メッセージ詳細-予約確定" transform="translate(-30.000000, -123.000000)" fill="#000000">
            <g id="Icon/-map" transform="translate(29.000000, 123.000000)">
                <path d="M9.20534904,19.7846774 C7.87735985,18.8338247 6.63905976,17.7206404 5.52514331,16.4760981 C3.0009304,13.6571258 1.66666667,10.6601485 1.66666667,7.81094899 C1.66666667,3.5041236 5.34982512,0 9.87709454,0 C14.4036258,0 18.0864151,3.5041236 18.0864151,7.81094899 C18.0864151,10.6605217 16.7525205,13.657499 14.2290458,16.4760981 C13.1129148,17.7225063 11.8746147,18.8356906 10.548471,19.7843042 C10.3476855,19.927977 10.1122055,20 9.87709454,20 C9.64161453,20 9.4065036,19.927977 9.20534904,19.7846774 Z M9.87709454,0.746352204 C5.75693242,0.746352204 2.40484854,3.91536366 2.40484854,7.81094899 C2.40484854,10.4720678 3.673045,13.2955182 6.07213608,15.9756689 C7.1506198,17.1799082 8.34795079,18.2565213 9.63164907,19.1749076 C9.77854726,19.2801433 9.97564182,19.2805165 10.1221709,19.1752808 C11.4040237,18.258014 12.6017238,17.1814009 13.682053,15.9756689 C16.0804059,13.2958913 17.3482333,10.4724409 17.3482333,7.81094899 C17.3482333,3.91536366 13.9968876,0.746352204 9.87709454,0.746352204 Z M10.0394946,10.6363772 C8.34241443,10.6363772 6.96164524,9.24032541 6.96164524,7.52446169 C6.96164524,5.80859798 8.34241443,4.41254618 10.0394946,4.41254618 C11.7365747,4.41254618 13.1173439,5.80859798 13.1173439,7.52446169 C13.1173439,9.24032541 11.7365747,10.6363772 10.0394946,10.6363772 Z M10.0394946,5.15889838 C8.74915264,5.15889838 7.69982711,6.22021122 7.69982711,7.52446169 C7.69982711,8.82871217 8.74915264,9.890025 10.0394946,9.890025 C11.3294674,9.890025 12.379162,8.82871217 12.379162,7.52446169 C12.379162,6.22021122 11.3294674,5.15889838 10.0394946,5.15889838 Z" id="Combined-Shape"></path>
            </g>
        </g>
    </g>
</svg>