<?xml version="1.0" encoding="utf-8"?>
<!-- Generator: Adobe Illustrator 22.1.0, SVG Export Plug-In . SVG Version: 6.00 Build 0)  -->
<svg version="1.1" id="レイヤー_1" xmlns="http://www.w3.org/2000/svg" xmlns:xlink="http://www.w3.org/1999/xlink" x="0px"
	 y="0px" viewBox="0 0 17 17" style="enable-background:new 0 0 17 17;" xml:space="preserve">
<style type="text/css">
	.st0{fill:#222222;}
</style>
<title>Icon/guest bk 1 Copy 2</title>
<desc>Created with Sketch.</desc>
<g id="Web-SP用_1_">
	<g id="_x5B_web-GE-3_x5D_MENU_1_" transform="translate(-118.000000, -252.000000)">
		<g id="Icon_x2F_mail-bk" transform="translate(117.000000, 250.000000)">
			<path id="Fill-1" class="st0" d="M15.6,16H3.4c-0.6,0-1.1-0.5-1.1-1.2V8l5.9,3.9c0.4,0.3,0.8,0.4,1.3,0.4c0.4,0,0.9-0.1,1.3-0.4
				l6.1-4v7C16.8,15.5,16.3,16,15.6,16 M3.4,5h12.3c0.6,0,1.1,0.5,1.1,1.2v0.9c0,0,0,0-0.1,0l-6.4,4.2c-0.5,0.4-1.2,0.4-1.8,0
				L2.2,7.2V6.2C2.2,5.5,2.7,5,3.4,5 M15.6,4.3H3.4c-1,0-1.8,0.8-1.8,1.8v8.7c0,1,0.8,1.8,1.8,1.8h12.3c1,0,1.8-0.8,1.8-1.8V6.2
				C17.5,5.1,16.7,4.3,15.6,4.3"/>
		</g>
	</g>
</g>
</svg>
