<?xml version="1.0" encoding="UTF-8"?>
<svg width="22px" height="22px" viewBox="0 0 22 22" version="1.1" xmlns="http://www.w3.org/2000/svg" xmlns:xlink="http://www.w3.org/1999/xlink">
    <!-- Generator: Sketch 52.2 (67145) - http://www.bohemiancoding.com/sketch -->
    <title>Page 1</title>
    <desc>Created with Sketch.</desc>
    <g id="Symbols" stroke="none" stroke-width="1" fill="none" fill-rule="evenodd">
        <g id="Icon/message-gr" transform="translate(-1.000000, 0.000000)" fill="#00C3C3">
            <g id="Page-1" transform="translate(1.000000, 0.000000)">
                <path d="M10.999975,22 C8.93904132,22 6.93992263,21.4294229 5.19990733,20.3473852 C3.30188144,21.5958287 1.30276275,21.7001197 1.21516233,21.7040675 C1.03646346,21.7117131 0.872806071,21.6080718 0.804044984,21.4435649 C0.735283896,21.279058 0.776610509,21.0890655 0.907436473,20.967984 C0.916231496,20.9597887 1.81652201,20.1088202 2.7824254,18.3117372 C0.98574216,16.2948286 0,13.7104911 0,10.999975 C0,8.06178776 1.14420249,5.29940102 3.22182674,3.22182674 C5.29940102,1.14420249 8.06178776,0 10.999975,0 C13.9381623,0 16.700549,1.14420249 18.7781233,3.22182674 C20.8557975,5.29940102 22,8.06178776 22,10.999975 C22,13.9382122 20.8557975,16.700549 18.7781233,18.7781733 C16.700549,20.8557975 13.9381623,22 10.999975,22 Z M5.19196182,19.4132639 C5.27321584,19.4132639 5.3545698,19.4365507 5.42552964,19.4832742 C7.08184232,20.573957 9.00950144,21.1504808 10.999975,21.1504808 C16.5969576,21.1504808 21.1504808,16.5970076 21.1504808,10.999975 C21.1504808,5.4029924 16.5969576,0.849519249 10.999975,0.849519249 C5.4029924,0.849519249 0.849519249,5.4029924 0.849519249,10.999975 C0.849519249,13.5948565 1.82866514,16.0645089 3.60660899,17.9540396 C3.72988922,18.0850155 3.75727372,18.2794555 3.67502027,18.439415 C3.17020595,19.4209595 2.67313725,20.1602411 2.28030955,20.6752997 C3.01559345,20.499749 4.01422831,20.156943 4.94515149,19.4923191 C5.01885978,19.4396989 5.10536083,19.4132639 5.19196182,19.4132639 Z M7.03551854,11.2883618 C7.03551854,11.7270136 6.67991977,12.0826623 6.24121804,12.0826623 C5.80256627,12.0826623 5.44691754,11.7270136 5.44691754,11.2883618 C5.44691754,10.8496601 5.80256627,10.4940613 6.24121804,10.4940613 C6.67991977,10.4940613 7.03551854,10.8496601 7.03551854,11.2883618 Z M11.782832,11.2883618 C11.782832,11.7270136 11.4272332,12.0826623 10.9885315,12.0826623 C10.5498797,12.0826623 10.194231,11.7270136 10.194231,11.2883618 C10.194231,10.8496601 10.5498797,10.4940613 10.9885315,10.4940613 C11.4272332,10.4940613 11.782832,10.8496601 11.782832,11.2883618 Z M16.5301454,11.2883618 C16.5301454,11.7270136 16.1745467,12.0826623 15.7358449,12.0826623 C15.2971932,12.0826623 14.9415444,11.7270136 14.9415444,11.2883618 C14.9415444,10.8496601 15.2971932,10.4940613 15.7358449,10.4940613 C16.1745467,10.4940613 16.5301454,10.8496601 16.5301454,11.2883618 Z" id="Combined-Shape"></path>
            </g>
        </g>
    </g>
</svg>