<?xml version="1.0" encoding="UTF-8"?>
<svg width="21px" height="21px" viewBox="0 0 21 21" version="1.1" xmlns="http://www.w3.org/2000/svg" xmlns:xlink="http://www.w3.org/1999/xlink">
    <!-- Generator: Sketch 51.3 (57544) - http://www.bohemiancoding.com/sketch -->
    <title>`Icon/picture</title>
    <desc>Created with Sketch.</desc>
    <defs></defs>
    <g id="Symbols" stroke="none" stroke-width="1" fill="none" fill-rule="evenodd">
        <g id="UI/Massage-board" transform="translate(-57.000000, -15.000000)" fill="#00C3C3">
            <g id="Icon/picture" transform="translate(57.000000, 15.000000)">
                <g id="picture-(1)">
                    <path d="M0,18.7628571 C0,19.9842857 0.994285714,20.9742857 2.21142857,20.9742857 L18.7628571,20.9742857 C19.9842857,20.9742857 20.9742857,19.98 20.9742857,18.7628571 L20.9742857,2.21142857 C20.9742857,0.99 19.98,0 18.7628571,0 L2.21142857,0 C0.99,0 0,0.994285714 0,2.21142857 C0,2.21142857 0,18.7628571 0,18.7628571 Z M18.7628571,19.9242857 L2.21142857,19.9242857 C1.57285714,19.9242857 1.05,19.4014286 1.05,18.7628571 L1.05,15.9985714 L5.02714286,12.0214286 L8.42571429,15.42 C8.63142857,15.6257143 8.96142857,15.6257143 9.16714286,15.42 L15.3042857,9.28285714 L19.9242857,13.9028571 L19.9242857,18.7628571 C19.9242857,19.4014286 19.4014286,19.9242857 18.7628571,19.9242857 Z M2.21142857,1.05 L18.7628571,1.05 C19.4014286,1.05 19.9242857,1.57285714 19.9242857,2.21142857 L19.9242857,12.4157143 L15.6728571,8.16857143 C15.4671429,7.96285714 15.1371429,7.96285714 14.9314286,8.16857143 L8.79428571,14.3057143 L5.39571429,10.9071429 C5.19,10.7014286 4.86,10.7014286 4.65428571,10.9071429 L1.05,14.5114286 L1.05,2.21142857 C1.05,1.57285714 1.57285714,1.05 2.21142857,1.05 Z" id="Shape" fill-rule="nonzero"></path>
                    <path d="M6.50142857,8.40428571 C7.97571429,8.40428571 9.17142857,7.20428571 9.17142857,5.73428571 C9.17142857,4.26428571 7.97142857,3.06428571 6.50142857,3.06428571 C5.03142857,3.06428571 3.83142857,4.26428571 3.83142857,5.73428571 C3.83142857,7.20428571 5.02714286,8.40428571 6.50142857,8.40428571 Z M6.50142857,4.11428571 C7.39714286,4.11428571 8.12142857,4.84285714 8.12142857,5.73428571 C8.12142857,6.62571429 7.39285714,7.35428571 6.50142857,7.35428571 C5.61,7.35428571 4.88142857,6.62571429 4.88142857,5.73428571 C4.88142857,4.84285714 5.60571429,4.11428571 6.50142857,4.11428571 Z" id="Shape" fill-rule="nonzero"></path>
                </g>
            </g>
        </g>
    </g>
</svg>