<?xml version="1.0" encoding="UTF-8"?>
<svg width="16px" height="16px" viewBox="0 0 16 16" version="1.1" xmlns="http://www.w3.org/2000/svg" xmlns:xlink="http://www.w3.org/1999/xlink">
    <!-- Generator: Sketch 51.3 (57544) - http://www.bohemiancoding.com/sketch -->
    <title>Icon/guest bk 1</title>
    <desc>Created with Sketch.</desc>
    <defs></defs>
    <g id="Web-SP用" stroke="none" stroke-width="1" fill="none" fill-rule="evenodd">
        <g id="[web-GE-3]MENU" transform="translate(-119.000000, -370.000000)">
            <g id="Icon/-Point" transform="translate(119.000000, 370.000000)">
                <path d="M5.80877706,4.49111728 C5.87948497,4.49111728 5.93256997,4.4999828 5.96797798,4.51760572 C6.30421898,4.36732437 6.65824508,4.24347741 7.0298941,4.14601076 C7.40154311,4.04870629 7.77319213,4 8.14478709,4 C8.39242696,4 8.63363393,4.02448829 8.86819176,4.07297835 C9.10253336,4.12179276 9.33044205,4.20796127 9.55175566,4.33175418 C9.79063813,4.45581738 10.0074109,4.61512642 10.2020739,4.80962725 C10.3966828,5.00439836 10.5604787,5.21895471 10.6931911,5.45335037 C10.8259036,5.68796226 10.9298572,5.93781851 11.0051601,6.20324348 C11.0802467,6.46877657 11.1179792,6.73420154 11.1179792,6.99968057 C11.1179792,7.51296164 10.9806718,7.986456 10.7064894,8.41989336 C10.4144679,8.87116987 10.0561172,9.2318451 9.63138315,9.50164877 C9.20664914,9.77166867 8.71991056,9.92865322 8.17138364,9.97287269 C8.06515959,9.98173821 7.95666511,9.98838735 7.84617048,9.99276605 C7.73545962,9.99730693 7.63150601,9.99936113 7.53430965,9.99936113 C7.33056491,9.99936113 7.13152321,9.99065779 6.93696833,9.97287269 C6.74225127,9.95524977 6.54753422,9.93303192 6.35292528,9.90643536 L6.35292528,11.047979 C6.35292528,11.4726589 6.35730398,11.8532275 6.3661695,12.1894145 C6.35730398,12.3928889 6.29756985,12.5455488 6.18707521,12.647286 C6.07631029,12.7489692 5.95473376,12.8 5.82202128,12.8 C5.69801214,12.8 5.58313881,12.7535641 5.47691476,12.6606924 C5.37074477,12.5677126 5.30441556,12.4238101 5.27787306,12.2292012 L5.27787306,9.64101039 C5.25127651,9.64101039 5.22019313,9.63230705 5.18494729,9.6144679 C5.05223481,9.54375998 4.95471411,9.45975379 4.89292577,9.36228715 C4.8309212,9.26498268 4.8,9.16767821 4.8,9.07031968 C4.8,8.95539229 4.83984077,8.85127651 4.91946827,8.75835074 C4.99909576,8.66542497 5.11396909,8.60136619 5.26462884,8.56590412 L5.26462884,5.00877706 C5.3087402,4.83179104 5.37944812,4.70134899 5.47691476,4.61718063 C5.57416517,4.53322849 5.68471386,4.49111728 5.80877706,4.49111728 Z M8.13154287,5.07510627 C7.82168219,5.07510627 7.5120918,5.12159619 7.2023933,5.2144679 C6.89258668,5.30739367 6.60943067,5.41583409 6.35292528,5.539627 L6.35292528,8.80478659 C6.53877681,8.84916824 6.72457429,8.88241394 6.91047989,8.90430744 C7.09622331,8.9265253 7.28645355,8.93755314 7.48111654,8.93755314 C7.66696808,8.93755314 7.85281962,8.92425486 8.0386171,8.89771236 C8.29517655,8.85354694 8.54962774,8.78948817 8.80180849,8.70526574 C9.05398924,8.62125955 9.27735705,8.47757329 9.47212817,8.2738826 C9.64906013,8.07938177 9.78171855,7.86698774 9.87031968,7.63675455 C9.95865051,7.40679166 10.0030322,7.1767747 10.0030322,6.94659557 C10.0030322,6.61046269 9.92108018,6.2941691 9.75750055,5.99755265 C9.59365064,5.70120648 9.3526599,5.46459444 9.03409588,5.28750031 C8.75975133,5.14603042 8.45875617,5.07510627 8.13154287,5.07510627 Z" id="Combined-Shape" fill="#222222" fill-rule="evenodd"></path>
                <circle id="Oval" stroke="#222222" stroke-width="1" cx="8" cy="8" r="7.5"></circle>
            </g>
        </g>
    </g>
</svg>