<svg xmlns="http://www.w3.org/2000/svg" width="33.18" height="44.734" viewBox="0 0 33.18 44.734">
  <g id="グループ化_301" data-name="グループ化 301" transform="translate(-209.841 -16913.846)">
    <g id="グループ化_295" data-name="グループ化 295" transform="translate(-98.362 15876.957)">
      <g id="楕円形_16" data-name="楕円形 16" transform="translate(317.351 1046.128)">
        <circle id="楕円形_17" data-name="楕円形 17" cx="7.835" cy="7.835" r="7.835" transform="translate(0 0.001)" fill="none"/>
        <path id="パス_52" data-name="パス 52" d="M1109.81-166.1a7.843,7.843,0,0,1-7.835-7.835,7.844,7.844,0,0,1,7.835-7.835,7.844,7.844,0,0,1,7.835,7.835A7.844,7.844,0,0,1,1109.81-166.1Zm0-13.712a5.883,5.883,0,0,0-5.876,5.876,5.882,5.882,0,0,0,5.876,5.876,5.883,5.883,0,0,0,5.876-5.876A5.884,5.884,0,0,0,1109.81-179.812Z" transform="translate(-1101.975 181.771)" fill="#00c3c3"/>
      </g>
    </g>
    <g id="グループ化_298" data-name="グループ化 298" transform="translate(12.275 15872.021)">
      <g id="グループ化_294" data-name="グループ化 294" transform="translate(197.566 1041.824)">
        <path id="パス_51" data-name="パス 51" d="M1111.121-190.071h.05c9.165,0,13.124,4.395,14.833,8.086a18.5,18.5,0,0,1,1.445,10.043h0c-1.671,11.157-13.226,23.345-15.525,25.674l-.89.931-.907-.939c-2.292-2.322-13.846-14.511-15.517-25.667-.052-.343-1.2-8.451,3.98-13.758,2.829-2.9,6.966-4.372,12.3-4.372h.05m.044,1.926c-4.775,0-8.368,1.247-10.772,3.707-4.535,4.64-3.487,12.165-3.476,12.24,1.459,9.742,11.024,20.489,14.294,23.921,3.287-3.45,12.837-14.187,14.295-23.922.012-.075,1.059-7.6-3.476-12.239-2.4-2.46-6-3.707-10.678-3.707h-.187Z" transform="translate(-1094.469 190.071)" fill="#00c3c3"/>
      </g>
    </g>
  </g>
</svg>
