<?xml version="1.0" encoding="UTF-8"?>
<svg width="51px" height="59px" viewBox="0 0 51 59" version="1.1" xmlns="http://www.w3.org/2000/svg" xmlns:xlink="http://www.w3.org/1999/xlink">
    <!-- Generator: Sketch 52.2 (67145) - http://www.bohemiancoding.com/sketch -->
    <title>Path</title>
    <desc>Created with Sketch.</desc>
    <defs>
        <linearGradient x1="50%" y1="130.964836%" x2="50%" y2="0%" id="linearGradient-1">
            <stop stop-color="#DCA561" offset="0%"></stop>
            <stop stop-color="#FFDB23" offset="100%"></stop>
        </linearGradient>
    </defs>
    <g id="Page-1" stroke="none" stroke-width="1" fill="none" fill-rule="evenodd">
        <g id="[GF-4]キャストランキング" transform="translate(-75.000000, -78.000000)" fill="url(#linearGradient-1)">
            <path d="M113.456582,113.085538 C111.09521,116.27979 108.948056,119.786243 107.941733,123.883056 L101.266125,123.883056 L103.268807,106.945301 C103.268807,104.069893 103.150905,101.72091 102.935027,99.8036942 C106.035365,98.2003409 110.888465,96.9066979 114.941157,101.13138 C117.579018,103.880579 116.739586,108.643311 113.456582,113.085538 M81.0582972,101.13138 C85.1118191,96.9066979 89.9657496,98.2003409 93.0644272,99.8036942 C92.8502099,101.72091 92.7314771,104.069893 92.7314771,106.945301 L94.7341593,123.883056 L88.0577215,123.883056 C87.0513986,119.786243 84.9042442,116.27979 82.5437029,113.085538 C79.2606989,108.643311 78.4212661,103.880579 81.0582972,101.13138 M118.035683,95.5657266 C112.276726,91.0031028 106.203086,92.0077934 101.665499,94.3717224 C101.173962,93.2889815 100.591092,92.6147594 99.9442884,92.2170347 L99.3697212,85.8202278 L106.051141,86.5093958 L106.051141,82.3577817 L99.3830059,83.045289 L100.076306,76 L95.9248088,76 L96.6181088,83.045289 L89.9491436,82.3577817 L89.9491436,86.5093958 L96.6305633,85.8202278 L96.0568264,92.2170347 C95.4100231,92.6147594 94.8263226,93.2889815 94.3347853,94.3717224 C89.7971988,92.0077934 83.7227281,91.0031028 77.9646014,95.5657266 C70.5616516,101.429466 75.1789468,110.67345 78.5366777,115.216146 C80.4521786,117.807584 82.7554292,120.809201 84.132896,123.883056 C83.0917005,123.884716 82.2481163,124.728324 82.2481163,125.769549 L82.2481163,131.113507 C82.2481163,132.155562 83.0933611,133 84.1345566,133 L111.865728,133 C112.907754,133 113.752168,132.155562 113.752168,131.113507 L113.752168,125.769549 C113.752168,124.728324 112.909414,123.884716 111.868219,123.883056 C113.244025,120.809201 115.548106,117.807584 117.462776,115.216146 C120.820507,110.67345 125.438633,101.429466 118.035683,95.5657266" id="Fill-1" transform="translate(98.000000, 104.500000) rotate(-30.000000) translate(-98.000000, -104.500000) "></path>
        </g>
    </g>
</svg>