<?xml version="1.0" encoding="UTF-8"?>
<svg width="21px" height="21px" viewBox="0 0 21 21" version="1.1" xmlns="http://www.w3.org/2000/svg" xmlns:xlink="http://www.w3.org/1999/xlink">
    <!-- Generator: Sketch 52.2 (67145) - http://www.bohemiancoding.com/sketch -->
    <title>Fill 1</title>
    <desc>Created with Sketch.</desc>
    <g id="Symbols" stroke="none" stroke-width="1" fill="none" fill-rule="evenodd">
        <g id="Icon/search-gr" transform="translate(-2.000000, 0.000000)" fill="#222222">
            <path d="M5.21085168,14.5053218 C2.10078269,11.3948413 2.10078269,6.33388098 5.21085168,3.22340049 C6.76629767,1.668366 8.80895214,0.891054499 10.8516066,0.891054499 C12.8946726,0.891054499 14.9377385,1.668366 16.492773,3.22340049 C19.602842,6.33388098 19.602842,11.3948413 16.492773,14.5053218 C13.381881,17.6153908 8.32092067,17.6158023 5.21085168,14.5053218 M22.876274,20.2703478 L17.4116383,14.8057122 C20.5879578,11.3034898 20.4599833,5.95366085 17.111248,2.60533704 C15.3833861,0.877063715 12.9876701,-0.0619647884 10.536814,0.0219799157 C8.05386129,0.109628063 5.78776578,1.19350233 4.15578197,3.0740283 C1.32141373,6.34005338 1.29384365,11.28703 4.09241195,14.5810367 C5.66925561,16.437696 7.87156961,17.5433794 10.2940327,17.6943976 C12.7115579,17.8454158 15.0130419,17.0392997 16.7931634,15.4245986 L22.257799,20.8888228 C22.3429782,20.974002 22.455316,21.0167973 22.5672422,21.0167973 C22.6791685,21.0167973 22.7910948,20.974002 22.876274,20.8888228 C23.0470438,20.7184644 23.0470438,20.4411177 22.876274,20.2703478" id="Fill-1"></path>
        </g>
    </g>
</svg>