<svg xmlns="http://www.w3.org/2000/svg" width="18" height="17" viewBox="0 0 18 17">
  <g id="グループ化_452" data-name="グループ化 452" transform="translate(-344.325 -813.098)">
    <g id="グループ化_325" data-name="グループ化 325" transform="translate(349.291 813.098)">
      <path id="パス_57" data-name="パス 57" d="M12839.452-1094.043h-8.068v-1.728a2.019,2.019,0,0,1,2.018-2.017h4.033a2.019,2.019,0,0,1,2.018,2.017Zm-7.06-.72h6.051v-1.008a1.011,1.011,0,0,0-1.009-1.008h-4.033a1.01,1.01,0,0,0-1.009,1.008Z" transform="translate(-12831.384 1097.788)" fill="#30ccc3"/>
    </g>
    <g id="グループ化_326" data-name="グループ化 326" transform="translate(344.325 815.961)">
      <rect id="長方形_281" data-name="長方形 281" width="18" height="1.008" fill="#30ccc3"/>
    </g>
    <g id="グループ化_327" data-name="グループ化 327" transform="translate(352.821 818.545)">
      <rect id="長方形_282" data-name="長方形 282" width="1.008" height="8.829" fill="#30ccc3"/>
    </g>
    <g id="グループ化_328" data-name="グループ化 328" transform="translate(355.816 818.507)">
      <path id="パス_59" data-name="パス 59" d="M0,0,8.855.228l.014,1.008L.014,1.008Z" transform="translate(0 8.865) rotate(-88.208)" fill="#30ccc3"/>
    </g>
    <g id="グループ化_329" data-name="グループ化 329" transform="translate(349.321 818.507)">
      <path id="パス_60" data-name="パス 60" d="M0,0,1.008.014l.228,8.855L.228,8.855Z" transform="translate(0 0.039) rotate(-1.79)" fill="#30ccc3"/>
    </g>
    <g id="グループ化_330" data-name="グループ化 330" transform="translate(345.838 816.202)">
      <path id="パス_58" data-name="パス 58" d="M12835.959-1075.94h-8.173c-1.336,0-2.43-.691-2.5-1.572l-.906-12.291,1-.032.9,12.291c.04.529.7.944,1.5.944h8.173c.8,0,1.46-.414,1.5-.944l.905-12.291,1,.032-.908,12.291C12838.39-1076.631,12837.292-1075.94,12835.959-1075.94Z" transform="translate(-12824.385 1089.836)" fill="#30ccc3"/>
    </g>
  </g>
</svg>
