<svg xmlns="http://www.w3.org/2000/svg" width="30" height="29.593" viewBox="0 0 30 29.593">
  <g id="グループ化_331" data-name="グループ化 331" transform="translate(-677.302 -338.42)">
    <g id="グループ化_325" data-name="グループ化 325" transform="translate(685.567 338.42)">
      <path id="パス_57" data-name="パス 57" d="M12844.853-1091.053h-13.469v-3.367a3.371,3.371,0,0,1,3.368-3.367h6.734a3.37,3.37,0,0,1,3.366,3.367Zm-11.785-1.684h10.1v-1.684a1.686,1.686,0,0,0-1.684-1.684h-6.734a1.687,1.687,0,0,0-1.685,1.684Z" transform="translate(-12831.384 1097.788)" fill="#6f7579"/>
    </g>
    <g id="グループ化_326" data-name="グループ化 326" transform="translate(677.302 343.417)">
      <rect id="長方形_281" data-name="長方形 281" width="30" height="1.684" fill="#6f7579"/>
    </g>
    <g id="グループ化_327" data-name="グループ化 327" transform="translate(691.46 348.321)">
      <rect id="長方形_282" data-name="長方形 282" width="1.684" height="14.741" fill="#6f7579"/>
    </g>
    <g id="グループ化_328" data-name="グループ化 328" transform="translate(696.451 348.259)">
      <path id="パス_59" data-name="パス 59" d="M0,0,14.784.381l.024,1.682L.024,1.682Z" transform="translate(0 14.801) rotate(-88.208)" fill="#6f7579"/>
    </g>
    <g id="グループ化_329" data-name="グループ化 329" transform="translate(685.627 348.259)">
      <path id="パス_60" data-name="パス 60" d="M0,0,1.682.024l.38,14.784L.38,14.784Z" transform="translate(0 0.064) rotate(-1.79)" fill="#6f7579"/>
    </g>
    <g id="グループ化_330" data-name="グループ化 330" transform="translate(679.827 344.813)">
      <path id="パス_58" data-name="パス 58" d="M12843.667-1066.636h-13.617c-2.225,0-4.05-1.153-4.157-2.625l-1.509-20.521,1.662-.054,1.509,20.521c.064.884,1.159,1.576,2.5,1.576h13.617c1.333,0,2.431-.692,2.493-1.576l1.509-20.521,1.662.054-1.509,20.521C12847.714-1067.789,12845.89-1066.636,12843.667-1066.636Z" transform="translate(-12824.384 1089.836)" fill="#6f7579"/>
    </g>
  </g>
</svg>
