<?xml version="1.0" encoding="UTF-8"?>
<svg width="27px" height="23px" viewBox="0 0 27 23" version="1.1" xmlns="http://www.w3.org/2000/svg" xmlns:xlink="http://www.w3.org/1999/xlink">
    <!-- Generator: Sketch 52.1 (67048) - http://www.bohemiancoding.com/sketch -->
    <title>`Icon/Like</title>
    <desc>Created with Sketch.</desc>
    <g id="Symbols" stroke="none" stroke-width="1" fill="none" fill-rule="evenodd" stroke-linecap="round" stroke-linejoin="round">
        <g id="Icon/Like-befor-pnk" transform="translate(1.000000, 1.000000)" fill="#30CCC3" fill-rule="nonzero" stroke="#FFFFFF" stroke-width="0.1">
            <path d="M24.9586772,6.56018203 C24.5937502,2.75858931 21.7507819,0.000455062571 18.1928644,0.000455062571 C15.8225221,0.000455062571 13.6521924,1.20773606 12.4309613,3.14266212 C11.2207886,1.18270762 9.13940686,0 6.80704773,0 C3.24961107,0 0.406161901,2.75813424 0.0417157611,6.55972696 C0.0128677817,6.72764505 -0.105408934,7.61137656 0.254229209,9.05255973 C0.772531239,11.1312856 1.96972238,13.0220705 3.71550594,14.5192264 L11.779169,21.4451292 C12.1514929,21.7649193 12.7008631,21.7672356 13.0758704,21.4505965 L21.2844062,14.5196815 C23.0301897,13.0220705 24.2273809,11.1317406 24.7456829,9.05255973 C25.1053211,7.61183163 24.9870443,6.72810011 24.9586772,6.56018203 Z M23.809566,8.84414107 C23.3364591,10.7426621 22.2397551,12.4723549 20.6410962,13.8430034 L13.0816611,20.2264117 C12.7066478,20.5430839 12.1572432,20.5407727 11.7849076,20.2209565 L4.36170068,13.8448237 C2.76015702,12.4714448 1.6639338,10.7422071 1.19034614,8.84368601 C0.849939984,7.47986348 0.989852684,6.70944255 0.990333484,6.70443686 C1.31006526,3.32787258 3.75300831,0.910125142 6.80704773,0.910125142 C9.06055572,0.910125142 11.0443351,2.22070535 11.9857408,4.32992036 C12.134949,4.64330692 12.2833558,4.80000019 12.4309613,4.80000019 C12.5785668,4.80000019 12.725371,4.64330692 12.8713738,4.32992036 C13.7978747,2.25301479 15.8864684,0.910580205 18.1933452,0.910580205 C21.2469038,0.910580205 23.6903277,3.32832765 24.0090978,6.70216155 C24.0100594,6.70944255 24.1499721,7.48031854 23.809566,8.84414107 Z" id="`Icon/Like"></path>
        </g>
    </g>
</svg>