<?xml version="1.0" encoding="UTF-8"?>
<svg width="15px" height="16px" viewBox="0 0 15 16" version="1.1" xmlns="http://www.w3.org/2000/svg" xmlns:xlink="http://www.w3.org/1999/xlink">
    <!-- Generator: Sketch 51.3 (57544) - http://www.bohemiancoding.com/sketch -->
    <title>Icon/ clock 1</title>
    <desc>Created with Sketch.</desc>
    <defs></defs>
    <g id="Web-SP用" stroke="none" stroke-width="1" fill="none" fill-rule="evenodd">
        <g id="[web-GE-1]TOP(マイページmypage)-" transform="translate(-233.000000, -488.000000)" fill="#222222">
            <g id="Group-Copy" transform="translate(18.000000, 430.000000)">
                <g id="Icon/cast-bk" transform="translate(215.000000, 58.000000)">
                    <path d="M9.45232168,13.7111361 L5.5526057,13.7111361 L5.00862022,13.1078567 L6.04616958,12.8909044 C6.1873982,12.8579968 6.28647343,12.7359612 6.28647343,12.5992956 L6.28710637,11.5221905 C7.15806544,11.7949667 7.86370009,11.7919931 8.71250648,11.5306751 C8.71841387,12.4811891 8.69828657,12.6165027 8.7295535,12.7003576 C8.76402729,12.7930539 8.84626649,12.8661643 8.95217741,12.8908648 L9.99774181,13.109165 L9.45232168,13.7111361 Z M8.24746894,15.0408407 C7.80648288,15.5275559 7.18920367,15.5262872 6.7492303,15.0383826 L6.08886939,14.3059706 L8.91335747,14.3059706 L8.24746894,15.0408407 Z M3.94373024,7.73266312 C3.96250728,7.08513685 3.89807462,7.00667404 4.00803631,6.90937858 C4.04698284,6.87488508 4.09934756,6.85486299 4.15829479,6.85803481 C6.42778433,6.98641407 8.3797099,6.0489838 9.66844746,4.47941056 C10.0159703,5.05271634 10.5255664,5.23121029 10.9033435,5.27787564 C10.9977772,5.28953206 11.0690877,5.36525917 11.0690877,5.45410967 L11.0690877,7.78452231 C11.0690877,10.7437079 7.2988278,12.2055186 5.07064773,10.2073537 C4.35441987,9.56502132 3.94373024,8.66307574 3.94373024,7.73266312 Z M11.7021059,7.72961024 C11.8998766,7.69527533 12.0835962,7.62946015 12.2450365,7.53886515 L12.2450365,11.2289957 C12.2450365,11.3838597 12.1109389,11.5097411 11.9462495,11.5097411 L9.34552465,11.5097411 L9.34552465,11.2799034 C10.684264,10.738982 11.7021059,9.30076939 11.7021059,7.78452231 L11.7021059,7.72961024 Z M11.7021059,5.89943266 C11.9663768,5.97329633 12.1702237,6.13696205 12.2450365,6.33904639 L12.2450365,6.67981839 C12.1702237,6.88198202 11.9663768,7.04564773 11.7021059,7.11947176 L11.7021059,5.89943266 Z M9.34493391,12.3695371 L9.34552465,12.1044963 L11.9462073,12.1044963 C12.460023,12.1044963 12.8780124,11.7117462 12.8780124,11.2289561 L12.8780124,6.76204772 C12.9198705,6.5959635 12.9199549,6.42329775 12.8780124,6.2568567 L12.8780124,4.62658283 C12.8780124,4.46228276 12.7362775,4.32918542 12.5615034,4.32918542 C12.3866027,4.32918542 12.2449943,4.46228276 12.2449943,4.62658283 L12.2449943,5.48003927 C12.0778998,5.38635175 11.8870491,5.3191489 11.6813879,5.28588447 C11.6071236,4.97595839 11.3331899,4.73093559 10.9857514,4.68807642 C10.6236289,4.64335381 10.3491888,4.44499636 10.1700686,4.09855474 C10.0862681,3.93635599 9.92200073,3.82982261 9.73089693,3.81348776 C9.53958215,3.7972322 9.3584365,3.8740298 9.24501477,4.01906109 C8.70098709,4.71479897 7.18844415,6.27529288 4.57666402,6.27521359 C4.3780072,6.27521359 4.2432767,6.26637215 4.19631301,6.26438976 C3.71638043,6.23723109 3.31062768,6.5975494 3.31062768,7.04941427 L3.31062768,7.73274241 C3.31062768,8.82491766 3.79279663,9.8837492 4.63354366,10.6376503 C4.91237209,10.887748 5.25492806,11.1072959 5.65400381,11.2626566 L5.65400381,11.5097808 L3.06656842,11.5097808 C2.90183685,11.5097808 2.76773928,11.3838597 2.76773928,11.2290354 L2.76773928,4.54645483 C2.76773928,2.37998544 4.64772138,0.594808001 6.91856118,0.594808001 C7.75416036,0.598971009 8.69360286,0.816121474 9.33375208,1.14793309 C9.73942044,1.3583038 9.99002002,1.19110944 10.3907093,1.19110944 C11.3685498,1.19110944 12.1522484,2.13591418 12.2461336,2.98568338 C12.2467665,2.99813276 12.2481168,3.04796992 12.2482855,3.23891326 C12.2485387,3.52600227 12.5936142,3.54804639 12.56509,3.53607279 C12.7399063,3.53595384 12.8814725,3.40265827 12.8813037,3.23843749 C12.8812615,3.18562675 12.8817679,2.9785468 12.8764934,2.93049378 C12.7491893,1.74752529 11.6752695,0.596314613 10.3907515,0.596314613 C9.88900379,0.596314613 9.81081537,0.715812788 9.63958568,0.627160526 C8.91369503,0.250864184 7.85559854,0.00469160151 6.94400512,9.24680608e-05 C4.31640165,-0.0158855559 2.13467892,2.04091829 2.13467892,4.54641518 L2.13467892,11.2289957 C2.13467892,11.7118254 2.55275278,12.1045359 3.06652622,12.1045359 L5.65400381,12.1045359 L5.65341307,12.3695768 L2.29662558,13.1265704 C2.29375628,13.1272047 2.2103356,13.15024 2.04636356,13.1956763 C1.60145331,13.3508574 0.860161273,13.7430128 0.656694161,14.7001877 C0.594708847,14.9929066 1.18920245,15.2385242 1.27756,14.816514 C1.41929497,14.1495207 1.93471404,13.8708767 2.23675004,13.7630349 L2.45620928,13.7021757 L4.32294196,13.2674783 C6.39951329,15.5660935 6.27655536,15.4442957 6.3966018,15.5542388 C7.08966428,16.1895536 8.0786444,16.144712 8.7295535,15.4264543 L10.684264,13.2691039 L12.5439078,13.7021361 C12.5977072,13.7253696 13.5233517,13.8784097 13.7226415,14.8163951 C13.8110412,15.2384052 14.4045221,14.9938185 14.3434229,14.7000291 C14.0586449,13.3597781 12.7205385,13.1316453 12.716319,13.1298215 C12.7019725,13.1258567 12.7311296,13.1582092 9.34493391,12.3695371 Z" id="Fill-6"></path>
                </g>
            </g>
        </g>
    </g>
</svg>
