<svg xmlns="http://www.w3.org/2000/svg" width="49.844" height="50" viewBox="0 0 49.844 50">
  <metadata><?xpacket begin="﻿" id="W5M0MpCehiHzreSzNTczkc9d"?>
<x:xmpmeta xmlns:x="adobe:ns:meta/" x:xmptk="Adobe XMP Core 5.6-c140 79.160451, 2017/05/06-01:08:21        ">
   <rdf:RDF xmlns:rdf="http://www.w3.org/1999/02/22-rdf-syntax-ns#">
      <rdf:Description rdf:about=""/>
   </rdf:RDF>
</x:xmpmeta>
                                                                                                    
                                                                                                    
                                                                                                    
                                                                                                    
                                                                                                    
                                                                                                    
                                                                                                    
                                                                                                    
                                                                                                    
                                                                                                    
                                                                                                    
                                                                                                    
                                                                                                    
                                                                                                    
                                                                                                    
                                                                                                    
                                                                                                    
                                                                                                    
                                                                                                    
                                                                                                    
                           
<?xpacket end="w"?></metadata>
<defs>
    <style>
      .cls-1 {
        fill: #1ea2f2;
        fill-rule: evenodd;
      }
    </style>
  </defs>
  <path id="シェイプ_1" data-name="シェイプ 1" class="cls-1" d="M378.09,945.75a8.983,8.983,0,0,0-6.6-2.75H340.344A9.374,9.374,0,0,0,331,952.375v31.25A9.376,9.376,0,0,0,340.344,993h31.144a9.376,9.376,0,0,0,9.343-9.375v-31.25A9.044,9.044,0,0,0,378.09,945.75Zm-8.97,16.489a8.531,8.531,0,0,1,.033.878,19.761,19.761,0,0,1-3.228,10.759,20.513,20.513,0,0,1-3.909,4.459,17.528,17.528,0,0,1-5.451,3.092,19.772,19.772,0,0,1-6.812,1.157,19.075,19.075,0,0,1-10.447-3.06,13.252,13.252,0,0,0,1.622.1,13.428,13.428,0,0,0,8.468-2.93,6.443,6.443,0,0,1-3.942-1.367,6.946,6.946,0,0,1-2.417-3.385,9.185,9.185,0,0,0,1.265.129,6.333,6.333,0,0,0,1.655-.26,6.805,6.805,0,0,1-3.991-2.36,6.514,6.514,0,0,1-1.622-4.345v-0.065a8.011,8.011,0,0,0,3.244.846,6.454,6.454,0,0,1-2.952-5.7,6.78,6.78,0,0,1,.941-3.451,19.485,19.485,0,0,0,14.08,7.162,6.306,6.306,0,0,1-.162-1.563,6.823,6.823,0,0,1,6.813-6.836,6.463,6.463,0,0,1,4.964,2.149,13.53,13.53,0,0,0,4.347-1.661A6.632,6.632,0,0,1,368.6,959.8a14.36,14.36,0,0,0,3.925-1.106A13.279,13.279,0,0,1,369.12,962.239Z" transform="translate(-331 -943)"/>
</svg>
