<svg xmlns="http://www.w3.org/2000/svg" width="18.188" height="18" viewBox="0 0 18.188 18">
  <metadata><?xpacket begin="﻿" id="W5M0MpCehiHzreSzNTczkc9d"?>
<x:xmpmeta xmlns:x="adobe:ns:meta/" x:xmptk="Adobe XMP Core 5.6-c140 79.160451, 2017/05/06-01:08:21        ">
   <rdf:RDF xmlns:rdf="http://www.w3.org/1999/02/22-rdf-syntax-ns#">
      <rdf:Description rdf:about=""/>
   </rdf:RDF>
</x:xmpmeta>
                                                                                                    
                                                                                                    
                                                                                                    
                                                                                                    
                                                                                                    
                                                                                                    
                                                                                                    
                                                                                                    
                                                                                                    
                                                                                                    
                                                                                                    
                                                                                                    
                                                                                                    
                                                                                                    
                                                                                                    
                                                                                                    
                                                                                                    
                                                                                                    
                                                                                                    
                                                                                                    
                           
<?xpacket end="w"?></metadata>
<defs>
    <style>
      .cls-1 {
        fill: #fff;
        fill-rule: evenodd;
      }
    </style>
  </defs>
  <path id="twitter" class="cls-1" d="M749.2,177.99a3.3,3.3,0,0,0-2.411-.99H735.413a3.308,3.308,0,0,0-2.412.99,3.234,3.234,0,0,0-1,2.385v11.25a3.236,3.236,0,0,0,1,2.385,3.308,3.308,0,0,0,2.412.99h11.375a3.3,3.3,0,0,0,2.411-.99,3.236,3.236,0,0,0,1-2.385v-11.25A3.234,3.234,0,0,0,749.2,177.99Zm-3.276,5.936a3.046,3.046,0,0,1,.012.316,7.048,7.048,0,0,1-1.179,3.873,7.413,7.413,0,0,1-1.428,1.606,6.43,6.43,0,0,1-1.991,1.113,7.328,7.328,0,0,1-2.488.416,7.032,7.032,0,0,1-3.815-1.1,4.707,4.707,0,0,0,.592.036,4.954,4.954,0,0,0,3.093-1.055,2.381,2.381,0,0,1-1.44-.493,2.5,2.5,0,0,1-.883-1.218,3.434,3.434,0,0,0,.463.047,2.317,2.317,0,0,0,.6-0.094,2.5,2.5,0,0,1-1.458-.849,2.328,2.328,0,0,1-.592-1.565v-0.024a2.932,2.932,0,0,0,1.185.305,2.313,2.313,0,0,1-1.079-2.05,2.421,2.421,0,0,1,.344-1.243,7.043,7.043,0,0,0,2.275,1.817,7.117,7.117,0,0,0,2.868.762,2.212,2.212,0,0,1-.06-0.563,2.356,2.356,0,0,1,.729-1.74,2.409,2.409,0,0,1,1.76-.721,2.378,2.378,0,0,1,1.813.774,5.021,5.021,0,0,0,1.588-.6,2.4,2.4,0,0,1-1.1,1.371,5.349,5.349,0,0,0,1.433-.4A4.84,4.84,0,0,1,745.923,183.926Z" transform="translate(-732 -177)"/>
</svg>
