<?xml version="1.0" encoding="utf-8"?>
<!-- Generator: Adobe Illustrator 22.1.0, SVG Export Plug-In . SVG Version: 6.00 Build 0)  -->
<svg version="1.1" id="Capa_1" xmlns="http://www.w3.org/2000/svg" xmlns:xlink="http://www.w3.org/1999/xlink" x="0px" y="0px"
	 viewBox="0 0 512 512" style="enable-background:new 0 0 512 512;" xml:space="preserve">
<style type="text/css">
	.st0{fill:#111111;}
</style>
<g transform="translate(1 1)">
	<g>
		<path class="st0" d="M285.2,255L504.8,35.4c8.3-8.3,8.3-21.8,0-30.2s-21.8-8.3-30.2,0L255,224.8L35.4,5.2
			c-8.3-8.3-21.8-8.3-30.2,0s-8.3,21.8,0,30.2L224.8,255L5.2,474.6c-8.3,8.3-8.3,21.8,0,30.2c8.3,8.3,21.8,8.3,30.2,0L255,285.2
			l219.6,219.6c8.3,8.3,21.8,8.3,30.2,0c8.3-8.3,8.3-21.8,0-30.2L285.2,255z"/>
	</g>
</g>
</svg>
