<svg xmlns="http://www.w3.org/2000/svg" width="48" height="48" viewBox="0 0 48 48">
  <metadata><?xpacket begin="﻿" id="W5M0MpCehiHzreSzNTczkc9d"?>
<x:xmpmeta xmlns:x="adobe:ns:meta/" x:xmptk="Adobe XMP Core 5.6-c140 79.160451, 2017/05/06-01:08:21        ">
   <rdf:RDF xmlns:rdf="http://www.w3.org/1999/02/22-rdf-syntax-ns#">
      <rdf:Description rdf:about=""/>
   </rdf:RDF>
</x:xmpmeta>
                                                                                                    
                                                                                                    
                                                                                                    
                                                                                                    
                                                                                                    
                                                                                                    
                                                                                                    
                                                                                                    
                                                                                                    
                                                                                                    
                                                                                                    
                                                                                                    
                                                                                                    
                                                                                                    
                                                                                                    
                                                                                                    
                                                                                                    
                                                                                                    
                                                                                                    
                                                                                                    
                           
<?xpacket end="w"?></metadata>
<defs>
    <style>
      .cls-1 {
        fill: #15d3d5;
        fill-rule: evenodd;
      }
    </style>
  </defs>
  <path id="シェイプ_19" data-name="シェイプ 19" class="cls-1" d="M586.969,4784.03A23.995,23.995,0,1,0,594,4801,23.817,23.817,0,0,0,586.969,4784.03ZM570,4822.89a21.885,21.885,0,0,1-16.2-36.61l7.979,7.98c-0.021.23-.031,0.48-0.031,0.71a8.257,8.257,0,0,0,3.578,6.8,14.289,14.289,0,0,0-9.6,13.49h1.8v0.04h25.127v-0.04h0.137l1.926,1.93A21.776,21.776,0,0,1,570,4822.89Zm0.769-19.64L581,4813.48H558.084A12.059,12.059,0,0,1,570,4803.22Zm3.884,0.92a12.081,12.081,0,0,1,6.453,6.45Zm-3.316-3.33-7.211-7.21A6.023,6.023,0,1,1,571.337,4800.84Zm-3.084-.1a6.034,6.034,0,0,1-4.011-4.02Zm17.947,14.98-2.01-2.02a14.3,14.3,0,0,0-9.516-11.91,8.254,8.254,0,1,0-12.316-9.91l-7.074-7.08A21.887,21.887,0,0,1,586.2,4815.72Z" transform="translate(-546 -4777)"/>
</svg>
