<svg xmlns="http://www.w3.org/2000/svg" width="42" height="39.37" viewBox="0 0 42 39.37">
  <metadata><?xpacket begin="﻿" id="W5M0MpCehiHzreSzNTczkc9d"?>
<x:xmpmeta xmlns:x="adobe:ns:meta/" x:xmptk="Adobe XMP Core 5.6-c140 79.160451, 2017/05/06-01:08:21        ">
   <rdf:RDF xmlns:rdf="http://www.w3.org/1999/02/22-rdf-syntax-ns#">
      <rdf:Description rdf:about=""/>
   </rdf:RDF>
</x:xmpmeta>
                                                                                                    
                                                                                                    
                                                                                                    
                                                                                                    
                                                                                                    
                                                                                                    
                                                                                                    
                                                                                                    
                                                                                                    
                                                                                                    
                                                                                                    
                                                                                                    
                                                                                                    
                                                                                                    
                                                                                                    
                                                                                                    
                                                                                                    
                                                                                                    
                                                                                                    
                                                                                                    
                           
<?xpacket end="w"?></metadata>
<defs>
    <style>
      .cls-1 {
        fill: #15d3d5;
        fill-rule: evenodd;
      }
    </style>
  </defs>
  <path id="シェイプ_18" data-name="シェイプ 18" class="cls-1" d="M1040.72,4509.48a3.24,3.24,0,0,0-4.27-1.64h-0.01l-5.35,2.46a0.837,0.837,0,0,0-.42,1.12,0.857,0.857,0,0,0,1.13.42l5.34-2.46a1.555,1.555,0,0,1,1.18-.02,1.5,1.5,0,0,1,.85.81,1.53,1.53,0,0,1,.03,1.17,1.491,1.491,0,0,1-.82.85l-10.95,4.82a6.367,6.367,0,0,1-5.38-.12l-4.01-1.99a8.056,8.056,0,0,0-6.82-.15l-0.05.02-2.97-6.7,4.13-1.82a8.267,8.267,0,0,1,6.2-.2l8.07,2.95a1.422,1.422,0,0,1-.95,2.68l-6.23-2.1a0.846,0.846,0,1,0-.55,1.6l6.24,2.1a3.063,3.063,0,0,0,.99.16,3.1,3.1,0,0,0,1.08-6.02l-8.06-2.95a9.856,9.856,0,0,0-1.65-.45l-1.7-.17a10.055,10.055,0,0,0-4.13.85l-4.16,1.83a2.128,2.128,0,0,0-2.59-.75l-5.382,2.35a0.841,0.841,0,0,0-.508.77v14.38a0.844,0.844,0,0,0,.4.72,0.894,0.894,0,0,0,.446.13,0.857,0.857,0,0,0,.38-0.1l10.44-5.25a2.051,2.051,0,0,0,1.09-1.15,2,2,0,0,0,.07-1.3l0.08-.03a6.332,6.332,0,0,1,5.38.12l4,1.98a8.079,8.079,0,0,0,6.83.16l10.95-4.82A3.226,3.226,0,0,0,1040.72,4509.48Zm-30.76,7.76a0.147,0.147,0,0,1-.04.02l-9.22,4.64v-3.43l2.39-1.17a0.843,0.843,0,1,0-.75-1.51l-1.64.8v-7.13l4.87-2.13a0.415,0.415,0,0,1,.31-0.01,0.469,0.469,0,0,1,.23.22l0.19,0.44h0l3.87,8.73A0.4,0.4,0,0,1,1009.96,4517.24Zm20.27-11.67a10.428,10.428,0,0,0,6.79-2.5l1.37,1.37a0.774,0.774,0,1,0,1.1-1.09l-1.37-1.37a10.425,10.425,0,0,0-14.74-14.67l-1.47-1.47a0.771,0.771,0,0,0-1.09,1.09l1.47,1.47A10.4,10.4,0,0,0,1030.23,4505.57Zm0-19.21a8.828,8.828,0,0,1,8.84,8.8,8.7,8.7,0,0,1-2.1,5.68l-3.39-3.37a0.666,0.666,0,0,0,.21-0.49,0.638,0.638,0,0,0-.67-0.64h-0.01c-0.17,0-.4.01-0.65,0.01l-1-.99c0.05-.08.04-0.06,0.15-0.08l1.5,0.02h0.01a0.632,0.632,0,0,0,.66-0.65,0.622,0.622,0,0,0-.66-0.63h-0.65c-0.05,0-.06,0-0.06-0.01a0.393,0.393,0,0,1,.02-0.06c2-2.95,2-2.97,2-3.2a0.871,0.871,0,0,0-.87-0.78,0.655,0.655,0,0,0-.58.36c-0.52.95-1.5,2.49-2.32,3.65a0.115,0.115,0,0,1-.11.06h-0.41l-0.82-.82c-0.74-1.08-1.42-2.1-1.86-2.88a0.707,0.707,0,0,0-.62-0.38,0.831,0.831,0,0,0-.56.23l-1.75-1.74A8.761,8.761,0,0,1,1030.23,4486.36Zm-2.28,7.68c-0.37,0-.68-0.02-0.89-0.02h-0.03a0.605,0.605,0,0,0-.62.63,0.632,0.632,0,0,0,.67.65c0.47-.02,1.09-0.03,1.78-0.03a0.967,0.967,0,0,1,.51.61,0.641,0.641,0,0,1,.08.39c-0.01.07-.01,0.08-0.1,0.08-0.97,0-1.87,0-2.29-.01h-0.03a0.6,0.6,0,0,0-.62.64,0.614,0.614,0,0,0,.67.66c0.58-.03,1.41-0.03,2.3-0.03,0.06,0,.07.03,0.07,0.08v1.92a0.749,0.749,0,0,0,.81.75,0.711,0.711,0,0,0,.78-0.71c0-.62-0.01-1.31-0.01-1.96a0.059,0.059,0,0,1,.07-0.07c0.15,0,.31.01,0.46,0.01l4.32,4.3a8.843,8.843,0,0,1-14.48-6.77,8.7,8.7,0,0,1,2.04-5.62Z" transform="translate(-999 -4484.75)"/>
</svg>
