<svg xmlns="http://www.w3.org/2000/svg" width="50" height="50" viewBox="0 0 50 50">
  <metadata><?xpacket begin="﻿" id="W5M0MpCehiHzreSzNTczkc9d"?>
<x:xmpmeta xmlns:x="adobe:ns:meta/" x:xmptk="Adobe XMP Core 5.6-c140 79.160451, 2017/05/06-01:08:21        ">
   <rdf:RDF xmlns:rdf="http://www.w3.org/1999/02/22-rdf-syntax-ns#">
      <rdf:Description rdf:about=""/>
   </rdf:RDF>
</x:xmpmeta>
                                                                                                    
                                                                                                    
                                                                                                    
                                                                                                    
                                                                                                    
                                                                                                    
                                                                                                    
                                                                                                    
                                                                                                    
                                                                                                    
                                                                                                    
                                                                                                    
                                                                                                    
                                                                                                    
                                                                                                    
                                                                                                    
                                                                                                    
                                                                                                    
                                                                                                    
                                                                                                    
                           
<?xpacket end="w"?></metadata>
<defs>
    <style>
      .cls-1 {
        fill: #15d3d5;
        fill-rule: evenodd;
      }
    </style>
  </defs>
  <path id="シェイプ_12" data-name="シェイプ 12" class="cls-1" d="M894.167,4822h-2.5v-15.83a0.831,0.831,0,0,0-1.516-.48l-11.667,16.67a0.834,0.834,0,0,0,.206,1.16,0.894,0.894,0,0,0,.477.15H890v2.5a0.834,0.834,0,0,0,1.667,0v-2.5h2.5a0.839,0.839,0,0,0,.833-0.84A0.831,0.831,0,0,0,894.167,4822ZM890,4822h-9.233L890,4808.81V4822Zm-10.833,3.33H869.3l9.172-10.8c0.021-.02.041-0.05,0.059-0.07a5.794,5.794,0,0,0-1.309-7.87,6.663,6.663,0,0,0-10.556,5.41,0.833,0.833,0,0,0,1.666,0,5,5,0,0,1,7.917-4.06,4.109,4.109,0,0,1,.917,5.55l-10.3,12.14a0.833,0.833,0,0,0,.635,1.37h11.667a0.831,0.831,0,0,0,.833-0.83A0.839,0.839,0,0,0,879.167,4825.33Zm-11.649-4.15a0.83,0.83,0,0,0-.8-0.86h0a20.819,20.819,0,0,1-20.021-19.99H850a0.83,0.83,0,1,0,0-1.66h-3.3a20.773,20.773,0,0,1,19.971-19.97v2.47a0.833,0.833,0,0,0,1.666,0v-2.47a20.794,20.794,0,0,1,19.96,19.58l-3.25-3.25a0.834,0.834,0,0,0-1.178,1.18l4.652,4.65a0.772,0.772,0,0,0,.328.24,0.349,0.349,0,0,0,.1.02,1.082,1.082,0,0,0,.177.05h0.047a1.15,1.15,0,0,0,.187-0.04c0.034-.01.068-0.01,0.1-0.02a0.745,0.745,0,0,0,.3-0.19l4.716-4.71a0.834,0.834,0,0,0-1.179-1.18l-3.331,3.33a22.465,22.465,0,0,0-22.4-21.35c-0.021,0-.038-0.01-0.059-0.01s-0.038.01-.059,0.01a22.463,22.463,0,0,0-22.429,22.43c0,0.02-.012.04-0.012,0.06s0.011,0.04.012,0.06a22.471,22.471,0,0,0,21.643,22.42h0.031A0.83,0.83,0,0,0,867.518,4821.18ZM878.7,4788.3a0.843,0.843,0,0,0-1.178,0l-8.955,8.96a2.624,2.624,0,0,0-2.126,0l-4.24-4.24a0.834,0.834,0,0,0-1.179,1.18l4.232,4.23a2.5,2.5,0,0,0,4.017,2.84,2.474,2.474,0,0,0,.482-2.84l8.947-8.95A0.836,0.836,0,0,0,878.7,4788.3Zm-10.607,11.79h0a0.862,0.862,0,0,1-1.178,0,0.834,0.834,0,0,1,0-1.18,0.843,0.843,0,0,1,1.178,0A0.834,0.834,0,0,1,868.089,4800.09Z" transform="translate(-845 -4777)"/>
</svg>
