<svg xmlns="http://www.w3.org/2000/svg" width="35" height="44.63" viewBox="0 0 35 44.63">
  <metadata><?xpacket begin="﻿" id="W5M0MpCehiHzreSzNTczkc9d"?>
<x:xmpmeta xmlns:x="adobe:ns:meta/" x:xmptk="Adobe XMP Core 5.6-c140 79.160451, 2017/05/06-01:08:21        ">
   <rdf:RDF xmlns:rdf="http://www.w3.org/1999/02/22-rdf-syntax-ns#">
      <rdf:Description rdf:about=""/>
   </rdf:RDF>
</x:xmpmeta>
                                                                                                    
                                                                                                    
                                                                                                    
                                                                                                    
                                                                                                    
                                                                                                    
                                                                                                    
                                                                                                    
                                                                                                    
                                                                                                    
                                                                                                    
                                                                                                    
                                                                                                    
                                                                                                    
                                                                                                    
                                                                                                    
                                                                                                    
                                                                                                    
                                                                                                    
                                                                                                    
                           
<?xpacket end="w"?></metadata>
<defs>
    <style>
      .cls-1 {
        fill: #15d3d5;
        fill-rule: evenodd;
      }
    </style>
  </defs>
  <path id="シェイプ_11" data-name="シェイプ 11" class="cls-1" d="M429.543,4489.59a5.952,5.952,0,0,0-5.906,5.2h-1.871l2.378-8.18h2.42v-1.49h-2.979a0.746,0.746,0,0,0-.715.54l-2.655,9.13h-18.97a0.751,0.751,0,0,0-.745.75,0.732,0.732,0,0,0,.161.46l13.988,17.65v14.61h-5.957v1.49h13.4v-1.49h-5.958v-14.61l10.33-13.04a5.773,5.773,0,0,0,3.075.88A5.95,5.95,0,1,0,429.543,4489.59Zm-26.759,6.69h17l-1.513,5.21H406.911Zm12.61,15.91-7.3-9.21h9.748l-1.67,5.74,1.43,0.41,1.79-6.15H422.7Zm8.482-10.7H419.82l1.514-5.21H428Zm5.667-1.49a4.48,4.48,0,0,1-2.151-.55l2.734-3.45a0.749,0.749,0,0,0-.121-1.05,0.767,0.767,0,0,0-.462-0.16h-4.407A4.469,4.469,0,1,1,429.543,4500Z" transform="translate(-400.5 -4485.12)"/>
</svg>
