<svg xmlns="http://www.w3.org/2000/svg" width="52" height="47" viewBox="0 0 52 47">
  <metadata><?xpacket begin="﻿" id="W5M0MpCehiHzreSzNTczkc9d"?>
<x:xmpmeta xmlns:x="adobe:ns:meta/" x:xmptk="Adobe XMP Core 5.6-c140 79.160451, 2017/05/06-01:08:21        ">
   <rdf:RDF xmlns:rdf="http://www.w3.org/1999/02/22-rdf-syntax-ns#">
      <rdf:Description rdf:about=""/>
   </rdf:RDF>
</x:xmpmeta>
                                                                                                    
                                                                                                    
                                                                                                    
                                                                                                    
                                                                                                    
                                                                                                    
                                                                                                    
                                                                                                    
                                                                                                    
                                                                                                    
                                                                                                    
                                                                                                    
                                                                                                    
                                                                                                    
                                                                                                    
                                                                                                    
                                                                                                    
                                                                                                    
                                                                                                    
                                                                                                    
                           
<?xpacket end="w"?></metadata>
<defs>
    <style>
      .cls-1 {
        fill: #24c2c8;
        fill-rule: evenodd;
      }
    </style>
  </defs>
  <path id="シェイプ_5" data-name="シェイプ 5" class="cls-1" d="M1042.06,2378.5a0.871,0.871,0,0,0,.62-0.26l2.45-2.46a0.87,0.87,0,1,0-1.23-1.23l-2.45,2.46A0.875,0.875,0,0,0,1042.06,2378.5Zm-6.74-.26a0.87,0.87,0,0,0,1.23-1.23l-2.45-2.46a0.87,0.87,0,1,0-1.23,1.23Zm29.65,37.12a0.866,0.866,0,0,0-1.06-.62l-3.9,1.05-3.66-13.73a9.5,9.5,0,0,0,4.96-4.2c1.27-2.2,1.45-5.04.55-8.43l-3.17-11.89a0.927,0.927,0,0,0-.4-0.53,0.893,0.893,0,0,0-.66-0.08l-16.58,4.46a0.839,0.839,0,0,0-.52.4,0.851,0.851,0,0,0-.09.66l2.22,8.33a0.865,0.865,0,0,0,1.67-.45l-1.99-7.49,14.9-4.01,2.95,11.05c0.78,2.93.65,5.32-.38,7.11a7.8,7.8,0,0,1-10.66,2.87,8.7,8.7,0,0,1-3.62-5.13l12.17-3.28a0.87,0.87,0,0,0-.45-1.68l-13.02,3.51a0.833,0.833,0,0,0-.53.4,0.851,0.851,0,0,0-.09.66c0.91,3.39,2.48,5.75,4.68,7.03a9.461,9.461,0,0,0,4.75,1.28,9,9,0,0,0,1.63-.16l3.67,13.75-3.9,1.05a0.871,0.871,0,0,0,.22,1.71,0.908,0.908,0,0,0,.23-0.03l9.47-2.55A0.86,0.86,0,0,0,1064.97,2415.36Zm-28.02-33.97-16.58-4.46a0.86,0.86,0,0,0-1.06.61l-2.22,8.32a0.866,0.866,0,1,0,1.67.46l2-7.49,14.9,4.01-2.95,11.05c-0.78,2.93-2.08,4.93-3.86,5.97a7.8,7.8,0,0,1-10.66-2.87,8.729,8.729,0,0,1-.58-6.26l12.16,3.27a0.87,0.87,0,1,0,.45-1.68l-13.02-3.5a0.86,0.86,0,0,0-1.06.61c-0.91,3.39-.72,6.22.55,8.43a9.5,9.5,0,0,0,4.96,4.2l-3.66,13.73-3.9-1.05a0.87,0.87,0,0,0-.45,1.68l9.47,2.55a0.908,0.908,0,0,0,.23.03,0.871,0.871,0,0,0,.22-1.71l-3.9-1.05,3.67-13.75a9,9,0,0,0,1.63.16,9.461,9.461,0,0,0,4.75-1.28c2.2-1.28,3.77-3.64,4.68-7.03l3.17-11.89A0.868,0.868,0,0,0,1036.95,2381.39ZM1039,2372a0.871,0.871,0,0,0-.87.87v3.48a0.87,0.87,0,0,0,1.74,0v-3.48A0.871,0.871,0,0,0,1039,2372Z" transform="translate(-1013 -2372)"/>
</svg>
