<svg xmlns="http://www.w3.org/2000/svg" width="44" height="44" viewBox="0 0 44 44">
  <metadata><?xpacket begin="﻿" id="W5M0MpCehiHzreSzNTczkc9d"?>
<x:xmpmeta xmlns:x="adobe:ns:meta/" x:xmptk="Adobe XMP Core 5.6-c140 79.160451, 2017/05/06-01:08:21        ">
   <rdf:RDF xmlns:rdf="http://www.w3.org/1999/02/22-rdf-syntax-ns#">
      <rdf:Description rdf:about=""/>
   </rdf:RDF>
</x:xmpmeta>
                                                                                                    
                                                                                                    
                                                                                                    
                                                                                                    
                                                                                                    
                                                                                                    
                                                                                                    
                                                                                                    
                                                                                                    
                                                                                                    
                                                                                                    
                                                                                                    
                                                                                                    
                                                                                                    
                                                                                                    
                                                                                                    
                                                                                                    
                                                                                                    
                                                                                                    
                                                                                                    
                           
<?xpacket end="w"?></metadata>
<defs>
    <style>
      .cls-1 {
        fill: #24c2c8;
        fill-rule: evenodd;
      }
    </style>
  </defs>
  <path id="シェイプ_7" data-name="シェイプ 7" class="cls-1" d="M411.58,2385.78a0.857,0.857,0,0,0,.859-0.86v-9.34a2.584,2.584,0,0,0-2.578-2.58H378.578a2.584,2.584,0,0,0-2.578,2.58v38.84a2.584,2.584,0,0,0,2.578,2.58h31.283a2.584,2.584,0,0,0,2.578-2.58v-6.33a0.86,0.86,0,1,0-1.719,0v6.33a0.857,0.857,0,0,1-.859.86H378.578a0.857,0.857,0,0,1-.859-0.86v-38.84a0.857,0.857,0,0,1,.859-0.86h31.283a0.857,0.857,0,0,1,.859.86v9.34A0.857,0.857,0,0,0,411.58,2385.78Zm-17.361-8.14a7.9,7.9,0,0,0-5.424,13.65c0.029,0.03.059,0.06,0.092,0.09a7.9,7.9,0,0,0,10.664,0c0.034-.03.064-0.06,0.093-0.09A7.9,7.9,0,0,0,394.219,2377.64Zm0,14.09a6.155,6.155,0,0,1-3.737-1.26,4.3,4.3,0,0,1,7.475,0A6.155,6.155,0,0,1,394.219,2391.73Zm-1.375-6.53v-0.56a1.376,1.376,0,0,1,2.751,0v0.56A1.376,1.376,0,1,1,392.844,2385.2Zm6.355,4.01a6.018,6.018,0,0,0-2.532-2.12,3.073,3.073,0,0,0,.646-1.89v-0.56a3.094,3.094,0,0,0-6.187,0v0.56a3.073,3.073,0,0,0,.646,1.89,6.018,6.018,0,0,0-2.532,2.12,6.116,6.116,0,0,1-1.208-3.66,6.188,6.188,0,1,1,12.375,0A6.116,6.116,0,0,1,399.2,2389.21Zm-0.339,21.43h-4.641a0.86,0.86,0,0,0,0,1.72h4.641A0.86,0.86,0,0,0,398.86,2410.64Zm0-4.81h-12.2a0.86,0.86,0,1,0,0,1.72h12.2A0.86,0.86,0,0,0,398.86,2405.83Zm0-4.81h-12.2a0.855,0.855,0,1,0,0,1.71h12.2A0.855,0.855,0,1,0,398.86,2401.02Zm-15.266-4.57a0.864,0.864,0,0,0-1.216,0,0.882,0.882,0,0,0-.252.61,0.86,0.86,0,1,0,1.72,0A0.882,0.882,0,0,0,383.594,2396.45Zm0,4.82a0.852,0.852,0,1,0,.252.6A0.867,0.867,0,0,0,383.594,2401.27Zm0,4.81a0.86,0.86,0,0,0-1.468.61,0.841,0.841,0,0,0,.252.6,0.841,0.841,0,0,0,1.216,0,0.845,0.845,0,0,0,.252-0.6A0.864,0.864,0,0,0,383.594,2406.08Zm15.266-9.88h-12.2a0.86,0.86,0,1,0,0,1.72h12.2A0.86,0.86,0,0,0,398.86,2396.2Zm19.337-12a3.612,3.612,0,0,0-4.931,1.32l-10.815,18.73a0.862,0.862,0,0,0-.11.34l-0.761,6.81a0.859,0.859,0,0,0,.424.84,0.837,0.837,0,0,0,.43.12,0.87,0.87,0,0,0,.51-0.17l5.524-4.07a0.87,0.87,0,0,0,.235-0.26l10.815-18.73A3.613,3.613,0,0,0,418.2,2384.2Zm-14.691,25.44,0.4-3.56,2.487,1.44Zm4.138-3.38-3.275-1.89,8.679-15.03,3.275,1.89Zm10.385-17.99-0.847,1.47-3.275-1.89,0.847-1.47a1.869,1.869,0,0,1,1.148-.88,1.894,1.894,0,0,1,1.435.19A1.889,1.889,0,0,1,418.029,2388.27Z" transform="translate(-376 -2373)"/>
</svg>
