<svg xmlns="http://www.w3.org/2000/svg" width="32" height="52" viewBox="0 0 32 52">
  <metadata><?xpacket begin="﻿" id="W5M0MpCehiHzreSzNTczkc9d"?>
<x:xmpmeta xmlns:x="adobe:ns:meta/" x:xmptk="Adobe XMP Core 5.6-c140 79.160451, 2017/05/06-01:08:21        ">
   <rdf:RDF xmlns:rdf="http://www.w3.org/1999/02/22-rdf-syntax-ns#">
      <rdf:Description rdf:about=""/>
   </rdf:RDF>
</x:xmpmeta>
                                                                                                    
                                                                                                    
                                                                                                    
                                                                                                    
                                                                                                    
                                                                                                    
                                                                                                    
                                                                                                    
                                                                                                    
                                                                                                    
                                                                                                    
                                                                                                    
                                                                                                    
                                                                                                    
                                                                                                    
                                                                                                    
                                                                                                    
                                                                                                    
                                                                                                    
                                                                                                    
                           
<?xpacket end="w"?></metadata>
<defs>
    <style>
      .cls-1 {
        fill: #24c2c8;
        fill-rule: evenodd;
      }
    </style>
  </defs>
  <path id="シェイプ_6" data-name="シェイプ 6" class="cls-1" d="M716.964,2417.38h4.3a0.96,0.96,0,1,0,0-1.92h-4.3A0.96,0.96,0,1,0,716.964,2417.38ZM735,2415.35v-40.89a5.5,5.5,0,0,0-5.543-5.46h-20.85a5.533,5.533,0,0,0-5.6,5.46v34.39a0.97,0.97,0,0,0,1.94,0v-30.9h28.13v33.67H704.439l-0.245-.06a0.961,0.961,0,0,0-.821.18,0.95,0.95,0,0,0-.373.75v2.85a5.707,5.707,0,0,0,5.6,5.66h20.85A5.676,5.676,0,0,0,735,2415.35Zm-1.94,0a3.764,3.764,0,0,1-3.614,3.73H708.607a3.8,3.8,0,0,1-3.667-3.73v-1.8h28.131v1.8H733.06Zm-28.12-39.32v-1.57a3.649,3.649,0,0,1,3.667-3.54h20.839a3.576,3.576,0,0,1,3.614,3.54v1.57H704.94Zm19.432,27.6a0.973,0.973,0,0,0-.97-0.96h-8.591a0.965,0.965,0,1,0,0,1.93H723.4A0.982,0.982,0,0,0,724.372,2403.63Zm-8.058,2.45a0.965,0.965,0,1,0,0,1.93h5.8a0.965,0.965,0,1,0,0-1.93h-5.8Zm-5.959-9.01a2.675,2.675,0,0,0-.981,2.07v2.42a0.97,0.97,0,0,0,1.94,0v-2.42a0.731,0.731,0,0,1,.278-0.58,27.274,27.274,0,0,1,4.871-3.11,1.123,1.123,0,0,0,.629-1v-3.41a0.935,0.935,0,0,0-.427-0.79,0.637,0.637,0,0,1-.287-0.53v-3.53a2.235,2.235,0,0,1,2.238-2.23h0.768a2.235,2.235,0,0,1,2.238,2.23v3.53a0.636,0.636,0,0,1-.288.53,0.95,0.95,0,0,0-.426.79v3.41a1.123,1.123,0,0,0,.629,1,27.274,27.274,0,0,1,4.871,3.11,0.721,0.721,0,0,1,.278.58v2.42a0.97,0.97,0,0,0,1.94,0v-2.42a2.641,2.641,0,0,0-.981-2.07,29.189,29.189,0,0,0-4.8-3.11v-2.47a2.524,2.524,0,0,0,.714-1.77v-3.53a4.151,4.151,0,0,0-4.168-4.14h-0.767a4.151,4.151,0,0,0-4.168,4.14v3.53a2.542,2.542,0,0,0,.714,1.77v2.47A28.747,28.747,0,0,0,710.355,2397.07Z" transform="translate(-703 -2369)"/>
</svg>
