<?xml version="1.0" encoding="utf-8"?>
<!-- Generator: Adobe Illustrator 22.1.0, SVG Export Plug-In . SVG Version: 6.00 Build 0)  -->
<svg version="1.1" id="レイヤー_1" xmlns="http://www.w3.org/2000/svg" xmlns:xlink="http://www.w3.org/1999/xlink" x="0px"
	 y="0px" viewBox="0 0 385 387" style="enable-background:new 0 0 385 387;" xml:space="preserve">
<style type="text/css">
	.st0{fill:url(#SVGID_1_);}
	.st1{fill:#F34A82;}
	.st2{enable-background:new    ;}
	.st3{fill:#FFFFFF;}
</style>
<g>
	<g>
		<g>
			<g>
				<linearGradient id="SVGID_1_" gradientUnits="userSpaceOnUse" x1="193" y1="5" x2="193" y2="381">
					<stop  offset="0" style="stop-color:#FD73AA"/>
					<stop  offset="1" style="stop-color:#F65C91"/>
				</linearGradient>
				<circle class="st0" cx="193" cy="193" r="188"/>
				<path class="st1" d="M193,6c25.2,0,49.7,4.9,72.8,14.7c22.3,9.4,42.3,22.9,59.4,40.1c17.2,17.2,30.7,37.2,40.1,59.4
					c9.8,23.1,14.7,47.5,14.7,72.8s-4.9,49.7-14.7,72.8c-9.4,22.3-22.9,42.3-40.1,59.4c-17.2,17.2-37.2,30.7-59.4,40.1
					c-23.1,9.8-47.5,14.7-72.8,14.7s-49.7-4.9-72.8-14.7c-22.3-9.4-42.3-22.9-59.4-40.1c-17.2-17.2-30.7-37.2-40.1-59.4
					C10.9,242.7,6,218.2,6,193s4.9-49.7,14.7-72.8c9.4-22.3,22.9-42.3,40.1-59.4c17.2-17.2,37.2-30.7,59.4-40.1
					C143.3,10.9,167.8,6,193,6 M193,4C88.6,4,4,88.6,4,193s84.6,189,189,189s189-84.6,189-189S297.4,4,193,4L193,4z"/>
			</g>
		</g>
	</g>
	<g class="st2">
		<path class="st3" d="M214.3,225.6h-43.4l-9.4,34.4h-27.1l42.9-133.8h31.5l43,133.8h-28L214.3,225.6z M208.5,204.8l-4-14.7
			c-4.2-13.9-7.8-29.3-11.8-43.8H192c-3.4,14.7-7.4,29.8-11.4,43.8l-4,14.7H208.5z"/>
	</g>
</g>
</svg>
