<?xml version="1.0" encoding="utf-8"?>
<!-- Generator: Adobe Illustrator 22.1.0, SVG Export Plug-In . SVG Version: 6.00 Build 0)  -->
<svg version="1.1" id="レイヤー_1" xmlns="http://www.w3.org/2000/svg" xmlns:xlink="http://www.w3.org/1999/xlink" x="0px"
	 y="0px" viewBox="0 0 385 387" style="enable-background:new 0 0 385 387;" xml:space="preserve">
<style type="text/css">
	.st0{fill:url(#SVGID_1_);}
	.st1{fill:#11C3BB;}
	.st2{fill:#FFFFFF;}
</style>
<g>
	<g>
		<linearGradient id="SVGID_1_" gradientUnits="userSpaceOnUse" x1="193" y1="5" x2="193" y2="381">
			<stop  offset="0" style="stop-color:#3BE1B4"/>
			<stop  offset="1" style="stop-color:#07C6C1"/>
		</linearGradient>
		<circle class="st0" cx="193" cy="193" r="188"/>
		<path class="st1" d="M193,6c25.2,0,49.7,4.9,72.8,14.7c22.3,9.4,42.3,22.9,59.4,40.1c17.2,17.2,30.7,37.2,40.1,59.4
			c9.8,23.1,14.7,47.5,14.7,72.8s-4.9,49.7-14.7,72.8c-9.4,22.3-22.9,42.3-40.1,59.4c-17.2,17.2-37.2,30.7-59.4,40.1
			c-23.1,9.8-47.5,14.7-72.8,14.7s-49.7-4.9-72.8-14.7c-22.3-9.4-42.3-22.9-59.4-40.1c-17.2-17.2-30.7-37.2-40.1-59.4
			C10.9,242.7,6,218.2,6,193s4.9-49.7,14.7-72.8c9.4-22.3,22.9-42.3,40.1-59.4c17.2-17.2,37.2-30.7,59.4-40.1
			C143.3,10.9,167.8,6,193,6 M193,4C88.6,4,4,88.6,4,193s84.6,189,189,189s189-84.6,189-189S297.4,4,193,4L193,4z"/>
	</g>
</g>
<g>
	<path class="st2" d="M260.2,281.2c-4.8,2.3-13.5,4.3-24,4.3c-29.2,0-49.5-15.7-59.4-37.4c-30.6-5.8-50.9-32.9-50.9-73.7
		c0-46.6,26.1-73.7,64.1-73.7c37.9,0,64.1,27.3,64.1,73.7c0,39.1-18.6,65.4-47,72.8c6.6,10.8,19.5,15.3,32.5,15.3
		c6.2,0,11.6-1,15.7-2.3L260.2,281.2z M189.9,225.8c21.3,0,34.8-19.4,34.8-51.5c0-30.8-13.5-49.2-34.8-49.2
		c-21.3,0-34.8,18.4-34.8,49.2C155.1,206.5,168.6,225.8,189.9,225.8z"/>
</g>
</svg>
