<?xml version="1.0" encoding="utf-8"?>
<!-- Generator: Adobe Illustrator 23.0.2, SVG Export Plug-In . SVG Version: 6.00 Build 0)  -->
<svg version="1.1" id="レイヤー_1" xmlns="http://www.w3.org/2000/svg" xmlns:xlink="http://www.w3.org/1999/xlink" x="0px"
	 y="0px" viewBox="0 0 137 35" style="enable-background:new 0 0 137 35;" xml:space="preserve">
<style type="text/css">
	.st0{enable-background:new    ;}
	.st1{fill:#F66D43;}
</style>
<g class="st0">
	<path class="st1" d="M-0.5,24.4l5.7-1.8c0.8,1.9,1.6,3.2,2.4,4C9,28.2,11,29,13.5,29c3.9,0,5.9-1.4,5.9-4.1c0-1.1-0.4-2-1.2-2.5
		c-0.7-0.5-3.5-1.5-8.5-3c-6.2-1.8-9.3-5-9.3-9.4c0-2.9,1.3-5.3,3.8-7.1c2.2-1.6,4.9-2.4,8.1-2.4c6.1,0,10.2,3.2,12.4,9.7L18.9,12
		c-0.7-1.9-1.4-3.2-2-3.9c-1.1-1.4-2.8-2.1-5-2.1c-1.7,0-3.1,0.5-4.1,1.5C7.1,8.2,6.7,9,6.7,9.8c0,1,0.4,1.7,1.1,2.3
		c0.6,0.5,4.3,1.8,11,3.9c4.6,1.5,7,4.4,7,8.7c0,3-1.3,5.4-3.9,7.3c-2.2,1.6-5.2,2.4-8.9,2.4C6.3,34.4,1.8,31.1-0.5,24.4z"/>
	<path class="st1" d="M28.4,0.9h26.7v5.7H44.9v27.3h-6.3V6.7H28.4V0.9z"/>
	<path class="st1" d="M59.3,0.9H82v5.7H65.6v7.1h11.9v5.7H65.6v8.8H82v5.7H59.3V0.9z"/>
	<path class="st1" d="M87.3,0.9h13.2c3.8,0,6.6,0.9,8.6,2.6c2,1.8,3.1,4.2,3.1,7.3c0,3.2-1.2,5.8-3.5,7.6c-1.8,1.3-4.4,2-7.8,2h-7.3
		v13.6h-6.3V0.9z M93.5,14.6h7.2c3.3,0,5-1.2,5-3.7c0-2.9-1.8-4.3-5.3-4.3h-6.9V14.6z"/>
	<path class="st1" d="M118.5,2.7c3.5-0.5,6.4-1.1,8.7-1.7h3.6v27.5h5.2v5.5h-17.7v-5.5h6.1V7.4h-6V2.7z"/>
</g>
</svg>
