<?xml version="1.0" encoding="UTF-8"?>
<svg width="21px" height="25px" viewBox="0 0 21 25" version="1.1" xmlns="http://www.w3.org/2000/svg" xmlns:xlink="http://www.w3.org/1999/xlink">
    <!-- Generator: Sketch 51.3 (57544) - http://www.bohemiancoding.com/sketch -->
    <title>Fill 6</title>
    <desc>Created with Sketch.</desc>
    <defs></defs>
    <g id="Symbols" stroke="none" stroke-width="1" fill="none" fill-rule="evenodd">
        <g id="Icon/cast-bk-Copy" transform="translate(-1.000000, 0.000000)" fill="#222222">
            <path d="M14.4935599,21.4236501 L8.51399541,21.4236501 L7.67988434,20.481026 L9.27079335,20.1420382 C9.4873439,20.09062 9.63925926,19.8999394 9.63925926,19.6863993 L9.64022976,18.0034226 C10.9757003,18.4296354 12.0576735,18.4249892 13.3591766,18.0166798 C13.3682346,19.501858 13.3373727,19.7132854 13.3853154,19.8443087 C13.4381752,19.9891467 13.5642753,20.1033817 13.726672,20.1419762 L15.3298708,20.4830704 L14.4935599,21.4236501 Z M12.646119,23.5013136 C11.9699404,24.2618061 11.0234456,24.2598237 10.3488198,23.4974728 L9.3362664,22.353079 L13.6671481,22.353079 L12.646119,23.5013136 Z M6.04705303,12.0822861 C6.07584449,11.0705263 5.97704775,10.9479282 6.14565568,10.795904 C6.20537368,10.7420079 6.28566625,10.7107234 6.37605201,10.7156794 C9.85593598,10.916272 12.8488885,9.45153718 14.8249528,6.99907901 C15.3578211,7.89486928 16.1392018,8.17376608 16.71846,8.24668068 C16.8632583,8.26489385 16.9726012,8.38321746 16.9726012,8.52204636 L16.9726012,12.1633161 C16.9726012,16.7870435 11.191536,19.0711229 7.77499319,15.9489902 C6.67677713,14.9453458 6.04705303,13.5360558 6.04705303,12.0822861 Z M17.943229,12.077516 C18.2464774,12.0238677 18.5281808,11.9210315 18.7757226,11.7794768 L18.7757226,17.5453058 C18.7757226,17.7872807 18.5701063,17.9839705 18.3175826,17.9839705 L14.3298045,17.9839705 L14.3298045,17.624849 C16.3825381,16.7796595 17.943229,14.5324522 17.943229,12.1633161 L17.943229,12.077516 Z M17.943229,9.21786354 C18.3484445,9.33327552 18.6610097,9.5890032 18.7757226,9.90475998 L18.7757226,10.4372162 C18.6610097,10.7530969 18.3484445,11.0088246 17.943229,11.1241746 L17.943229,9.21786354 Z M14.3288987,19.3274018 L14.3298045,18.9132755 L18.3175179,18.9132755 C19.1053686,18.9132755 19.7462858,18.2996034 19.7462858,17.5452439 L19.7462858,10.5656996 C19.8104681,10.306193 19.8105975,10.0364027 19.7462858,9.77633859 L19.7462858,7.22903568 C19.7462858,6.97231681 19.5289588,6.76435222 19.2609718,6.76435222 C18.9927908,6.76435222 18.7756579,6.97231681 18.7756579,7.22903568 L18.7756579,8.56256136 C18.5194463,8.41617461 18.2268087,8.31117015 17.9114614,8.25919449 C17.7975896,7.77493498 17.3775578,7.39208685 16.8448189,7.32511941 C16.2895643,7.25524033 15.8687562,6.94530681 15.5941052,6.40399178 C15.4656112,6.15055623 15.2137345,5.98409783 14.9207086,5.95857462 C14.6273593,5.93317531 14.3496026,6.05317156 14.1756893,6.27978296 C13.3415135,7.36687339 11.022281,9.80514513 7.01755149,9.80502123 C6.71294438,9.80502123 6.5063576,9.79120648 6.43434662,9.788109 C5.69844999,9.74567357 5.07629578,10.3086709 5.07629578,11.0147098 L5.07629578,12.08241 C5.07629578,13.7889338 5.8156215,15.4433581 7.10476695,16.6213285 C7.53230387,17.0121062 8.05755635,17.3551499 8.66947251,17.597901 L8.66947251,17.9840324 L4.70207157,17.9840324 C4.44948317,17.9840324 4.2438669,17.7872807 4.2438669,17.5453678 L4.2438669,7.10383567 C4.2438669,3.71872725 7.12650612,0.929387501 10.6084605,0.929387501 C11.8897125,0.935892202 13.3301911,1.2751898 14.3117532,1.79364546 C14.933778,2.12234969 15.3180307,1.8611085 15.9324209,1.8611085 C17.4317763,1.8611085 18.6334475,3.33736591 18.7774048,4.66513029 C18.7783753,4.68458244 18.7804457,4.76245301 18.7807045,5.06080197 C18.7810927,5.50937855 19.3102084,5.54382249 19.2664713,5.52511373 C19.534523,5.52492788 19.7515911,5.31665354 19.7513323,5.06005857 C19.7512676,4.97754179 19.752044,4.65397937 19.7439566,4.57889654 C19.548757,2.73050827 17.9020799,0.931741583 15.9324856,0.931741583 C15.1631391,0.931741583 15.0432502,1.11845748 14.780698,0.979938321 C13.6676657,0.391975288 12.0452511,0.00733062736 10.6474745,0.000144481345 C6.61848253,-0.0248211811 3.27317434,3.18893483 3.27317434,7.10377372 L3.27317434,17.5453058 C3.27317434,18.2997273 3.91422093,18.9133374 4.70200687,18.9133374 L8.66947251,18.9133374 L8.66856671,19.3274637 L3.52149255,20.5102662 C3.51709296,20.5112574 3.38918126,20.5472501 3.13775746,20.6182442 C2.45556174,20.8607147 1.31891395,21.4734576 1.00693105,22.9690432 C0.911886899,23.4264166 1.82344375,23.810194 1.95892533,23.1508032 C2.17625229,22.1086261 2.96656153,21.6732448 3.4296834,21.5047421 L3.76618756,21.4096495 L6.62851101,20.7304348 C9.81258705,24.3220211 9.62405155,24.1317121 9.80812275,24.3034982 C10.8708186,25.2961775 12.3872548,25.2261126 13.3853154,24.1038348 L16.3825381,20.7329748 L19.233992,21.4095876 C19.3164843,21.44589 20.735806,21.6850152 21.0413836,23.1506173 C21.1769299,23.8100082 22.0869339,23.4278415 21.9932485,22.9687954 C21.5565889,20.8746534 19.5048257,20.5181957 19.4983557,20.5153461 C19.4763578,20.5091511 19.5210654,20.5597019 14.3288987,19.3274018 Z" id="Fill-6"></path>
        </g>
    </g>
</svg>