<?xml version="1.0" encoding="UTF-8"?>
<svg width="16px" height="21px" viewBox="0 0 16 21" version="1.1" xmlns="http://www.w3.org/2000/svg" xmlns:xlink="http://www.w3.org/1999/xlink">
    <!-- Generator: Sketch 51.3 (57544) - http://www.bohemiancoding.com/sketch -->
    <title>Fill 1</title>
    <desc>Created with Sketch.</desc>
    <defs></defs>
    <g id="Symbols" stroke="none" stroke-width="1" fill="none" fill-rule="evenodd">
        <g id="Icon/Cocktail" transform="translate(-5.000000, 0.000000)" fill="#222222">
            <path d="M19.1002846,0.963965574 L17.7360202,3.01036809 L7.75105989,3.01036809 L6.38674711,0.963965574 L19.1002846,0.963965574 Z M8.39367624,3.97433366 L17.0933554,3.97433366 L12.7435158,10.4990792 L8.39367624,3.97433366 Z M20.4062921,0.74847107 C20.5049364,0.600502354 20.5138468,0.410552938 20.4294883,0.254101325 C20.3451298,0.0976015144 20.1811585,0 20.0027562,0 L5.48427549,0 C5.30587318,0 5.14190189,0.0976015144 5.05759179,0.254101325 C4.97318483,0.410552938 4.98209526,0.600502354 5.08078796,0.74847107 L12.2592533,11.5162557 L12.2592533,20.0360344 L9.64660864,20.0360344 C9.37915046,20.0360344 9.16234613,20.2518663 9.16234613,20.5180172 C9.16234613,20.7842163 9.37915046,21 9.64660864,21 L15.840423,21 C16.1078812,21 16.3246856,20.7842163 16.3246856,20.5180172 C16.3246856,20.2518663 16.1078812,20.0360344 15.840423,20.0360344 L13.2277784,20.0360344 L13.2277784,11.5162557 L20.4062921,0.74847107 Z" id="Fill-1"></path>
        </g>
    </g>
</svg>