<?xml version="1.0" encoding="utf-8"?>
<!-- Generator: Adobe Illustrator 22.1.0, SVG Export Plug-In . SVG Version: 6.00 Build 0)  -->
<svg version="1.1" id="レイヤー_1" xmlns="http://www.w3.org/2000/svg" xmlns:xlink="http://www.w3.org/1999/xlink" x="0px"
	 y="0px" viewBox="0 0 40.1 26" style="enable-background:new 0 0 40.1 26;" xml:space="preserve">
<style type="text/css">
	.st0{fill:#FFFFFF;}
	.st1{fill:#FF66BB;}
</style>
<title>`Icon/star 2</title>
<desc>Created with Sketch.</desc>
<rect y="0.1" class="st0" width="40" height="25.8"/>
<g id="GO">
	<g id="_x5B_GO-1_x5D_評価画面" transform="translate(-141.000000, -293.000000)">
		<g id="Icon_x2F_star-3" transform="translate(141.000000, 293.000000)">
			<path id="Shape" class="st1" d="M20.2,17.8l1.2,7.1c0.1,0.4-0.1,0.7-0.4,0.9c-0.3,0.2-0.6,0.2-0.9,0.1l-6.1-3.4
				c-0.3-0.2-0.6-0.2-0.9-0.2c-0.3,0-0.6,0.1-0.9,0.2l-6.1,3.4C5.6,26.1,5.3,26,5,25.8c-0.3-0.2-0.4-0.6-0.4-0.9l1.2-7.1
				c0.1-0.7-0.1-1.4-0.6-1.9l-5-5.1C0,10.6-0.1,10.2,0,9.9c0.1-0.3,0.4-0.6,0.7-0.6l6.8-1C8.3,8.1,8.8,7.6,9.1,7l3.1-6.5
				C12.4,0.2,12.7,0,13,0c0.3,0,0.6,0.2,0.8,0.5L16.9,7c0.3,0.6,0.9,1.1,1.5,1.2l6.8,1c0.3,0.1,0.6,0.3,0.7,0.6c0.1,0.3,0,0.7-0.2,1
				l-5,5.1C20.3,16.4,20.1,17.1,20.2,17.8z"/>
		</g>
	</g>
</g>
</svg>
