<svg xmlns="http://www.w3.org/2000/svg" xmlns:xlink="http://www.w3.org/1999/xlink" width="61" height="43" viewBox="0 0 61 43">
  <defs>
    <filter id="Rectangle_Copy_2" x="0" y="0" width="61" height="43" filterUnits="userSpaceOnUse">
      <feOffset dy="2" input="SourceAlpha"/>
      <feGaussianBlur stdDeviation="2" result="blur"/>
      <feFlood flood-opacity="0.161"/>
      <feComposite operator="in" in2="blur"/>
      <feComposite in="SourceGraphic"/>
    </filter>
  </defs>
  <g id="Group_84" data-name="Group 84" transform="translate(-311 -462)">
    <g transform="matrix(1, 0, 0, 1, 311, 462)" filter="url(#Rectangle_Copy_2)">
      <rect id="Rectangle_Copy_2-2" data-name="Rectangle Copy 2" width="49" height="31" rx="15.5" transform="translate(6 4)" fill="#00c3c3"/>
    </g>
    <g id="Group_60" data-name="Group 60" transform="translate(-754 -561.019)">
      <path id="Path_20" data-name="Path 20" d="M1085,1034.02v6h1.841v-2h9.2v-2h-9.2v-2Z" transform="translate(-1.148)" fill="#fff"/>
      <rect id="Rectangle_18" data-name="Rectangle 18" width="2" height="2" transform="translate(1084.044 1043.162)" fill="#fff"/>
      <rect id="Rectangle_19" data-name="Rectangle 19" width="2" height="2" transform="translate(1087.087 1043.162)" fill="#fff"/>
      <rect id="Rectangle_20" data-name="Rectangle 20" width="2" height="2" transform="translate(1090.13 1043.162)" fill="#fff"/>
      <rect id="Rectangle_21" data-name="Rectangle 21" width="2" height="2" transform="translate(1093.174 1043.162)" fill="#fff"/>
      <rect id="Rectangle_22" data-name="Rectangle 22" width="2" height="2" transform="translate(1084.044 1046.21)" fill="#fff"/>
      <rect id="Rectangle_23" data-name="Rectangle 23" width="2" height="2" transform="translate(1087.087 1046.21)" fill="#fff"/>
      <rect id="Rectangle_24" data-name="Rectangle 24" width="2" height="2" transform="translate(1090.13 1046.21)" fill="#fff"/>
      <rect id="Rectangle_25" data-name="Rectangle 25" width="2" height="2" transform="translate(1093.174 1046.21)" fill="#fff"/>
      <path id="Path_21" data-name="Path 21" d="M1098.217,1041.062v-5.478h-2.348v-1.565H1094.3v4.7h1.565v-1.565h.783v2.348h-14.087v-2.348h.783v-1.565H1081v16.435h17.217Zm-1.565,9.391h-14.087v-9.391h14.087Z" transform="translate(0)" fill="#fff"/>
    </g>
    <path id="Path_30" data-name="Path 30" d="M2015.272,1955.553h10.9l-5.488,8.492Z" transform="translate(-1667 -1477)" fill="#fff"/>
  </g>
</svg>
