<?xml version="1.0" encoding="UTF-8"?>
<svg width="31px" height="36px" viewBox="0 0 31 36" version="1.1" xmlns="http://www.w3.org/2000/svg" xmlns:xlink="http://www.w3.org/1999/xlink">
    <!-- Generator: Sketch 51.3 (57544) - http://www.bohemiancoding.com/sketch -->
    <title>`Icon/ help 1 Copy 10</title>
    <desc>Created with Sketch.</desc>
    <defs></defs>
    <g id="GI" stroke="none" stroke-width="1" fill="none" fill-rule="evenodd">
        <g id="[GI-4]ポイント購入" transform="translate(-104.000000, -140.000000)" fill="#FFFFFF">
            <g id="Group" transform="translate(93.000000, 90.000000)">
                <g id="Icon/mypage/-point" transform="translate(9.000000, 50.000000)">
                    <path d="M25.120768,22.9055447 C24.760251,22.7196387 24.3647124,22.6264371 23.9347205,22.6264371 C23.5275317,22.6264371 23.120698,22.6875296 22.7137224,22.8095726 C22.3066046,22.9316866 21.9345085,23.0741885 21.597434,23.2368651 L21.597434,27.5276207 C21.841662,27.5859427 22.085819,27.629631 22.3301181,27.6584013 C22.5742041,27.6875978 22.8241862,27.7020896 23.0799934,27.7020896 C23.3242214,27.7020896 23.5684494,27.6846143 23.8126064,27.6497347 C24.1497519,27.5916968 24.484127,27.507517 24.8155184,27.39684 C25.1469099,27.2864473 25.4404382,27.0976287 25.6963874,26.8299582 C25.9288942,26.5743641 26.1032211,26.2952565 26.219652,25.9927064 C26.3357279,25.6905115 26.3940499,25.3882456 26.3940499,25.0857665 C26.3940499,24.6440533 26.2863566,24.228411 26.0713961,23.8386265 C25.8560805,23.4491972 25.5393939,23.1382646 25.120768,22.9055447 M23.0964905,16.5000938 C28.5114334,16.5000938 32.9167711,20.8739531 32.9167003,26.2501875 C32.9167003,31.6262812 28.5113626,36 23.0964197,36 C18.9339934,36 15.368577,33.4155234 13.941419,29.7782578 C13.4718138,29.8007578 12.996118,29.8126406 12.5204223,29.8126406 C10.0248079,29.8126406 7.6683541,29.5079063 5.88518557,28.9546875 C3.2526059,28.1379375 2.7,27.0331172 2.7,26.2501875 L2.7,3.56252344 C2.7,2.77952344 3.2526059,1.67470312 5.88518557,0.857882812 C7.6683541,0.304734375 10.024737,0 12.5204223,0 C15.0161075,0 17.3725613,0.304734375 19.1557298,0.857882812 C21.788097,1.67470312 22.3407738,2.77952344 22.3407738,3.56252344 L22.3407738,16.5286406 C22.5902007,16.5097969 22.8423187,16.5000938 23.0964905,16.5000938 Z M23.0964905,34.5000234 C27.67824,34.5000234 31.4059043,30.799125 31.4060459,26.2500469 C31.4060459,21.7009687 27.6783816,17.9999297 23.0966321,17.9999297 C22.6174662,17.9999297 22.1477902,18.0409922 21.69072,18.1186875 C21.5849862,18.1364766 21.4800315,18.1567266 21.3758557,18.1783125 C21.3451908,18.1847812 21.3145967,18.1914609 21.2842151,18.1982109 C21.204543,18.2157187 21.1254374,18.2346328 21.0468275,18.25425 C20.97792,18.2717578 20.9092249,18.2899687 20.8410964,18.3090234 C20.829057,18.3123984 20.8171593,18.3159141 20.80512,18.3192891 C17.8593757,19.1594531 15.5790531,21.5770781 14.9562649,24.5880703 C14.9559816,24.5893359 14.9556275,24.5906016 14.9554151,24.5918672 C14.9336026,24.6968437 14.914623,24.8027344 14.8969889,24.9091875 C14.8899069,24.9529219 14.8826833,24.9966562 14.8762387,25.0406016 C14.8691567,25.0884844 14.8621456,25.1362969 14.8558426,25.1844609 C14.8444407,25.2734062 14.8342426,25.3628437 14.8256026,25.4527031 C14.8224866,25.4844141 14.8197246,25.5162656 14.8170334,25.5481172 C14.8085351,25.6492969 14.8013115,25.7509687 14.7964957,25.8531328 C14.7956459,25.871625 14.7951502,25.8903281 14.7943711,25.9088203 C14.7897679,26.0220937 14.7866518,26.1357891 14.7866518,26.2501875 C14.7866518,26.3456016 14.7888472,26.4407344 14.7921757,26.5357969 C14.7929548,26.5593516 14.7938046,26.5829062 14.7948669,26.6064609 C14.7989036,26.7003984 14.8040734,26.794125 14.811297,26.8875703 C14.8119344,26.8951641 14.8126426,26.9026172 14.81328,26.9102109 C14.8201495,26.9965547 14.8288603,27.0826875 14.838421,27.16875 C14.8413246,27.1945547 14.8442282,27.2203594 14.8473443,27.2461641 C14.8581089,27.3348984 14.8700066,27.4234922 14.8837456,27.5117344 C14.8870741,27.5334609 14.89104,27.5549766 14.894581,27.5766328 C14.9058413,27.6458906 14.9180931,27.7150781 14.9311948,27.7840547 C14.9374269,27.8166094 14.9435174,27.8491641 14.9501036,27.8815781 C14.9662505,27.9609609 14.9833889,28.0399922 15.0017311,28.1187422 C15.0107961,28.157625 15.0207108,28.1960156 15.0302715,28.2345469 C15.0419567,28.2812344 15.0540669,28.3279219 15.0665311,28.3744687 C15.0852275,28.4437969 15.104703,28.5127734 15.125099,28.5813984 C15.13728,28.6223203 15.1492485,28.6633828 15.1620669,28.7041641 C16.2168551,32.0584922 19.3748459,34.5000234 23.0964905,34.5000234 Z M20.4462661,22.0246757 C20.5740631,21.9143539 20.7193355,21.8590155 20.8823673,21.8590155 C20.9752847,21.8590155 21.0450439,21.8706657 21.0915737,21.893824 C21.5334289,21.6963389 21.9986556,21.5335912 22.4870407,21.40551 C22.9754257,21.2776419 23.4638107,21.2136368 23.9521247,21.2136368 C24.277549,21.2136368 24.5945198,21.245817 24.9027529,21.3095379 C25.2107018,21.3736851 25.5101973,21.4869194 25.8010262,21.649596 C26.1149423,21.8126278 26.399804,22.0219762 26.6556112,22.2775703 C26.9113473,22.5335196 27.1265919,22.8154687 27.3009898,23.1234887 C27.4753877,23.4317929 27.6119934,23.7601297 27.7109491,24.1089254 C27.8096206,24.4578632 27.859205,24.8066589 27.859205,25.1555257 C27.859205,25.8300298 27.6787689,26.4522501 27.3184651,27.0218314 C26.9347188,27.6148551 26.463809,28.0888195 25.9056649,28.4433692 C25.3475207,28.7982032 24.7078961,29.004497 23.9870753,29.062606 C23.847486,29.0742562 23.7049131,29.0829938 23.5597118,29.0887479 C23.4142263,29.0947151 23.2776206,29.0974145 23.1498946,29.0974145 C22.882153,29.0974145 22.6205918,29.0859774 22.3649266,29.062606 C22.1090484,29.0394476 21.8531702,29.0102511 21.597434,28.9753005 L21.597434,30.4754062 C21.597434,31.0334793 21.6031881,31.5335856 21.6148383,31.9753698 C21.6031881,32.2427562 21.5246913,32.443367 21.37949,32.5770602 C21.2339335,32.7106823 21.0741694,32.777742 20.8997715,32.777742 C20.7368108,32.777742 20.5858554,32.7167206 20.4462661,32.5946776 C20.3067478,32.4724925 20.2195844,32.2833898 20.1847048,32.0276537 L20.1847048,28.6265048 C20.1497542,28.6265048 20.1089074,28.6150677 20.0625908,28.5916252 C19.8881929,28.4987077 19.7600407,28.3883149 19.6788445,28.2602337 C19.5973641,28.1323657 19.5567304,28.0044976 19.5567304,27.8765585 C19.5567304,27.725532 19.6090853,27.5887132 19.713724,27.4665992 C19.8183627,27.3444852 19.9693181,27.2603053 20.1673005,27.2137045 L20.1673005,22.5392737 C20.2252674,22.3066958 20.3181849,22.1352816 20.4462661,22.0246757 Z M14.1453089,22.2399141 C14.1509036,22.22775 14.15664,22.2156562 14.1622348,22.2034219 C13.6224472,22.2331641 13.0741613,22.2501094 12.5204223,22.2501094 C11.3712315,22.2501094 10.2473233,22.1856328 9.17978754,22.0585781 C8.76556328,22.0092891 8.47003279,21.6359297 8.51967738,21.2246719 C8.56925115,20.8133437 8.94558689,20.5199297 9.35959869,20.5692891 C10.3677167,20.6892422 11.4311449,20.7501328 12.5203515,20.7501328 C13.3898046,20.7501328 14.2470767,20.7109687 15.0685849,20.6341875 C15.2428013,20.3888672 15.4284905,20.1507891 15.6260774,19.9210781 C16.3101246,19.1261953 17.113857,18.4514063 18.0005902,17.9163281 C16.4084223,18.2748516 14.5091095,18.4688438 12.5203515,18.4688438 C10.0246662,18.4688438 7.66821246,18.1641094 5.88511475,17.6109609 C5.19150689,17.3958047 4.64350426,17.1604688 4.21065443,16.9164844 L4.21065443,22.4689219 C4.21065443,22.6281094 4.60108328,23.2036875 6.33574033,23.7418594 C7.97691541,24.2510625 10.1733167,24.5314687 12.5203515,24.5314687 C12.8243095,24.5314687 13.1288341,24.5260547 13.4314466,24.5163516 C13.5552393,23.8345312 13.7511266,23.1773203 14.0101849,22.5522422 C14.0216577,22.5243984 14.0328472,22.4965547 14.0446033,22.4688516 C14.0516852,22.4519766 14.0591921,22.4353125 14.0664157,22.4185078 C14.0919108,22.359375 14.11776,22.3005937 14.1443174,22.2420234 C14.1446007,22.24125 14.1450256,22.2406875 14.1453089,22.2399141 Z M12.5204223,28.3126641 C12.8454138,28.3126641 13.1704052,28.3070391 13.4928472,28.2958594 C13.4888105,28.2773672 13.4854111,28.2587344 13.4816577,28.2403828 C13.4753548,28.2100781 13.4693351,28.1795625 13.4633154,28.1491172 C13.4535423,28.0997578 13.4436984,28.0504688 13.4346334,28.0010391 C13.4281889,27.96525 13.4220984,27.9293203 13.4160079,27.8934609 C13.4082177,27.84825 13.4004275,27.8031094 13.3932748,27.7578281 C13.386901,27.7173984 13.3812354,27.6766875 13.3754282,27.6361172 C13.3694793,27.5948438 13.363318,27.5534297 13.3579357,27.5119453 C13.3521285,27.4671563 13.3471003,27.4221563 13.3418597,27.3772266 C13.337398,27.3393281 13.3326531,27.3012891 13.3286164,27.2631797 C13.3235174,27.214875 13.3194807,27.1662891 13.3150898,27.1177734 C13.3119738,27.0826172 13.308362,27.0473906 13.3056,27.0120938 C13.3016341,26.9600625 13.298518,26.9076094 13.2952603,26.8553672 C13.2933482,26.8235156 13.2907987,26.7915234 13.2891698,26.7595313 C13.2861246,26.7015234 13.2842125,26.6430938 13.2822295,26.5847344 C13.281238,26.5582266 13.2798925,26.5317188 13.2791843,26.5053516 C13.2769889,26.4204844 13.2757849,26.3355469 13.2757849,26.2501875 C13.2757849,26.1738281 13.2767764,26.09775 13.2785469,26.0215313 C13.0262872,26.0279297 12.7731069,26.0314453 12.5203515,26.0314453 C10.024737,26.0314453 7.66821246,25.7267109 5.88511475,25.1734922 C5.19150689,24.9583359 4.64350426,24.723 4.21072525,24.4790156 L4.21072525,26.2501875 C4.21072525,26.409375 4.6011541,26.9848828 6.33581115,27.5230547 C7.97698623,28.0322578 10.1735292,28.3126641 12.5204223,28.3126641 Z M4.21065443,5.5726875 L4.21065443,11.1252656 C4.21065443,11.2844531 4.60108328,11.8599609 6.33574033,12.3981328 C7.97691541,12.9073359 10.1734584,13.1877422 12.5203515,13.1877422 C13.9079921,13.1877422 15.2891882,13.0852969 16.5147226,12.8915156 C16.9256892,12.8264766 17.3139226,13.1050547 17.3795725,13.5142031 C17.4452223,13.9232109 17.1644223,14.3076797 16.7523226,14.3727891 C15.4309692,14.5818281 14.0071397,14.6877891 12.5203515,14.6877891 C10.024737,14.6877891 7.66828328,14.383125 5.88511475,13.8299063 C5.19150689,13.61475 4.64350426,13.3794141 4.21072525,13.1354297 L4.21072525,14.9063906 C4.21072525,15.0656484 4.6011541,15.6412266 6.33581115,16.1793984 C7.97691541,16.6886016 10.1733875,16.9689375 12.5204223,16.9689375 C14.867457,16.9689375 17.0637875,16.6886016 18.7050334,16.1793984 C20.4395489,15.6411563 20.8299777,15.0656484 20.8299777,14.9063906 L20.8299777,9.35416406 C20.3971987,9.59814844 19.8492669,9.83341406 19.1557298,10.0485703 C17.3726321,10.6017188 15.0161784,10.9064531 12.5204931,10.9064531 C11.3713023,10.9064531 10.2473941,10.8419766 9.17985836,10.7149219 C8.7656341,10.6657031 8.47010361,10.2922734 8.5197482,9.88101563 C8.56932197,9.46975781 8.9456577,9.17592188 9.35966951,9.22563281 C10.3677875,9.34558594 11.4312157,9.40647656 12.5204223,9.40647656 C14.867457,9.40647656 17.0637167,9.12607031 18.7050334,8.6169375 C20.4395489,8.07869531 20.8299777,7.50311719 20.8299777,7.344 L20.8299777,5.5726875 C20.3971987,5.8168125 19.8492669,6.05207813 19.1557298,6.26723438 C17.3725613,6.8203125 15.0160367,7.12504688 12.5204223,7.12504688 C10.0248079,7.12504688 7.6683541,6.82038281 5.88518557,6.26716406 C5.1915777,6.05200781 4.64357508,5.81674219 4.21065443,5.5726875 Z M6.33581115,2.28958594 C4.6011541,2.82782813 4.21079607,3.40340625 4.21079607,3.56252344 C4.21079607,3.72178125 4.6011541,4.29728906 6.33581115,4.83546094 C7.97698623,5.34466406 10.1733875,5.62507031 12.5204223,5.62507031 C14.867457,5.62507031 17.0637875,5.34466406 18.7050334,4.83553125 C20.4395489,4.29728906 20.8299777,3.72178125 20.8299777,3.56252344 C20.8299777,3.40333594 20.4395489,2.82775781 18.7050334,2.28958594 C17.0637875,1.78038281 14.8673154,1.49997656 12.5204223,1.49997656 C10.1733875,1.49997656 7.97705705,1.78038281 6.33581115,2.28958594 Z M18.5777567,13.8894612 C18.2511248,13.8894612 17.9499245,13.676845 17.8516792,13.3477268 C17.7323356,12.9466472 17.9605801,12.5246826 18.3616597,12.405197 C18.4927955,12.3662682 18.6247127,12.3242138 18.7540726,12.2803125 C19.1505347,12.1459799 19.5807398,12.358312 19.7151433,12.754632 C19.8494759,13.1510231 19.6370728,13.5812992 19.2408238,13.7156317 C19.0936334,13.7655002 18.9433884,13.8133087 18.7944221,13.8577073 C18.7222477,13.8791608 18.6493629,13.8894612 18.5777567,13.8894612 Z" id="Combined-Shape"></path>
                </g>
            </g>
        </g>
    </g>
</svg>