<?xml version="1.0" encoding="utf-8"?>
<!-- Generator: Adobe Illustrator 22.1.0, SVG Export Plug-In . SVG Version: 6.00 Build 0)  -->
<svg version="1.1" id="レイヤー_1" xmlns="http://www.w3.org/2000/svg" xmlns:xlink="http://www.w3.org/1999/xlink" x="0px"
	 y="0px" viewBox="0 0 31 36" style="enable-background:new 0 0 31 36;" xml:space="preserve">
<style type="text/css">
	.st0{fill:#00C3C3;}
</style>
<title>`Icon/ help 1 Copy 10</title>
<desc>Created with Sketch.</desc>
<g id="GI">
	<g id="_x5B_GI-4_x5D_ポイント購入" transform="translate(-104.000000, -140.000000)">
		<g id="Group" transform="translate(93.000000, 90.000000)">
			<g id="Icon_x2F_mypage_x2F_-point" transform="translate(9.000000, 50.000000)">
				<path id="Combined-Shape" class="st0" d="M25.1,22.9c-0.4-0.2-0.8-0.3-1.2-0.3c-0.4,0-0.8,0.1-1.2,0.2c-0.4,0.1-0.8,0.3-1.1,0.4
					v4.3c0.2,0.1,0.5,0.1,0.7,0.1c0.2,0,0.5,0,0.7,0c0.2,0,0.5,0,0.7-0.1c0.3-0.1,0.7-0.1,1-0.3c0.3-0.1,0.6-0.3,0.9-0.6
					c0.2-0.3,0.4-0.5,0.5-0.8c0.1-0.3,0.2-0.6,0.2-0.9c0-0.4-0.1-0.9-0.3-1.2C25.9,23.4,25.5,23.1,25.1,22.9 M23.1,16.5
					c5.4,0,9.8,4.4,9.8,9.8c0,5.4-4.4,9.7-9.8,9.7c-4.2,0-7.7-2.6-9.2-6.2c-0.5,0-0.9,0-1.4,0c-2.5,0-4.9-0.3-6.6-0.9
					c-2.6-0.8-3.2-1.9-3.2-2.7V3.6c0-0.8,0.6-1.9,3.2-2.7C7.7,0.3,10,0,12.5,0s4.9,0.3,6.6,0.9c2.6,0.8,3.2,1.9,3.2,2.7v13
					C22.6,16.5,22.8,16.5,23.1,16.5z M23.1,34.5c4.6,0,8.3-3.7,8.3-8.2c0-4.5-3.7-8.3-8.3-8.3c-0.5,0-0.9,0-1.4,0.1
					c-0.1,0-0.2,0-0.3,0.1c0,0-0.1,0-0.1,0c-0.1,0-0.2,0-0.2,0.1c-0.1,0-0.1,0-0.2,0.1c0,0,0,0,0,0c-2.9,0.8-5.2,3.3-5.8,6.3
					c0,0,0,0,0,0c0,0.1,0,0.2-0.1,0.3c0,0,0,0.1,0,0.1c0,0,0,0.1,0,0.1c0,0.1,0,0.2,0,0.3c0,0,0,0.1,0,0.1c0,0.1,0,0.2,0,0.3
					c0,0,0,0,0,0.1c0,0.1,0,0.2,0,0.3c0,0.1,0,0.2,0,0.3c0,0,0,0,0,0.1c0,0.1,0,0.2,0,0.3c0,0,0,0,0,0c0,0.1,0,0.2,0,0.3
					c0,0,0,0.1,0,0.1c0,0.1,0,0.2,0,0.3c0,0,0,0,0,0.1c0,0.1,0,0.1,0,0.2c0,0,0,0.1,0,0.1c0,0.1,0,0.2,0.1,0.2c0,0,0,0.1,0,0.1
					c0,0,0,0.1,0,0.1c0,0.1,0,0.1,0.1,0.2c0,0,0,0.1,0,0.1C16.2,32.1,19.4,34.5,23.1,34.5z M20.4,22c0.1-0.1,0.3-0.2,0.4-0.2
					c0.1,0,0.2,0,0.2,0c0.4-0.2,0.9-0.4,1.4-0.5c0.5-0.1,1-0.2,1.5-0.2c0.3,0,0.6,0,1,0.1c0.3,0.1,0.6,0.2,0.9,0.3
					c0.3,0.2,0.6,0.4,0.9,0.6c0.3,0.3,0.5,0.5,0.6,0.8c0.2,0.3,0.3,0.6,0.4,1c0.1,0.3,0.1,0.7,0.1,1c0,0.7-0.2,1.3-0.5,1.9
					c-0.4,0.6-0.9,1.1-1.4,1.4c-0.6,0.4-1.2,0.6-1.9,0.6c-0.1,0-0.3,0-0.4,0c-0.1,0-0.3,0-0.4,0c-0.3,0-0.5,0-0.8,0
					c-0.3,0-0.5-0.1-0.8-0.1v1.5c0,0.6,0,1.1,0,1.5c0,0.3-0.1,0.5-0.2,0.6c-0.1,0.1-0.3,0.2-0.5,0.2c-0.2,0-0.3-0.1-0.5-0.2
					c-0.1-0.1-0.2-0.3-0.3-0.6v-3.4c0,0-0.1,0-0.1,0c-0.2-0.1-0.3-0.2-0.4-0.3c-0.1-0.1-0.1-0.3-0.1-0.4c0-0.2,0.1-0.3,0.2-0.4
					s0.3-0.2,0.5-0.3v-4.7C20.2,22.3,20.3,22.1,20.4,22z M14.1,22.2C14.2,22.2,14.2,22.2,14.1,22.2c-0.5,0-1.1,0-1.6,0
					c-1.1,0-2.3-0.1-3.3-0.2c-0.4,0-0.7-0.4-0.7-0.8c0-0.4,0.4-0.7,0.8-0.7c1,0.1,2.1,0.2,3.2,0.2c0.9,0,1.7,0,2.5-0.1
					c0.2-0.2,0.4-0.5,0.6-0.7c0.7-0.8,1.5-1.5,2.4-2c-1.6,0.4-3.5,0.6-5.5,0.6c-2.5,0-4.9-0.3-6.6-0.9c-0.7-0.2-1.2-0.5-1.7-0.7v5.6
					c0,0.2,0.4,0.7,2.1,1.3c1.6,0.5,3.8,0.8,6.2,0.8c0.3,0,0.6,0,0.9,0c0.1-0.7,0.3-1.3,0.6-2c0,0,0-0.1,0-0.1c0,0,0,0,0-0.1
					C14.1,22.4,14.1,22.3,14.1,22.2C14.1,22.2,14.1,22.2,14.1,22.2z M12.5,28.3c0.3,0,0.6,0,1,0c0,0,0,0,0-0.1c0,0,0-0.1,0-0.1
					c0,0,0-0.1,0-0.1c0,0,0-0.1,0-0.1c0,0,0-0.1,0-0.1c0,0,0-0.1,0-0.1c0,0,0-0.1,0-0.1c0,0,0-0.1,0-0.1c0,0,0-0.1,0-0.1
					c0,0,0-0.1,0-0.1c0,0,0-0.1,0-0.1c0-0.1,0-0.1,0-0.2c0,0,0-0.1,0-0.1c0-0.1,0-0.1,0-0.2c0,0,0-0.1,0-0.1c0-0.1,0-0.2,0-0.3
					c0-0.1,0-0.2,0-0.2c-0.3,0-0.5,0-0.8,0c-2.5,0-4.9-0.3-6.6-0.9c-0.7-0.2-1.2-0.5-1.7-0.7v1.8c0,0.2,0.4,0.7,2.1,1.3
					C8,28,10.2,28.3,12.5,28.3z M4.2,5.6v5.6c0,0.2,0.4,0.7,2.1,1.3c1.6,0.5,3.8,0.8,6.2,0.8c1.4,0,2.8-0.1,4-0.3
					c0.4-0.1,0.8,0.2,0.9,0.6c0.1,0.4-0.2,0.8-0.6,0.9c-1.3,0.2-2.7,0.3-4.2,0.3c-2.5,0-4.9-0.3-6.6-0.9c-0.7-0.2-1.2-0.5-1.7-0.7
					v1.8c0,0.2,0.4,0.7,2.1,1.3C8,16.7,10.2,17,12.5,17s4.5-0.3,6.2-0.8c1.7-0.5,2.1-1.1,2.1-1.3V9.4c-0.4,0.2-1,0.5-1.7,0.7
					c-1.8,0.6-4.1,0.9-6.6,0.9c-1.1,0-2.3-0.1-3.3-0.2c-0.4,0-0.7-0.4-0.7-0.8c0-0.4,0.4-0.7,0.8-0.7c1,0.1,2.1,0.2,3.2,0.2
					c2.3,0,4.5-0.3,6.2-0.8c1.7-0.5,2.1-1.1,2.1-1.3V5.6c-0.4,0.2-1,0.5-1.7,0.7c-1.8,0.6-4.1,0.9-6.6,0.9S7.7,6.8,5.9,6.3
					C5.2,6.1,4.6,5.8,4.2,5.6z M6.3,2.3C4.6,2.8,4.2,3.4,4.2,3.6c0,0.2,0.4,0.7,2.1,1.3c1.6,0.5,3.8,0.8,6.2,0.8s4.5-0.3,6.2-0.8
					c1.7-0.5,2.1-1.1,2.1-1.3c0-0.2-0.4-0.7-2.1-1.3c-1.6-0.5-3.8-0.8-6.2-0.8C10.2,1.5,8,1.8,6.3,2.3z M18.6,13.9
					c-0.3,0-0.6-0.2-0.7-0.5c-0.1-0.4,0.1-0.8,0.5-0.9c0.1,0,0.3-0.1,0.4-0.1c0.4-0.1,0.8,0.1,1,0.5c0.1,0.4-0.1,0.8-0.5,1
					c-0.1,0-0.3,0.1-0.4,0.1C18.7,13.9,18.6,13.9,18.6,13.9z"/>
			</g>
		</g>
	</g>
</g>
</svg>
